<svg width="19" height="18" viewBox="0 0 19 18" fill="none" xmlns="http://www.w3.org/2000/svg">
<path d="M12.8187 13.2697L6.74873 10.2347M6.74011 7.76965L12.8158 4.73179M18.0294 14.5C18.0294 16.0188 16.7982 17.25 15.2794 17.25C13.7606 17.25 12.5294 16.0188 12.5294 14.5C12.5294 12.9812 13.7606 11.75 15.2794 11.75C16.7982 11.75 18.0294 12.9812 18.0294 14.5ZM18.0294 3.5C18.0294 5.01878 16.7982 6.25 15.2794 6.25C13.7606 6.25 12.5294 5.01878 12.5294 3.5C12.5294 1.98122 13.7606 0.75 15.2794 0.75C16.7982 0.75 18.0294 1.98122 18.0294 3.5ZM7.02942 9C7.02942 10.5188 5.7982 11.75 4.27942 11.75C2.76064 11.75 1.52942 10.5188 1.52942 9C1.52942 7.48122 2.76064 6.25 4.27942 6.25C5.7982 6.25 7.02942 7.48122 7.02942 9Z" stroke="currentColor" strokeWidth="1.5"/>
</svg>
