<svg width="72" height="19" viewBox="0 0 72 19" fill="none" xmlns="http://www.w3.org/2000/svg">

<path d="M0.800049 18.1289H2.87505L3.90005 11.6539H13.35C17.925 11.6539 20.5501 9.35391 20.5501 5.47891C20.5501 2.25391 18.5751 0.503906 15 0.503906H3.60005L0.800049 18.1289ZM4.17505 9.82891L5.35005 2.32891H14.575C17.1 2.32891 18.5 3.42891 18.5 5.55391C18.5 8.22891 16.6 9.82891 13.3 9.82891H4.17505Z" fill="currentColor"/>
<path d="M37.3569 18.6289C38.5319 18.6289 39.5819 17.9789 40.4319 17.0539L39.5819 15.7539C39.0319 16.4039 38.3569 16.8789 37.7569 16.8789C37.1819 16.8789 36.9569 16.4789 36.8069 15.8539L35.9819 12.4539C35.7819 11.5789 35.4069 10.8289 34.6069 10.4789V10.4539C37.8069 10.0289 40.5069 7.90391 40.5069 4.95391C40.5069 2.15391 38.4569 0.503906 34.8819 0.503906H23.1069L20.3069 18.1289H22.3819L23.5569 10.8039H31.5819C32.8319 10.8039 33.6569 11.6039 33.9819 12.8789L34.8819 16.4539C35.1569 17.6539 35.8819 18.6289 37.3569 18.6289ZM23.8569 8.97891L24.8819 2.32891H34.5569C37.0319 2.32891 38.4069 3.35391 38.4069 5.05391C38.4069 7.30391 36.0319 8.97891 33.3819 8.97891H23.8569Z" fill="black"/>
<path d="M41.5227 18.1289H43.5977L46.3977 0.503906H44.3227L41.5227 18.1289Z" fill="black"/>
<path d="M53.7858 18.1289H56.0858L67.6858 0.503906H65.3358L55.2608 15.9039H55.2358L50.0108 0.503906H47.7608L53.7858 18.1289Z" fill="black"/>
<path d="M66.2297 18.1289H68.3047L71.1047 0.503906H69.0297L66.2297 18.1289Z" fill="black"/>
</svg>
