<svg width="30" height="30" viewBox="0 0 30 30" fill="none" xmlns="http://www.w3.org/2000/svg">
<path d="M12.3601 12.585C11.5051 12.585 10.8301 13.335 10.8301 14.25C10.8301 15.165 11.5201 15.915 12.3601 15.915C13.2151 15.915 13.8901 15.165 13.8901 14.25C13.9051 13.335 13.2151 12.585 12.3601 12.585ZM17.8351 12.585C16.9801 12.585 16.3051 13.335 16.3051 14.25C16.3051 15.165 16.9951 15.915 17.8351 15.915C18.6901 15.915 19.3651 15.165 19.3651 14.25C19.3651 13.335 18.6901 12.585 17.8351 12.585Z" fill="#181818"/>
<path d="M25.1252 0H5.0252C3.3302 0 1.9502 1.38 1.9502 3.09V23.37C1.9502 25.08 3.3302 26.46 5.0252 26.46H22.0352L21.2402 23.685L23.1602 25.47L24.9752 27.15L28.2002 30V3.09C28.2002 1.38 26.8202 0 25.1252 0ZM19.3352 19.59C19.3352 19.59 18.7952 18.945 18.3452 18.375C20.3102 17.82 21.0602 16.59 21.0602 16.59C20.4452 16.995 19.8602 17.28 19.3352 17.475C18.5852 17.79 17.8652 18 17.1602 18.12C15.7202 18.39 14.4002 18.315 13.2752 18.105C12.4202 17.94 11.6852 17.7 11.0702 17.46C10.7252 17.325 10.3502 17.16 9.9752 16.95C9.9302 16.92 9.8852 16.905 9.8402 16.875C9.8102 16.86 9.7952 16.845 9.7802 16.83C9.5102 16.68 9.3602 16.575 9.3602 16.575C9.3602 16.575 10.0802 17.775 11.9852 18.345C11.5352 18.915 10.9802 19.59 10.9802 19.59C7.66519 19.485 6.4052 17.31 6.4052 17.31C6.4052 12.48 8.5652 8.565 8.5652 8.565C10.7252 6.945 12.7802 6.99 12.7802 6.99L12.9302 7.17C10.2302 7.95 8.9852 9.135 8.9852 9.135C8.9852 9.135 9.3152 8.955 9.8702 8.7C11.4752 7.995 12.7502 7.8 13.2752 7.755C13.3652 7.74 13.4402 7.725 13.5302 7.725C14.4452 7.605 15.4802 7.575 16.5602 7.695C17.9852 7.86 19.5152 8.28 21.0752 9.135C21.0752 9.135 19.8902 8.01 17.3402 7.23L17.5502 6.99C17.5502 6.99 19.6052 6.945 21.7652 8.565C21.7652 8.565 23.9252 12.48 23.9252 17.31C23.9252 17.31 22.6502 19.485 19.3352 19.59Z" fill="#181818"/>
</svg>
