<svg width="25" height="25" viewBox="0 0 25 25" fill="none" xmlns="http://www.w3.org/2000/svg">
<path fillRule="evenodd" clipRule="evenodd" d="M24.4248 17.5808C24.4248 19.6566 23.7027 21.4616 22.4392 22.7252C21.1757 23.9887 19.3706 24.6205 17.3851 24.6205H7.54752C5.56196 24.6205 3.75691 23.9887 2.49337 22.7252C1.13958 21.4616 0.507812 19.6566 0.507812 17.5808V7.65299C0.507812 3.50137 3.30565 0.613281 7.54752 0.613281H17.4753C19.5511 0.613281 21.2659 1.3353 22.5295 2.59884C23.793 3.86238 24.4248 5.57718 24.4248 7.65299V17.5808ZM18.8282 7.56223C18.0159 7.56223 17.3842 6.93046 17.3842 6.11819C17.3842 5.30592 18.0159 4.67415 18.8282 4.67415C19.6405 4.67415 20.2722 5.30592 20.2722 6.11819C20.2722 6.93046 19.6405 7.56223 18.8282 7.56223ZM12.4207 18.6637C8.99107 18.6637 6.28349 15.8659 6.28349 12.5266C6.28349 9.09696 9.08132 6.38938 12.4207 6.38938C15.76 6.38938 18.6481 9.09696 18.6481 12.5266C18.6481 15.9562 15.8503 18.6637 12.4207 18.6637ZM12.4197 16.4985C14.6128 16.4985 16.3908 14.7206 16.3908 12.5274C16.3908 10.3342 14.6128 8.55628 12.4197 8.55628C10.2265 8.55628 8.44854 10.3342 8.44854 12.5274C8.44854 14.7206 10.2265 16.4985 12.4197 16.4985Z" fill="#181818"/>
</svg>
