<svg width="25" height="25" viewBox="0 0 25 25" fill="none" xmlns="http://www.w3.org/2000/svg">
<path d="M19.8655 0.391602H5.60193C2.78896 0.391602 0.507812 2.67275 0.507812 5.48572V19.7493C0.507812 22.5622 2.78896 24.8434 5.60193 24.8434H19.8655C22.6795 24.8434 24.9596 22.5622 24.9596 19.7493V5.48572C24.9596 2.67275 22.6795 0.391602 19.8655 0.391602ZM8.65841 19.7493H5.60193V8.5422H8.65841V19.7493ZM7.13017 7.25033C6.14599 7.25033 5.34723 6.44546 5.34723 5.45312C5.34723 4.46079 6.14599 3.65591 7.13017 3.65591C8.11436 3.65591 8.91311 4.46079 8.91311 5.45312C8.91311 6.44546 8.11537 7.25033 7.13017 7.25033ZM20.8843 19.7493H17.8278V14.0398C17.8278 10.6084 13.7525 10.8682 13.7525 14.0398V19.7493H10.6961V8.5422H13.7525V10.3404C15.1748 7.70574 20.8843 7.51115 20.8843 12.863V19.7493Z" fill="#181818"/>
</svg>
