<svg width="25" height="20" viewBox="0 0 25 20" fill="none" xmlns="http://www.w3.org/2000/svg">
<path fillRule="evenodd" clipRule="evenodd" d="M2.97881 3.887C3.00881 3.592 2.89581 3.301 2.67581 3.103L0.435813 0.403V0H7.39381L12.7718 11.795L17.4998 0H24.1328V0.403L22.2168 2.24C22.0518 2.366 21.9698 2.573 22.0038 2.778V16.276C21.9698 16.48 22.0518 16.687 22.2168 16.813L24.0878 18.65V19.053H14.6758V18.65L16.6148 16.768C16.8048 16.578 16.8048 16.522 16.8048 16.231V5.321L11.4158 19.009H10.6878L4.41281 5.321V14.495C4.36081 14.88 4.48881 15.269 4.75981 15.547L7.28081 18.605V19.009H0.132812V18.605L2.65381 15.547C2.92381 15.268 3.04381 14.877 2.97881 14.495V3.887Z" fill="black"/>
</svg>
