<svg width="32" height="27" viewBox="0 0 32 27" fill="none" xmlns="http://www.w3.org/2000/svg">
<path d="M11.7715 24.6599C10.839 24.6599 10.9975 24.3078 10.6759 23.4199L7.93408 14.3966L29.0396 1.87549" fill="#515152"/>
<path d="M11.7715 24.6598C12.491 24.6598 12.8088 24.3308 13.2105 23.9403L17.0479 20.2089L12.2612 17.3225" fill="#515152"/>
<path d="M12.2607 17.3234L23.8592 25.8924C25.1828 26.6227 26.1379 26.2445 26.4676 24.6638L31.1888 2.41587C31.6721 0.477997 30.4501 -0.401241 29.1838 0.173646L1.46116 10.8634C-0.431144 11.6224 -0.419872 12.6782 1.11628 13.1485L8.23053 15.3692L24.7008 4.97828C25.4783 4.50676 26.1921 4.76003 25.6064 5.27999" fill="#181818"/>
</svg>
