<svg width="21" height="24" viewBox="0 0 21 24" fill="none" xmlns="http://www.w3.org/2000/svg">
<path d="M20.1295 9.80609C19.941 9.82441 19.7518 9.834 19.5624 9.83486C18.5399 9.835 17.5335 9.58052 16.634 9.09438C15.7344 8.60824 14.9701 7.90575 14.41 7.05032V16.5324C14.41 17.9184 13.999 19.2734 13.2289 20.4259C12.4589 21.5784 11.3643 22.4766 10.0838 23.0071C8.80319 23.5375 7.39408 23.6763 6.03463 23.4059C4.67518 23.1355 3.42644 22.468 2.44633 21.4879C1.46622 20.5078 0.798752 19.259 0.52834 17.8996C0.257928 16.5401 0.396713 15.131 0.927145 13.8504C1.45758 12.5699 2.35583 11.4753 3.50832 10.7053C4.66081 9.93521 6.01577 9.52419 7.40186 9.52419C7.54815 9.52419 7.69116 9.53733 7.83499 9.54638V12.9999C7.69116 12.9827 7.5498 12.9564 7.40186 12.9564C6.45323 12.9564 5.54344 13.3332 4.87266 14.004C4.20187 14.6748 3.82503 15.5846 3.82503 16.5332C3.82503 17.4818 4.20187 18.3916 4.87266 19.0624C5.54344 19.7332 6.45323 20.11 7.40186 20.11C9.37766 20.11 11.1225 18.5534 11.1225 16.5776L11.157 0.473633H14.461C14.6119 1.9092 15.2627 3.24603 16.2995 4.25038C17.3363 5.25472 18.6931 5.86266 20.1328 5.96791V9.80609" fill="black"/>
</svg>
