<svg width="44" height="44" viewBox="0 0 44 44" fill="none" xmlns="http://www.w3.org/2000/svg">
<path d="M22.8095 16.9277L22.8705 17.8649L21.8529 17.7501C18.1489 17.3102 14.9129 15.8185 12.1654 13.313L10.8221 12.0699L10.4762 12.9879C9.74349 15.0343 10.2116 17.1955 11.738 18.649C12.5521 19.4523 12.3689 19.567 10.9646 19.0889C10.4762 18.9359 10.0488 18.8212 10.0081 18.8785C9.86561 19.0124 10.3541 20.7528 10.7407 21.4413C11.2699 22.3976 12.3485 23.3347 13.529 23.8894L14.5262 24.3293L13.3458 24.3484C12.2061 24.3484 12.1654 24.3675 12.2875 24.7691C12.6945 26.0123 14.3023 27.332 16.0933 27.9057L17.3551 28.3073L16.2561 28.9194C14.628 29.7991 12.7149 30.2964 10.8018 30.3346C9.88596 30.3538 9.13293 30.4303 9.13293 30.4876C9.13293 30.6789 11.6159 31.7499 13.0609 32.1707C17.3958 33.4138 22.5449 32.8783 26.4118 30.7554C29.1593 29.2445 31.9068 26.2418 33.189 23.3347C33.8809 21.7856 34.5729 18.955 34.5729 17.5971C34.5729 16.7174 34.634 16.6026 35.7737 15.5507C36.4453 14.9387 37.0762 14.2693 37.1983 14.0781C37.4018 13.7147 37.3815 13.7147 36.3435 14.0398C34.6136 14.6136 34.3694 14.5371 35.2242 13.6764C35.8551 13.0644 36.6081 11.9551 36.6081 11.63C36.6081 11.5726 36.3028 11.6683 35.9568 11.8404C35.5905 12.0316 34.7764 12.3185 34.1659 12.4906L33.0669 12.8158L32.0696 12.1846C31.5201 11.8404 30.7467 11.4579 30.3397 11.3431C29.3017 11.0754 27.7143 11.1136 26.7781 11.4196C24.2341 12.2803 22.6263 14.4988 22.8095 16.9277Z" fill="#181818"/>
</svg>
