<svg width="10" height="12" viewBox="0 0 10 12" fill="none" xmlns="http://www.w3.org/2000/svg">
<path d="M5.48787 0.753164C5.47235 0.739087 5.45769 0.726574 5.44218 0.715624C5.43442 0.709368 5.4258 0.703893 5.41718 0.697637C5.41287 0.694508 5.40942 0.692161 5.40425 0.689033C5.28011 0.604566 5.1258 0.554513 4.95856 0.554513C4.79132 0.554513 4.63787 0.604566 4.51287 0.689033C4.5077 0.692943 4.50166 0.696072 4.49649 0.700764C4.48959 0.705457 4.4827 0.71015 4.4758 0.715624C4.46028 0.727355 4.4439 0.739866 4.42839 0.754727L1.09483 3.77757C0.801725 4.04347 0.801725 4.47441 1.09483 4.74032C1.38793 5.00622 1.86295 5.00622 2.15605 4.74032L4.20866 2.87816L4.20866 10.765C4.20866 11.1412 4.54487 11.4454 4.95867 11.4454C5.37332 11.4454 5.70867 11.1412 5.70867 10.765L5.70867 2.87896L7.76128 4.74112C8.05438 5.00702 8.5294 5.00702 8.82337 4.74112C9.11647 4.47521 9.11647 4.04427 8.82337 3.77837L5.49047 0.754727L5.48787 0.753164Z" fill="#00D13B" stroke="#00D13B" stroke-width="0.680683"/>
</svg>
