<?xml version="1.0" encoding="utf-8"?>
<svg width="10" height="12" viewBox="0 0 10 12" fill="none" xmlns="http://www.w3.org/2000/svg">
  <path d="M 5.488 0.753 C 5.472 0.739 5.458 0.727 5.442 0.716 C 5.434 0.709 5.426 0.704 5.417 0.698 C 5.413 0.695 5.409 0.692 5.404 0.689 C 5.28 0.605 5.126 0.555 4.959 0.555 C 4.791 0.555 4.638 0.605 4.513 0.689 C 4.508 0.693 4.502 0.696 4.496 0.701 C 4.49 0.705 4.483 0.71 4.476 0.716 C 4.46 0.727 4.444 0.74 4.428 0.755 L 1.095 3.778 C 0.802 4.043 0.802 4.474 1.095 4.74 C 1.388 5.006 1.863 5.006 2.156 4.74 L 4.209 2.878 L 4.209 10.765 C 4.209 11.141 4.545 11.445 4.959 11.445 C 5.373 11.445 5.709 11.141 5.709 10.765 L 5.709 2.879 L 7.761 4.741 C 8.054 5.007 8.529 5.007 8.823 4.741 C 9.116 4.475 9.116 4.044 8.823 3.778 L 5.49 0.755 L 5.488 0.753 Z" fill="#FF1F00" stroke="#FF1F00" stroke-width="0.680683" transform="matrix(-1, 0, 0, -1, 9.918, 11.999999)"/>
</svg>