<?xml version="1.0" encoding="utf-8"?>
<!-- Generator: Adobe Illustrator 23.0.3, SVG Export Plug-In . SVG Version: 6.00 Build 0)  -->
<svg version="1.1" id="Icons" xmlns="http://www.w3.org/2000/svg" xmlns:xlink="http://www.w3.org/1999/xlink" x="0px" y="0px"
	 viewBox="0 0 32 32" style="enable-background:new 0 0 32 32;" xml:space="preserve">
<path d="M29.6,5.2C29.3,5,29,4.9,28.7,5.1c-4.3,1.4-8.7,0.3-12-2.8c-0.4-0.4-1-0.4-1.4,0c-3.3,3.1-7.7,4.2-12,2.8
	C3,4.9,2.7,5,2.4,5.2C2.2,5.4,2,5.7,2,6c0,15.7,6.9,20.9,13.6,23.9C15.7,30,15.9,30,16,30s0.3,0,0.4-0.1C23.1,26.9,30,21.7,30,6
	C30,5.7,29.8,5.4,29.6,5.2z M22.7,14.8l-3.2,2.3l1.2,3.8c0.1,0.4,0,0.9-0.4,1.1c-0.2,0.1-0.4,0.2-0.6,0.2s-0.4-0.1-0.6-0.2L16,19.7
	L12.8,22c-0.4,0.3-0.8,0.3-1.2,0c-0.4-0.3-0.5-0.7-0.4-1.1l1.2-3.8l-3.2-2.3c-0.4-0.3-0.5-0.7-0.4-1.1s0.5-0.7,1-0.7h4L15,9.2
	c0.1-0.4,0.5-0.7,1-0.7s0.8,0.3,1,0.7l1.2,3.8h4c0.4,0,0.8,0.3,1,0.7S23.1,14.6,22.7,14.8z"/>
</svg>
