<svg width="40" height="40" viewBox="0 0 40 40" fill="none" xmlns="http://www.w3.org/2000/svg">
<path d="M24.25 21.6666C24.25 24.0138 22.3472 25.9166 20 25.9166V27.4166C23.1756 27.4166 25.75 24.8422 25.75 21.6666H24.25ZM20 25.9166C17.6528 25.9166 15.75 24.0138 15.75 21.6666H14.25C14.25 24.8422 16.8244 27.4166 20 27.4166V25.9166ZM15.75 21.6666C15.75 19.3194 17.6528 17.4166 20 17.4166V15.9166C16.8244 15.9166 14.25 18.4909 14.25 21.6666H15.75ZM20 17.4166C22.3472 17.4166 24.25 19.3194 24.25 21.6666H25.75C25.75 18.4909 23.1756 15.9166 20 15.9166V17.4166ZM34.25 14.9999V28.3333H35.75V14.9999H34.25ZM31.6667 30.9166H8.33333V32.4166H31.6667V30.9166ZM5.75 28.3333V14.9999H4.25V28.3333H5.75ZM8.33333 12.4166H12.5V10.9166H8.33333V12.4166ZM27.5 12.4166H31.6667V10.9166H27.5V12.4166ZM15.8333 9.08325H24.1667V7.58325H15.8333V9.08325ZM25.0833 9.99992C25.0833 11.3346 26.1653 12.4166 27.5 12.4166V10.9166C26.9937 10.9166 26.5833 10.5062 26.5833 9.99992H25.0833ZM12.5 12.4166C13.8347 12.4166 14.9167 11.3346 14.9167 9.99992H13.4167C13.4167 10.5062 13.0063 10.9166 12.5 10.9166V12.4166ZM26.5833 9.99992C26.5833 8.66523 25.5014 7.58325 24.1667 7.58325V9.08325C24.6729 9.08325 25.0833 9.49366 25.0833 9.99992H26.5833ZM14.9167 9.99992C14.9167 9.49366 15.3271 9.08325 15.8333 9.08325V7.58325C14.4986 7.58325 13.4167 8.66523 13.4167 9.99992H14.9167ZM8.33333 30.9166C6.9066 30.9166 5.75 29.76 5.75 28.3333H4.25C4.25 30.5884 6.07817 32.4166 8.33333 32.4166V30.9166ZM34.25 28.3333C34.25 29.76 33.0934 30.9166 31.6667 30.9166V32.4166C33.9218 32.4166 35.75 30.5884 35.75 28.3333H34.25ZM35.75 14.9999C35.75 12.7448 33.9218 10.9166 31.6667 10.9166V12.4166C33.0934 12.4166 34.25 13.5732 34.25 14.9999H35.75ZM5.75 14.9999C5.75 13.5732 6.9066 12.4166 8.33333 12.4166V10.9166C6.07817 10.9166 4.25 12.7448 4.25 14.9999H5.75Z" fill="#431AB7"/>
</svg>
