<svg width="22" height="21" viewBox="0 0 22 21" fill="none" xmlns="http://www.w3.org/2000/svg">
<path d="M16.6909 8.17602C16.9888 7.88817 16.9969 7.41336 16.709 7.11551C16.4212 6.81767 15.9464 6.80956 15.6485 7.09742L16.6909 8.17602ZM8.92663 14.6367L8.40543 15.176C8.69611 15.457 9.15715 15.457 9.44783 15.176L8.92663 14.6367ZM6.34362 11.0974C6.04577 10.8096 5.57097 10.8177 5.28312 11.1155C4.99526 11.4134 5.00337 11.8882 5.30122 12.176L6.34362 11.0974ZM15.6485 7.09742L8.40543 14.0974L9.44783 15.176L16.6909 8.17602L15.6485 7.09742ZM5.30122 12.176L8.40543 15.176L9.44783 14.0974L6.34362 11.0974L5.30122 12.176ZM19.5586 10.6367C19.5586 15.1691 15.7494 18.8867 10.9961 18.8867V20.3867C16.5291 20.3867 21.0586 16.0454 21.0586 10.6367H19.5586ZM10.9961 18.8867C6.24282 18.8867 2.43359 15.1691 2.43359 10.6367H0.933594C0.933594 16.0454 5.46306 20.3867 10.9961 20.3867V18.8867ZM2.43359 10.6367C2.43359 6.10429 6.24282 2.38672 10.9961 2.38672V0.886719C5.46306 0.886719 0.933594 5.22802 0.933594 10.6367H2.43359ZM10.9961 2.38672C15.7494 2.38672 19.5586 6.10429 19.5586 10.6367H21.0586C21.0586 5.22802 16.5291 0.886719 10.9961 0.886719V2.38672Z" fill="#65CB63"/>
</svg>
