<svg width="23" height="24" viewBox="0 0 23 24" fill="none" xmlns="http://www.w3.org/2000/svg">
<path d="M13.4509 2.5164C13.4509 3.51246 12.6441 4.31923 11.6481 4.31923C10.652 4.31923 9.84521 3.51246 9.84521 2.5164C9.84521 1.52033 10.652 0.713562 11.6481 0.713562C12.6441 0.713562 13.4509 1.52033 13.4509 2.5164Z" fill="#A5AFC6"/>
<path d="M5.17586 7.29394C5.17586 8.29001 4.36909 9.09678 3.37303 9.09678C2.37696 9.09678 1.57019 8.29001 1.57019 7.29394C1.57019 6.29787 2.37696 5.4911 3.37303 5.4911C4.36909 5.4911 5.17586 6.29787 5.17586 7.29394Z" fill="#A5AFC6"/>
<path d="M5.17586 16.8489C5.17586 17.845 4.36909 18.6518 3.37303 18.6518C2.37696 18.6518 1.57019 17.845 1.57019 16.8489C1.57019 15.8529 2.37696 15.0461 3.37303 15.0461C4.36909 15.0461 5.17586 15.8529 5.17586 16.8489Z" fill="#A5AFC6"/>
<path d="M13.4509 21.6264C13.4509 22.6225 12.6441 23.4292 11.6481 23.4292C10.652 23.4292 9.84521 22.6225 9.84521 21.6264C9.84521 20.6303 10.652 19.8236 11.6481 19.8236C12.6441 19.8236 13.4509 20.6303 13.4509 21.6264Z" fill="#A5AFC6"/>
<path d="M21.7259 16.8489C21.7259 17.845 20.9191 18.6518 19.9231 18.6518C18.927 18.6518 18.1202 17.845 18.1202 16.8489C18.1202 15.8529 18.927 15.0461 19.9231 15.0461C20.9191 15.0461 21.7259 15.8529 21.7259 16.8489Z" fill="#A5AFC6"/>
<path d="M21.7259 7.29394C21.7259 8.29001 20.9191 9.09678 19.9231 9.09678C18.927 9.09678 18.1202 8.29001 18.1202 7.29394C18.1202 6.29787 18.927 5.4911 19.9231 5.4911C20.9191 5.4911 21.7259 6.29787 21.7259 7.29394Z" fill="#A5AFC6"/>
<path d="M10.7003 6.2278C11.3191 5.87054 12.0815 5.87054 12.7003 6.2278L16.2611 8.28365C16.8799 8.64091 17.2611 9.30117 17.2611 10.0157V14.1274C17.2611 14.8419 16.8799 15.5022 16.2611 15.8594L12.7003 17.9153C12.0815 18.2726 11.3191 18.2726 10.7003 17.9153L7.13944 15.8594C6.52064 15.5022 6.13944 14.8419 6.13944 14.1274V10.0157C6.13944 9.30117 6.52064 8.64091 7.13944 8.28365L10.7003 6.2278Z" fill="#A5AFC6"/>
</svg>
