<svg width="28" height="29" viewBox="0 0 28 29" fill="none" xmlns="http://www.w3.org/2000/svg">
<path d="M18.0303 11.5303C18.3231 11.2374 18.3231 10.7626 18.0303 10.4697C17.7374 10.1768 17.2625 10.1768 16.9696 10.4697L18.0303 11.5303ZM9.9696 17.4697C9.67671 17.7626 9.67671 18.2374 9.9696 18.5303C10.2625 18.8232 10.7374 18.8232 11.0303 18.5303L9.9696 17.4697ZM11.0304 10.4697C10.7375 10.1768 10.2626 10.1768 9.96975 10.4697C9.67685 10.7626 9.67685 11.2374 9.96975 11.5303L11.0304 10.4697ZM16.9697 18.5303C17.2626 18.8232 17.7375 18.8232 18.0304 18.5303C18.3233 18.2374 18.3233 17.7626 18.0304 17.4697L16.9697 18.5303ZM16.9696 10.4697L9.9696 17.4697L11.0303 18.5303L18.0303 11.5303L16.9696 10.4697ZM9.96975 11.5303L16.9697 18.5303L18.0304 17.4697L11.0304 10.4697L9.96975 11.5303ZM23.75 14.5C23.75 19.8848 19.3848 24.25 14 24.25V25.75C20.2132 25.75 25.25 20.7132 25.25 14.5H23.75ZM14 24.25C8.61522 24.25 4.25 19.8848 4.25 14.5H2.75C2.75 20.7132 7.7868 25.75 14 25.75V24.25ZM4.25 14.5C4.25 9.11522 8.61522 4.75 14 4.75V3.25C7.7868 3.25 2.75 8.2868 2.75 14.5H4.25ZM14 4.75C19.3848 4.75 23.75 9.11522 23.75 14.5H25.25C25.25 8.2868 20.2132 3.25 14 3.25V4.75Z" fill="#181818"/>
</svg>
