<svg width="48" height="48" viewBox="0 0 48 48" fill="none" xmlns="http://www.w3.org/2000/svg">
<path d="M20.1253 0.608887C19.7506 0.608887 19.4468 0.912687 19.4468 1.28744V11.6182C19.4468 11.9205 19.0813 12.0718 18.8676 11.8581L11.3155 4.30598C11.0505 4.04099 10.6208 4.04099 10.3559 4.30598L4.91934 9.7425C4.65435 10.0075 4.65435 10.4371 4.91934 10.7021L13.0337 18.8165C13.2475 19.0303 13.0961 19.3957 12.7938 19.3957H1.33871C0.963956 19.3957 0.660156 19.6995 0.660156 20.0743V27.7626C0.660156 28.1374 0.963957 28.4412 1.33871 28.4412H12.0976C12.3999 28.4412 12.5513 28.8067 12.3375 29.0204L4.48496 36.873C4.21996 37.138 4.21997 37.5676 4.48496 37.8326L9.92147 43.2691C10.1865 43.5341 10.6161 43.5341 10.8811 43.2691L18.8676 35.2826C19.0813 35.0689 19.4468 35.2202 19.4468 35.5225V46.5495C19.4468 46.9242 19.7506 47.228 20.1253 47.228H27.8137C28.1885 47.228 28.4923 46.9242 28.4923 46.5495V35.0942C28.4923 34.7919 28.8577 34.6405 29.0715 34.8542L36.9244 42.7072C37.1894 42.9722 37.6191 42.9722 37.884 42.7072L43.3206 37.2707C43.5856 37.0057 43.5856 36.5761 43.3206 36.3111L36.0299 29.0204C35.8162 28.8067 35.9675 28.4412 36.2698 28.4412H46.6007C46.9755 28.4412 47.2793 28.1374 47.2793 27.7626V20.0743C47.2793 19.6995 46.9755 19.3957 46.6007 19.3957H35.5736C35.2713 19.3957 35.1199 19.0303 35.3337 18.8165L42.8862 11.264C43.1512 10.999 43.1512 10.5694 42.8862 10.3044L37.4497 4.86788C37.1847 4.60288 36.755 4.60288 36.49 4.86788L29.0715 12.2864C28.8577 12.5002 28.4923 12.3488 28.4923 12.0465V1.28744C28.4923 0.912687 28.1885 0.608887 27.8137 0.608887H20.1253Z" fill="#181818"/>
</svg>
