<svg width="15" height="14" viewBox="0 0 15 14" fill="none" xmlns="http://www.w3.org/2000/svg">
<path d="M8.06358 0.411054C4.53881 0.411054 1.6583 3.29169 1.6583 6.81634C1.6583 8.07349 2.02585 9.2995 2.69991 10.3099C2.20902 11.5969 0.676507 12.8229 0.646592 12.8541C0.524469 12.9463 0.462213 13.0995 0.52447 13.2528C0.555598 13.406 0.70885 13.4982 0.862113 13.5281C0.923175 13.5281 1.38292 13.5892 2.02707 13.5892C3.09983 13.5892 4.66348 13.4671 5.67383 12.7308C6.44009 13.0373 7.23749 13.1905 8.09471 13.1905C11.6195 13.1905 14.5 10.3099 14.5 6.78522C14.4689 3.29263 11.5882 0.410889 8.06345 0.410889L8.06358 0.411054ZM10.9131 5.95936L7.97019 8.90228C7.81694 9.05553 7.5715 9.14772 7.35719 9.14772C7.14288 9.14772 6.92858 9.05553 6.74418 8.90228L5.21167 7.36976C4.87403 7.03212 4.87403 6.4814 5.21167 6.14375C5.54931 5.80611 6.10004 5.80611 6.43768 6.14375L7.35719 7.06326L9.6871 4.73335C10.0247 4.39571 10.5755 4.39571 10.9131 4.73335C11.2508 5.0698 11.2508 5.62172 10.9131 5.95936Z" fill="white"/>
</svg>
