<svg width="23" height="23" viewBox="0 0 23 23" fill="none" xmlns="http://www.w3.org/2000/svg">
<path fillRule="evenodd" clipRule="evenodd" d="M11.6484 22.0714C17.7236 22.0714 22.6484 17.1465 22.6484 11.0714C22.6484 4.99628 17.7236 0.0714111 11.6484 0.0714111C5.57331 0.0714111 0.648438 4.99628 0.648438 11.0714C0.648438 17.1465 5.57331 22.0714 11.6484 22.0714ZM13.8952 12.6001L16.9293 6.87939C17.3228 6.18466 16.5358 5.39766 15.8411 5.79116L10.1213 8.8253C9.82009 8.98815 9.56499 9.24233 9.40306 9.54357L6.36892 15.2633C5.97542 15.9581 6.76241 16.7225 7.45715 16.3516L13.1769 13.3184C13.4782 13.1555 13.7333 12.9013 13.8952 12.6001Z" fill="#A5AFC6"/>
</svg>
