<svg width="20" height="16" viewBox="0 0 20 16" fill="none" xmlns="http://www.w3.org/2000/svg">
<path d="M18.1249 4.56213H9.37538C8.31244 4.56213 7.50031 5.37427 7.50031 6.43721V11.4378C7.50031 12.4374 8.31244 13.3129 9.37538 13.3129H15.6252L18.1249 15.8126V13.3129C19.1879 13.3129 20 12.4374 20 11.4378V6.43721C20 5.37544 19.1879 4.56213 18.1249 4.56213Z" fill="white"/>
<path d="M10.6246 0.187378H1.87507C0.812132 0.187378 0 0.99951 0 2.06245V7.06305C0 8.06269 0.812132 8.93813 1.87507 8.93813V11.4378L4.37477 8.93813H6.24985V6.43843C6.24985 4.68876 7.6245 3.3129 9.37537 3.3129H12.5009V2.06245C12.4997 0.99951 11.6876 0.187378 10.6247 0.187378H10.6246Z" fill="white"/>
</svg>
