<svg width="19" height="20" viewBox="0 0 19 20" fill="none" xmlns="http://www.w3.org/2000/svg">
<path d="M0.790527 14.416L0.260197 13.8857L0.0405273 14.1054V14.416H0.790527ZM13.7905 1.41602L14.3209 0.885686C14.028 0.592792 13.5531 0.592792 13.2602 0.885686L13.7905 1.41602ZM17.7905 5.41602L18.3209 5.94635C18.6138 5.65345 18.6138 5.17858 18.3209 4.88569L17.7905 5.41602ZM4.79053 18.416V19.166H5.10119L5.32086 18.9463L4.79053 18.416ZM0.790527 18.416H0.0405273C0.0405273 18.8302 0.376314 19.166 0.790527 19.166L0.790527 18.416ZM1.32086 14.9463L14.3209 1.94635L13.2602 0.885686L0.260197 13.8857L1.32086 14.9463ZM13.2602 1.94635L17.2602 5.94635L18.3209 4.88569L14.3209 0.885686L13.2602 1.94635ZM17.2602 4.88569L4.2602 17.8857L5.32086 18.9463L18.3209 5.94635L17.2602 4.88569ZM4.79053 17.666H0.790527V19.166H4.79053V17.666ZM1.54053 18.416V14.416H0.0405273V18.416H1.54053ZM10.2602 4.94635L14.2602 8.94635L15.3209 7.88569L11.3209 3.88569L10.2602 4.94635Z" fill="url(#paint0_linear)"/>
<defs>
<linearGradient id="paint0_linear" x1="2.75207" y1="7.64935" x2="16.2633" y2="9.40322" gradientUnits="userSpaceOnUse">
<stop stop-color="#23D0C6"/>
<stop offset="1" stop-color="#00CC8F"/>
</linearGradient>
</defs>
</svg>
