<svg width="16" height="16" viewBox="0 0 16 16" fill="none" xmlns="http://www.w3.org/2000/svg">
<path d="M10.9053 5.90338C11.1982 5.61048 11.1982 5.13561 10.9053 4.84272C10.6124 4.54982 10.1375 4.54982 9.84462 4.84272L10.9053 5.90338ZM5.34463 9.34271C5.05173 9.6356 5.05173 10.1105 5.34463 10.4034C5.63752 10.6963 6.11239 10.6963 6.40529 10.4034L5.34463 9.34271ZM6.40538 4.84272C6.11249 4.54982 5.63761 4.54982 5.34472 4.84272C5.05183 5.13561 5.05183 5.61048 5.34472 5.90338L6.40538 4.84272ZM9.84471 10.4034C10.1376 10.6963 10.6125 10.6963 10.9054 10.4034C11.1983 10.1105 11.1983 9.6356 10.9054 9.34271L9.84471 10.4034ZM9.84462 4.84272L5.34463 9.34271L6.40529 10.4034L10.9053 5.90338L9.84462 4.84272ZM5.34472 5.90338L9.84471 10.4034L10.9054 9.34271L6.40538 4.84272L5.34472 5.90338ZM14.125 7.62305C14.125 10.9368 11.4387 13.623 8.125 13.623V15.123C12.2671 15.123 15.625 11.7652 15.625 7.62305H14.125ZM8.125 13.623C4.81129 13.623 2.125 10.9368 2.125 7.62305H0.625C0.625 11.7652 3.98286 15.123 8.125 15.123V13.623ZM2.125 7.62305C2.125 4.30934 4.81129 1.62305 8.125 1.62305V0.123047C3.98286 0.123047 0.625 3.48091 0.625 7.62305H2.125ZM8.125 1.62305C11.4387 1.62305 14.125 4.30934 14.125 7.62305H15.625C15.625 3.48091 12.2671 0.123047 8.125 0.123047V1.62305Z" fill="#F43E5F"/>
</svg>
