<svg width="23" height="23" viewBox="0 0 23 23" fill="none" xmlns="http://www.w3.org/2000/svg">
<path d="M20.6217 11.8517C21.1724 11.8942 21.5894 12.3765 21.4921 12.9202C21.2045 14.5279 20.5263 16.0461 19.5109 17.3381C18.2887 18.8932 16.6329 20.0509 14.7528 20.6649C12.8727 21.2789 10.8528 21.3216 8.94843 20.7875C7.3661 20.3438 5.92263 19.5185 4.74156 18.3905C4.34217 18.009 4.39411 17.3735 4.81353 17.0142L11.3339 11.4284C11.5353 11.2559 11.797 11.1704 12.0614 11.1908L20.6217 11.8517Z" fill="#A6AFC6"/>
<path d="M3.62616 16.0418C3.19524 16.3872 2.56113 16.3203 2.26044 15.857C1.41794 14.559 0.885606 13.079 0.711322 11.5323C0.499594 9.65326 0.824968 7.7527 1.6497 6.0511C2.47442 4.3495 3.7647 2.91661 5.37084 1.91866C6.69295 1.09718 8.18448 0.598132 9.72533 0.45529C10.2753 0.404309 10.7207 0.860586 10.7165 1.41285L10.652 9.93723C10.6498 10.238 10.5122 10.5218 10.2775 10.7099L3.62616 16.0418Z" fill="#A6AFC6"/>
<path d="M12.2165 1.41546C12.2305 0.86335 12.6906 0.421908 13.2385 0.490869C15.4829 0.773321 17.5764 1.81066 19.1656 3.44801C20.7547 5.08536 21.729 7.20897 21.9442 9.46076C21.9968 10.0105 21.5418 10.4573 20.9895 10.4547L13.0103 10.4174C12.45 10.4148 12.0012 9.95231 12.0153 9.39217L12.2165 1.41546Z" fill="#A6AFC6"/>
</svg>
