<svg width="42" height="80" viewBox="0 0 42 80" fill="none" xmlns="http://www.w3.org/2000/svg">
<path d="M33.8014 21.2355C38.2907 21.2355 42.0723 25.0092 40.3543 29.1568C39.3141 31.6682 37.7894 33.95 35.8673 35.8721C33.9451 37.7943 31.6633 39.319 29.1519 40.3592C26.6405 41.3994 23.9489 41.9348 21.2306 41.9348C18.5123 41.9348 15.8207 41.3994 13.3093 40.3592C10.7979 39.319 8.51606 37.7943 6.59395 35.8721C4.67184 33.95 3.14713 31.6681 2.10689 29.1568C0.38892 25.0092 4.17053 21.2355 8.65982 21.2355L21.2306 21.2355H33.8014Z" fill="#181818"/>
<path d="M33.8014 40.0094C38.2907 40.0094 42.0723 43.7832 40.3543 47.9307C39.3141 50.4421 37.7894 52.724 35.8673 54.6461C33.9451 56.5682 31.6633 58.0929 29.1519 59.1331C26.6405 60.1734 23.9489 60.7088 21.2306 60.7088C18.5123 60.7088 15.8207 60.1734 13.3093 59.1331C10.7979 58.0929 8.51606 56.5682 6.59395 54.6461C4.67184 52.724 3.14713 50.4421 2.10689 47.9307C0.38892 43.7832 4.17053 40.0094 8.65982 40.0094L21.2306 40.0094H33.8014Z" fill="#181818"/>
<path d="M33.8014 58.7831C38.2907 58.7831 42.0723 62.5568 40.3543 66.7044C39.3141 69.2158 37.7894 71.4976 35.8673 73.4198C33.9451 75.3419 31.6633 76.8666 29.1519 77.9068C26.6405 78.947 23.9489 79.4825 21.2306 79.4825C18.5123 79.4825 15.8207 78.947 13.3093 77.9068C10.7979 76.8666 8.51606 75.3419 6.59395 73.4198C4.67184 71.4976 3.14713 69.2158 2.10689 66.7044C0.38892 62.5568 4.17053 58.7831 8.65982 58.7831L21.2306 58.7831H33.8014Z" fill="#181818"/>
</svg>
