<svg width="23" height="21" viewBox="0 0 23 21" fill="none" xmlns="http://www.w3.org/2000/svg">
<path d="M11.8271 0.413577C7.84787 0.413577 4.38455 2.68341 2.71928 6.00021L2.35763 5.35305C2.13873 4.94858 1.71165 4.70232 1.25364 4.71538C0.822976 4.7249 0.429225 4.96045 0.218661 5.3352C0.00809276 5.71114 0.0104742 6.16915 0.225798 6.54268L1.90081 9.53106C2.21846 10.1045 2.93342 10.3234 3.51873 10.0259L6.49758 8.50321C6.79856 8.36402 7.03054 8.10943 7.13999 7.79656C7.24944 7.48251 7.22565 7.13868 7.07575 6.84247C6.92467 6.54744 6.66056 6.32498 6.34295 6.22981C6.0253 6.13345 5.68268 6.17033 5.39361 6.33331L5.29844 6.3809C6.66653 4.26334 9.06966 2.84996 11.8273 2.84996C16.1209 2.84996 19.5647 6.25359 19.5647 10.4637C19.5647 14.6393 16.1754 18.0226 11.9321 18.0774C11.6085 18.0821 11.3004 18.2154 11.0756 18.4473C10.8507 18.6793 10.727 18.991 10.7318 19.3146C10.7377 19.637 10.8709 19.9451 11.1029 20.17C11.3349 20.3948 11.6466 20.5185 11.9702 20.5138C17.502 20.4424 22.0014 15.9635 22.0014 10.4637C22.0014 4.91876 17.4201 0.413574 11.8277 0.413574L11.8271 0.413577ZM11.9318 4.35382C11.6082 4.35858 11.3001 4.49182 11.0752 4.72379C10.8504 4.95577 10.7267 5.26747 10.7326 5.59105V10.4638C10.7314 10.8338 10.9004 11.1836 11.1895 11.4155L14.2349 13.8519C14.7596 14.2719 15.5269 14.1862 15.948 13.6616C16.368 13.1358 16.2823 12.3684 15.7577 11.9485L13.169 9.87376V5.59121C13.1738 5.26168 13.0453 4.94285 12.8121 4.70969C12.5789 4.47653 12.2613 4.34804 11.9318 4.35398V4.35382Z" fill="#431AB7"/>
</svg>
