<svg width="16" height="17" viewBox="0 0 16 17" fill="none" xmlns="http://www.w3.org/2000/svg">
<path d="M7.25 11.8333C7.25 12.2475 7.58579 12.5833 8 12.5833C8.41421 12.5833 8.75 12.2475 8.75 11.8333H7.25ZM8.75 7.16667C8.75 6.75245 8.41421 6.41667 8 6.41667C7.58579 6.41667 7.25 6.75245 7.25 7.16667L8.75 7.16667ZM7.25 5.17331C7.25 5.58752 7.58579 5.92331 8 5.92331C8.41421 5.92331 8.75 5.58752 8.75 5.17331H7.25ZM8.75 5.16665C8.75 4.75243 8.41421 4.41665 8 4.41665C7.58579 4.41665 7.25 4.75243 7.25 5.16665H8.75ZM8.75 11.8333L8.75 7.16667L7.25 7.16667L7.25 11.8333H8.75ZM8.75 5.17331V5.16665H7.25V5.17331H8.75ZM13.25 8.5C13.25 11.3995 10.8995 13.75 8 13.75V15.25C11.7279 15.25 14.75 12.2279 14.75 8.5H13.25ZM8 13.75C5.10051 13.75 2.75 11.3995 2.75 8.5H1.25C1.25 12.2279 4.27208 15.25 8 15.25V13.75ZM2.75 8.5C2.75 5.60051 5.10051 3.25 8 3.25V1.75C4.27208 1.75 1.25 4.77208 1.25 8.5H2.75ZM8 3.25C10.8995 3.25 13.25 5.60051 13.25 8.5H14.75C14.75 4.77208 11.7279 1.75 8 1.75V3.25Z" fill="white"/>
</svg>
