<svg width="23" height="23" viewBox="0 0 23 23" fill="none" xmlns="http://www.w3.org/2000/svg">
<path d="M4.43418 2.38635C4.28825 2.38635 4.1496 2.45011 4.05461 2.56088L0.984698 6.14108C0.706605 6.46539 0.937044 6.96654 1.36426 6.96654H3.72155C3.90965 6.96654 4.08183 6.86098 4.16715 6.69335L5.98946 3.11316C6.15878 2.78051 5.91712 2.38635 5.54386 2.38635H4.43418ZM7.694 2.38635C7.50587 2.38635 7.33367 2.49195 7.24836 2.65963L5.42694 6.23982C5.25771 6.57246 5.49937 6.96654 5.87259 6.96654H17.4214C17.7946 6.96654 18.0363 6.57247 17.867 6.23982L16.0456 2.65963C15.9603 2.49195 15.7881 2.38635 15.6 2.38635H7.694ZM17.7501 2.38635C17.3769 2.38635 17.1352 2.78043 17.3044 3.11307L19.1258 6.69326C19.2112 6.86094 19.3834 6.96654 19.5715 6.96654H21.9299C22.3571 6.96654 22.5875 6.46539 22.3094 6.14108L19.2395 2.56088C19.1445 2.45011 19.0059 2.38635 18.86 2.38635H17.7501ZM1.24643 7.88258C0.831143 7.88258 0.596866 8.35953 0.850704 8.6882L10.0381 20.5842C10.1865 20.7764 10.4848 20.5877 10.3746 20.3712L4.15776 8.1558C4.07244 7.98815 3.90026 7.88258 3.71215 7.88258H1.24643ZM5.86015 7.88258C5.48392 7.88258 5.24247 8.28245 5.41766 8.61541L11.2044 19.6132C11.3919 19.9695 11.9019 19.9695 12.0894 19.6132L17.8761 8.61541C18.0513 8.28245 17.8099 7.88258 17.4336 7.88258H5.86015ZM19.5819 7.88258C19.3944 7.88258 19.2227 7.98747 19.1371 8.15427L12.9874 20.1362C12.8767 20.352 13.1736 20.5418 13.3229 20.3507L22.4354 8.69046C22.6919 8.3622 22.458 7.88258 22.0414 7.88258H19.5819Z" fill="#A5AFC6"/>
</svg>
