<svg width="16" height="16" viewBox="0 0 16 16" fill="none" xmlns="http://www.w3.org/2000/svg">
<path d="M3.33325 7.33333V6.58333C2.91904 6.58333 2.58325 6.91912 2.58325 7.33333H3.33325ZM12.6666 7.33333H13.4166C13.4166 6.91912 13.0808 6.58333 12.6666 6.58333V7.33333ZM12.6666 14V14.75C13.0808 14.75 13.4166 14.4142 13.4166 14H12.6666ZM3.33325 14H2.58325C2.58325 14.4142 2.91904 14.75 3.33325 14.75V14ZM9.91659 4.66667C9.91659 5.08088 10.2524 5.41667 10.6666 5.41667C11.0808 5.41667 11.4166 5.08088 11.4166 4.66667H9.91659ZM4.58325 7.33333C4.58325 7.74755 4.91904 8.08333 5.33325 8.08333C5.74747 8.08333 6.08325 7.74755 6.08325 7.33333H4.58325ZM3.33325 8.08333H12.6666V6.58333H3.33325V8.08333ZM11.9166 7.33333V14H13.4166V7.33333H11.9166ZM12.6666 13.25H3.33325V14.75H12.6666V13.25ZM4.08325 14V7.33333H2.58325V14H4.08325ZM6.08325 4.66667C6.08325 3.60812 6.94137 2.75 7.99992 2.75V1.25C6.11295 1.25 4.58325 2.77969 4.58325 4.66667H6.08325ZM7.99992 2.75C9.05846 2.75 9.91659 3.60812 9.91659 4.66667H11.4166C11.4166 2.77969 9.88689 1.25 7.99992 1.25V2.75ZM4.58325 4.66667V7.33333H6.08325V4.66667H4.58325Z" fill="#181818"/>
</svg>
