<svg width="40" height="48" viewBox="0 0 40 48" fill="none" xmlns="http://www.w3.org/2000/svg">
<path d="M35.1009 7.4487C31.0501 7.14792 27.2514 5.3979 24.4019 2.4995L23.5015 1.6499C21.6519 -0.199705 18.351 -0.199705 16.5525 1.6499L15.6521 2.5503C12.8025 5.3999 9.00164 7.1499 4.95314 7.4995C2.40234 7.69872 0.402344 9.8491 0.402344 12.3999V17.6499C0.402344 29.8489 7.00184 41.1499 17.6013 47.0989C18.3513 47.4993 19.2009 47.7493 20.0017 47.7493C20.8513 47.7493 21.7009 47.5501 22.4021 47.0989C33.0016 41.0989 39.6011 29.8489 39.6011 17.6499V12.3999C39.6519 9.8491 37.6519 7.6499 35.1011 7.44875L35.1009 7.4487ZM23.7514 30.9487C23.9018 31.4995 23.5014 31.9995 22.9506 31.9995H17.0016C16.4508 31.9995 16.0524 31.4487 16.2008 30.9487L18.5016 23.5502C16.7516 22.8998 15.4508 21.2494 15.4508 19.3002C15.4508 16.8002 17.5016 14.7494 20.0016 14.7494C22.5016 14.7494 24.5524 16.8002 24.5524 19.3002C24.5524 21.3002 23.3024 22.9506 21.5016 23.5502L23.7514 30.9487Z" fill="url(#paint0_linear)"/>
<defs>
<linearGradient id="paint0_linear" x1="-27.5" y1="99.5" x2="38.6893" y2="20.2646" gradientUnits="userSpaceOnUse">
<stop offset="0.0665921" stop-color="#431AB7"/>
<stop offset="0.614415" stop-color="#E591D3" stop-opacity="0"/>
<stop offset="0.817708" stop-color="#431AB7" stop-opacity="0.56"/>
<stop offset="0.984387" stop-color="#431AB7"/>
</linearGradient>
</defs>
</svg>
