<svg width="23" height="23" viewBox="0 0 23 23" fill="none" xmlns="http://www.w3.org/2000/svg">
<path fillRule="evenodd" clipRule="evenodd" d="M20.2384 3.48166C18.358 1.60133 15.3094 1.60133 13.4291 3.48166C12.7219 4.18888 11.5752 4.18891 10.868 3.48169C8.98765 1.60135 5.93902 1.60135 4.05869 3.48169C2.17835 5.36202 2.17836 8.41065 4.05869 10.291C4.7658 10.9981 4.766 12.1447 4.05888 12.8519C2.17855 14.7322 2.17855 17.7808 4.05888 19.6611C5.93922 21.5415 8.98785 21.5415 10.8682 19.6611C11.5753 18.954 12.7218 18.9541 13.4289 19.6612C15.3092 21.5415 18.3578 21.5415 20.2382 19.6612C22.1185 17.7808 22.1185 14.7322 20.2382 12.8519C19.531 12.1448 19.5312 10.9981 20.2384 10.291C22.1187 8.41062 22.1187 5.36199 20.2384 3.48166Z" fill="#A6AFC6"/>
</svg>
