<svg width="20" height="20" viewBox="0 0 20 20" fill="none" xmlns="http://www.w3.org/2000/svg">
<path d="M16.4749 7.42574C16.9811 7.23434 17.4866 7.04136 17.9921 6.84918C18.064 6.82184 18.1366 6.79449 18.2069 6.76715C18.3983 6.69527 18.5491 6.49997 18.4804 6.28669C18.4194 6.10075 18.2054 5.93747 17.9999 6.01325C17.4937 6.20466 16.9882 6.39763 16.4827 6.58981C16.4109 6.61715 16.3382 6.6445 16.2679 6.67184C16.0765 6.74372 15.9257 6.93902 15.9944 7.1523C16.0546 7.3398 16.2718 7.50386 16.4749 7.42574Z" fill="white"/>
<path d="M15.0174 4.79291C15.3924 4.40229 15.7674 4.01167 16.1424 3.62103C16.1955 3.56635 16.2479 3.5101 16.3026 3.45541C16.4432 3.30697 16.4604 3.04759 16.3026 2.90229C16.1502 2.76167 15.9026 2.74448 15.7495 2.90229C15.3745 3.29291 14.9995 3.68353 14.6245 4.07417C14.5713 4.12886 14.519 4.18511 14.4643 4.23979C14.3237 4.38823 14.3065 4.64761 14.4643 4.79291C14.6174 4.93354 14.8659 4.95151 15.0174 4.79291Z" fill="white"/>
<path d="M16.8319 10.4155C17.3709 10.4585 17.9115 10.503 18.4506 10.5467C18.5272 10.553 18.603 10.5585 18.6811 10.5663C18.8858 10.5819 19.0811 10.3749 19.0717 10.1757C19.0623 9.9491 18.8998 9.80222 18.6811 9.78504C18.142 9.74207 17.6014 9.69754 17.0623 9.65379C16.9858 9.64754 16.91 9.64207 16.8319 9.63426C16.6272 9.61863 16.4319 9.82566 16.4412 10.0249C16.4514 10.2514 16.6131 10.3983 16.8319 10.4155Z" fill="white"/>
<path d="M9.25005 16.7069C9.17349 16.5624 9.0977 16.4163 9.02193 16.2709C8.82271 15.892 8.62349 15.5116 8.42427 15.1319C8.40708 15.0991 8.38911 15.0631 8.37114 15.0303C8.52739 14.8256 8.6899 14.6124 8.75786 14.3647C8.82427 14.1209 8.81255 13.8569 8.72271 13.6209C8.67583 13.4959 8.62661 13.3709 8.58052 13.2459C8.56646 13.2084 8.55318 13.1717 8.53755 13.135C8.87349 13.0084 9.20943 12.8788 9.54537 12.7522C9.5235 12.6959 9.5024 12.6366 9.48131 12.5803C9.46725 12.5475 9.45631 12.5139 9.44225 12.4787C9.40709 12.3866 9.3735 12.2967 9.33912 12.2053C9.161 11.735 8.9813 11.2662 8.80396 10.7951C8.54458 10.1115 8.28442 9.42639 8.02428 8.74195C7.91334 8.44663 7.79928 8.14977 7.68834 7.85523C7.65319 7.76304 7.61959 7.6732 7.58522 7.58179C7.55006 7.4896 7.51647 7.39976 7.48209 7.30835C7.27505 7.38647 7.06803 7.4646 6.86099 7.54273C6.17505 7.80211 5.49223 8.06227 4.80639 8.32241C4.25951 8.52945 3.71263 8.73803 3.16577 8.94585C2.99781 9.00991 2.82593 9.06304 2.68531 9.18023C2.44155 9.38335 2.34781 9.74273 2.45249 10.0412C2.46187 10.0685 2.47203 10.0959 2.48374 10.1232C2.23218 10.217 1.97984 10.3107 1.73218 10.4107C1.32436 10.5709 1.04078 10.9302 1.0275 11.3779C1.02125 11.5771 1.08844 11.749 1.15641 11.9287C1.32985 12.3857 1.50407 12.8427 1.67829 13.2998C1.72282 13.4169 1.76579 13.5341 1.8111 13.6513C1.98063 14.0732 2.40642 14.3662 2.87204 14.3209C3.12048 14.2974 3.35642 14.1802 3.58922 14.0927C3.70641 14.0482 3.8236 14.0029 3.94312 13.9584C3.94703 13.9677 3.95093 13.9802 3.95484 13.9896C4.12281 14.4177 4.5736 14.6381 5.00952 14.4724C5.10874 14.4349 5.2064 14.3959 5.3064 14.3592C5.63608 15.0092 5.96656 15.6576 6.29858 16.3084C6.50952 16.724 6.72046 17.1381 6.93296 17.5545C6.97202 17.631 7.00718 17.7092 7.04859 17.7826C7.14468 17.9467 7.34155 18.0232 7.52125 17.9646C7.58531 17.9427 7.64625 17.9177 7.70875 17.8927C8.16343 17.7209 8.61657 17.5474 9.07203 17.3756C9.07984 17.374 9.08609 17.3693 9.0939 17.3662C9.11109 17.3599 9.12671 17.3545 9.14234 17.3443C9.34938 17.2349 9.39624 16.9928 9.29859 16.7959C9.28297 16.7654 9.26578 16.7357 9.25015 16.7068L9.25005 16.7069Z" fill="white"/>
<path d="M16.6737 13.1265C16.6675 13.1109 16.662 13.0969 16.6566 13.082C16.6214 12.9898 16.5862 12.8984 16.5534 12.807C16.4066 12.4226 16.2605 12.0351 16.1144 11.6508C15.8956 11.0766 15.6784 10.5008 15.4597 9.92577C15.2019 9.24765 14.9456 8.57265 14.6878 7.89457C14.43 7.21333 14.1706 6.53129 13.912 5.85157C13.6855 5.25157 13.4574 4.65469 13.2308 4.05625C13.0706 3.63593 12.912 3.21641 12.7527 2.79687C12.7097 2.68359 12.6667 2.57031 12.6238 2.45703C12.5831 2.34922 12.5472 2.23827 12.466 2.15625C12.2746 1.96719 11.9464 1.97266 11.7683 2.17578C11.7464 2.19922 11.7277 2.22657 11.7074 2.25235C11.6042 2.3836 11.498 2.51407 11.3949 2.64689C11.012 3.12971 10.6277 3.61173 10.2449 4.09377C9.7933 4.66017 9.34252 5.22815 8.89174 5.79533C8.63236 6.12189 8.3722 6.45001 8.11206 6.77579C8.1394 6.85 8.16831 6.92422 8.19644 6.99845C8.20815 7.0297 8.21987 7.06095 8.23159 7.0922C8.27065 7.19766 8.31128 7.30314 8.35269 7.4086C8.52612 7.86564 8.70035 8.32422 8.87457 8.78204C9.13395 9.46564 9.39411 10.1508 9.65425 10.8352C9.8144 11.2571 9.97457 11.6806 10.1347 12.1032C10.1753 12.2087 10.2144 12.3141 10.2558 12.4196C10.2714 12.4602 10.2871 12.4993 10.3003 12.5407C10.3253 12.6071 10.3488 12.6719 10.3746 12.7376C10.3808 12.7391 10.3863 12.7391 10.3917 12.7415C11.0105 12.8508 11.63 12.9587 12.2511 13.068C12.966 13.193 13.6808 13.318 14.3933 13.443C14.8918 13.5305 15.3894 13.6165 15.8871 13.7048C15.9613 13.7188 16.034 13.7298 16.1074 13.7438C16.1215 13.7454 16.1324 13.7477 16.1465 13.7477C16.1582 13.7493 16.1715 13.7516 16.1855 13.754C16.5176 13.7876 16.7722 13.4376 16.6738 13.1266L16.6737 13.1265Z" fill="white"/>
</svg>
