<svg width="26" height="26" viewBox="0 0 26 26" fill="none" xmlns="http://www.w3.org/2000/svg">
<path d="M1.00004 12.3334C0.99545 14.0932 1.40661 15.8292 2.20004 17.4C3.14079 19.2824 4.58704 20.8656 6.37677 21.9724C8.16651 23.0792 10.229 23.6659 12.3334 23.6667C14.0932 23.6713 15.8292 23.2601 17.4 22.4667L25 25L22.4667 17.4C23.2601 15.8292 23.6713 14.0932 23.6667 12.3334C23.6659 10.229 23.0792 8.16651 21.9724 6.37677C20.8656 4.58704 19.2824 3.14079 17.4 2.20004C15.8292 1.40661 14.0932 0.99545 12.3334 1.00004H11.6667C8.88757 1.15336 6.26265 2.32639 4.29452 4.29452C2.32639 6.26265 1.15336 8.88757 1.00004 11.6667V12.3334Z" stroke="#949BAB" strokeWidth="2" strokeLinecap="round" strokeLinejoin="round"/>
</svg>
