<svg width="24" height="26" viewBox="0 0 24 26" fill="none" xmlns="http://www.w3.org/2000/svg">
<path d="M1.33325 19.6667L0.438825 19.2195C0.283831 19.5294 0.300395 19.8976 0.482601 20.1924C0.664808 20.4872 0.986674 20.6667 1.33325 20.6667V19.6667ZM22.6666 19.6667V20.6667C23.0132 20.6667 23.335 20.4872 23.5172 20.1924C23.6994 19.8976 23.716 19.5294 23.561 19.2195L22.6666 19.6667ZM4.99992 9C4.99992 5.13401 8.13393 2 11.9999 2V0C7.02936 0 2.99992 4.02944 2.99992 9H4.99992ZM11.9999 2C15.8659 2 18.9999 5.13401 18.9999 9H20.9999C20.9999 4.02944 16.9705 0 11.9999 0V2ZM2.99992 9C2.99992 11.5154 2.36793 14.067 1.7179 16.0171C1.39488 16.9862 1.07197 17.7933 0.830774 18.3561C0.71028 18.6372 0.610475 18.8567 0.541652 19.0042C0.507249 19.0779 0.480615 19.1336 0.463041 19.1699C0.454254 19.1881 0.447735 19.2014 0.443644 19.2097C0.441599 19.2139 0.440161 19.2168 0.439351 19.2184C0.438946 19.2192 0.438698 19.2197 0.43861 19.2199C0.438565 19.22 0.438561 19.22 0.438597 19.2199C0.438614 19.2199 0.438672 19.2198 0.43868 19.2197C0.438747 19.2196 0.438825 19.2195 1.33325 19.6667C2.22768 20.1139 2.22778 20.1137 2.22788 20.1135C2.22793 20.1134 2.22805 20.1131 2.22815 20.1129C2.22835 20.1125 2.22859 20.1121 2.22887 20.1115C2.22942 20.1104 2.23014 20.1089 2.23102 20.1072C2.23277 20.1036 2.23516 20.0988 2.23816 20.0927C2.24416 20.0805 2.25261 20.0632 2.26336 20.041C2.28485 19.9966 2.3155 19.9325 2.35402 19.85C2.43103 19.6849 2.53956 19.4461 2.66906 19.1439C2.92786 18.5401 3.27162 17.6805 3.61527 16.6496C4.29857 14.5996 4.99992 11.8179 4.99992 9H2.99992ZM1.33325 20.6667H22.6666V18.6667H1.33325V20.6667ZM22.6666 19.6667C23.561 19.2195 23.5611 19.2196 23.5612 19.2197C23.5612 19.2198 23.5612 19.2199 23.5612 19.2199C23.5613 19.22 23.5613 19.22 23.5612 19.2199C23.5611 19.2197 23.5609 19.2192 23.5605 19.2184C23.5597 19.2168 23.5582 19.2139 23.5562 19.2097C23.5521 19.2014 23.5456 19.1881 23.5368 19.1699C23.5192 19.1336 23.4926 19.0779 23.4582 19.0042C23.3894 18.8567 23.2896 18.6372 23.1691 18.3561C22.9279 17.7933 22.605 16.9862 22.2819 16.0171C21.6319 14.067 20.9999 11.5154 20.9999 9H18.9999C18.9999 11.8179 19.7013 14.5996 20.3846 16.6496C20.7282 17.6805 21.072 18.5401 21.3308 19.1439C21.4603 19.4461 21.5688 19.6849 21.6458 19.85C21.6843 19.9325 21.715 19.9966 21.7365 20.041C21.7472 20.0632 21.7557 20.0805 21.7617 20.0927C21.7647 20.0988 21.7671 20.1036 21.7688 20.1072C21.7697 20.1089 21.7704 20.1104 21.771 20.1115C21.7712 20.1121 21.7715 20.1125 21.7717 20.1129C21.7718 20.1131 21.7719 20.1134 21.772 20.1135C21.7721 20.1137 21.7722 20.1139 22.6666 19.6667ZM14.9999 21C14.9999 22.6569 13.6568 24 11.9999 24V26C14.7613 26 16.9999 23.7614 16.9999 21H14.9999ZM11.9999 24C10.3431 24 8.99992 22.6569 8.99992 21H6.99992C6.99992 23.7614 9.23849 26 11.9999 26V24ZM8.99992 21V19.6667H6.99992V21H8.99992ZM16.9999 21V19.6667H14.9999V21H16.9999Z" fill="#949BAB"/>
</svg>
