<svg width="22" height="21" viewBox="0 0 22 21" fill="none" xmlns="http://www.w3.org/2000/svg">
<path d="M9.8319 0.349191C9.27547 0.349191 8.74088 0.570675 8.3485 0.965786L1.842 7.46809C1.12968 8.17901 0.730469 9.14291 0.730469 10.1492C0.730469 11.1554 1.12968 12.1193 1.842 12.8302L8.5508 19.539C9.26172 20.2513 10.2256 20.6506 11.2319 20.6506C12.2381 20.6506 13.202 20.2513 13.9129 19.539L20.4152 13.0325C20.8103 12.6401 21.0318 12.1056 21.0318 11.5491V3.14912C21.0318 2.40674 20.7365 1.69445 20.2115 1.16945C19.6865 0.644451 18.9742 0.349121 18.2318 0.349121L9.8319 0.349191ZM18.9319 3.14919V11.5492L12.4296 18.0515C11.7693 18.7118 10.6987 18.7118 10.0384 18.0515L3.3296 11.3469C2.66926 10.6865 2.66926 9.61604 3.3296 8.95569L9.8319 2.44919H18.2319C18.4178 2.44919 18.5956 2.52302 18.7268 2.65427C18.8581 2.78552 18.9319 2.96325 18.9319 3.14921L18.9319 3.14919Z" fill="white"/>
</svg>
