<svg width="30" height="30" viewBox="0 0 30 30" fill="none" xmlns="http://www.w3.org/2000/svg">
<path d="M1.8754 19.3744C1.18399 19.3744 0.625 18.8143 0.625 18.124V11.8744C0.625 11.1842 1.18399 10.624 1.8754 10.624C2.56681 10.624 3.1258 11.1842 3.1258 11.8744V18.124C3.1258 18.8143 2.56681 19.3744 1.8754 19.3744Z" fill="#1ABB00"/>
<path d="M5.6254 24.3747C4.93399 24.3747 4.375 23.8146 4.375 23.1243V6.87393C4.375 6.18369 4.93399 5.62354 5.6254 5.62354C6.31681 5.62354 6.8758 6.18369 6.8758 6.87393V23.1243C6.8758 23.8146 6.31681 24.3747 5.6254 24.3747Z" fill="#1ABB00"/>
<path d="M9.3754 29.3753C8.68399 29.3753 8.125 28.8151 8.125 28.1249V1.87491C8.125 1.18467 8.68399 0.624512 9.3754 0.624512C10.0668 0.624512 10.6258 1.18467 10.6258 1.87491V28.1249C10.6258 28.8151 10.0668 29.3753 9.3754 29.3753Z" fill="#1ABB00"/>
<path d="M13.1254 28.1247C12.434 28.1247 11.875 27.5646 11.875 26.8743V3.12393C11.875 2.4337 12.434 1.87354 13.1254 1.87354C13.8168 1.87354 14.3758 2.4337 14.3758 3.12393V26.8743C14.3758 27.5646 13.8168 28.1247 13.1254 28.1247Z" fill="#1ABB00"/>
<path d="M16.8754 23.1244C16.184 23.1244 15.625 22.5643 15.625 21.874V8.12442C15.625 7.43418 16.184 6.87402 16.8754 6.87402C17.5668 6.87402 18.1258 7.43418 18.1258 8.12442V21.874C18.1258 22.5643 17.5668 23.1244 16.8754 23.1244Z" fill="#1ABB00"/>
<path d="M20.6254 28.1247C19.934 28.1247 19.375 27.5646 19.375 26.8743V3.12393C19.375 2.4337 19.934 1.87354 20.6254 1.87354C21.3168 1.87354 21.8758 2.4337 21.8758 3.12393V26.8743C21.8758 27.5646 21.3168 28.1247 20.6254 28.1247Z" fill="#1ABB00"/>
<path d="M24.3754 23.1244C23.684 23.1244 23.125 22.5643 23.125 21.874V8.12442C23.125 7.43418 23.684 6.87402 24.3754 6.87402C25.0668 6.87402 25.6258 7.43418 25.6258 8.12442V21.874C25.6258 22.5643 25.0668 23.1244 24.3754 23.1244Z" fill="#1ABB00"/>
<path d="M28.1254 19.3744C27.434 19.3744 26.875 18.8143 26.875 18.124V11.8744C26.875 11.1842 27.434 10.624 28.1254 10.624C28.8168 10.624 29.3758 11.1842 29.3758 11.8744V18.124C29.3758 18.8143 28.8168 19.3744 28.1254 19.3744Z" fill="#1ABB00"/>
</svg>
