<svg width="429" height="90" viewBox="0 0 429 90" fill="none" xmlns="http://www.w3.org/2000/svg">
<rect x="334" width="95" height="30" rx="15" fill="black"/>
<rect x="334" width="95" height="30" rx="15" fill="url(#paint0_linear)"/>
<path d="M348.9 22H360.186C363.282 22 365.1 20.668 365.1 18.454C365.1 16.996 364.182 15.862 362.67 15.466V15.43C363.966 14.98 364.74 13.954 364.74 12.658C364.74 10.426 362.904 9.112 359.826 9.112H348.9V22ZM353.598 14.314V11.686H358.278C359.376 11.686 360.042 12.172 360.042 13C360.042 13.828 359.376 14.314 358.278 14.314H353.598ZM353.58 19.426V16.618H358.53C359.682 16.618 360.402 17.158 360.402 18.04C360.402 18.886 359.682 19.426 358.53 19.426H353.58ZM366.785 22H380.555V19.084H371.339V16.69H379.655V14.188H371.339V12.028H380.375V9.112H366.785V22ZM386.459 22H391.157V12.424H396.179V9.112H381.437V12.424H386.459V22ZM395.012 22H399.872L400.862 19.75H407.288L408.296 22H413.174L406.892 9.112H401.438L395.012 22ZM401.78 17.104L404.084 12.01H404.12L406.388 17.104H401.78Z" fill="white"/>
<path fill-rule="evenodd" clip-rule="evenodd" d="M4.31879 86.4904C1.93359 86.4904 0 84.5568 0 82.1716V25.9497C0 23.5644 1.93359 21.6309 4.31879 21.6309H31.0608C45.6 21.6309 55.8068 33.3235 55.8068 46.8426C55.8068 60.3618 45.6 72.706 31.0608 72.706H22.6343C20.2491 72.706 18.3155 74.6396 18.3155 77.0248V82.1716C18.3155 84.5568 16.3819 86.4904 13.9967 86.4904H4.31879ZM23.2126 48.8411L23.2128 48.8415L23.213 48.8411H23.2126ZM23.2126 48.8411L21.4761 43.8813L21.453 43.8243C21.1342 43.0406 18.9338 37.6316 19.8079 31.6072C14.0408 34.5448 10.8456 40.42 11.1929 46.0323C15.7773 48.5149 20.9189 48.841 23.2126 48.8411ZM11.4724 48.2542C12.6521 54.1939 17.4453 58.9607 23.6295 60.4582C27.5187 57.1945 29.4653 52.6895 30.1607 50.6024C29.3534 50.6102 28.5604 50.6247 27.7789 50.639L27.7786 50.6391L27.7783 50.6391L27.778 50.6391C22.0992 50.7431 17.0275 50.836 11.4724 48.2539V48.2542ZM22.9354 42.1164C22.2398 40.0293 20.9872 35.3955 22.0298 30.6287L22.0301 30.6289C27.7971 28.6066 34.4655 29.7135 39.193 33.8283C32.7018 34.9284 27.926 38.6775 27.4597 39.0435L27.4516 39.0499L22.9354 42.1164ZM41.9701 53.6707C39.8177 49.2983 35.9972 46.2922 34.1175 44.9881L32.3807 49.9483C32.2436 50.4717 30.644 56.2786 25.9906 60.8482C32.2447 61.5689 38.4962 58.8245 41.9697 53.6711L41.9701 53.6707ZM34.1874 42.7685L29.6716 39.7023C31.4767 38.4608 35.7187 35.9781 40.7874 35.3903C44.955 40.0925 45.6491 46.4228 43.1497 51.6445C39.9545 46.161 34.6716 43.0302 34.1874 42.7685Z" fill="black"/>
<path fill-rule="evenodd" clip-rule="evenodd" d="M4.31879 86.4904C1.93359 86.4904 0 84.5568 0 82.1716V25.9497C0 23.5644 1.93359 21.6309 4.31879 21.6309H31.0608C45.6 21.6309 55.8068 33.3235 55.8068 46.8426C55.8068 60.3618 45.6 72.706 31.0608 72.706H22.6343C20.2491 72.706 18.3155 74.6396 18.3155 77.0248V82.1716C18.3155 84.5568 16.3819 86.4904 13.9967 86.4904H4.31879ZM23.2126 48.8411L23.2128 48.8415L23.213 48.8411H23.2126ZM23.2126 48.8411L21.4761 43.8813L21.453 43.8243C21.1342 43.0406 18.9338 37.6316 19.8079 31.6072C14.0408 34.5448 10.8456 40.42 11.1929 46.0323C15.7773 48.5149 20.9189 48.841 23.2126 48.8411ZM11.4724 48.2542C12.6521 54.1939 17.4453 58.9607 23.6295 60.4582C27.5187 57.1945 29.4653 52.6895 30.1607 50.6024C29.3534 50.6102 28.5604 50.6247 27.7789 50.639L27.7786 50.6391L27.7783 50.6391L27.778 50.6391C22.0992 50.7431 17.0275 50.836 11.4724 48.2539V48.2542ZM22.9354 42.1164C22.2398 40.0293 20.9872 35.3955 22.0298 30.6287L22.0301 30.6289C27.7971 28.6066 34.4655 29.7135 39.193 33.8283C32.7018 34.9284 27.926 38.6775 27.4597 39.0435L27.4516 39.0499L22.9354 42.1164ZM41.9701 53.6707C39.8177 49.2983 35.9972 46.2922 34.1175 44.9881L32.3807 49.9483C32.2436 50.4717 30.644 56.2786 25.9906 60.8482C32.2447 61.5689 38.4962 58.8245 41.9697 53.6711L41.9701 53.6707ZM34.1874 42.7685L29.6716 39.7023C31.4767 38.4608 35.7187 35.9781 40.7874 35.3903C44.955 40.0925 45.6491 46.4228 43.1497 51.6445C39.9545 46.161 34.6716 43.0302 34.1874 42.7685Z" fill="url(#paint1_linear)"/>
<path d="M89.4076 76.4678H103.686V64.4874H120.863C132.023 64.4874 138.204 59.7281 138.259 51.0848C138.259 42.2226 132.077 37.2992 120.972 37.2992H89.4076V76.4678ZM103.686 56.4459V45.3408H116.213C121.191 45.3408 123.926 47.3102 123.926 50.866C123.926 54.4765 121.191 56.4459 116.213 56.4459H103.686ZM184.809 77.5619C188.42 77.5619 192.687 76.249 194.82 74.389L192.413 68.645C191.757 69.4109 190.444 69.9032 189.514 69.9032C187.982 69.9032 187.052 69.2468 186.341 68.2621L183.551 64.0498C182.621 62.6275 181.417 61.5881 180.105 61.0958V61.041C187.271 59.6734 191.428 55.5706 191.428 49.7172C191.428 41.8397 185.411 37.2992 174.908 37.2992H141.975V76.4678H156.253V63.4481H164.623C167.194 63.4481 169.601 64.5421 171.242 66.8397L173.704 70.9426C175.947 74.1702 178.901 77.5619 184.809 77.5619ZM156.253 55.4065V45.7237H170.641C174.744 45.7237 177.151 47.529 177.151 50.5924C177.151 53.6012 174.744 55.4065 170.641 55.4065H156.253ZM197.535 76.4678H211.703V37.2992H197.535V76.4678ZM233.825 76.4678H249.853L269.273 37.2992H254.448L241.921 64.4327H241.811L229.229 37.2992H214.459L233.825 76.4678ZM272.006 76.4678H286.174V37.2992H272.006V76.4678ZM304.327 76.4678H308.867V62.4634H330.858C340.213 62.4634 345.464 57.9229 345.519 50.2095C345.519 42.4414 340.268 37.901 330.858 37.901H304.327V76.4678ZM308.867 58.4699V41.9491H330.257C337.149 41.9491 340.979 45.0126 340.979 50.2095C340.979 55.4065 337.149 58.4699 330.257 58.4699H308.867ZM349.095 76.4678H353.635V37.901H349.095V76.4678ZM356.623 76.4678H362.695L378.888 59.2358L395.354 76.4678H401.481L382.17 56.4459L400.934 37.901H394.807L378.888 53.7653L363.297 37.901H357.17L375.605 56.4459L356.623 76.4678Z" fill="#181818"/>
<defs>
<linearGradient id="paint0_linear" x1="437.394" y1="6.72179" x2="423.838" y2="53.2926" gradientUnits="userSpaceOnUse">
<stop stop-color="#418DFF"/>
<stop offset="0.333302" stop-color="#4541FF"/>
<stop offset="0.437384" stop-color="#4541FF"/>
<stop offset="0.745055" stop-color="#EF41CB"/>
<stop offset="0.790836" stop-color="#EF41CB"/>
<stop offset="0.998516" stop-color="#EFA941"/>
</linearGradient>
<linearGradient id="paint1_linear" x1="60.7381" y1="36.1633" x2="6.25886" y2="87.0152" gradientUnits="userSpaceOnUse">
<stop stop-color="#418DFF"/>
<stop offset="0.333302" stop-color="#4541FF"/>
<stop offset="0.437384" stop-color="#4541FF"/>
<stop offset="0.745055" stop-color="#EF41CB"/>
<stop offset="0.790836" stop-color="#EF41CB"/>
<stop offset="0.998516" stop-color="#EFA941"/>
</linearGradient>
</defs>
</svg>
