<svg width="18" height="21" viewBox="0 0 18 21" fill="none" xmlns="http://www.w3.org/2000/svg">
<path fill-rule="evenodd" clip-rule="evenodd" d="M1.35906 20.4104C0.608472 20.4104 0 19.8019 0 19.0513V1.35906C0 0.608472 0.608473 0 1.35906 0H9.77439C14.3496 0 17.5616 3.67949 17.5616 7.93377C17.5616 12.1881 14.3496 16.0726 9.77439 16.0726H7.12268C6.3721 16.0726 5.76362 16.6811 5.76362 17.4317V19.0513C5.76362 19.8019 5.15515 20.4104 4.40456 20.4104H1.35906ZM7.30477 8.56273L7.30481 8.56286L7.30487 8.56273H7.30477ZM7.30477 8.56273L6.75829 7.00195L6.75102 6.98401C6.65069 6.7374 5.95827 5.03528 6.23334 3.13947C4.41853 4.06391 3.41304 5.91273 3.52234 7.67883C4.96499 8.46007 6.58296 8.56272 7.30477 8.56273ZM3.61033 8.37778C3.98157 10.2469 5.48991 11.7469 7.436 12.2182C8.65987 11.1911 9.27244 9.77349 9.49128 9.11672C9.23712 9.11917 8.98748 9.12374 8.74145 9.12825C6.95444 9.161 5.35843 9.19024 3.61033 8.37768V8.37778ZM7.21756 6.44619C6.99868 5.78941 6.60451 4.33121 6.93261 2.83118L6.93268 2.83125C8.74749 2.19486 10.8459 2.54319 12.3336 3.83803C10.2909 4.18423 8.78807 5.364 8.64132 5.4792L8.63876 5.48121L7.21756 6.44619ZM13.2074 10.0824C12.5301 8.70651 11.3278 7.76054 10.7363 7.35015L10.1898 8.91105C10.1466 9.07575 9.64325 10.9031 8.17891 12.3411C10.147 12.5679 12.1142 11.7042 13.2073 10.0825L13.2074 10.0824ZM10.7584 6.65152L9.3373 5.68663C9.90534 5.29597 11.2402 4.51469 12.8353 4.32973C14.1468 5.80944 14.3652 7.80149 13.5787 9.44467C12.5732 7.71911 10.9107 6.73387 10.7584 6.65152Z" fill="black"/>
<path fill-rule="evenodd" clip-rule="evenodd" d="M1.35906 20.4104C0.608472 20.4104 0 19.8019 0 19.0513V1.35906C0 0.608472 0.608473 0 1.35906 0H9.77439C14.3496 0 17.5616 3.67949 17.5616 7.93377C17.5616 12.1881 14.3496 16.0726 9.77439 16.0726H7.12268C6.3721 16.0726 5.76362 16.6811 5.76362 17.4317V19.0513C5.76362 19.8019 5.15515 20.4104 4.40456 20.4104H1.35906ZM7.30477 8.56273L7.30481 8.56286L7.30487 8.56273H7.30477ZM7.30477 8.56273L6.75829 7.00195L6.75102 6.98401C6.65069 6.7374 5.95827 5.03528 6.23334 3.13947C4.41853 4.06391 3.41304 5.91273 3.52234 7.67883C4.96499 8.46007 6.58296 8.56272 7.30477 8.56273ZM3.61033 8.37778C3.98157 10.2469 5.48991 11.7469 7.436 12.2182C8.65987 11.1911 9.27244 9.77349 9.49128 9.11672C9.23712 9.11917 8.98748 9.12374 8.74145 9.12825C6.95444 9.161 5.35843 9.19024 3.61033 8.37768V8.37778ZM7.21756 6.44619C6.99868 5.78941 6.60451 4.33121 6.93261 2.83118L6.93268 2.83125C8.74749 2.19486 10.8459 2.54319 12.3336 3.83803C10.2909 4.18423 8.78807 5.364 8.64132 5.4792L8.63876 5.48121L7.21756 6.44619ZM13.2074 10.0824C12.5301 8.70651 11.3278 7.76054 10.7363 7.35015L10.1898 8.91105C10.1466 9.07575 9.64325 10.9031 8.17891 12.3411C10.147 12.5679 12.1142 11.7042 13.2073 10.0825L13.2074 10.0824ZM10.7584 6.65152L9.3373 5.68663C9.90534 5.29597 11.2402 4.51469 12.8353 4.32973C14.1468 5.80944 14.3652 7.80149 13.5787 9.44467C12.5732 7.71911 10.9107 6.73387 10.7584 6.65152Z" fill="url(#paint0_linear)"/>
<defs>
<linearGradient id="paint0_linear" x1="19.1134" y1="4.57313" x2="1.96957" y2="20.5755" gradientUnits="userSpaceOnUse">
<stop stop-color="#418DFF"/>
<stop offset="0.333302" stop-color="#4541FF"/>
<stop offset="0.437384" stop-color="#4541FF"/>
<stop offset="0.745055" stop-color="#EF41CB"/>
<stop offset="0.790836" stop-color="#EF41CB"/>
<stop offset="0.998516" stop-color="#EFA941"/>
</linearGradient>
</defs>
</svg>
