<svg width="20" height="20" viewBox="0 0 20 20" fill="none" xmlns="http://www.w3.org/2000/svg">
<path d="M10.8604 6.09766C10.8604 5.68344 10.5246 5.34766 10.1104 5.34766C9.69614 5.34766 9.36035 5.68344 9.36035 6.09766H10.8604ZM9.36035 14.0977C9.36035 14.5119 9.69614 14.8477 10.1104 14.8477C10.5246 14.8477 10.8604 14.5119 10.8604 14.0977H9.36035ZM6.11035 9.34766C5.69614 9.34766 5.36035 9.68344 5.36035 10.0977C5.36035 10.5119 5.69614 10.8477 6.11035 10.8477V9.34766ZM14.1104 10.8477C14.5246 10.8477 14.8604 10.5119 14.8604 10.0977C14.8604 9.68344 14.5246 9.34766 14.1104 9.34766V10.8477ZM9.36035 6.09766V14.0977H10.8604V6.09766H9.36035ZM6.11035 10.8477H14.1104V9.34766H6.11035V10.8477ZM18.3604 10.0977C18.3604 14.654 14.6667 18.3477 10.1104 18.3477V19.8477C15.4951 19.8477 19.8604 15.4824 19.8604 10.0977H18.3604ZM10.1104 18.3477C5.554 18.3477 1.86035 14.654 1.86035 10.0977H0.360352C0.360352 15.4824 4.72557 19.8477 10.1104 19.8477V18.3477ZM1.86035 10.0977C1.86035 5.54131 5.554 1.84766 10.1104 1.84766V0.347656C4.72557 0.347656 0.360352 4.71288 0.360352 10.0977H1.86035ZM10.1104 1.84766C14.6667 1.84766 18.3604 5.54131 18.3604 10.0977H19.8604C19.8604 4.71288 15.4951 0.347656 10.1104 0.347656V1.84766Z" fill="url(#paint0_linear)"/>
<defs>
<linearGradient id="paint0_linear" x1="3.18727" y1="7.69766" x2="17.4933" y2="9.55469" gradientUnits="userSpaceOnUse">
<stop stop-color="#23D0C6"/>
<stop offset="1" stop-color="#00CC8F"/>
</linearGradient>
</defs>
</svg>
