<svg width="36" height="36" viewBox="0 0 36 36" fill="none" xmlns="http://www.w3.org/2000/svg">
<g filter="url(#filter0_i)">
<path d="M36 18C36 27.9411 27.9411 36 18 36C8.05888 36 0 27.9411 0 18C0 8.05888 8.05888 0 18 0C27.9411 0 36 8.05888 36 18Z" fill="#431AB7"/>
</g>
<path d="M24.4061 16.0231C24.3272 13.6836 23.512 11.344 21.9077 9.37251C18.0944 4.66716 11.0988 3.93112 6.36493 7.71644C1.65738 11.5018 0.815806 18.3627 4.52399 23.1469C8.28477 27.9836 15.2541 28.8774 20.0931 25.1447C20.0931 25.1447 20.0931 25.1447 20.1193 25.1447C20.7768 24.6452 21.7237 24.8555 22.0656 25.5915C22.2759 26.0121 22.5389 26.4064 22.8282 26.7745C24.8007 29.114 28.3248 29.5346 30.7968 27.7208C33.4794 25.7493 34.0054 21.9903 31.9803 19.3878C30.5339 17.4952 28.1669 16.7591 25.9841 17.2586C25.1951 17.4426 24.4324 16.8381 24.4061 16.0231Z" fill="#DDFF57"/>
<path d="M29.2757 12.4516C29.2117 12.3807 29.1443 12.3128 29.0734 12.2487C29.009 12.1768 28.9404 12.1083 28.8682 12.0438C28.8046 11.9731 28.7373 11.9058 28.6666 11.8424C28.6018 11.7702 28.5332 11.7017 28.4611 11.6367C28.397 11.5657 28.3297 11.498 28.2588 11.4343C28.1943 11.3624 28.1257 11.2938 28.0539 11.2293C27.9907 11.1587 27.9238 11.0917 27.8533 11.0284C27.7883 10.9562 27.7194 10.8872 27.6472 10.8218C27.5832 10.7504 27.5151 10.6826 27.4437 10.6181C27.3796 10.5467 27.3115 10.4789 27.2401 10.4148C26.7446 9.86327 26.0269 9.51589 25.2293 9.51589C24.031 9.51589 22.973 10.3117 22.637 11.459C22.6235 11.4947 22.6134 11.5321 22.6065 11.5698C22.5525 11.7873 22.5246 12.0069 22.5246 12.2219C22.5246 12.2443 22.5258 12.2657 22.5258 12.2856C22.4832 12.4728 22.4362 12.5592 22.4159 12.5892C22.2302 12.6809 21.5782 12.7775 20.7935 12.7808H9.68652C8.57788 12.7808 7.67645 13.6829 7.67645 14.7924V21.1245C7.67645 21.5032 7.85528 21.8408 8.13223 22.0579C8.19225 22.1346 8.26159 22.2036 8.33823 22.2637C8.39702 22.3383 8.46474 22.4058 8.53976 22.4646C8.59897 22.5405 8.66749 22.6087 8.74333 22.6683C8.80212 22.7434 8.86943 22.8112 8.94445 22.8704C9.00446 22.9471 9.0734 23.0165 9.15004 23.0766C9.21005 23.1533 9.27939 23.2222 9.35603 23.2823C9.41523 23.3574 9.48295 23.4247 9.55797 23.4836C9.61717 23.5591 9.6853 23.6273 9.76072 23.6866C9.81951 23.762 9.88723 23.8298 9.96225 23.889C10.0223 23.9657 10.0912 24.0352 10.1678 24.0952C10.3848 24.3723 10.7222 24.5513 11.1005 24.5513H13.8384C14.4912 24.5513 15.0233 24.0189 15.0233 23.3655V21.1285H23.9961C25.1047 21.1285 26.0062 20.2264 26.0062 19.1169V18.1275C26.1047 17.5156 26.2503 17.3227 26.3285 17.2611C26.4284 17.1835 26.6298 17.1681 26.923 17.1681C26.979 17.1681 27.0361 17.1681 27.0946 17.1693C27.1582 17.1706 27.2243 17.1706 27.2916 17.1706C27.3521 17.1706 27.4137 17.1706 27.4765 17.1685C28.9635 17.1641 30.1731 15.9515 30.1731 14.4621C30.1731 13.665 29.8264 12.9471 29.2757 12.4516Z" fill="#431AB7"/>
<path d="M25.3049 10.1942C24.3627 10.1942 23.5723 10.8354 23.3369 11.7063L23.3357 11.705C23.3357 11.705 23.3357 11.7095 23.3357 11.7129C23.2909 11.882 23.2649 12.0593 23.2649 12.242C23.2649 12.2805 23.2681 12.3176 23.2706 12.356C23.2164 12.638 23.1187 12.9429 22.9379 13.1154C22.5791 13.4582 21.1389 13.4811 20.8543 13.4831H9.69853C8.95622 13.4831 8.3548 14.0867 8.3548 14.8318V21.2081C8.3548 21.4938 8.58526 21.7251 8.8699 21.7251H11.6192C11.9039 21.7251 12.1343 21.4938 12.1343 21.2081V18.7955C12.1343 18.5097 12.3648 18.2785 12.6495 18.2785H21.8193C22.5617 18.2785 23.163 17.6749 23.163 16.9298V15.8804C23.4387 14.061 24.2368 14.314 25.3062 14.2903C26.4328 14.2903 27.347 13.3728 27.347 12.242C27.3458 11.1117 26.4328 10.1942 25.3049 10.1942ZM19.3835 16.4136C19.3835 16.6993 19.1531 16.9306 18.8684 16.9306H12.649C12.3644 16.9306 12.134 16.6993 12.134 16.4136V15.3483C12.134 15.0626 12.3644 14.8313 12.649 14.8313H18.8684C19.1531 14.8313 19.3835 15.0626 19.3835 15.3483V16.4136Z" fill="#EFF0F0"/>
<defs>
<filter id="filter0_i" x="0" y="0" width="38.6061" height="38.6061" filterUnits="userSpaceOnUse" color-interpolation-filters="sRGB">
<feFlood flood-opacity="0" result="BackgroundImageFix"/>
<feBlend mode="normal" in="SourceGraphic" in2="BackgroundImageFix" result="shape"/>
<feColorMatrix in="SourceAlpha" type="matrix" values="0 0 0 0 0 0 0 0 0 0 0 0 0 0 0 0 0 0 127 0" result="hardAlpha"/>
<feOffset dx="2.60606" dy="2.60606"/>
<feGaussianBlur stdDeviation="5.86364"/>
<feComposite in2="hardAlpha" operator="arithmetic" k2="-1" k3="1"/>
<feColorMatrix type="matrix" values="0 0 0 0 0 0 0 0 0 0 0 0 0 0 0 0 0 0 0.04 0"/>
<feBlend mode="normal" in2="shape" result="effect1_innerShadow"/>
</filter>
</defs>
</svg>
