<svg width="17" height="17" viewBox="0 0 17 17" fill="none" xmlns="http://www.w3.org/2000/svg">
<rect width="17" height="17" rx="8.5" fill="#DE7AF5"/>
<rect width="17" height="17" rx="8.5" fill="#3D23AE"/>
<path d="M4.84641 13.562V13.8139H5.09827H7.93739H8.18924V13.562V10.9286H9.91307C11.0906 10.9286 12.1144 10.5678 12.8478 9.93136C13.5836 9.29272 14.0138 8.38694 14.0138 7.33155C14.0138 6.27616 13.5836 5.37038 12.8478 4.73174C12.1144 4.09526 11.0906 3.73448 9.91307 3.73448H5.09827H4.84641V3.98633V13.562Z" fill="white"/>
<path d="M4.84641 13.562V13.8139H5.09827H7.93739H8.18924V13.562V10.9286H9.91307C11.0906 10.9286 12.1144 10.5678 12.8478 9.93136C13.5836 9.29272 14.0138 8.38694 14.0138 7.33155C14.0138 6.27616 13.5836 5.37038 12.8478 4.73174C12.1144 4.09526 11.0906 3.73448 9.91307 3.73448H5.09827H4.84641V3.98633V13.562Z" fill="url(#paint0_linear)"/>
<path d="M4.84641 13.562V13.8139H5.09827H7.93739H8.18924V13.562V10.9286H9.91307C11.0906 10.9286 12.1144 10.5678 12.8478 9.93136C13.5836 9.29272 14.0138 8.38694 14.0138 7.33155C14.0138 6.27616 13.5836 5.37038 12.8478 4.73174C12.1144 4.09526 11.0906 3.73448 9.91307 3.73448H5.09827H4.84641V3.98633V13.562Z" fill="url(#paint1_linear)"/>
<path d="M4.84641 13.562V13.8139H5.09827H7.93739H8.18924V13.562V10.9286H9.91307C11.0906 10.9286 12.1144 10.5678 12.8478 9.93136C13.5836 9.29272 14.0138 8.38694 14.0138 7.33155C14.0138 6.27616 13.5836 5.37038 12.8478 4.73174C12.1144 4.09526 11.0906 3.73448 9.91307 3.73448H5.09827H4.84641V3.98633V13.562Z" stroke="#3D23AE" strokeWidth="0.503704"/>
<path d="M12.1417 11.8079C12.1417 11.3431 11.9026 11.0769 11.3296 10.91L10.7566 10.7476C10.4678 10.6664 10.3415 10.5581 10.3415 10.4001C10.3415 10.1881 10.5761 10.0257 10.8739 10.0347C11.1852 10.0437 11.4243 10.2377 11.4875 10.5265L12.1192 10.4137C11.9928 9.91737 11.6748 9.59928 11.2078 9.49776V9.07814H10.5941V9.48422C10.0595 9.5722 9.73235 9.92188 9.73235 10.4317C9.73235 10.8513 9.97149 11.1401 10.4272 11.28L11.2303 11.5281C11.4379 11.5958 11.5326 11.6951 11.5326 11.853C11.5326 12.0876 11.28 12.2681 10.9416 12.2681C10.5806 12.2681 10.3009 12.0425 10.2196 11.6861L9.61053 11.7808C9.68949 12.329 10.0595 12.708 10.5941 12.8118V13.2246H11.2078V12.8163C11.774 12.717 12.1417 12.3335 12.1417 11.8079Z" fill="white"/>
<path d="M11.3296 10.91L11.4655 10.4437L11.4621 10.4427L11.3296 10.91ZM10.7566 10.7476L10.889 10.2803L10.8881 10.28L10.7566 10.7476ZM10.8739 10.0347L10.8592 10.5202L10.8598 10.5202L10.8739 10.0347ZM11.4875 10.5265L11.013 10.6303L11.1129 11.0868L11.5729 11.0046L11.4875 10.5265ZM12.1192 10.4137L12.2046 10.8918L12.7187 10.8L12.5899 10.2939L12.1192 10.4137ZM11.2078 9.49776H10.7221V9.88923L11.1046 9.97239L11.2078 9.49776ZM11.2078 9.07814H11.6935V8.59243H11.2078V9.07814ZM10.5941 9.07814V8.59243H10.1084V9.07814H10.5941ZM10.5941 9.48422L10.673 9.96349L11.0799 9.89654V9.48422H10.5941ZM10.4272 11.28L10.5706 10.8159L10.5697 10.8156L10.4272 11.28ZM11.2303 11.5281L11.3809 11.0663L11.3737 11.0641L11.2303 11.5281ZM10.2196 11.6861L10.6932 11.5782L10.5926 11.1365L10.145 11.2061L10.2196 11.6861ZM9.61053 11.7808L9.53587 11.3009L9.06131 11.3747L9.12978 11.8501L9.61053 11.7808ZM10.5941 12.8118H11.0799V12.4113L10.6867 12.335L10.5941 12.8118ZM10.5941 13.2246H10.1084V13.7103H10.5941V13.2246ZM11.2078 13.2246V13.7103H11.6935V13.2246H11.2078ZM11.2078 12.8163L11.1239 12.3379L10.7221 12.4083V12.8163H11.2078ZM12.6275 11.8079C12.6275 11.4857 12.5414 11.1768 12.311 10.9217C12.0936 10.6809 11.7923 10.5389 11.4654 10.4437L11.1937 11.3763C11.4399 11.448 11.5447 11.5226 11.5901 11.5728C11.6226 11.6088 11.656 11.6653 11.656 11.8079H12.6275ZM11.4621 10.4427L10.889 10.2803L10.6241 11.2149L11.1971 11.3773L11.4621 10.4427ZM10.8881 10.28C10.833 10.2645 10.7959 10.2505 10.7723 10.2397C10.7482 10.2287 10.7455 10.2243 10.7535 10.231C10.7631 10.2391 10.7846 10.2603 10.8025 10.2972C10.821 10.3353 10.8272 10.3724 10.8272 10.4001H9.85575C9.85575 10.6344 9.96015 10.833 10.128 10.9742C10.2737 11.0969 10.4554 11.1674 10.6251 11.2151L10.8881 10.28ZM10.8272 10.4001C10.8272 10.4397 10.8155 10.4748 10.8005 10.5002C10.7865 10.5238 10.773 10.5335 10.7714 10.5346C10.7701 10.5355 10.798 10.5183 10.8592 10.5202L10.8886 9.54919C10.652 9.54202 10.4137 9.60154 10.2206 9.73439C10.0256 9.86859 9.85575 10.0984 9.85575 10.4001H10.8272ZM10.8598 10.5202C10.9169 10.5218 10.9508 10.5392 10.9694 10.5542C10.9874 10.5687 11.0045 10.5915 11.013 10.6303L11.962 10.4227C11.8486 9.90424 11.4098 9.5643 10.888 9.54917L10.8598 10.5202ZM11.5729 11.0046L12.2046 10.8918L12.0338 9.93553L11.4021 10.0483L11.5729 11.0046ZM12.5899 10.2939C12.4219 9.63377 11.972 9.16683 11.3109 9.02313L11.1046 9.97239C11.3775 10.0317 11.5638 10.201 11.6485 10.5335L12.5899 10.2939ZM11.6935 9.49776V9.07814H10.7221V9.49776H11.6935ZM11.2078 8.59243H10.5941V9.56386H11.2078V8.59243ZM10.1084 9.07814V9.48422H11.0799V9.07814H10.1084ZM10.5153 9.00495C10.1624 9.06302 9.84047 9.21432 9.60467 9.47159C9.36582 9.73221 9.24664 10.0679 9.24664 10.4317H10.2181C10.2181 10.2857 10.2625 10.1916 10.3208 10.128C10.3822 10.0609 10.4912 9.9934 10.673 9.96349L10.5153 9.00495ZM9.24664 10.4317C9.24664 10.7392 9.33659 11.0293 9.53356 11.2691C9.72627 11.5037 9.99188 11.6544 10.2847 11.7443L10.5697 10.8156C10.4068 10.7656 10.325 10.7021 10.2842 10.6525C10.2477 10.608 10.2181 10.5439 10.2181 10.4317H9.24664ZM10.2838 11.744L11.0869 11.9922L11.3737 11.0641L10.5706 10.8159L10.2838 11.744ZM11.0797 11.9899C11.1097 11.9997 11.1241 12.0069 11.128 12.0092C11.1316 12.0112 11.1206 12.0056 11.1047 11.9887C11.0875 11.9703 11.0707 11.9449 11.0594 11.9146C11.0485 11.8853 11.0469 11.8626 11.0469 11.853H12.0183C12.0183 11.6649 11.957 11.4776 11.8139 11.3248C11.6852 11.1873 11.5224 11.1125 11.3809 11.0664L11.0797 11.9899ZM11.0469 11.853C11.0469 11.8216 11.056 11.7932 11.0678 11.773C11.0786 11.7544 11.0876 11.7491 11.0839 11.7517C11.0743 11.7585 11.029 11.7824 10.9416 11.7824V12.7538C11.1926 12.7538 11.4428 12.6875 11.6441 12.5453C11.8486 12.401 12.0183 12.1614 12.0183 11.853H11.0469ZM10.9416 11.7824C10.8116 11.7824 10.725 11.7178 10.6932 11.5782L9.74607 11.794C9.87668 12.3672 10.3496 12.7538 10.9416 12.7538V11.7824ZM10.145 11.2061L9.53587 11.3009L9.68519 12.2607L10.2943 12.166L10.145 11.2061ZM9.12978 11.8501C9.23866 12.606 9.76704 13.146 10.5016 13.2886L10.6867 12.335C10.3519 12.27 10.1403 12.0521 10.0913 11.7116L9.12978 11.8501ZM10.1084 12.8118V13.2246H11.0799V12.8118H10.1084ZM10.5941 13.7103H11.2078V12.7389H10.5941V13.7103ZM11.6935 13.2246V12.8163H10.7221V13.2246H11.6935ZM11.2916 13.2947C12.0445 13.1627 12.6275 12.613 12.6275 11.8079H11.656C11.656 12.054 11.5036 12.2713 11.1239 12.3379L11.2916 13.2947Z" fill="white"/>
<path d="M11.3296 10.91L11.4655 10.4437L11.4621 10.4427L11.3296 10.91ZM10.7566 10.7476L10.889 10.2803L10.8881 10.28L10.7566 10.7476ZM10.8739 10.0347L10.8592 10.5202L10.8598 10.5202L10.8739 10.0347ZM11.4875 10.5265L11.013 10.6303L11.1129 11.0868L11.5729 11.0046L11.4875 10.5265ZM12.1192 10.4137L12.2046 10.8918L12.7187 10.8L12.5899 10.2939L12.1192 10.4137ZM11.2078 9.49776H10.7221V9.88923L11.1046 9.97239L11.2078 9.49776ZM11.2078 9.07814H11.6935V8.59243H11.2078V9.07814ZM10.5941 9.07814V8.59243H10.1084V9.07814H10.5941ZM10.5941 9.48422L10.673 9.96349L11.0799 9.89654V9.48422H10.5941ZM10.4272 11.28L10.5706 10.8159L10.5697 10.8156L10.4272 11.28ZM11.2303 11.5281L11.3809 11.0663L11.3737 11.0641L11.2303 11.5281ZM10.2196 11.6861L10.6932 11.5782L10.5926 11.1365L10.145 11.2061L10.2196 11.6861ZM9.61053 11.7808L9.53587 11.3009L9.06131 11.3747L9.12978 11.8501L9.61053 11.7808ZM10.5941 12.8118H11.0799V12.4113L10.6867 12.335L10.5941 12.8118ZM10.5941 13.2246H10.1084V13.7103H10.5941V13.2246ZM11.2078 13.2246V13.7103H11.6935V13.2246H11.2078ZM11.2078 12.8163L11.1239 12.3379L10.7221 12.4083V12.8163H11.2078ZM12.6275 11.8079C12.6275 11.4857 12.5414 11.1768 12.311 10.9217C12.0936 10.6809 11.7923 10.5389 11.4654 10.4437L11.1937 11.3763C11.4399 11.448 11.5447 11.5226 11.5901 11.5728C11.6226 11.6088 11.656 11.6653 11.656 11.8079H12.6275ZM11.4621 10.4427L10.889 10.2803L10.6241 11.2149L11.1971 11.3773L11.4621 10.4427ZM10.8881 10.28C10.833 10.2645 10.7959 10.2505 10.7723 10.2397C10.7482 10.2287 10.7455 10.2243 10.7535 10.231C10.7631 10.2391 10.7846 10.2603 10.8025 10.2972C10.821 10.3353 10.8272 10.3724 10.8272 10.4001H9.85575C9.85575 10.6344 9.96015 10.833 10.128 10.9742C10.2737 11.0969 10.4554 11.1674 10.6251 11.2151L10.8881 10.28ZM10.8272 10.4001C10.8272 10.4397 10.8155 10.4748 10.8005 10.5002C10.7865 10.5238 10.773 10.5335 10.7714 10.5346C10.7701 10.5355 10.798 10.5183 10.8592 10.5202L10.8886 9.54919C10.652 9.54202 10.4137 9.60154 10.2206 9.73439C10.0256 9.86859 9.85575 10.0984 9.85575 10.4001H10.8272ZM10.8598 10.5202C10.9169 10.5218 10.9508 10.5392 10.9694 10.5542C10.9874 10.5687 11.0045 10.5915 11.013 10.6303L11.962 10.4227C11.8486 9.90424 11.4098 9.5643 10.888 9.54917L10.8598 10.5202ZM11.5729 11.0046L12.2046 10.8918L12.0338 9.93553L11.4021 10.0483L11.5729 11.0046ZM12.5899 10.2939C12.4219 9.63377 11.972 9.16683 11.3109 9.02313L11.1046 9.97239C11.3775 10.0317 11.5638 10.201 11.6485 10.5335L12.5899 10.2939ZM11.6935 9.49776V9.07814H10.7221V9.49776H11.6935ZM11.2078 8.59243H10.5941V9.56386H11.2078V8.59243ZM10.1084 9.07814V9.48422H11.0799V9.07814H10.1084ZM10.5153 9.00495C10.1624 9.06302 9.84047 9.21432 9.60467 9.47159C9.36582 9.73221 9.24664 10.0679 9.24664 10.4317H10.2181C10.2181 10.2857 10.2625 10.1916 10.3208 10.128C10.3822 10.0609 10.4912 9.9934 10.673 9.96349L10.5153 9.00495ZM9.24664 10.4317C9.24664 10.7392 9.33659 11.0293 9.53356 11.2691C9.72627 11.5037 9.99188 11.6544 10.2847 11.7443L10.5697 10.8156C10.4068 10.7656 10.325 10.7021 10.2842 10.6525C10.2477 10.608 10.2181 10.5439 10.2181 10.4317H9.24664ZM10.2838 11.744L11.0869 11.9922L11.3737 11.0641L10.5706 10.8159L10.2838 11.744ZM11.0797 11.9899C11.1097 11.9997 11.1241 12.0069 11.128 12.0092C11.1316 12.0112 11.1206 12.0056 11.1047 11.9887C11.0875 11.9703 11.0707 11.9449 11.0594 11.9146C11.0485 11.8853 11.0469 11.8626 11.0469 11.853H12.0183C12.0183 11.6649 11.957 11.4776 11.8139 11.3248C11.6852 11.1873 11.5224 11.1125 11.3809 11.0664L11.0797 11.9899ZM11.0469 11.853C11.0469 11.8216 11.056 11.7932 11.0678 11.773C11.0786 11.7544 11.0876 11.7491 11.0839 11.7517C11.0743 11.7585 11.029 11.7824 10.9416 11.7824V12.7538C11.1926 12.7538 11.4428 12.6875 11.6441 12.5453C11.8486 12.401 12.0183 12.1614 12.0183 11.853H11.0469ZM10.9416 11.7824C10.8116 11.7824 10.725 11.7178 10.6932 11.5782L9.74607 11.794C9.87668 12.3672 10.3496 12.7538 10.9416 12.7538V11.7824ZM10.145 11.2061L9.53587 11.3009L9.68519 12.2607L10.2943 12.166L10.145 11.2061ZM9.12978 11.8501C9.23866 12.606 9.76704 13.146 10.5016 13.2886L10.6867 12.335C10.3519 12.27 10.1403 12.0521 10.0913 11.7116L9.12978 11.8501ZM10.1084 12.8118V13.2246H11.0799V12.8118H10.1084ZM10.5941 13.7103H11.2078V12.7389H10.5941V13.7103ZM11.6935 13.2246V12.8163H10.7221V13.2246H11.6935ZM11.2916 13.2947C12.0445 13.1627 12.6275 12.613 12.6275 11.8079H11.656C11.656 12.054 11.5036 12.2713 11.1239 12.3379L11.2916 13.2947Z" fill="#3D23AE"/>
<defs>
<linearGradient id="paint0_linear" x1="10.6989" y1="10.1923" x2="5.60109" y2="13.9616" gradientUnits="userSpaceOnUse">
<stop stop-color="#73DCFD"/>
<stop offset="1" stop-color="#4282FF"/>
</linearGradient>
<linearGradient id="paint1_linear" x1="23.0028" y1="0.505161" x2="6.20567" y2="13.6041" gradientUnits="userSpaceOnUse">
<stop stop-color="#418DFF"/>
<stop offset="0.333302" stop-color="#4541FF"/>
<stop offset="0.57063" stop-color="#E129FF"/>
<stop offset="0.722869" stop-color="#E127FF"/>
<stop offset="0.844185" stop-color="#FF0BCC"/>
<stop offset="0.998516" stop-color="#FFC700"/>
</linearGradient>
</defs>
</svg>
