<svg width="70" height="56" viewBox="0 0 70 56" fill="none" xmlns="http://www.w3.org/2000/svg">
<path d="M55.7768 21.5061C55.7768 18.7953 55.2429 16.1111 54.2056 13.6067C53.1682 11.1023 51.6477 8.82673 49.7309 6.90993C47.8141 4.99315 45.5386 3.47267 43.0342 2.43531C40.5298 1.39795 37.8456 0.864029 35.1348 0.864029C32.4241 0.864029 29.7399 1.39795 27.2355 2.43531C24.7311 3.47267 22.4555 4.99315 20.5387 6.90994C18.6219 8.82673 17.1014 11.1023 16.0641 13.6067C15.0267 16.1111 14.4928 18.7953 14.4928 21.5061L35.1348 21.5061H55.7768Z" fill="#181818"/>
<path fillRule="evenodd" clipRule="evenodd" d="M66.6749 34.5703C68.3905 30.4284 69.2736 25.9891 69.2736 21.506H35.1348L0.996094 21.506C0.996094 25.9891 1.87912 30.4284 3.59475 34.5703C5.31038 38.7122 7.82502 42.4756 10.9951 45.6457C14.1652 48.8158 17.9286 51.3304 22.0705 53.0461C26.2124 54.7617 30.6517 55.6447 35.1348 55.6447C39.618 55.6447 44.0572 54.7617 48.1991 53.0461C52.341 51.3304 56.1045 48.8158 59.2745 45.6457C62.4446 42.4756 64.9593 38.7122 66.6749 34.5703ZM54.2055 29.4054C55.2429 26.9009 55.7768 24.2167 55.7768 21.506H35.1348L14.4928 21.506C14.4928 24.2167 15.0267 26.9009 16.0641 29.4054C17.1014 31.9098 18.6219 34.1853 20.5387 36.1021C22.4555 38.0189 24.731 39.5394 27.2354 40.5767C29.7398 41.6141 32.4241 42.148 35.1348 42.148C37.8456 42.148 40.5298 41.6141 43.0342 40.5767C45.5386 39.5394 47.8141 38.0189 49.7309 36.1021C51.6477 34.1853 53.1682 31.9098 54.2055 29.4054Z" fill="#181818"/>
</svg>
