<svg width="32" height="28" viewBox="0 0 32 28" fill="none" xmlns="http://www.w3.org/2000/svg">
<path d="M30.6666 26V23.3333C30.6666 20.3878 28.2788 18 25.3333 18H24.6666M19.9999 12.6667C22.9454 12.6667 25.3333 10.2789 25.3333 7.33333C25.3333 4.38781 22.9454 2 19.9999 2M22.6666 26V23.3333C22.6666 20.3878 20.2788 18 17.3333 18H6.66658C3.72107 18 1.33325 20.3878 1.33325 23.3333V26M17.3333 7.33333C17.3333 10.2789 14.9454 12.6667 11.9999 12.6667C9.0544 12.6667 6.66658 10.2789 6.66658 7.33333C6.66658 4.38781 9.0544 2 11.9999 2C14.9454 2 17.3333 4.38781 17.3333 7.33333Z" stroke="#949BAB" strokeWidth="2.2" strokeLinecap="round" strokeLinejoin="round"/>
</svg>
