<svg width="22" height="22" viewBox="0 0 22 22" fill="none" xmlns="http://www.w3.org/2000/svg">
<path d="M21.75 11L19.3161 8.29777L19.6972 4.68014L16.1382 3.92668L14.3228 0.772949L11 2.25793L7.67728 0.772949L5.86184 3.92668L2.30286 4.68014L2.6839 8.29777L0.25 11L2.68386 13.7023L2.30282 17.3199L5.8618 18.0734L7.67724 21.2271L11 19.7421L14.3227 21.2271L16.1382 18.0734L19.6971 17.3199L19.3161 13.7023L21.75 11ZM11 18.3606L8.20228 19.611L6.674 16.9561L3.67629 16.3215L3.99709 13.2757L1.94751 11.0001L3.99709 8.72447L3.67629 5.67867L6.674 5.04402L8.20228 2.38914L11 3.63948L13.7977 2.38914L15.326 5.04402L18.3237 5.67867L18.003 8.72447L20.0525 11L18.0029 13.2756L18.3237 16.3214L15.326 16.956L13.7977 19.6109L11 18.3606Z" fill="#949BAB"/>
<path d="M14.5656 7.80652L10.0584 12.8561L7.85937 10.6798L7.00781 11.5001L10.1105 14.6919L15.5066 8.64642L14.5656 7.80652Z" fill="#949BAB"/>
</svg>
