<svg width="26" height="28" viewBox="0 0 26 28" fill="none" xmlns="http://www.w3.org/2000/svg">
<path fill-rule="evenodd" clip-rule="evenodd" d="M10.2287 2.33539C10.1344 2.33539 10.0439 2.37286 9.97717 2.43957C9.91046 2.50628 9.87299 2.59675 9.87299 2.69109V5.89258H16.2756V2.69109C16.2756 2.59675 16.2382 2.50628 16.1715 2.43957C16.1047 2.37286 16.0143 2.33539 15.9199 2.33539H10.2287ZM7.73877 2.69109V5.89258H3.12696H3.10437H1.69211C1.10276 5.89258 0.625 6.37034 0.625 6.95969C0.625 7.54903 1.10276 8.0268 1.69211 8.0268H2.13259L3.47047 24.0813C3.48294 25.1017 3.8937 26.0777 4.61619 26.8001C5.34997 27.5339 6.34519 27.9462 7.38291 27.9462H18.7654C19.8031 27.9462 20.7983 27.5339 21.5321 26.8001C22.2546 26.0777 22.6654 25.1017 22.6778 24.0813L24.0157 8.0268H24.4571C25.0464 8.0268 25.5242 7.54903 25.5242 6.95969C25.5242 6.37034 25.0464 5.89258 24.4571 5.89258H23.0439H23.0214H18.4099V2.69109C18.4099 2.03072 18.1475 1.3974 17.6806 0.930452C17.2136 0.463502 16.5803 0.201172 15.9199 0.201172H10.2287C9.56832 0.201172 8.935 0.463502 8.46805 0.930452C8.0011 1.3974 7.73877 2.03072 7.73877 2.69109ZM4.27421 8.0268L5.60071 23.9448C5.60316 23.9743 5.60439 24.0038 5.60439 24.0334C5.60439 24.5051 5.79177 24.9575 6.12531 25.291C6.45884 25.6246 6.91122 25.8119 7.38291 25.8119H18.7654C19.2371 25.8119 19.6895 25.6246 20.023 25.291C20.3565 24.9575 20.5439 24.5051 20.5439 24.0334C20.5439 24.0038 20.5451 23.9743 20.5476 23.9448L21.8741 8.0268H4.27421ZM10.2287 11.5835C10.8181 11.5835 11.2958 12.0613 11.2958 12.6506V21.1875C11.2958 21.7768 10.8181 22.2546 10.2287 22.2546C9.63938 22.2546 9.16162 21.7768 9.16162 21.1875V12.6506C9.16162 12.0613 9.63938 11.5835 10.2287 11.5835ZM15.9201 11.5835C16.5095 11.5835 16.9872 12.0613 16.9872 12.6506V21.1875C16.9872 21.7768 16.5095 22.2546 15.9201 22.2546C15.3308 22.2546 14.853 21.7768 14.853 21.1875V12.6506C14.853 12.0613 15.3308 11.5835 15.9201 11.5835Z" fill="black"/>
<path fill-rule="evenodd" clip-rule="evenodd" d="M10.2287 2.33539C10.1344 2.33539 10.0439 2.37286 9.97717 2.43957C9.91046 2.50628 9.87299 2.59675 9.87299 2.69109V5.89258H16.2756V2.69109C16.2756 2.59675 16.2382 2.50628 16.1715 2.43957C16.1047 2.37286 16.0143 2.33539 15.9199 2.33539H10.2287ZM7.73877 2.69109V5.89258H3.12696H3.10437H1.69211C1.10276 5.89258 0.625 6.37034 0.625 6.95969C0.625 7.54903 1.10276 8.0268 1.69211 8.0268H2.13259L3.47047 24.0813C3.48294 25.1017 3.8937 26.0777 4.61619 26.8001C5.34997 27.5339 6.34519 27.9462 7.38291 27.9462H18.7654C19.8031 27.9462 20.7983 27.5339 21.5321 26.8001C22.2546 26.0777 22.6654 25.1017 22.6778 24.0813L24.0157 8.0268H24.4571C25.0464 8.0268 25.5242 7.54903 25.5242 6.95969C25.5242 6.37034 25.0464 5.89258 24.4571 5.89258H23.0439H23.0214H18.4099V2.69109C18.4099 2.03072 18.1475 1.3974 17.6806 0.930452C17.2136 0.463502 16.5803 0.201172 15.9199 0.201172H10.2287C9.56832 0.201172 8.935 0.463502 8.46805 0.930452C8.0011 1.3974 7.73877 2.03072 7.73877 2.69109ZM4.27421 8.0268L5.60071 23.9448C5.60316 23.9743 5.60439 24.0038 5.60439 24.0334C5.60439 24.5051 5.79177 24.9575 6.12531 25.291C6.45884 25.6246 6.91122 25.8119 7.38291 25.8119H18.7654C19.2371 25.8119 19.6895 25.6246 20.023 25.291C20.3565 24.9575 20.5439 24.5051 20.5439 24.0334C20.5439 24.0038 20.5451 23.9743 20.5476 23.9448L21.8741 8.0268H4.27421ZM10.2287 11.5835C10.8181 11.5835 11.2958 12.0613 11.2958 12.6506V21.1875C11.2958 21.7768 10.8181 22.2546 10.2287 22.2546C9.63938 22.2546 9.16162 21.7768 9.16162 21.1875V12.6506C9.16162 12.0613 9.63938 11.5835 10.2287 11.5835ZM15.9201 11.5835C16.5095 11.5835 16.9872 12.0613 16.9872 12.6506V21.1875C16.9872 21.7768 16.5095 22.2546 15.9201 22.2546C15.3308 22.2546 14.853 21.7768 14.853 21.1875V12.6506C14.853 12.0613 15.3308 11.5835 15.9201 11.5835Z" fill="url(#paint0_linear_8545_125430)"/>
<defs>
<linearGradient id="paint0_linear_8545_125430" x1="27.7244" y1="6.4177" x2="4.37284" y2="29.1519" gradientUnits="userSpaceOnUse">
<stop stop-color="#418DFF"/>
<stop offset="0.333302" stop-color="#4541FF"/>
<stop offset="0.437384" stop-color="#4541FF"/>
<stop offset="0.745055" stop-color="#EF41CB"/>
<stop offset="0.790836" stop-color="#EF41CB"/>
<stop offset="0.998516" stop-color="#EFA941"/>
</linearGradient>
</defs>
</svg>
