<svg width="17" height="17" viewBox="0 0 17 17" fill="none" xmlns="http://www.w3.org/2000/svg">
<path d="M10.8946 11.864L6.11219 9.47276M6.1054 7.53064L10.8923 5.13717M15 12.8333C15 14.03 14.03 15 12.8333 15C11.6367 15 10.6667 14.03 10.6667 12.8333C10.6667 11.6367 11.6367 10.6667 12.8333 10.6667C14.03 10.6667 15 11.6367 15 12.8333ZM15 4.16667C15 5.36328 14.03 6.33333 12.8333 6.33333C11.6367 6.33333 10.6667 5.36328 10.6667 4.16667C10.6667 2.97005 11.6367 2 12.8333 2C14.03 2 15 2.97005 15 4.16667ZM6.33333 8.5C6.33333 9.69662 5.36328 10.6667 4.16667 10.6667C2.97005 10.6667 2 9.69662 2 8.5C2 7.30338 2.97005 6.33333 4.16667 6.33333C5.36328 6.33333 6.33333 7.30338 6.33333 8.5Z" stroke="white" strokeWidth="1.5"/>
</svg>
