<svg width="20" height="17" viewBox="0 0 20 17" fill="none" xmlns="http://www.w3.org/2000/svg">
<path d="M20 1.875C19.25 2.25 18.5 2.375 17.625 2.5C18.5 2 19.125 1.25 19.375 0.25C18.625 0.75 17.75 1 16.75 1.25C16 0.5 14.875 0 13.75 0C11.125 0 9.125 2.5 9.75 5C6.375 4.875 3.375 3.25 1.25 0.75C0.125 2.625 0.75 5 2.5 6.25C1.875 6.25 1.25 6 0.625 5.75C0.625 7.625 2 9.375 3.875 9.875C3.25 10 2.625 10.125 2 10C2.5 11.625 4 12.875 5.875 12.875C4.375 14 2.125 14.625 0 14.375C1.875 15.5 4 16.25 6.25 16.25C13.875 16.25 18.125 9.875 17.875 4C18.75 3.5 19.5 2.75 20 1.875Z" fill="#404658"/>
</svg>
