<svg className={className} width="24" height="32" viewBox="0 0 24 32" fill="none" xmlns="http://www.w3.org/2000/svg">
  <path
    fill-rule="evenodd"
    clip-rule="evenodd"
    d="M11.9997 20.1667C14.7663 20.1667 16.9997 17.9334 16.9997 15.1667V5.16675C16.9997 2.40008 14.7663 0.166748 11.9997 0.166748C9.23301 0.166748 6.99967 2.40008 6.99967 5.16675V15.1667C6.99967 17.9334 9.23301 20.1667 11.9997 20.1667ZM10.333 5.16675C10.333 4.25008 11.083 3.50008 11.9997 3.50008C12.9163 3.50008 13.6663 4.25008 13.6663 5.16675V15.1667C13.6663 16.0834 12.9163 16.8334 11.9997 16.8334C11.083 16.8334 10.333 16.0834 10.333 15.1667V5.16675ZM11.9997 23.5001C16.5997 23.5001 20.333 19.7667 20.333 15.1667H23.6663C23.6663 21.0501 19.3163 25.8834 13.6663 26.7001V31.8334H10.333V26.7001C4.68301 25.8834 0.333008 21.0501 0.333008 15.1667H3.66634C3.66634 19.7667 7.39968 23.5001 11.9997 23.5001Z"
    fill="#431AB7"
  />
</svg>
