<svg width="24" height="32" viewBox="0 0 24 32" fill="none" xmlns="http://www.w3.org/2000/svg">
<path fill-rule="evenodd" clip-rule="evenodd" d="M12 20.168C14.7667 20.168 17 17.9346 17 15.168V5.16797C17 2.4013 14.7667 0.167969 12 0.167969C9.23334 0.167969 7.00001 2.4013 7.00001 5.16797V15.168C7.00001 17.9346 9.23334 20.168 12 20.168ZM10.3333 5.16797C10.3333 4.2513 11.0833 3.5013 12 3.5013C12.9167 3.5013 13.6667 4.2513 13.6667 5.16797V15.168C13.6667 16.0846 12.9167 16.8346 12 16.8346C11.0833 16.8346 10.3333 16.0846 10.3333 15.168V5.16797ZM12 23.5013C16.6 23.5013 20.3333 19.768 20.3333 15.168H23.6667C23.6667 21.0513 19.3167 25.8846 13.6667 26.7013V31.8346H10.3333V26.7013C4.68334 25.8846 0.333344 21.0513 0.333344 15.168H3.66668C3.66668 19.768 7.40001 23.5013 12 23.5013Z" fill="white"/>
</svg>
