<svg width="45" height="50" viewBox="0 0 45 50" fill="none" xmlns="http://www.w3.org/2000/svg">
<path fillRule="evenodd" clipRule="evenodd" d="M1.94696 0.975586C0.888941 0.975586 0.03125 1.83328 0.03125 2.89129V47.471C0.03125 48.529 0.888943 49.3867 1.94696 49.3867H20.4546C28.3623 49.3867 35.7715 45.5241 40.2994 39.041C46.1138 30.7158 46.1138 19.6465 40.2994 11.3213C35.7715 4.83822 28.3623 0.975586 20.4546 0.975586H1.94696ZM22.3166 36.3234C28.2581 36.3234 33.0746 31.5068 33.0746 25.5654C33.0746 19.6239 28.2581 14.8073 22.3166 14.8073C16.3751 14.8073 11.5586 19.6239 11.5586 25.5654C11.5586 31.5068 16.3751 36.3234 22.3166 36.3234Z" fill="#181818"/>
</svg>
