<svg width="48" height="41" viewBox="0 0 48 41" fill="none" xmlns="http://www.w3.org/2000/svg">
<path fillRule="evenodd" clipRule="evenodd" d="M18.209 28.5703V30.5186H9.92383C7.94141 30.5186 6.24609 30.1392 4.83789 29.3804C3.42969 28.6216 2.35645 27.5928 1.61816 26.2939C0.879883 24.9951 0.510742 23.5391 0.510742 21.9258C0.510742 20.4766 0.80127 19.1675 1.38232 17.9985C1.96338 16.8296 2.77686 15.8794 3.82275 15.1479C4.86865 14.4165 6.08887 13.9824 7.4834 13.8457C7.4834 12.5195 7.77734 11.3403 8.36523 10.3081C8.95312 9.27588 9.72217 8.43164 10.6724 7.77539C11.6226 7.11914 12.665 6.68848 13.7998 6.4834C14.9346 6.27832 16.0488 6.34668 17.1426 6.68848C17.8262 5.5127 18.6841 4.43945 19.7163 3.46875C20.7485 2.49805 21.9585 1.71875 23.3462 1.13086C24.7339 0.542969 26.3096 0.249023 28.0732 0.249023C29.96 0.249023 31.7168 0.611328 33.3438 1.33594C34.9707 2.06055 36.3926 3.07227 37.6094 4.37109C38.8262 5.66992 39.7627 7.20117 40.4189 8.96484C41.0752 10.7285 41.376 12.6494 41.3213 14.7275C43.249 15.3701 44.729 16.4194 45.7612 17.8755C46.7935 19.3315 47.3096 20.9688 47.3096 22.7871C47.3096 24.2637 46.9712 25.5864 46.2944 26.7554C45.6177 27.9243 44.6367 28.8438 43.3516 29.5137C42.0664 30.1836 40.5215 30.5186 38.7168 30.5186H29.3242V28.5703H38.6963C40.8701 28.5703 42.521 28.0269 43.6489 26.9399C44.7769 25.853 45.3408 24.4688 45.3408 22.7871C45.3408 21.1328 44.8315 19.7246 43.813 18.5625C42.7944 17.4004 41.4102 16.6074 39.6602 16.1836C39.4688 16.1289 39.3799 15.999 39.3936 15.7939C39.4072 15.3838 39.4243 14.9702 39.4448 14.5532C39.4653 14.1362 39.4619 13.7432 39.4346 13.374C39.2842 11.3096 38.71 9.43311 37.7119 7.74463C36.7139 6.05615 35.3843 4.71289 33.7231 3.71484C32.062 2.7168 30.1787 2.21777 28.0732 2.21777C26.3779 2.21777 24.9048 2.5083 23.6538 3.08936C22.4028 3.67041 21.3296 4.43945 20.4341 5.39648C19.5386 6.35352 18.7695 7.39941 18.127 8.53418C18.0449 8.69824 17.9014 8.75293 17.6963 8.69824C16.3154 8.30176 14.979 8.26416 13.687 8.58545C12.395 8.90674 11.332 9.604 10.498 10.6772C9.66406 11.7505 9.24707 13.21 9.24707 15.0557C9.24707 15.3018 9.1377 15.4248 8.91895 15.4248C6.88184 15.4248 5.29932 16.0435 4.17139 17.2808C3.04346 18.5181 2.47949 20.0664 2.47949 21.9258C2.47949 23.1699 2.76318 24.2944 3.33057 25.2993C3.89795 26.3042 4.73193 27.1006 5.83252 27.6885C6.93311 28.2764 8.29004 28.5703 9.90332 28.5703H18.209ZM24.4536 40.1367C24.269 40.3281 24.04 40.4238 23.7666 40.4238C23.5068 40.4238 23.2812 40.3281 23.0898 40.1367C22.8984 39.9453 22.8027 39.7197 22.8027 39.46V19.752L22.8643 16.6758L20.875 18.7061L17.3682 22.2129C17.1631 22.418 16.9375 22.5205 16.6914 22.5205C16.4453 22.5205 16.2368 22.4351 16.0659 22.2642C15.895 22.0933 15.8096 21.8848 15.8096 21.6387C15.8096 21.3926 15.9053 21.1807 16.0967 21.0029L23.0693 14.2354C23.1924 14.126 23.3086 14.0439 23.418 13.9893C23.5273 13.9346 23.6436 13.9072 23.7666 13.9072C23.8896 13.9072 24.0093 13.9346 24.1255 13.9893C24.2417 14.0439 24.3545 14.126 24.4639 14.2354L31.416 21.0029C31.6211 21.1807 31.7236 21.3926 31.7236 21.6387C31.7236 21.8848 31.6348 22.0933 31.457 22.2642C31.2793 22.4351 31.0742 22.5205 30.8418 22.5205C30.582 22.5205 30.3496 22.418 30.1445 22.2129L26.6582 18.7061L24.6689 16.6758L24.7305 19.752V39.46C24.7305 39.7197 24.6382 39.9453 24.4536 40.1367Z" fill="#54658F"/>
</svg>
