<svg width="19" height="24" viewBox="0 0 19 24" fill="none" xmlns="http://www.w3.org/2000/svg">
<path fillRule="evenodd" clipRule="evenodd" d="M10.0962 15.4406C9.9227 15.6177 9.71304 15.7063 9.46722 15.7063C9.22141 15.7063 9.01174 15.6177 8.83822 15.4406C8.66471 15.2635 8.57795 15.0592 8.57795 14.8279V4.40603L8.65386 2.87692L7.98149 3.62521L6.49575 5.1977C6.3367 5.37845 6.13426 5.46882 5.88844 5.46882C5.66432 5.46882 5.47454 5.39652 5.31909 5.25193C5.16365 5.10733 5.08593 4.92297 5.08593 4.69884C5.08593 4.48195 5.17269 4.29036 5.34621 4.12407L8.79485 0.783878C8.91775 0.668201 9.03162 0.588672 9.13646 0.545293C9.24129 0.501914 9.35154 0.480225 9.46722 0.480225C9.5829 0.480225 9.69316 0.501914 9.79799 0.545293C9.90282 0.588672 10.0167 0.668201 10.1396 0.783878L13.5882 4.12407C13.7618 4.29036 13.8485 4.48195 13.8485 4.69884C13.8485 4.92297 13.769 5.10733 13.6099 5.25193C13.4509 5.39652 13.2629 5.46882 13.046 5.46882C12.793 5.46882 12.5905 5.37845 12.4387 5.1977L10.953 3.62521L10.2914 2.88776L10.3565 4.40603V14.8279C10.3565 15.0592 10.2697 15.2635 10.0962 15.4406ZM17.834 22.994C17.2809 23.5435 16.4549 23.8182 15.3559 23.8182H9.46211H3.56767C2.47596 23.8182 1.65176 23.5435 1.09506 22.994C0.538359 22.4445 0.26001 21.6312 0.26001 20.5539V10.4032C0.26001 9.31872 0.538359 8.50175 1.09506 7.95228C1.65176 7.40281 2.47596 7.12808 3.56767 7.12808H6.38731V8.99338H3.64358C3.15918 8.99338 2.78504 9.12171 2.52115 9.37837C2.25726 9.63503 2.12531 10.02 2.12531 10.5333V20.4238C2.12531 20.9299 2.25726 21.3112 2.52115 21.5679C2.78504 21.8246 3.15918 21.9529 3.64358 21.9529H15.28C15.7644 21.9529 16.1404 21.8246 16.4079 21.5679C16.6754 21.3112 16.8091 20.9299 16.8091 20.4238V10.5333C16.8091 10.02 16.6754 9.63503 16.4079 9.37837C16.1404 9.12171 15.7644 8.99338 15.28 8.99338H12.5471V7.12808H15.3559C16.4549 7.12808 17.2809 7.40462 17.834 7.9577C18.3871 8.51078 18.6636 9.32595 18.6636 10.4032V20.5539C18.6636 21.6312 18.3871 22.4445 17.834 22.994Z" fill="white"/>
</svg>
