<svg width="40" height="40" viewBox="0 0 40 40" fill="none" xmlns="http://www.w3.org/2000/svg">
<g opacity="0.8" filter="url(#filter0_d)">
<circle cx="20" cy="18" r="16" fill="white"/>
</g>
<g opacity="0.8">
<path d="M24.5466 23.3681V22.5463C24.5466 20.7307 23.0748 19.2589 21.2592 19.2589H17.9718C16.1562 19.2589 14.6844 20.7307 14.6844 22.5463V23.3681M28.6558 23.3681V22.5463C28.6558 20.7307 27.184 19.2589 25.3684 19.2589H24.9575M10.5752 23.3681V22.5463C10.5752 20.7307 12.047 19.2589 13.8626 19.2589H14.2735M23.7247 16.7934C25.0864 16.7934 26.1903 15.6895 26.1903 14.3278C26.1903 12.9662 25.0864 11.8623 23.7247 11.8623M15.5063 16.7934C14.1446 16.7934 13.0407 15.6895 13.0407 14.3278C13.0407 12.9662 14.1446 11.8623 15.5063 11.8623M22.081 14.3278C22.081 15.6895 20.9772 16.7934 19.6155 16.7934C18.2538 16.7934 17.15 15.6895 17.15 14.3278C17.15 12.9662 18.2538 11.8623 19.6155 11.8623C20.9772 11.8623 22.081 12.9662 22.081 14.3278Z" stroke="#181818" strokeWidth="1.5" strokeLinecap="round" strokeLinejoin="round"/>
</g>
<defs>
<filter id="filter0_d" x="0" y="0" width="40" height="40" filterUnits="userSpaceOnUse" color-interpolation-filters="sRGB">
<feFlood flood-opacity="0" result="BackgroundImageFix"/>
<feColorMatrix in="SourceAlpha" type="matrix" values="0 0 0 0 0 0 0 0 0 0 0 0 0 0 0 0 0 0 127 0"/>
<feOffset dy="2"/>
<feGaussianBlur stdDeviation="2"/>
<feColorMatrix type="matrix" values="0 0 0 0 0 0 0 0 0 0 0 0 0 0 0 0 0 0 0.25 0"/>
<feBlend mode="normal" in2="BackgroundImageFix" result="effect1_dropShadow"/>
<feBlend mode="normal" in="SourceGraphic" in2="effect1_dropShadow" result="shape"/>
</filter>
</defs>
</svg>
