<svg width="24" height="24" viewBox="0 0 24 24" fill="none" xmlns="http://www.w3.org/2000/svg">
<path d="M22.75 11.9995L20.3161 9.29728L20.6972 5.67965L17.1382 4.92619L15.3228 1.77246L12 3.25744L8.67728 1.77246L6.86184 4.92619L3.30286 5.67965L3.6839 9.29728L1.25 11.9995L3.68386 14.7018L3.30282 18.3194L6.8618 19.0729L8.67724 22.2266L12 20.7416L15.3227 22.2266L17.1382 19.0729L20.6971 18.3194L20.3161 14.7018L22.75 11.9995ZM12 19.3601L9.20228 20.6105L7.674 17.9556L4.67629 17.321L4.99709 14.2752L2.94751 11.9996L4.99709 9.72398L4.67629 6.67818L7.674 6.04354L9.20228 3.38866L12 4.63899L14.7977 3.38866L16.326 6.04354L19.3237 6.67818L19.003 9.72398L21.0525 11.9995L19.0029 14.2752L19.3237 17.3209L16.326 17.9556L14.7977 20.6104L12 19.3601Z" fill="#727F9A"/>
<path d="M15.5656 8.80566L11.0584 13.8553L8.85938 11.679L8.00781 12.4993L11.1105 15.6911L16.5066 9.64557L15.5656 8.80566Z" fill="#727F9A"/>
</svg>
