<svg width="13" height="12" viewBox="0 0 13 12" fill="none" xmlns="http://www.w3.org/2000/svg">
<path d="M0.250369 10.1569C0.250369 11.0083 0.951691 11.7596 1.8026 11.7596H10.817C11.5682 11.7596 12.2191 11.1086 12.2191 10.3574V8.95532H10.5167C9.56494 8.95532 8.76386 8.15424 8.76386 7.20252C8.76386 6.2508 9.56494 5.44971 10.5167 5.44971H12.2695V3.7967C12.2695 3.14576 11.8689 2.64495 11.2679 2.44441V1.64333C11.2679 0.892127 10.6169 0.241211 9.86574 0.241211H1.85293C0.951591 0.241211 0.250244 0.942532 0.250244 1.79344V10.1569L0.250369 10.1569ZM1.8026 1.24274H9.81541C10.0159 1.24274 10.216 1.44326 10.216 1.64328V2.39448H1.80263C1.50235 2.39448 1.25195 2.14408 1.25195 1.8438C1.25195 1.49314 1.50235 1.24274 1.80263 1.24274H1.8026Z" fill="white"/>
</svg>
