<svg width="24" height="24" viewBox="0 0 24 24" fill="none" xmlns="http://www.w3.org/2000/svg">
<path d="M13.5 9.875C13.5 9.46079 13.1642 9.125 12.75 9.125C12.3358 9.125 12 9.46079 12 9.875H13.5ZM12 14.8625C12 15.2767 12.3358 15.6125 12.75 15.6125C13.1642 15.6125 13.5 15.2767 13.5 14.8625L12 14.8625ZM13.5 16.9929C13.5 16.5787 13.1642 16.2429 12.75 16.2429C12.3358 16.2429 12 16.5787 12 16.9929H13.5ZM12 17C12 17.4142 12.3358 17.75 12.75 17.75C13.1642 17.75 13.5 17.4142 13.5 17H12ZM12 9.875L12 14.8625L13.5 14.8625L13.5 9.875H12ZM12 16.9929V17H13.5V16.9929H12Z" fill="#727F9A"/>
<path d="M12.6132 4L4.0625 19.75H21.4375L12.6132 4Z" stroke="#727F9A" strokeWidth="1.5" strokeLinejoin="round"/>
</svg>
