<svg width="21" height="20" viewBox="0 0 21 20" fill="none" xmlns="http://www.w3.org/2000/svg">
<path d="M9.64648 14.9175C9.64648 15.3317 9.98227 15.6675 10.3965 15.6675C10.8107 15.6675 11.1465 15.3317 11.1465 14.9175H9.64648ZM11.1465 7.91748C11.1465 7.50327 10.8107 7.16748 10.3965 7.16748C9.98227 7.16748 9.64649 7.50327 9.64649 7.91748H11.1465ZM9.64648 4.92744C9.64648 5.34166 9.98227 5.67744 10.3965 5.67744C10.8107 5.67744 11.1465 5.34166 11.1465 4.92744H9.64648ZM11.1465 4.91745C11.1465 4.50324 10.8107 4.16745 10.3965 4.16745C9.98227 4.16745 9.64648 4.50324 9.64648 4.91745H11.1465ZM11.1465 14.9175L11.1465 7.91748H9.64649L9.64648 14.9175H11.1465ZM11.1465 4.92744V4.91745H9.64648V4.92744H11.1465ZM18.6465 9.91748C18.6465 14.4738 14.9528 18.1675 10.3965 18.1675V19.6675C15.7813 19.6675 20.1465 15.3023 20.1465 9.91748H18.6465ZM10.3965 18.1675C5.84014 18.1675 2.14648 14.4738 2.14648 9.91748H0.646484C0.646484 15.3023 5.01171 19.6675 10.3965 19.6675V18.1675ZM2.14648 9.91748C2.14648 5.36113 5.84014 1.66748 10.3965 1.66748V0.16748C5.01171 0.16748 0.646484 4.5327 0.646484 9.91748H2.14648ZM10.3965 1.66748C14.9528 1.66748 18.6465 5.36113 18.6465 9.91748H20.1465C20.1465 4.5327 15.7813 0.16748 10.3965 0.16748V1.66748Z" fill="white"/>
</svg>
