<svg width="21" height="19" viewBox="0 0 21 19" fill="none" xmlns="http://www.w3.org/2000/svg">
<path d="M19.9556 16.425L11.7243 1.35281C11.6043 1.13718 11.4365 0.945 11.22 0.825C11.0043 0.705 10.7643 0.632812 10.5243 0.632812C10.2843 0.632812 10.0443 0.705 9.82873 0.825C9.61311 0.945 9.44434 1.13719 9.32434 1.35281L1.0921 16.425C0.852103 16.8807 0.852103 17.3372 1.11648 17.7694C1.23648 17.9851 1.40429 18.2972 1.62086 18.4172C1.83649 18.5372 2.05305 18.7529 2.29305 18.7529H18.7575C18.9975 18.7529 19.2375 18.5372 19.4297 18.4172C19.6453 18.2972 19.8141 18.0572 19.9341 17.8416C20.1957 17.4094 20.1957 16.8816 19.9557 16.4251L19.9556 16.425ZM9.0601 7.44953C9.0601 6.70514 9.63572 6.10514 10.3801 6.10514C11.1245 6.10514 11.7001 6.70514 11.7001 7.44953V11.4818C11.7001 12.2262 11.1245 12.8262 10.3801 12.8262C9.63572 12.8252 9.0601 12.2252 9.0601 11.4818V7.44953ZM10.5479 16.233C9.80353 16.233 9.20353 15.633 9.20353 14.8887C9.20353 14.1443 9.80353 13.5443 10.5479 13.5443C11.2923 13.5443 11.8923 14.1443 11.8923 14.8887C11.8923 15.633 11.2923 16.233 10.5479 16.233Z" fill="#FF8E3C"/>
</svg>
