<svg width="20" height="20" viewBox="0 0 20 20" fill="none" xmlns="http://www.w3.org/2000/svg">
<path d="M19.1523 10.2117C19.1523 15.1822 15.1229 19.2117 10.1523 19.2117M19.1523 10.2117C19.1523 5.24111 15.1229 1.21167 10.1523 1.21167M19.1523 10.2117H1.15234M10.1523 19.2117C5.18178 19.2117 1.15234 15.1822 1.15234 10.2117M10.1523 19.2117C10.1523 19.2117 14.1523 16.2117 14.1523 10.2117C14.1523 4.21167 10.1523 1.21167 10.1523 1.21167M10.1523 19.2117C10.1523 19.2117 6.15234 16.2117 6.15234 10.2117C6.15235 4.21167 10.1523 1.21167 10.1523 1.21167M1.15234 10.2117C1.15234 5.24111 5.18178 1.21167 10.1523 1.21167" stroke="#181818" strokeWidth="1.5"/>
</svg>
