<svg width="16.5" height="16.5" viewBox="0 0 18 19" fill="none" xmlns="http://www.w3.org/2000/svg">
<path d="M13.6869 7.10355C13.8821 6.90829 13.8821 6.59171 13.6869 6.39645C13.4916 6.20118 13.175 6.20118 12.9798 6.39645L13.6869 7.10355ZM6.91665 13.1667L6.5631 13.5202C6.75836 13.7155 7.07494 13.7155 7.2702 13.5202L6.91665 13.1667ZM4.52016 10.0631C4.3249 9.86785 4.00832 9.86785 3.81306 10.0631C3.61779 10.2584 3.6178 10.575 3.81306 10.7702L4.52016 10.0631ZM12.9798 6.39645L6.5631 12.8131L7.2702 13.5202L13.6869 7.10355L12.9798 6.39645ZM3.81306 10.7702L6.5631 13.5202L7.2702 12.8131L4.52016 10.0631L3.81306 10.7702ZM16.5 9.5C16.5 13.7802 13.0302 17.25 8.75 17.25V18.25C13.5825 18.25 17.5 14.3325 17.5 9.5H16.5ZM8.75 17.25C4.46979 17.25 1 13.7802 1 9.5H0C0 14.3325 3.91751 18.25 8.75 18.25V17.25ZM1 9.5C1 5.21979 4.46979 1.75 8.75 1.75V0.75C3.91751 0.75 0 4.66751 0 9.5H1ZM8.75 1.75C13.0302 1.75 16.5 5.21979 16.5 9.5H17.5C17.5 4.66751 13.5825 0.75 8.75 0.75V1.75Z" fill="#99A1B3" stroke="currentColor" strokeWidth="0"/>
</svg>
