<svg width="268" height="59" viewBox="0 0 268 59" fill="none" xmlns="http://www.w3.org/2000/svg">
<path d="M5.97668 14.5389C5.97668 9.50211 10.0598 5.41895 15.0967 5.41895H41.3167C42.5759 5.41895 43.5967 6.43974 43.5967 7.69895V21.3789C43.5967 22.6382 42.5759 23.6589 41.3167 23.6589H15.0967C10.0598 23.6589 5.97668 19.5758 5.97668 14.5389Z" fill="#C4C4C4"/>
<path d="M5.97668 14.5389C5.97668 9.50211 10.0598 5.41895 15.0967 5.41895H41.3167C42.5759 5.41895 43.5967 6.43974 43.5967 7.69895V21.3789C43.5967 22.6382 42.5759 23.6589 41.3167 23.6589H15.0967C10.0598 23.6589 5.97668 19.5758 5.97668 14.5389Z" fill="url(#paint0_linear)"/>
<path d="M13.9511 54.4379C9.22909 54.4379 5.40112 50.6099 5.40112 45.8878L5.40112 33.3478C5.40112 28.6258 9.22909 24.7979 13.9511 24.7979C18.6732 24.7979 22.5011 28.6258 22.5011 33.3479V45.8879C22.5011 50.6099 18.6732 54.4379 13.9511 54.4379Z" fill="#C4C4C4"/>
<path d="M13.9511 54.4379C9.22909 54.4379 5.40112 50.6099 5.40112 45.8878L5.40112 33.3478C5.40112 28.6258 9.22909 24.7979 13.9511 24.7979C18.6732 24.7979 22.5011 28.6258 22.5011 33.3479V45.8879C22.5011 50.6099 18.6732 54.4379 13.9511 54.4379Z" fill="url(#paint1_linear)"/>
<path d="M37.8911 36.8798C40.1711 35.5635 40.1711 32.2726 37.8911 30.9562L29.3411 26.0199C27.0611 24.7035 24.2111 26.3489 24.2111 28.9817L24.2111 38.8544C24.2111 41.4871 27.0611 43.1325 29.3411 41.8162L37.8911 36.8798Z" fill="#C4C4C4"/>
<path d="M37.8911 36.8798C40.1711 35.5635 40.1711 32.2726 37.8911 30.9562L29.3411 26.0199C27.0611 24.7035 24.2111 26.3489 24.2111 28.9817L24.2111 38.8544C24.2111 41.4871 27.0611 43.1325 29.3411 41.8162L37.8911 36.8798Z" fill="url(#paint2_linear)"/>
<path d="M37.8911 36.8798C40.1711 35.5635 40.1711 32.2726 37.8911 30.9562L29.3411 26.0199C27.0611 24.7035 24.2111 26.3489 24.2111 28.9817L24.2111 38.8544C24.2111 41.4871 27.0611 43.1325 29.3411 41.8162L37.8911 36.8798Z" fill="#FF5750"/>
<path d="M64.0012 43.751H74.4508V34.9829H87.0224C95.1899 34.9829 99.714 31.4997 99.7541 25.1739C99.7541 18.688 95.2299 15.0846 87.1024 15.0846H64.0012V43.751ZM74.4508 29.0975V20.9701H83.6192C87.2626 20.9701 89.2644 22.4114 89.2644 25.0138C89.2644 27.6562 87.2626 29.0975 83.6192 29.0975H74.4508ZM119.89 22.4114C116.167 22.4114 112.804 24.4933 111.282 27.8564H111.242L109.961 23.092H102.074V43.751H111.562V34.5425C111.562 30.6189 113.164 28.1366 115.846 28.1366C117.808 28.1366 119.169 30.0984 119.33 33.1813L127.977 31.4997C127.657 25.9746 124.494 22.4114 119.89 22.4114ZM134.835 20.89C137.878 20.89 140.08 18.9682 140.08 16.2457C140.08 13.5232 137.878 11.6415 134.835 11.6415C131.793 11.6415 129.591 13.5232 129.591 16.2457C129.591 18.9682 131.793 20.89 134.835 20.89ZM130.111 43.751H139.56V23.092H130.111V43.751ZM152.46 43.751H164.591L175.882 23.092H165.833L158.626 37.9456H158.586L151.379 23.092H141.33L152.46 43.751ZM182.379 20.89C185.422 20.89 187.624 18.9682 187.624 16.2457C187.624 13.5232 185.422 11.6415 182.379 11.6415C179.336 11.6415 177.134 13.5232 177.134 16.2457C177.134 18.9682 179.336 20.89 182.379 20.89ZM177.655 43.751H187.103V23.092H177.655V43.751ZM200.142 43.751H203.465V31.0193H223.603V28.1366H203.465V18.4878H225.966V15.5251H200.142V43.751ZM228.166 43.751H231.209V14.324H228.166V43.751ZM236.424 19.6088C237.785 19.6088 238.706 18.728 238.706 17.3667C238.706 16.0455 237.785 15.1647 236.424 15.1647C235.062 15.1647 234.182 16.0455 234.182 17.3667C234.182 18.728 235.062 19.6088 236.424 19.6088ZM234.902 43.751H237.945V23.5324H234.902V43.751ZM240.054 43.751H244.418L253.466 35.1831L262.474 43.751H266.798L255.708 33.2613L266.398 23.5324H262.114L253.466 31.4997L244.738 23.5324H240.414L251.224 33.2613L240.054 43.751Z" fill="white"/>
<defs>
<linearGradient id="paint0_linear" x1="11.1496" y1="37.9528" x2="28.0549" y2="2.42118" gradientUnits="userSpaceOnUse">
<stop offset="0.0132391" stop-color="#FFB08F"/>
<stop offset="1" stop-color="#FF4D48"/>
</linearGradient>
<linearGradient id="paint1_linear" x1="11.1496" y1="67.5917" x2="28.0549" y2="32.0601" gradientUnits="userSpaceOnUse">
<stop offset="0.0132391" stop-color="#FFB08F"/>
<stop offset="1" stop-color="#FF4D48"/>
</linearGradient>
<linearGradient id="paint2_linear" x1="-3.28042" y1="43.95" x2="29.5803" y2="14.1333" gradientUnits="userSpaceOnUse">
<stop offset="0.0132391" stop-color="#FFB08F"/>
<stop offset="1" stop-color="#FF4D48"/>
</linearGradient>
</defs>
</svg>
