<svg width="41" height="41" viewBox="0 0 41 41" fill="none" xmlns="http://www.w3.org/2000/svg">
<path d="M20.5 40.5352C31.5457 40.5352 40.5 31.5809 40.5 20.5352C40.5 9.48946 31.5457 0.535156 20.5 0.535156C9.4543 0.535156 0.5 9.48946 0.5 20.5352C0.5 31.5809 9.4543 40.5352 20.5 40.5352Z" fill="#4D4D4D"/>
<path fillRule="evenodd" clipRule="evenodd" d="M14.7288 18.1592L20.4998 12.3881L26.2709 18.1651L29.6289 14.8071L20.4998 5.67212L11.3708 14.8012L14.7288 18.1592ZM5.64136 20.5306L8.99937 17.1726L12.3574 20.5306L8.99937 23.8886L5.64136 20.5306ZM14.7288 22.902L20.4998 28.673L26.2709 22.8961L29.6348 26.2541L20.4998 35.3891L11.3708 26.26L11.3648 26.2541L14.7288 22.902ZM28.6423 20.5306L32.0003 17.1726L35.3583 20.5306L32.0003 23.8886L28.6423 20.5306Z" fill="#F3BA2F"/>
<path fillRule="evenodd" clipRule="evenodd" d="M24.2445 20.5314L20.5001 16.7751L17.7305 19.5507L17.4096 19.8717L16.7498 20.5314L16.7439 20.5373L16.7498 20.5433L20.4942 24.2876L24.2445 20.5373V20.5314Z" fill="#F3BA2F"/>
</svg>
