<svg width="51" height="45" viewBox="0 0 51 45" fill="none" xmlns="http://www.w3.org/2000/svg">
<path fillRule="evenodd" clipRule="evenodd" d="M14.416 41.3623L21.0179 43.1139V40.8233L21.5568 40.2844H25.3293V42.979V44.8653H21.2874L16.3022 42.7096L14.416 41.3623Z" fill="#CDBDB2"/>
<path fillRule="evenodd" clipRule="evenodd" d="M35.9727 41.3623L29.5056 43.1139V40.8233L28.9667 40.2844H25.1942V42.979V44.8653H29.2361L34.221 42.7096L35.9727 41.3623Z" fill="#CDBDB2"/>
<path fillRule="evenodd" clipRule="evenodd" d="M21.557 36.3773L21.0181 40.8232L21.6916 40.2843H28.6976L29.5059 40.8232L28.967 36.3773L27.8892 35.7035L22.5 35.8383L21.557 36.3773Z" fill="#393939"/>
<path fillRule="evenodd" clipRule="evenodd" d="M17.9189 6.33228L21.1525 13.8772L22.6346 35.8383H27.889L29.5057 13.8772L32.4698 6.33228H17.9189Z" fill="#F89C35"/>
<path fillRule="evenodd" clipRule="evenodd" d="M3.77245 22.9043L0 33.8174L9.43111 33.2784H15.4939V28.563L15.2244 18.8624L13.8771 19.9403L3.77245 22.9043Z" fill="#F89D35"/>
<path fillRule="evenodd" clipRule="evenodd" d="M10.9131 24.1167L21.961 24.3862L20.7485 30.0448L15.4939 28.6975L10.9131 24.1167Z" fill="#D87C30"/>
<path fillRule="evenodd" clipRule="evenodd" d="M10.9131 24.2516L15.4939 28.563V32.8743L10.9131 24.2516Z" fill="#EA8D3A"/>
<path fillRule="evenodd" clipRule="evenodd" d="M15.4937 28.6976L20.8829 30.0449L22.6345 35.8385L21.4218 36.512L15.4937 33.009V28.6976Z" fill="#F89D35"/>
<path fillRule="evenodd" clipRule="evenodd" d="M15.4939 33.0089L14.416 41.3622L21.5568 36.3773L15.4939 33.0089Z" fill="#EB8F35"/>
<path fillRule="evenodd" clipRule="evenodd" d="M21.9606 24.3861L22.6344 35.8383L20.6133 29.9775L21.9606 24.3861Z" fill="#EA8E3A"/>
<path fillRule="evenodd" clipRule="evenodd" d="M9.2959 33.1438L15.4935 33.0089L14.4156 41.3622L9.2959 33.1438Z" fill="#D87C30"/>
<path fillRule="evenodd" clipRule="evenodd" d="M2.96406 45.0001L14.416 41.3622L9.29626 33.1438L0 33.8173L2.96406 45.0001Z" fill="#EB8F35"/>
<path fillRule="evenodd" clipRule="evenodd" d="M21.1526 13.8772L15.3593 18.7275L10.9131 24.1167L21.961 24.521L21.1526 13.8772Z" fill="#E8821E"/>
<path fillRule="evenodd" clipRule="evenodd" d="M14.416 41.3621L21.5568 36.3772L21.0179 40.6886V43.1137L16.1676 42.1705L14.416 41.3621Z" fill="#DFCEC3"/>
<path fillRule="evenodd" clipRule="evenodd" d="M35.9727 41.3621L28.9667 36.3772L29.5056 40.6886V43.1137L34.3559 42.1705L35.9727 41.3621Z" fill="#DFCEC3"/>
<path fillRule="evenodd" clipRule="evenodd" d="M18.9969 26.8113L20.479 29.9102L15.2244 28.5629L18.9969 26.8113Z" fill="#393939"/>
<path fillRule="evenodd" clipRule="evenodd" d="M2.8291 0.00012207L21.1524 13.8772L18.0537 6.33232L2.8291 0.00012207Z" fill="#E88F35"/>
<path fillRule="evenodd" clipRule="evenodd" d="M2.82895 0L0.403809 7.41016L1.75111 15.494L0.807999 16.0329L2.1553 17.2455L1.07746 18.1886L2.55949 19.5359L1.61638 20.3443L3.77206 23.0389L13.8768 19.9401C18.8169 15.988 21.2421 13.967 21.1523 13.8772C21.0624 13.7874 14.9547 9.16165 2.82895 0Z" fill="#8E5A30"/>
<path fillRule="evenodd" clipRule="evenodd" d="M46.6167 22.9043L50.3892 33.8174L40.958 33.2784H34.8953V28.563L35.1648 18.8624L36.5121 19.9403L46.6167 22.9043Z" fill="#F89D35"/>
<path fillRule="evenodd" clipRule="evenodd" d="M39.4766 24.1167L28.4287 24.3862L29.6411 30.0448L34.8957 28.6975L39.4766 24.1167Z" fill="#D87C30"/>
<path fillRule="evenodd" clipRule="evenodd" d="M39.4766 24.2516L34.8957 28.563V32.8743L39.4766 24.2516Z" fill="#EA8D3A"/>
<path fillRule="evenodd" clipRule="evenodd" d="M34.8955 28.6976L29.5063 30.0449L27.7547 35.8385L28.9674 36.512L34.8955 33.009V28.6976Z" fill="#F89D35"/>
<path fillRule="evenodd" clipRule="evenodd" d="M34.8953 33.0089L35.9731 41.3622L28.9672 36.5119L34.8953 33.0089Z" fill="#EB8F35"/>
<path fillRule="evenodd" clipRule="evenodd" d="M28.4286 24.3861L27.7548 35.8383L29.7759 29.9775L28.4286 24.3861Z" fill="#EA8E3A"/>
<path fillRule="evenodd" clipRule="evenodd" d="M41.0933 33.1438L34.8957 33.0089L35.9735 41.3622L41.0933 33.1438Z" fill="#D87C30"/>
<path fillRule="evenodd" clipRule="evenodd" d="M47.4251 45.0001L35.9731 41.3622L41.0929 33.1438L50.3892 33.8173L47.4251 45.0001Z" fill="#EB8F35"/>
<path fillRule="evenodd" clipRule="evenodd" d="M29.2371 13.8772L35.0303 18.7275L39.4766 24.1167L28.4287 24.521L29.2371 13.8772Z" fill="#E8821E"/>
<path fillRule="evenodd" clipRule="evenodd" d="M31.3923 26.8113L29.9102 29.9102L35.1648 28.5629L31.3923 26.8113Z" fill="#393939"/>
<path fillRule="evenodd" clipRule="evenodd" d="M47.5601 0.00012207L29.2368 13.8772L32.3354 6.33232L47.5601 0.00012207Z" fill="#E88F35"/>
<path fillRule="evenodd" clipRule="evenodd" d="M47.5602 0L49.9854 7.41016L48.638 15.494L49.5812 16.0329L48.2339 17.2455L49.3117 18.1886L47.8297 19.5359L48.7728 20.3443L46.6171 23.0389L36.5123 19.9401C31.5722 15.988 29.1471 13.967 29.2369 13.8772C29.3267 13.7874 35.4345 9.16165 47.5602 0Z" fill="#8E5A30"/>
</svg>
