<svg viewBox="0 0 132 119" fill="none" xmlns="http://www.w3.org/2000/svg">
<path fill-rule="evenodd" clip-rule="evenodd" d="M38.042 108.766L55.2856 113.341V107.358L56.6932 105.951H66.5465V112.989V117.915H55.9894L42.9686 112.285L38.042 108.766Z" fill="#CDBDB2"/>
<path fill-rule="evenodd" clip-rule="evenodd" d="M94.3462 108.766L77.4548 113.341V107.358L76.0472 105.951H66.1939V112.989V117.915H76.751L89.7711 112.285L94.3462 108.766Z" fill="#CDBDB2"/>
<path fill-rule="evenodd" clip-rule="evenodd" d="M56.6937 95.7447L55.2861 107.357L57.0453 105.95H75.3443L77.4557 107.357L76.0481 95.7447L73.2329 93.9849L59.1568 94.3371L56.6937 95.7447Z" fill="#393939"/>
<path fill-rule="evenodd" clip-rule="evenodd" d="M47.1909 17.2695L55.6366 36.9761L59.5078 94.3366H73.2317L77.4546 36.9761L85.1964 17.2695H47.1909Z" fill="#F89C35"/>
<path fill-rule="evenodd" clip-rule="evenodd" d="M10.242 60.5556L0.388672 89.0595L25.0219 87.6518H40.8572V75.3356L40.1534 49.9985L36.6344 52.8138L10.242 60.5556Z" fill="#F89D35"/>
<path fill-rule="evenodd" clip-rule="evenodd" d="M28.8926 63.7241L57.7486 64.4279L54.5818 79.2079L40.8573 75.6888L28.8926 63.7241Z" fill="#D87C30"/>
<path fill-rule="evenodd" clip-rule="evenodd" d="M28.8926 64.0757L40.8573 75.3366V86.5975L28.8926 64.0757Z" fill="#EA8D3A"/>
<path fill-rule="evenodd" clip-rule="evenodd" d="M40.8569 75.6865L54.9331 79.2056L59.5081 94.3377L56.3407 96.0969L40.8569 86.9474V75.6865Z" fill="#F89D35"/>
<path fill-rule="evenodd" clip-rule="evenodd" d="M40.8572 86.9487L38.042 108.767L56.6932 95.7466L40.8572 86.9487Z" fill="#EB8F35"/>
<path fill-rule="evenodd" clip-rule="evenodd" d="M57.748 64.4258L59.5079 94.3379L54.229 79.0299L57.748 64.4258Z" fill="#EA8E3A"/>
<path fill-rule="evenodd" clip-rule="evenodd" d="M24.6685 87.3009L40.856 86.9487L38.0408 108.767L24.6685 87.3009Z" fill="#D87C30"/>
<path fill-rule="evenodd" clip-rule="evenodd" d="M8.13054 118.268L38.042 108.766L24.6697 87.3003L0.388672 89.0595L8.13054 118.268Z" fill="#EB8F35"/>
<path fill-rule="evenodd" clip-rule="evenodd" d="M55.6372 36.9775L40.5057 49.6461L28.8926 63.7222L57.7486 64.7782L55.6372 36.9775Z" fill="#E8821E"/>
<path fill-rule="evenodd" clip-rule="evenodd" d="M38.042 108.766L56.6932 95.7456L55.2856 107.007V113.341L42.617 110.877L38.042 108.766Z" fill="#DFCEC3"/>
<path fill-rule="evenodd" clip-rule="evenodd" d="M94.3462 108.766L76.0472 95.7456L77.4548 107.007V113.341L90.1234 110.877L94.3462 108.766Z" fill="#DFCEC3"/>
<path fill-rule="evenodd" clip-rule="evenodd" d="M50.0067 70.7607L53.8779 78.8548L40.1534 75.3358L50.0067 70.7607Z" fill="#393939"/>
<path fill-rule="evenodd" clip-rule="evenodd" d="M7.77832 0.731445L55.6371 36.9771L47.5437 17.2706L7.77832 0.731445Z" fill="#E88F35"/>
<path fill-rule="evenodd" clip-rule="evenodd" d="M7.77761 0.731445L1.44336 20.0861L4.96239 41.2003L2.49907 42.6079L6.0181 45.775L3.20287 48.2384L7.07381 51.7574L4.61049 53.8688L10.2409 60.9069L36.6337 52.8131C49.5368 42.4906 55.871 37.2121 55.6364 36.9775C55.4018 36.7429 39.4489 24.6609 7.77761 0.731445Z" fill="#8E5A30"/>
<path fill-rule="evenodd" clip-rule="evenodd" d="M122.147 60.5551L132 89.059L107.367 87.6514H91.5315V75.3351L92.2353 49.998L95.7543 52.8133L122.147 60.5551Z" fill="#F89D35"/>
<path fill-rule="evenodd" clip-rule="evenodd" d="M103.498 63.7236L74.6415 64.4274L77.8083 79.2074L91.5329 75.6883L103.498 63.7236Z" fill="#D87C30"/>
<path fill-rule="evenodd" clip-rule="evenodd" d="M103.498 64.0752L91.5329 75.3361V86.597L103.498 64.0752Z" fill="#EA8D3A"/>
<path fill-rule="evenodd" clip-rule="evenodd" d="M91.5317 75.686L77.4556 79.2051L72.8806 94.3372L76.048 96.0964L91.5317 86.9469V75.686Z" fill="#F89D35"/>
<path fill-rule="evenodd" clip-rule="evenodd" d="M91.5315 86.9482L94.3467 108.766L76.0477 96.0977L91.5315 86.9482Z" fill="#EB8F35"/>
<path fill-rule="evenodd" clip-rule="evenodd" d="M74.6406 64.4253L72.8808 94.3374L78.1597 79.0294L74.6406 64.4253Z" fill="#EA8E3A"/>
<path fill-rule="evenodd" clip-rule="evenodd" d="M107.72 87.3005L91.5327 86.9482L94.3479 108.766L107.72 87.3005Z" fill="#D87C30"/>
<path fill-rule="evenodd" clip-rule="evenodd" d="M124.258 118.267L94.3467 108.766L107.719 87.2998L132 89.059L124.258 118.267Z" fill="#EB8F35"/>
<path fill-rule="evenodd" clip-rule="evenodd" d="M76.7529 36.9771L91.8844 49.6456L103.498 63.7217L74.6415 64.7777L76.7529 36.9771Z" fill="#E8821E"/>
<path fill-rule="evenodd" clip-rule="evenodd" d="M82.382 70.7603L78.5107 78.8543L92.2353 75.3353L82.382 70.7603Z" fill="#393939"/>
<path fill-rule="evenodd" clip-rule="evenodd" d="M124.61 0.731445L76.7515 36.9771L84.845 17.2706L124.61 0.731445Z" fill="#E88F35"/>
<path fill-rule="evenodd" clip-rule="evenodd" d="M124.611 0.731445L130.945 20.0861L127.426 41.2003L129.89 42.6079L126.371 45.775L129.186 48.2384L125.315 51.7574L127.778 53.8688L122.148 60.9069L95.755 52.8131C82.8519 42.4906 76.5176 37.2121 76.7522 36.9775C76.9868 36.7429 92.9398 24.6609 124.611 0.731445Z" fill="#8E5A30"/>
</svg>
