<svg width="50" height="50" viewBox="0 0 50 50" fill="none" xmlns="http://www.w3.org/2000/svg">
<circle cx="25" cy="25" r="25" fill="url(#paint0_linear)"/>
<path d="M15.0685 18.613C20.6475 13.1507 29.6929 13.1507 35.2719 18.613L35.9433 19.2704C36.2223 19.5435 36.2223 19.9863 35.9433 20.2594L33.6465 22.5082C33.507 22.6448 33.2809 22.6448 33.1414 22.5082L32.2174 21.6036C28.3254 17.7929 22.0151 17.7929 18.123 21.6036L17.1335 22.5724C16.9941 22.7089 16.7679 22.7089 16.6284 22.5724L14.3316 20.3236C14.0526 20.0504 14.0526 19.6076 14.3316 19.3345L15.0685 18.613ZM40.022 23.2638L42.0663 25.2652C42.3452 25.5384 42.3452 25.9812 42.0663 26.2543L32.8487 35.2791C32.5698 35.5523 32.1175 35.5523 31.8386 35.2791C31.8386 35.2791 31.8386 35.2791 31.8386 35.2791L25.2965 28.8739C25.2268 28.8057 25.1137 28.8057 25.044 28.8739C25.044 28.8739 25.044 28.8739 25.044 28.8739L18.5021 35.2791C18.2232 35.5523 17.7709 35.5523 17.4919 35.2791C17.4919 35.2791 17.4919 35.2791 17.4919 35.2791L8.27415 26.2542C7.9952 25.981 7.9952 25.5382 8.27415 25.2651L10.3184 23.2637C10.5973 22.9905 11.0496 22.9905 11.3285 23.2637L17.8707 29.669C17.9404 29.7372 18.0535 29.7372 18.1232 29.669C18.1232 29.669 18.1232 29.669 18.1232 29.669L24.665 23.2637C24.944 22.9905 25.3962 22.9905 25.6752 23.2636C25.6752 23.2636 25.6752 23.2636 25.6752 23.2636L32.2173 29.669C32.2871 29.7372 32.4001 29.7372 32.4699 29.669L39.0119 23.2638C39.2908 22.9907 39.7431 22.9907 40.022 23.2638Z" fill="#F2F2F2"/>
<defs>
<linearGradient id="paint0_linear" x1="2.5" y1="17.5" x2="41" y2="41" gradientUnits="userSpaceOnUse">
<stop stop-color="#559AF4"/>
<stop offset="1" stop-color="#0072FB"/>
</linearGradient>
</defs>
</svg>
