<svg width="217" height="40" viewBox="0 0 217 40" fill="none" xmlns="http://www.w3.org/2000/svg">
<path fillRule="evenodd" clipRule="evenodd" d="M191.056 -0.000549316C189.332 -0.000549316 187.848 0.507129 187.015 2.1419C186.931 2.10067 186.847 2.06053 186.759 2.02392C186.632 1.95558 186.5 1.89294 186.366 1.83626C186.253 1.77497 186.136 1.71965 186.017 1.66839C185.874 1.58993 185.726 1.51869 185.576 1.45495C185.462 1.39529 185.347 1.3397 185.23 1.28844C185.086 1.20926 184.938 1.1381 184.786 1.07528C184.66 1.0083 184.532 0.945926 184.4 0.890331C183.71 0.52042 182.938 0.327322 182.155 0.328408H162.73C161.481 0.327688 160.283 0.821528 159.399 1.70134C158.515 2.58114 158.018 3.77488 158.016 5.02009C158.016 6.9586 159.206 8.627 160.897 9.33807C161.026 9.40777 161.159 9.47042 161.296 9.52791C161.409 9.58757 161.524 9.64452 161.643 9.69578C161.786 9.77439 161.933 9.84519 162.084 9.90785C162.196 9.96752 162.312 10.0245 162.431 10.0741C162.573 10.1508 162.717 10.2222 162.866 10.2845C162.995 10.3529 163.126 10.4169 163.262 10.4744C163.376 10.5354 163.492 10.591 163.612 10.6422C163.755 10.7205 163.901 10.7912 164.051 10.8541C164.178 10.921 164.307 10.9834 164.44 11.0404C164.554 11.1017 164.673 11.1583 164.794 11.2109C164.936 11.2886 165.082 11.3589 165.231 11.4217C165.344 11.4827 165.461 11.5383 165.58 11.5895C165.722 11.668 165.868 11.7387 166.017 11.8013C166.143 11.868 166.273 11.9307 166.406 11.9876C166.522 12.0487 166.639 12.1056 166.76 12.1582C166.901 12.2353 167.048 12.3063 167.197 12.3703C167.312 12.4313 167.429 12.4869 167.548 12.5395C167.688 12.6162 167.832 12.6859 167.979 12.7486C168.108 12.8183 168.241 12.881 168.377 12.9385C168.491 12.9995 168.607 13.0551 168.727 13.1063C168.803 13.1476 168.882 13.1877 168.96 13.2257V18.6132C168.96 21.7225 166.418 24.2514 163.293 24.2514H159.263V10.9601C159.263 9.01697 158.079 7.34586 156.394 6.61472C156.25 6.53625 156.103 6.46511 155.952 6.40157C155.825 6.33458 155.696 6.27193 155.563 6.21525C155.449 6.15396 155.333 6.09864 155.213 6.04603C155.071 5.96786 154.924 5.89707 154.775 5.83395C154.647 5.76561 154.516 5.70323 154.383 5.64628C154.268 5.58499 154.15 5.52804 154.029 5.47543C153.889 5.39836 153.744 5.32858 153.596 5.26634C153.482 5.20532 153.364 5.14837 153.245 5.09576C153.102 5.01834 152.956 4.9481 152.807 4.88531C152.68 4.81697 152.548 4.75432 152.415 4.69764C152.301 4.63635 152.184 4.5794 152.064 4.52842C151.923 4.45119 151.779 4.38139 151.631 4.31933C151.516 4.25804 151.399 4.20108 151.279 4.14983C151.136 4.07147 150.99 4.00077 150.84 3.93802C150.712 3.86929 150.582 3.80711 150.448 3.75171C150.336 3.6907 150.22 3.6351 150.101 3.58384C149.958 3.50574 149.811 3.43469 149.659 3.37068C149.532 3.3037 149.403 3.24105 149.27 3.1841C149.155 3.12317 149.037 3.06631 148.917 3.01351C148.775 2.93653 148.63 2.86674 148.481 2.80442C148.367 2.74341 148.251 2.68781 148.133 2.63656C147.989 2.55845 147.842 2.4874 147.691 2.42339C147.565 2.35641 147.435 2.29377 147.302 2.23844C147.187 2.17715 147.069 2.12047 146.948 2.06759C146.806 1.99084 146.662 1.92114 146.513 1.85714C146.399 1.79612 146.283 1.74053 146.164 1.68791C146.021 1.60981 145.874 1.53875 145.722 1.47475C145.597 1.40777 145.466 1.34512 145.334 1.28817C145.218 1.22715 145.099 1.16885 144.98 1.11759C144.84 1.04069 144.696 0.971349 144.548 0.909856C143.862 0.543068 143.096 0.350186 142.317 0.348211L133.896 0.33248C133.152 0.332049 132.418 0.505221 131.753 0.838151C131.088 1.17108 130.51 1.65453 130.066 2.24983C130.042 2.23844 130.018 2.22705 129.992 2.21593C129.877 2.15464 129.759 2.09796 129.639 2.04535C129.499 1.96833 129.353 1.89863 129.204 1.83463C129.081 1.76927 128.955 1.70825 128.825 1.65266C128.702 1.5873 128.578 1.52601 128.449 1.47204C128.311 1.39632 128.169 1.32797 128.024 1.26729C127.897 1.19895 127.768 1.13793 127.635 1.08098C127.518 1.01833 127.398 0.960025 127.275 0.907413C126.576 0.525549 125.792 0.325919 124.995 0.327057H116.567C115.693 0.327692 114.836 0.567752 114.09 1.02102C113.343 1.47428 112.736 2.12331 112.335 2.89718C112.296 2.87792 112.255 2.8603 112.215 2.84294L112.165 2.82097C112.052 2.76266 111.939 2.70869 111.823 2.65608C111.678 2.57906 111.529 2.50801 111.378 2.4413C111.269 2.38435 111.158 2.33282 111.044 2.28048C110.897 2.2021 110.745 2.12969 110.593 2.06352C110.464 1.99654 110.334 1.93389 110.199 1.87558C110.088 1.81727 109.975 1.7633 109.859 1.71286C109.713 1.63611 109.565 1.56506 109.413 1.49808C109.279 1.42838 109.141 1.36248 109.002 1.30173C108.9 1.25075 108.799 1.20085 108.696 1.15393C107.677 0.612771 106.54 0.330439 105.385 0.331937H62.9661C60.5994 0.331937 58.4998 1.49808 57.2178 3.28173L57.1612 3.25597L57.1046 3.23047C56.9574 3.15372 56.8075 3.08104 56.6546 3.01351C56.5257 2.94653 56.3954 2.88416 56.2624 2.82585C56.1511 2.76754 56.0369 2.7133 55.921 2.66069C55.7755 2.58394 55.6264 2.51289 55.4748 2.4459C55.366 2.38922 55.2534 2.33499 55.1389 2.28319C54.9904 2.20508 54.8397 2.13267 54.6843 2.06433C54.5573 1.99897 54.4283 1.93633 54.297 1.87938C54.1841 1.82107 54.0698 1.76548 53.9539 1.71449C53.8084 1.63747 53.6593 1.56642 53.5078 1.49971C53.3748 1.43136 53.2407 1.36736 53.1049 1.30607C53.0002 1.25183 52.8933 1.20085 52.7861 1.15257C51.7681 0.612616 50.6324 0.330779 49.4793 0.331937H7.0633C3.16781 0.331937 0 3.48377 0 7.35942V29.4806C0 31.2002 1.06092 32.6793 2.56444 33.3044C2.68599 33.3713 2.81103 33.4315 2.93903 33.4851C3.0726 33.5589 3.21009 33.6254 3.35089 33.6844C3.47292 33.7511 3.59841 33.8114 3.72683 33.865C3.86005 33.9395 3.99758 34.006 4.13869 34.0643C4.26695 34.1342 4.39869 34.1976 4.53341 34.2542C4.65473 34.3198 4.77823 34.3808 4.90636 34.4348C5.04009 34.5092 5.17806 34.5757 5.31958 34.6341C5.4417 34.7007 5.56718 34.761 5.69553 34.8147C5.82904 34.8884 5.96643 34.9548 6.10711 35.0138C6.23466 35.0835 6.36598 35.1461 6.50047 35.2014C6.62179 35.2671 6.7453 35.3281 6.87478 35.3821C7.00843 35.4566 7.14641 35.5232 7.288 35.5814C7.4096 35.6467 7.53283 35.7078 7.66258 35.762C7.7961 35.8357 7.93349 35.9021 8.07417 35.9611C8.20229 36.0312 8.33405 36.0946 8.46889 36.1509C8.59048 36.2165 8.71372 36.2776 8.84347 36.3315C8.97695 36.4062 9.11485 36.4728 9.25642 36.5308C9.38396 36.6004 9.51518 36.6631 9.6495 36.7185C9.7711 36.7839 9.89433 36.8452 10.0241 36.8991C10.1578 36.9734 10.2958 37.0399 10.4373 37.0982C10.5589 37.1635 10.6821 37.2248 10.8105 37.2788C10.9447 37.3533 11.0831 37.4198 11.2251 37.4781C11.3525 37.5481 11.4837 37.6107 11.6182 37.6658C11.7398 37.7326 11.8648 37.7929 11.9928 37.8464C12.1264 37.9208 12.2643 37.9872 12.4057 38.0455C12.5273 38.1108 12.6506 38.1721 12.779 38.2261C12.9131 38.3005 13.0516 38.3669 13.1935 38.4251C13.3206 38.4948 13.4514 38.5576 13.5853 38.6131C13.7073 38.6798 13.8328 38.7401 13.9612 38.7937C14.0947 38.8675 14.2321 38.9339 14.3728 38.9928C14.9838 39.326 15.6692 39.5002 16.3657 39.4991H25.9866C28.2809 39.4991 30.1487 37.6387 30.1487 35.3574V27.5388H55.9063V28.8856C55.9063 30.8143 57.0725 32.4784 58.7411 33.2166C58.8955 33.3026 59.0543 33.3804 59.2169 33.4498C59.3429 33.5168 59.4729 33.5791 59.6043 33.6347C59.7202 33.6958 59.8377 33.7527 59.9579 33.8053C60.0985 33.8826 60.2431 33.9523 60.391 34.0144C60.5194 34.0828 60.6513 34.1468 60.7871 34.2043C60.9011 34.2653 61.0186 34.3209 61.1385 34.3735C61.2786 34.4502 61.4247 34.5199 61.5738 34.5839C61.6897 34.6452 61.8083 34.7019 61.9274 34.7548C62.0688 34.8319 62.214 34.9016 62.3627 34.9636C62.49 35.0319 62.6214 35.0946 62.7541 35.1515C62.8684 35.2126 62.987 35.2695 63.1078 35.3221C63.2485 35.3991 63.393 35.4689 63.5409 35.5312C63.6567 35.5925 63.7754 35.6492 63.8945 35.7018C64.034 35.7789 64.1777 35.8483 64.3249 35.9095C64.454 35.9794 64.5867 36.0428 64.7223 36.0994C64.8365 36.1604 64.9535 36.2173 65.0738 36.2686C65.2144 36.3456 65.359 36.4154 65.5068 36.4777C65.6341 36.5458 65.7645 36.6084 65.8972 36.664C66.0131 36.7264 66.1333 36.7833 66.2546 36.8359C66.3953 36.9129 66.5399 36.9827 66.6877 37.045C66.802 37.1063 66.9211 37.163 67.0414 37.2143C67.1827 37.292 67.3279 37.3622 67.4766 37.4247C67.6039 37.493 67.7353 37.5557 67.8697 37.6126C67.9839 37.6737 68.1026 37.7306 68.2233 37.7832C68.3636 37.8603 68.5078 37.9301 68.6553 37.9923C68.7712 38.055 68.8898 38.1119 69.0111 38.1645C69.1518 38.2415 69.2964 38.3113 69.4442 38.3736C69.5715 38.4417 69.7029 38.5043 69.8373 38.5613C69.9532 38.6223 70.0718 38.6793 70.1909 38.7319C70.3411 38.8138 70.4955 38.8878 70.6534 38.9537C71.3351 39.312 72.0943 39.499 72.865 39.4985H81.2947C83.9198 39.4985 86.0569 37.3721 86.0569 34.7607V21.6349L94.3011 31.8511C94.7815 32.446 95.3989 32.9164 96.1009 33.2223C96.247 33.3025 96.3973 33.3749 96.5511 33.4392C96.6613 33.4972 96.7739 33.5515 96.8887 33.6019C97.0337 33.6823 97.183 33.7547 97.3359 33.8189C97.4618 33.8856 97.5891 33.9469 97.7205 34.0022C97.8348 34.0635 97.952 34.1188 98.0706 34.1714C98.215 34.2508 98.3635 34.3225 98.5154 34.3862C98.6267 34.4459 98.7409 34.5001 98.8568 34.5511C99.0026 34.631 99.1524 34.7034 99.3057 34.7681C99.4316 34.8348 99.5617 34.8974 99.693 34.9528C99.8062 35.0127 99.9207 35.068 100.038 35.1193C100.183 35.1986 100.331 35.2703 100.484 35.3341C100.61 35.4008 100.738 35.462 100.868 35.5177C100.984 35.58 101.103 35.6356 101.222 35.6882C101.362 35.7646 101.507 35.834 101.654 35.896C101.769 35.9584 101.887 36.014 102.007 36.0666C102.151 36.1454 102.299 36.2166 102.451 36.28C102.577 36.3481 102.707 36.4093 102.838 36.4647C102.951 36.526 103.067 36.5816 103.186 36.6325C103.331 36.7127 103.481 36.7851 103.635 36.8495C103.746 36.9092 103.859 36.9631 103.975 37.0122C104.119 37.0912 104.268 37.1629 104.419 37.227C104.545 37.2951 104.675 37.3564 104.807 37.4117C104.921 37.473 105.037 37.5283 105.155 37.5796C105.3 37.6589 105.448 37.7306 105.6 37.7943C105.726 37.8611 105.855 37.9224 105.985 37.9779C106.1 38.0403 106.218 38.0959 106.338 38.1485C106.479 38.2263 106.625 38.2965 106.773 38.359C106.886 38.4203 107.002 38.4756 107.121 38.5268C107.266 38.6069 107.416 38.6793 107.569 38.7438C107.694 38.8108 107.822 38.8716 107.953 38.9258C108.647 39.2989 109.424 39.4935 110.213 39.492H119.787C120.459 39.4952 121.118 39.3077 121.686 38.9512C122.255 38.5948 122.709 38.0843 122.997 37.4795C123.029 37.4141 123.056 37.3485 123.083 37.2831C123.181 37.3314 123.278 37.3783 123.377 37.4212C123.505 37.4892 123.635 37.5519 123.77 37.6088C123.885 37.6701 124.003 37.727 124.123 37.7794C124.263 37.8564 124.409 37.9261 124.559 37.9901C124.673 38.0512 124.791 38.1081 124.912 38.1594C125.053 38.2361 125.198 38.3072 125.348 38.3698C125.474 38.4382 125.604 38.5003 125.738 38.5561C125.853 38.6188 125.973 38.6755 126.095 38.7283C126.235 38.8051 126.378 38.8732 126.525 38.9358C127.215 39.305 127.986 39.498 128.77 39.4977H137.198C138.073 39.4971 138.931 39.2566 139.678 38.8025C140.424 38.3485 141.032 37.6983 141.432 36.9233C141.458 36.9352 141.483 36.9463 141.508 36.9577L141.551 36.9772C141.7 37.0556 141.853 37.1296 142.009 37.1977C142.116 37.2533 142.223 37.3046 142.333 37.3542C142.485 37.4356 142.64 37.5093 142.798 37.579C142.925 37.6444 143.055 37.707 143.187 37.764C143.295 37.8207 143.407 37.8724 143.518 37.9245C143.667 38.0029 143.818 38.0753 143.973 38.1436C144.08 38.1992 144.191 38.2521 144.299 38.3015C144.453 38.3828 144.61 38.458 144.768 38.5277C144.894 38.5917 145.021 38.653 145.151 38.7113C146.153 39.2291 147.265 39.4989 148.394 39.4977H186.431C189.801 39.4977 192.87 38.1822 195.146 36.04C195.218 36.0755 195.29 36.1083 195.364 36.1395C195.502 36.2155 195.643 36.284 195.788 36.3445C195.907 36.4085 196.029 36.4682 196.153 36.5208C196.289 36.5958 196.428 36.6632 196.572 36.7228C196.701 36.7933 196.833 36.8566 196.969 36.9127C197.088 36.9767 197.208 37.035 197.332 37.0876C197.47 37.1633 197.612 37.2317 197.757 37.2926C197.875 37.3566 197.997 37.4149 198.12 37.4675C198.256 37.5428 198.396 37.6102 198.54 37.6693C198.67 37.739 198.803 37.803 198.939 37.8592C199.058 37.9232 199.178 37.9815 199.302 38.0341C199.439 38.1096 199.581 38.1775 199.726 38.2375C199.853 38.307 199.983 38.3696 200.117 38.4251C200.236 38.4891 200.357 38.5491 200.482 38.6017C200.619 38.6774 200.761 38.7458 200.906 38.8064C201.025 38.8704 201.145 38.9288 201.268 38.9814C201.879 39.3224 202.568 39.5017 203.268 39.5021H211.699C214.366 39.5021 216.461 36.9447 216.461 33.6833V12.1458C216.459 11.2508 216.457 10.2718 216.013 9.66621C215.768 9.33319 212.386 7.01528 209.203 4.83351C206.554 3.01813 204.042 1.29685 203.59 0.891953C202.594 -0.000551696 200.405 -0.000549316 200.405 -0.000549316H191.056ZM182.092 2.61622L162.676 2.61188C162.365 2.60855 162.057 2.66662 161.769 2.78275C161.482 2.89888 161.22 3.07076 160.999 3.28843C160.778 3.5061 160.603 3.76525 160.484 4.05087C160.364 4.3365 160.303 4.64293 160.303 4.95243C160.303 5.26193 160.364 5.56837 160.484 5.85399C160.603 6.13961 160.778 6.39876 160.999 6.61643C161.22 6.8341 161.482 7.00598 161.769 7.12211C162.057 7.23824 162.365 7.29631 162.676 7.29298H168.868C169.183 7.29284 169.495 7.3546 169.786 7.47474C170.077 7.59488 170.342 7.77104 170.565 7.99315C170.788 8.21526 170.964 8.47898 171.085 8.76922C171.205 9.05945 171.267 9.37052 171.267 9.68465V18.5666C171.267 22.9854 167.676 26.5669 163.242 26.5669H147.058C146.743 26.5671 146.431 26.5054 146.14 26.3852C145.849 26.2651 145.584 26.089 145.361 25.8668C145.138 25.6447 144.962 25.381 144.841 25.0907C144.721 24.8004 144.659 24.4893 144.659 24.1752V5.02877C144.658 4.39525 144.406 3.78775 143.957 3.3394C143.508 2.89105 142.899 2.63841 142.264 2.63683L133.837 2.62137C133.521 2.62083 133.209 2.6823 132.917 2.80225C132.626 2.92219 132.361 3.09827 132.137 3.3204C131.914 3.54254 131.737 3.80637 131.616 4.09681C131.495 4.38725 131.433 4.6986 131.433 5.01305V26.569C131.433 27.1844 131.555 27.7938 131.791 28.3623C132.027 28.9309 132.373 29.4474 132.81 29.8825C133.247 30.3176 133.765 30.6627 134.335 30.8981C134.906 31.1335 135.517 31.2546 136.134 31.2545H174.158C179.862 31.2545 184.485 26.6474 184.485 20.9607V5.01033C184.486 4.6965 184.424 4.38557 184.305 4.09534C184.185 3.80512 184.009 3.5413 183.787 3.31899C183.564 3.09669 183.3 2.92026 183.01 2.79981C182.719 2.67936 182.407 2.61724 182.092 2.61703V2.61622ZM7.06058 2.61757H49.4616C52.0581 2.61757 54.1628 4.71446 54.1618 7.30003V14.5936C54.1617 15.8362 53.6665 17.028 52.785 17.9067C51.9036 18.7854 50.7081 19.279 49.4616 19.279H17.3825C17.1459 19.279 16.9115 19.3254 16.6929 19.4157C16.4742 19.5059 16.2756 19.6383 16.1082 19.8051C15.9409 19.9719 15.8081 20.1699 15.7175 20.3879C15.627 20.6059 15.5803 20.8395 15.5803 21.0754V29.4594C15.5803 29.9359 15.3905 30.3928 15.0526 30.7297C14.7146 31.0666 14.2563 31.2558 13.7784 31.2558H4.161C3.92434 31.2559 3.68999 31.2094 3.47134 31.1192C3.25269 31.0289 3.05401 30.8966 2.88666 30.7298C2.7193 30.5629 2.58655 30.3649 2.49598 30.1469C2.4054 29.929 2.35879 29.6953 2.35879 29.4594V7.30275C2.35879 4.71825 4.46513 2.61839 7.06058 2.61839V2.61757ZM62.9429 2.61757H105.344C107.941 2.61757 110.041 4.71446 110.056 7.29434V14.5898C110.056 17.1767 107.951 19.2752 105.354 19.2752H102.908C101.901 19.2752 101.343 20.4349 101.972 21.2197L108.485 29.3095C109.116 30.0932 108.557 31.2539 107.549 31.2539H97.979C97.6204 31.253 97.2665 31.1722 96.9433 31.0173C96.6201 30.8625 96.3357 30.6376 96.1109 30.359L86.5439 18.4806C85.2803 16.9164 86.398 14.5944 88.4113 14.5944H94.429C94.7441 14.5945 95.0561 14.5327 95.3472 14.4126C95.6384 14.2924 95.9029 14.1163 96.1258 13.8941C96.3486 13.672 96.5254 13.4084 96.6459 13.1181C96.7665 12.8279 96.8286 12.5168 96.8285 12.2027V9.69279C96.8287 9.37861 96.7667 9.06749 96.6462 8.7772C96.5256 8.48691 96.3489 8.22316 96.126 8.00102C95.9032 7.77887 95.6386 7.60269 95.3474 7.48255C95.0562 7.36241 94.7441 7.30067 94.429 7.30085H73.865C73.5499 7.3007 73.2378 7.36248 72.9467 7.48263C72.6555 7.60279 72.3909 7.77898 72.1681 8.00112C71.9453 8.22326 71.7686 8.487 71.648 8.77727C71.5275 9.06754 71.4655 9.37864 71.4657 9.69279V28.8625C71.4659 29.1767 71.404 29.4878 71.2835 29.7781C71.163 30.0684 70.9863 30.3321 70.7635 30.5543C70.5407 30.7764 70.2761 30.9526 69.985 31.0728C69.6938 31.1929 69.3818 31.2546 69.0666 31.2545H60.6396C60.3245 31.2546 60.0124 31.1929 59.7212 31.0728C59.4301 30.9526 59.1655 30.7764 58.9427 30.5543C58.7198 30.3321 58.5431 30.0684 58.4226 29.7781C58.3021 29.4878 58.2401 29.1767 58.2403 28.8625V7.30383C58.2414 4.71826 60.3467 2.61839 62.9429 2.61839V2.61757ZM124.951 2.61757H116.525C116.21 2.6174 115.898 2.67914 115.607 2.79927C115.316 2.91941 115.051 3.09559 114.828 3.31773C114.605 3.53987 114.428 3.80362 114.308 4.09391C114.187 4.38419 114.125 4.69533 114.125 5.00952V28.8633C114.125 29.1775 114.187 29.4885 114.308 29.7788C114.429 30.069 114.605 30.3327 114.828 30.5548C115.051 30.7769 115.316 30.953 115.607 31.0732C115.898 31.1933 116.21 31.2551 116.525 31.255H124.951C125.266 31.2552 125.578 31.1934 125.869 31.0733C126.16 30.9532 126.425 30.7771 126.648 30.5549C126.87 30.3328 127.047 30.0691 127.168 29.7788C127.288 29.4886 127.35 29.1775 127.35 28.8633V5.01033C127.349 4.37625 127.096 3.76848 126.646 3.32014C126.196 2.8718 125.587 2.61946 124.951 2.61839V2.61757ZM191.062 2.61757H199.488C200.81 2.61757 201.882 3.68744 201.887 5.00952V28.8633C201.888 29.1775 201.826 29.4886 201.705 29.7788C201.585 30.0691 201.408 30.3328 201.185 30.5549C200.962 30.777 200.698 30.9532 200.406 31.0733C200.115 31.1934 199.803 31.2552 199.488 31.255H191.062C190.747 31.255 190.435 31.1932 190.144 31.073C189.853 30.9529 189.588 30.7767 189.366 30.5546C189.143 30.3325 188.966 30.0688 188.846 29.7787C188.725 29.4885 188.663 29.1774 188.663 28.8633V5.01033C188.663 4.69617 188.725 4.38505 188.845 4.09476C188.966 3.80448 189.142 3.54072 189.365 3.31857C189.588 3.09642 189.853 2.92024 190.144 2.8001C190.435 2.67996 190.747 2.61821 191.062 2.61839V2.61757Z" fill="#181818"/>
</svg>
