<svg width="176" height="61" viewBox="0 0 176 61" fill="none" xmlns="http://www.w3.org/2000/svg">
<path fill-rule="evenodd" clip-rule="evenodd" d="M3 56.054C1.34315 56.054 0 54.7108 0 53.054V14C0 12.3431 1.34315 11 3 11H21.5761C31.6755 11 38.7656 19.1221 38.7656 28.5131C38.7656 37.904 31.6755 46.4788 21.5761 46.4788H15.7227C14.0658 46.4788 12.7227 47.8219 12.7227 49.4787V53.054C12.7227 54.7108 11.3795 56.054 9.72266 56.054H3ZM16.1357 31.1299L16.1358 31.1302L16.136 31.1299H16.1357ZM16.1357 31.1299L14.9286 27.4607L14.9125 27.4186C14.6909 26.8388 13.1614 22.8373 13.769 18.3805C9.76023 20.5538 7.53917 24.9001 7.78061 29.052C10.9673 30.8886 14.5413 31.1299 16.1357 31.1299ZM7.975 30.6951C8.79506 35.0892 12.1269 38.6156 16.4257 39.7235C19.1291 37.309 20.4822 33.9763 20.9656 32.4323C20.4043 32.438 19.8529 32.4488 19.3095 32.4594L19.3093 32.4594C15.3619 32.5364 11.8365 32.6051 7.975 30.6949V30.6951ZM15.9431 26.1542C15.4596 24.6102 14.5889 21.1822 15.3136 17.6558L15.3138 17.6559C19.3226 16.1599 23.9578 16.9787 27.2441 20.0228C22.7319 20.8366 19.4122 23.6101 19.088 23.8809L19.0824 23.8857L15.9431 26.1542ZM29.1743 34.7026C27.6781 31.4679 25.0224 29.2441 23.7158 28.2793L22.5085 31.9488C22.4132 32.336 21.3013 36.6319 18.0667 40.0124C22.414 40.5455 26.7595 38.5152 29.174 34.7028L29.1743 34.7026ZM23.7645 26.6369L20.6254 24.3686C21.8802 23.4502 24.8289 21.6135 28.3523 21.1787C31.2492 24.6573 31.7317 29.3403 29.9943 33.2033C27.7733 29.1467 24.101 26.8305 23.7645 26.6369Z" fill="#181687"/>
<path fill-rule="evenodd" clip-rule="evenodd" d="M3 56.054C1.34315 56.054 0 54.7108 0 53.054V14C0 12.3431 1.34315 11 3 11H21.5761C31.6755 11 38.7656 19.1221 38.7656 28.5131C38.7656 37.904 31.6755 46.4788 21.5761 46.4788H15.7227C14.0658 46.4788 12.7227 47.8219 12.7227 49.4787V53.054C12.7227 54.7108 11.3795 56.054 9.72266 56.054H3ZM16.1357 31.1299L16.1358 31.1302L16.136 31.1299H16.1357ZM16.1357 31.1299L14.9286 27.4607L14.9125 27.4186C14.6909 26.8388 13.1614 22.8373 13.769 18.3805C9.76023 20.5538 7.53917 24.9001 7.78061 29.052C10.9673 30.8886 14.5413 31.1299 16.1357 31.1299ZM7.975 30.6951C8.79506 35.0892 12.1269 38.6156 16.4257 39.7235C19.1291 37.309 20.4822 33.9763 20.9656 32.4323C20.4043 32.438 19.8529 32.4488 19.3095 32.4594L19.3093 32.4594C15.3619 32.5364 11.8365 32.6051 7.975 30.6949V30.6951ZM15.9431 26.1542C15.4596 24.6102 14.5889 21.1822 15.3136 17.6558L15.3138 17.6559C19.3226 16.1599 23.9578 16.9787 27.2441 20.0228C22.7319 20.8366 19.4122 23.6101 19.088 23.8809L19.0824 23.8857L15.9431 26.1542ZM29.1743 34.7026C27.6781 31.4679 25.0224 29.2441 23.7158 28.2793L22.5085 31.9488C22.4132 32.336 21.3013 36.6319 18.0667 40.0124C22.414 40.5455 26.7595 38.5152 29.174 34.7028L29.1743 34.7026ZM23.7645 26.6369L20.6254 24.3686C21.8802 23.4502 24.8289 21.6135 28.3523 21.1787C31.2492 24.6573 31.7317 29.3403 29.9943 33.2033C27.7733 29.1467 24.101 26.8305 23.7645 26.6369Z" fill="url(#paint0_linear)"/>
<path d="M64.041 48.0547H73.959V39.7327H85.891C93.643 39.7327 97.937 36.4267 97.975 30.4227C97.975 24.2667 93.681 20.8467 85.967 20.8467H64.041V48.0547ZM73.959 34.1467V26.4327H82.661C86.119 26.4327 88.019 27.8007 88.019 30.2707C88.019 32.7787 86.119 34.1467 82.661 34.1467H73.959ZM101.697 48.0547H111.539V20.8467H101.697V48.0547ZM114.631 48.0547H124.815L133.479 38.4407L142.143 48.0547H152.517L139.065 33.7287L152.365 20.8467H142.029L133.365 29.3967L124.929 20.8467H114.783L127.779 33.8427L114.631 48.0547Z" fill="#181818"/>
<rect x="121" width="55" height="14" rx="4.17163" fill="#65CB63"/>
<rect x="121" width="55" height="14" rx="4.17163" fill="url(#paint1_linear)"/>
<path d="M127.997 9.53711H130.378L130.863 8.4349H134.011L134.505 9.53711H136.894L133.817 3.22367H131.145L127.997 9.53711ZM131.313 7.13871L132.441 4.64331H132.459L133.57 7.13871H131.313ZM137.606 9.53711H143.743V7.85294H139.907V3.22367H137.606V9.53711ZM144.587 9.53711H146.889V7.60604H149.657C151.456 7.60604 152.453 6.83891 152.461 5.44572C152.461 4.01725 151.465 3.22367 149.675 3.22367H144.587V9.53711ZM146.889 6.30985V4.51986H148.908C149.71 4.51986 150.151 4.8373 150.151 5.41045C150.151 5.99241 149.71 6.30985 148.908 6.30985H146.889ZM153.325 9.53711H155.626V7.02408H159.109V9.53711H161.411V3.22367H159.109V5.46335H155.626V3.22367H153.325V9.53711ZM162.121 9.53711H164.502L164.987 8.4349H168.135L168.629 9.53711H171.018L167.941 3.22367H165.269L162.121 9.53711ZM165.437 7.13871L166.566 4.64331H166.583L167.694 7.13871H165.437Z" fill="white"/>
<defs>
<linearGradient id="paint0_linear" x1="42.191" y1="21.0948" x2="4.34764" y2="56.4185" gradientUnits="userSpaceOnUse">
<stop stop-color="#418DFF"/>
<stop offset="0.333302" stop-color="#4541FF"/>
<stop offset="0.437384" stop-color="#4541FF"/>
<stop offset="0.745055" stop-color="#EF41CB"/>
<stop offset="0.790836" stop-color="#EF41CB"/>
<stop offset="0.998516" stop-color="#EFA941"/>
</linearGradient>
<linearGradient id="paint1_linear" x1="188.354" y1="1.35147e-06" x2="143.321" y2="35.3375" gradientUnits="userSpaceOnUse">
<stop offset="0.0512208" stop-color="#418DFF"/>
<stop offset="0.333302" stop-color="#4541FF"/>
<stop offset="0.437384" stop-color="#4541FF"/>
<stop offset="0.745055" stop-color="#EF41CB"/>
<stop offset="0.790836" stop-color="#EF41CB"/>
<stop offset="0.998516" stop-color="#EFA941"/>
</linearGradient>
</defs>
</svg>
