<svg width="329" height="53" viewBox="0 0 329 53" fill="none" xmlns="http://www.w3.org/2000/svg">
<path fill-rule="evenodd" clip-rule="evenodd" d="M3.31208 50.2574C1.48287 50.2574 0 48.7745 0 46.9453V3.82868C0 1.99947 1.48287 0.516602 3.31208 0.516602H23.8205C34.9706 0.516602 42.7982 9.48365 42.7982 19.8515C42.7982 30.2193 34.9706 39.6861 23.8205 39.6861H17.3582C15.529 39.6861 14.0462 41.169 14.0462 42.9982V46.9453C14.0462 48.7745 12.5633 50.2574 10.7341 50.2574H3.31208ZM17.8021 21.3843L17.8022 21.3846L17.8023 21.3843H17.8021ZM17.8021 21.3843L16.4703 17.5806L16.4525 17.5369C16.208 16.9359 14.5206 12.7878 15.1909 8.16764C10.7682 10.4205 8.31777 14.9262 8.58415 19.2302C12.0999 21.1341 16.043 21.3843 17.8021 21.3843ZM8.79857 20.9337C9.70331 25.4889 13.3792 29.1445 18.1219 30.293C21.1045 27.79 22.5973 24.3351 23.1307 22.7345C22.5114 22.7405 21.9032 22.7517 21.3038 22.7627L21.3036 22.7627H21.3035H21.3033C16.9483 22.8425 13.0588 22.9137 8.79857 20.9335V20.9337ZM17.5895 16.2261C17.0561 14.6255 16.0955 11.0718 16.8951 7.41618L16.8953 7.41637C21.318 5.86545 26.432 6.71435 30.0575 9.86993C25.0794 10.7136 21.4169 13.5888 21.0593 13.8695L21.053 13.8744L17.5895 16.2261ZM32.187 25.0876C30.5363 21.7344 27.6064 19.4291 26.1648 18.4289L24.8329 22.2329C24.7278 22.6343 23.501 27.0876 19.9324 30.5921C24.7286 31.1447 29.5229 29.0401 32.1867 25.0879L32.187 25.0876ZM26.2186 16.7267L22.7554 14.3752C24.1397 13.4232 27.3929 11.5192 31.2801 11.0684C34.4762 14.6745 35.0086 19.5292 33.0918 23.5337C30.6414 19.3285 26.5899 16.9274 26.2186 16.7267Z" fill="black"/>
<path fill-rule="evenodd" clip-rule="evenodd" d="M3.31208 50.2574C1.48287 50.2574 0 48.7745 0 46.9453V3.82868C0 1.99947 1.48287 0.516602 3.31208 0.516602H23.8205C34.9706 0.516602 42.7982 9.48365 42.7982 19.8515C42.7982 30.2193 34.9706 39.6861 23.8205 39.6861H17.3582C15.529 39.6861 14.0462 41.169 14.0462 42.9982V46.9453C14.0462 48.7745 12.5633 50.2574 10.7341 50.2574H3.31208ZM17.8021 21.3843L17.8022 21.3846L17.8023 21.3843H17.8021ZM17.8021 21.3843L16.4703 17.5806L16.4525 17.5369C16.208 16.9359 14.5206 12.7878 15.1909 8.16764C10.7682 10.4205 8.31777 14.9262 8.58415 19.2302C12.0999 21.1341 16.043 21.3843 17.8021 21.3843ZM8.79857 20.9337C9.70331 25.4889 13.3792 29.1445 18.1219 30.293C21.1045 27.79 22.5973 24.3351 23.1307 22.7345C22.5114 22.7405 21.9032 22.7517 21.3038 22.7627L21.3036 22.7627H21.3035H21.3033C16.9483 22.8425 13.0588 22.9137 8.79857 20.9335V20.9337ZM17.5895 16.2261C17.0561 14.6255 16.0955 11.0718 16.8951 7.41618L16.8953 7.41637C21.318 5.86545 26.432 6.71435 30.0575 9.86993C25.0794 10.7136 21.4169 13.5888 21.0593 13.8695L21.053 13.8744L17.5895 16.2261ZM32.187 25.0876C30.5363 21.7344 27.6064 19.4291 26.1648 18.4289L24.8329 22.2329C24.7278 22.6343 23.501 27.0876 19.9324 30.5921C24.7286 31.1447 29.5229 29.0401 32.1867 25.0879L32.187 25.0876ZM26.2186 16.7267L22.7554 14.3752C24.1397 13.4232 27.3929 11.5192 31.2801 11.0684C34.4762 14.6745 35.0086 19.5292 33.0918 23.5337C30.6414 19.3285 26.5899 16.9274 26.2186 16.7267Z" fill="url(#paint0_linear)"/>
<path d="M68.5668 39.6812H79.5165V30.4934H92.6898C101.248 30.4934 105.989 26.8435 106.031 20.215C106.031 13.4186 101.29 9.64279 92.7737 9.64279H68.5668V39.6812ZM79.5165 24.3263V15.8099H89.1237C92.9415 15.8099 95.0391 17.3202 95.0391 20.0471C95.0391 22.816 92.9415 24.3263 89.1237 24.3263H79.5165ZM141.73 40.5202C144.499 40.5202 147.771 39.5133 149.408 38.0869L147.562 33.6819C147.058 34.2692 146.051 34.6468 145.338 34.6468C144.163 34.6468 143.45 34.1434 142.905 33.3882L140.765 30.1578C140.052 29.067 139.129 28.2699 138.122 27.8924V27.8504C143.618 26.8016 146.807 23.6551 146.807 19.1661C146.807 13.1249 142.192 9.64279 134.137 9.64279H108.881V39.6812H119.831V29.6963H126.25C128.221 29.6963 130.067 30.5354 131.326 32.2974L133.214 35.4439C134.934 37.9191 137.199 40.5202 141.73 40.5202ZM119.831 23.5292V16.1036H130.864C134.011 16.1036 135.857 17.488 135.857 19.8374C135.857 22.1448 134.011 23.5292 130.864 23.5292H119.831ZM151.49 39.6812H162.355V9.64279H151.49V39.6812ZM179.32 39.6812H191.612L206.506 9.64279H195.136L185.529 30.4515H185.445L175.796 9.64279H164.469L179.32 39.6812ZM208.601 39.6812H219.467V9.64279H208.601V39.6812ZM233.388 39.6812H236.87V28.9412H253.735C260.909 28.9412 264.937 25.4591 264.979 19.5437C264.979 13.5864 260.951 10.1043 253.735 10.1043H233.388V39.6812ZM236.87 25.8786V13.2088H253.274C258.56 13.2088 261.497 15.5582 261.497 19.5437C261.497 23.5292 258.56 25.8786 253.274 25.8786H236.87ZM267.721 39.6812H271.203V10.1043H267.721V39.6812ZM273.494 39.6812H278.151L290.569 26.466L303.197 39.6812H307.896L293.086 24.3263L307.476 10.1043H302.777L290.569 22.2707L278.612 10.1043H273.914L288.052 24.3263L273.494 39.6812Z" fill="#2D3047"/>
<defs>
<linearGradient id="paint0_linear" x1="46.58" y1="11.6615" x2="4.79991" y2="50.6598" gradientUnits="userSpaceOnUse">
<stop stop-color="#418DFF"/>
<stop offset="0.333302" stop-color="#4541FF"/>
<stop offset="0.437384" stop-color="#4541FF"/>
<stop offset="0.745055" stop-color="#EF41CB"/>
<stop offset="0.790836" stop-color="#EF41CB"/>
<stop offset="0.998516" stop-color="#EFA941"/>
</linearGradient>
</defs>
</svg>
