<svg width="163" height="50" viewBox="0 0 163 50" fill="none" xmlns="http://www.w3.org/2000/svg">
<path fill-rule="evenodd" clip-rule="evenodd" d="M3 45.054C1.34315 45.054 0 43.7108 0 42.054V3C0 1.34315 1.34315 0 3 0H21.5761C31.6755 0 38.7656 8.12213 38.7656 17.5131C38.7656 26.904 31.6755 35.4788 21.5761 35.4788H15.7227C14.0658 35.4788 12.7227 36.8219 12.7227 38.4787V42.054C12.7227 43.7108 11.3795 45.054 9.72266 45.054H3ZM16.1357 20.1299L16.1358 20.1302L16.136 20.1299H16.1357ZM16.1357 20.1299L14.9286 16.4607L14.9125 16.4186C14.6909 15.8388 13.1614 11.8373 13.769 7.38053C9.76023 9.55376 7.53917 13.9001 7.78061 18.052C10.9673 19.8886 14.5413 20.1299 16.1357 20.1299ZM7.975 19.6951C8.79506 24.0892 12.1269 27.6156 16.4257 28.7235C19.1291 26.309 20.4822 22.9763 20.9656 21.4323C20.4043 21.438 19.8529 21.4488 19.3095 21.4594L19.3093 21.4594C15.3619 21.5364 11.8365 21.6051 7.975 19.6949V19.6951ZM15.9431 15.1542C15.4596 13.6102 14.5889 10.1822 15.3136 6.65577L15.3138 6.65594C19.3226 5.15986 23.9578 5.97875 27.2441 9.02277C22.7319 9.83663 19.4122 12.6101 19.088 12.8809L19.0824 12.8857L15.9431 15.1542ZM29.1743 23.7026C27.6781 20.4679 25.0224 18.2441 23.7158 17.2793L22.5085 20.9488C22.4132 21.336 21.3013 25.6319 18.0667 29.0124C22.414 29.5455 26.7595 27.5152 29.174 23.7028L29.1743 23.7026ZM23.7645 15.6369L20.6254 13.3686C21.8802 12.4502 24.8289 10.6135 28.3523 10.1787C31.2492 13.6573 31.7317 18.3403 29.9943 22.2033C27.7733 18.1467 24.101 15.8305 23.7645 15.6369Z" fill="#181687"/>
<path fill-rule="evenodd" clip-rule="evenodd" d="M3 45.054C1.34315 45.054 0 43.7108 0 42.054V3C0 1.34315 1.34315 0 3 0H21.5761C31.6755 0 38.7656 8.12213 38.7656 17.5131C38.7656 26.904 31.6755 35.4788 21.5761 35.4788H15.7227C14.0658 35.4788 12.7227 36.8219 12.7227 38.4787V42.054C12.7227 43.7108 11.3795 45.054 9.72266 45.054H3ZM16.1357 20.1299L16.1358 20.1302L16.136 20.1299H16.1357ZM16.1357 20.1299L14.9286 16.4607L14.9125 16.4186C14.6909 15.8388 13.1614 11.8373 13.769 7.38053C9.76023 9.55376 7.53917 13.9001 7.78061 18.052C10.9673 19.8886 14.5413 20.1299 16.1357 20.1299ZM7.975 19.6951C8.79506 24.0892 12.1269 27.6156 16.4257 28.7235C19.1291 26.309 20.4822 22.9763 20.9656 21.4323C20.4043 21.438 19.8529 21.4488 19.3095 21.4594L19.3093 21.4594C15.3619 21.5364 11.8365 21.6051 7.975 19.6949V19.6951ZM15.9431 15.1542C15.4596 13.6102 14.5889 10.1822 15.3136 6.65577L15.3138 6.65594C19.3226 5.15986 23.9578 5.97875 27.2441 9.02277C22.7319 9.83663 19.4122 12.6101 19.088 12.8809L19.0824 12.8857L15.9431 15.1542ZM29.1743 23.7026C27.6781 20.4679 25.0224 18.2441 23.7158 17.2793L22.5085 20.9488C22.4132 21.336 21.3013 25.6319 18.0667 29.0124C22.414 29.5455 26.7595 27.5152 29.174 23.7028L29.1743 23.7026ZM23.7645 15.6369L20.6254 13.3686C21.8802 12.4502 24.8289 10.6135 28.3523 10.1787C31.2492 13.6573 31.7317 18.3403 29.9943 22.2033C27.7733 18.1467 24.101 15.8305 23.7645 15.6369Z" fill="url(#paint0_linear)"/>
<path d="M64.041 37.0547H73.959V28.7327H85.891C93.643 28.7327 97.937 25.4267 97.975 19.4227C97.975 13.2667 93.681 9.84669 85.967 9.84669H64.041V37.0547ZM73.959 23.1467V15.4327H82.661C86.119 15.4327 88.019 16.8007 88.019 19.2707C88.019 21.7787 86.119 23.1467 82.661 23.1467H73.959ZM101.697 37.0547H111.539V9.84669H101.697V37.0547ZM114.631 37.0547H124.815L133.479 27.4407L142.143 37.0547H152.517L139.065 22.7287L152.365 9.84669H142.029L133.365 18.3967L124.929 9.84669H114.783L127.779 22.8427L114.631 37.0547Z" fill="#181818"/>
<defs>
<linearGradient id="paint0_linear" x1="42.191" y1="10.0948" x2="4.34764" y2="45.4185" gradientUnits="userSpaceOnUse">
<stop stop-color="#418DFF"/>
<stop offset="0.333302" stop-color="#4541FF"/>
<stop offset="0.437384" stop-color="#4541FF"/>
<stop offset="0.745055" stop-color="#EF41CB"/>
<stop offset="0.790836" stop-color="#EF41CB"/>
<stop offset="0.998516" stop-color="#EFA941"/>
</linearGradient>
</defs>
</svg>
