<svg width="20" height="20" viewBox="0 0 20 20" fill="none" xmlns="http://www.w3.org/2000/svg">
<path d="M10.1356 0.164062C7.55662 0.17021 5.09747 1.25301 3.35147 3.15203C1.60547 5.05018 0.732566 7.59149 0.942283 10.1622C1.15208 12.7327 2.42547 15.099 4.45572 16.6898C5.54851 17.7372 6.83953 18.5557 8.25285 19.0974C10.3117 19.9004 12.5688 20.0503 14.7159 19.527C15.2884 19.3971 15.6842 18.7739 15.4736 18.3112C15.3084 17.9516 15.2769 17.5635 15.1586 17.1954C15.1586 17.18 15.1585 17.1639 15.1701 17.1485V17.1477C17.404 15.6861 18.8972 13.3299 19.266 10.6855C19.6341 8.04119 18.8411 5.36681 17.0912 3.3503C15.3413 1.3338 12.8054 0.171895 10.1357 0.164223L10.1356 0.164062ZM6.14565 11.1295C5.68611 11.1334 5.27035 10.8575 5.09359 10.4333C4.91684 10.0091 5.0152 9.51955 5.34104 9.196C5.66687 8.87171 6.15716 8.77795 6.57984 8.95701C7.00327 9.13684 7.27533 9.5549 7.26917 10.0144C7.26303 10.6308 6.76198 11.128 6.14565 11.1295ZM10.1234 11.1295H10.1242C9.66691 11.1257 9.25731 10.8475 9.08594 10.4241C8.9138 10.0014 9.0137 9.51571 9.33799 9.19449C9.66305 8.87326 10.1487 8.77873 10.5699 8.95471C10.9918 9.13146 11.2654 9.54414 11.2646 10.0006C11.2584 10.6262 10.7497 11.1311 10.1241 11.1318L10.1234 11.1295ZM14.1249 11.1295H14.1257C13.6669 11.1326 13.2527 10.8583 13.0759 10.4356C12.8992 10.0122 12.9945 9.52494 13.318 9.19988C13.6415 8.87558 14.1288 8.77798 14.5522 8.95396C14.9756 9.12918 15.2515 9.54262 15.2508 10.0006C15.2515 10.6239 14.7482 11.1295 14.1257 11.1318L14.1249 11.1295Z" fill="#65CB63"/>
</svg>
