<svg width="100" height="46" viewBox="0 0 100 46" fill="none" xmlns="http://www.w3.org/2000/svg">
<path d="M39.3945 10.6054H60.6055C61.4414 10.6054 62.1211 11.2851 62.1211 12.121V33.332C62.1211 34.1679 61.4414 34.8476 60.6055 34.8476H39.3945C38.5586 34.8476 37.8789 34.1679 37.8789 33.332V12.121C37.8789 11.2851 38.5586 10.6054 39.3945 10.6054ZM40.9101 13.6366V31.8166H59.0901V13.6366H40.9101ZM74.8713 24.2426L78.344 27.7153C78.9377 28.309 78.9377 29.2661 78.344 29.8598C77.7542 30.4496 76.7932 30.4496 76.2034 29.8598L70.1409 23.7973C69.5511 23.2075 69.5511 22.2465 70.1409 21.6567L76.2034 15.5942C76.7932 15.0044 77.7542 15.0044 78.344 15.5942C78.9377 16.188 78.9377 17.145 78.344 17.7387L74.8713 21.2114H77.2736C89.8246 21.2114 100.001 31.3874 100.001 43.9384C100.001 44.7782 99.3209 45.454 98.485 45.454C97.6491 45.454 96.9694 44.7782 96.9694 43.9384C96.9694 33.0594 88.153 24.2434 77.2744 24.2434L74.8713 24.2426ZM25.1293 24.2426H22.727C10.176 24.2426 0 14.0666 0 1.5156C0 0.67576 0.67969 0 1.5156 0C2.35151 0 3.0312 0.67578 3.0312 1.5156C3.0312 12.3946 11.8476 21.2106 22.7262 21.2106H25.1285L21.6558 17.7379C21.062 17.1442 21.062 16.1871 21.6558 15.5934C22.2456 15.0036 23.2066 15.0036 23.7964 15.5934L29.8589 21.6559C30.4487 22.2457 30.4487 23.2067 29.8589 23.7965L23.7964 29.859C23.2066 30.4488 22.2456 30.4488 21.6558 29.859C21.062 29.2652 21.062 28.3082 21.6558 27.7145L25.1293 24.2426Z" fill="url(#paint0_linear)"/>
<defs>
<linearGradient id="paint0_linear" x1="7.56949" y1="20.8483" x2="90.6524" y2="45.3329" gradientUnits="userSpaceOnUse">
<stop offset="0.179206" stop-color="#A0D800"/>
<stop offset="0.852705" stop-color="#0DCC9E"/>
</linearGradient>
</defs>
</svg>
