<svg width="169" height="186" viewBox="0 0 169 186" fill="none" xmlns="http://www.w3.org/2000/svg">
<path d="M70.5 5.75168C79.1632 0.749964 89.8368 0.749963 98.5 5.75168L152.937 37.1812C161.601 42.1829 166.937 51.4264 166.937 61.4299V124.289C166.937 134.292 161.601 143.536 152.937 148.538L98.5 179.967C89.8368 184.969 79.1632 184.969 70.5 179.967L16.0625 148.538C7.3993 143.536 2.06252 134.292 2.06252 124.289V61.4299C2.06252 51.4265 7.39929 42.1829 16.0625 37.1812L70.5 5.75168Z" fill="white"/>
<path d="M70.5 5.75168C79.1632 0.749964 89.8368 0.749963 98.5 5.75168L152.937 37.1812C161.601 42.1829 166.937 51.4264 166.937 61.4299V124.289C166.937 134.292 161.601 143.536 152.937 148.538L98.5 179.967C89.8368 184.969 79.1632 184.969 70.5 179.967L16.0625 148.538C7.3993 143.536 2.06252 134.292 2.06252 124.289V61.4299C2.06252 51.4265 7.39929 42.1829 16.0625 37.1812L70.5 5.75168Z" fill="url(#paint0_linear)"/>
<path d="M70.5 5.75168C79.1632 0.749964 89.8368 0.749963 98.5 5.75168L152.937 37.1812C161.601 42.1829 166.937 51.4264 166.937 61.4299V124.289C166.937 134.292 161.601 143.536 152.937 148.538L98.5 179.967C89.8368 184.969 79.1632 184.969 70.5 179.967L16.0625 148.538C7.3993 143.536 2.06252 134.292 2.06252 124.289V61.4299C2.06252 51.4265 7.39929 42.1829 16.0625 37.1812L70.5 5.75168Z" stroke="white" strokeWidth="4"/>
<path d="M70 4.88566C78.9726 -0.294694 90.0274 -0.294695 99 4.88566L153.437 36.3151C162.41 41.4955 167.937 51.0692 167.937 61.4299V124.289C167.937 134.65 162.41 144.223 153.437 149.404L99 180.833C90.0274 186.013 78.9726 186.013 70 180.833L15.5625 149.404C6.5899 144.223 1.06252 134.65 1.06252 124.289V61.4299C1.06252 51.0692 6.58989 41.4955 15.5625 36.3151L70 4.88566Z" stroke="#FF8E3C" strokeWidth="2"/>
<defs>
<linearGradient id="paint0_linear" x1="84.5" y1="111.5" x2="84.5" y2="231" gradientUnits="userSpaceOnUse">
<stop stop-color="white" stop-opacity="0"/>
<stop offset="1" stop-color="#FF8E3C"/>
</linearGradient>
</defs>
</svg>
