<svg width="16" height="15" viewBox="0 0 16 15" fill="none" xmlns="http://www.w3.org/2000/svg">
<path d="M11.9161 5.78033C12.209 5.48744 12.209 5.01256 11.9161 4.71967C11.6232 4.42678 11.1483 4.42678 10.8554 4.71967L11.9161 5.78033ZM6.13573 10.5L5.6054 11.0303C5.89829 11.3232 6.37317 11.3232 6.66606 11.0303L6.13573 10.5ZM4.41602 7.71967C4.12313 7.42678 3.64826 7.42678 3.35536 7.71967C3.06247 8.01257 3.06247 8.48744 3.35537 8.78033L4.41602 7.71967ZM10.8554 4.71967L5.6054 9.96968L6.66606 11.0303L11.9161 5.78033L10.8554 4.71967ZM3.35537 8.78033L5.6054 11.0303L6.66606 9.96968L4.41602 7.71967L3.35537 8.78033ZM13.6357 7.5C13.6357 10.8137 10.9495 13.5 7.63574 13.5V15C11.7779 15 15.1357 11.6421 15.1357 7.5H13.6357ZM7.63574 13.5C4.32203 13.5 1.63574 10.8137 1.63574 7.5H0.135742C0.135742 11.6421 3.49361 15 7.63574 15V13.5ZM1.63574 7.5C1.63574 4.18629 4.32203 1.5 7.63574 1.5V0C3.49361 0 0.135742 3.35786 0.135742 7.5H1.63574ZM7.63574 1.5C10.9495 1.5 13.6357 4.18629 13.6357 7.5H15.1357C15.1357 3.35786 11.7779 0 7.63574 0V1.5Z" fill="#65CB63"/>
</svg>
