<svg width="16" height="16" viewBox="0 0 16 16" fill="none" xmlns="http://www.w3.org/2000/svg">
<path d="M8.38574 4.21875C8.38574 3.80454 8.04996 3.46875 7.63574 3.46875C7.22153 3.46875 6.88574 3.80454 6.88574 4.21875H8.38574ZM6.88574 9.46875C6.88574 9.88296 7.22153 10.2188 7.63574 10.2188C8.04996 10.2188 8.38574 9.88296 8.38574 9.46875H6.88574ZM8.38574 11.7113C8.38574 11.297 8.04996 10.9613 7.63574 10.9613C7.22153 10.9613 6.88574 11.297 6.88574 11.7113H8.38574ZM6.88574 11.7188C6.88574 12.133 7.22153 12.4688 7.63574 12.4688C8.04996 12.4688 8.38574 12.133 8.38574 11.7188H6.88574ZM6.88574 4.21875V9.46875H8.38574V4.21875H6.88574ZM6.88574 11.7113V11.7188H8.38574V11.7113H6.88574ZM13.6357 7.96875C13.6357 11.2825 10.9495 13.9688 7.63574 13.9688V15.4688C11.7779 15.4688 15.1357 12.1109 15.1357 7.96875H13.6357ZM7.63574 13.9688C4.32203 13.9688 1.63574 11.2825 1.63574 7.96875H0.135742C0.135742 12.1109 3.49361 15.4688 7.63574 15.4688V13.9688ZM1.63574 7.96875C1.63574 4.65504 4.32203 1.96875 7.63574 1.96875V0.46875C3.49361 0.46875 0.135742 3.82661 0.135742 7.96875H1.63574ZM7.63574 1.96875C10.9495 1.96875 13.6357 4.65504 13.6357 7.96875H15.1357C15.1357 3.82661 11.7779 0.46875 7.63574 0.46875V1.96875Z" fill="#F43E5F"/>
</svg>
