<svg width="1030" height="55" viewBox="0 0 1030 55" fill="none" xmlns="http://www.w3.org/2000/svg">
<path opacity="0.5" d="M39.8982 20.6929H37.2773V34.7491H39.8982V20.6929Z" fill="white"/>
<path opacity="0.5" d="M44.5545 6.41577H41.9336V48.5844H44.5545V6.41577Z" fill="white"/>
<path opacity="0.5" d="M53.8767 21.9177H51.2559V33.0723H53.8767V21.9177Z" fill="white"/>
<path opacity="0.5" d="M49.2107 17.6707H46.5898V37.3293H49.2107V17.6707Z" fill="white"/>
<path opacity="0.5" d="M67.8543 25.4316H65.2334V29.5682H67.8543V25.4316Z" fill="white"/>
<path opacity="0.5" d="M63.1892 25.4316H60.5684V29.5682H63.1892V25.4316Z" fill="white"/>
<path opacity="0.5" d="M58.533 25.4316H55.9121V29.5682H58.533V25.4316Z" fill="white"/>
<path opacity="0.5" d="M11.9422 11.1045H9.32129V46.5764H11.9422V11.1045Z" fill="white"/>
<path opacity="0.5" d="M16.5984 5.31128H13.9775V50.1406H16.5984V5.31128Z" fill="white"/>
<path opacity="0.5" d="M7.27712 15.8835H4.65625V42.5703H7.27712V15.8835Z" fill="white"/>
<path opacity="0.5" d="M2.62087 23.9358H0V31.496H2.62087V23.9358Z" fill="white"/>
<path opacity="0.5" d="M35.2332 15.4519H32.6123V39.5483H35.2332V15.4519Z" fill="white"/>
<path opacity="0.5" d="M30.5769 11.9377H27.9561V43.0622H30.5769V11.9377Z" fill="white"/>
<path opacity="0.5" d="M21.2556 9.75903H18.6348V45.2309H21.2556V9.75903Z" fill="white"/>
<path opacity="0.5" d="M25.9207 0H23.2998V55H25.9207V0Z" fill="white"/>
<path opacity="0.5" d="M105.123 15.4519H102.502V39.5483H105.123V15.4519Z" fill="white"/>
<path opacity="0.5" d="M100.467 11.9377H97.8457V43.0622H100.467V11.9377Z" fill="white"/>
<path opacity="0.5" d="M111.823 23.9359V31.4961V48.5844H114.444V31.4961V23.9359V6.41577H111.823V23.9359Z" fill="white"/>
<path opacity="0.5" d="M95.8103 0H93.1895V55H95.8103V0Z" fill="white"/>
<path opacity="0.5" d="M109.788 20.6929H107.167V34.7491H109.788V20.6929Z" fill="white"/>
<path opacity="0.5" d="M91.1453 9.75903H88.5244V45.2309H91.1453V9.75903Z" fill="white"/>
<path opacity="0.5" d="M77.1668 15.8835H74.5459V42.5703H77.1668V15.8835Z" fill="white"/>
<path opacity="0.5" d="M81.8318 11.1045H79.2109V46.5764H81.8318V11.1045Z" fill="white"/>
<path opacity="0.5" d="M69.8896 25.4318V29.5683V31.496H72.5105V29.5683V25.4318V23.9358H69.8896V25.4318Z" fill="white"/>
<path opacity="0.5" d="M86.489 5.31128H83.8682V50.1406H86.489V5.31128Z" fill="white"/>
<path opacity="0.5" d="M161.035 17.6707H158.414V37.3293H161.035V17.6707Z" fill="white"/>
<path opacity="0.5" d="M156.379 6.41577H153.758V48.5844H156.379V6.41577Z" fill="white"/>
<path opacity="0.5" d="M165.7 21.9177H163.079V33.0723H165.7V21.9177Z" fill="white"/>
<path opacity="0.5" d="M151.721 20.6929H149.101V34.7491H151.721V20.6929Z" fill="white"/>
<path opacity="0.5" d="M179.677 25.4316H177.057V29.5682H179.677V25.4316Z" fill="white"/>
<path opacity="0.5" d="M175.012 25.4316H172.392V29.5682H175.012V25.4316Z" fill="white"/>
<path opacity="0.5" d="M170.356 25.4316H167.735V29.5682H170.356V25.4316Z" fill="white"/>
<path opacity="0.5" d="M139.779 25.4317V29.5683V43.0622H142.4V29.5683V25.4317V11.9377H139.779V25.4317Z" fill="white"/>
<path opacity="0.5" d="M130.458 25.4317V29.5683V45.2309H133.079V29.5683V25.4317V9.75903H130.458V25.4317Z" fill="white"/>
<path opacity="0.5" d="M125.802 25.4318V29.5683V50.1306H128.423V29.5683V25.4318V5.31128H125.802V25.4318Z" fill="white"/>
<path opacity="0.5" d="M121.146 21.9177V33.0724V46.5764H123.766V33.0724V21.9177V11.1045H121.146V21.9177Z" fill="white"/>
<path opacity="0.5" d="M147.056 15.4519H144.436V39.5483H147.056V15.4519Z" fill="white"/>
<path opacity="0.5" d="M135.123 25.4317V29.5683V55H137.744V29.5683V25.4317V0H135.123V25.4317Z" fill="white"/>
<path opacity="0.5" d="M116.48 17.6707V37.3293V42.5703H119.101V37.3293V17.6707V15.8835H116.48V17.6707Z" fill="white"/>
<path opacity="0.5" d="M230.925 17.6707H228.304V37.3293H230.925V17.6707Z" fill="white"/>
<path opacity="0.5" d="M249.567 25.4316H246.946V29.5682H249.567V25.4316Z" fill="white"/>
<path opacity="0.5" d="M221.612 20.6929H218.991V34.7491H221.612V20.6929Z" fill="white"/>
<path opacity="0.5" d="M216.946 15.4519H214.325V39.5483H216.946V15.4519Z" fill="white"/>
<path opacity="0.5" d="M244.902 25.4316H242.281V29.5682H244.902V25.4316Z" fill="white"/>
<path opacity="0.5" d="M240.246 25.4316H237.625V29.5682H240.246V25.4316Z" fill="white"/>
<path opacity="0.5" d="M235.59 21.9177H232.969V33.0723H235.59V21.9177Z" fill="white"/>
<path opacity="0.5" d="M226.268 6.41577H223.647V48.5844H226.268V6.41577Z" fill="white"/>
<path opacity="0.5" d="M193.656 11.1045H191.035V46.5764H193.656V11.1045Z" fill="white"/>
<path opacity="0.5" d="M212.29 11.9377H209.669V43.0622H212.29V11.9377Z" fill="white"/>
<path opacity="0.5" d="M181.713 25.4318V29.5683V31.496H184.334V29.5683V25.4318V23.9358H181.713V25.4318Z" fill="white"/>
<path opacity="0.5" d="M188.991 15.8835H186.37V42.5703H188.991V15.8835Z" fill="white"/>
<path opacity="0.5" d="M198.312 5.31128H195.691V50.1406H198.312V5.31128Z" fill="white"/>
<path opacity="0.5" d="M207.634 0H205.013V55H207.634V0Z" fill="white"/>
<path opacity="0.5" d="M202.969 9.75903H200.348V45.2309H202.969V9.75903Z" fill="white"/>
<path opacity="0.5" d="M305.479 21.9177H302.858V33.0723H305.479V21.9177Z" fill="white"/>
<path opacity="0.5" d="M310.135 25.4316H307.515V29.5682H310.135V25.4316Z" fill="white"/>
<path opacity="0.5" d="M296.158 6.41577H293.537V48.5844H296.158V6.41577Z" fill="white"/>
<path opacity="0.5" d="M300.814 17.6707H298.193V37.3293H300.814V17.6707Z" fill="white"/>
<path opacity="0.5" d="M319.457 25.4316H316.836V29.5682H319.457V25.4316Z" fill="white"/>
<path opacity="0.5" d="M314.792 25.4316H312.171V29.5682H314.792V25.4316Z" fill="white"/>
<path opacity="0.5" d="M291.502 20.6929H288.881V34.7491H291.502V20.6929Z" fill="white"/>
<path opacity="0.5" d="M324.114 25.4316H321.493V29.5682H324.114V25.4316Z" fill="white"/>
<path opacity="0.5" d="M286.836 15.4519H284.215V39.5483H286.836V15.4519Z" fill="white"/>
<path opacity="0.5" d="M258.881 15.8835H256.26V42.5703H258.881V15.8835Z" fill="white"/>
<path opacity="0.5" d="M263.546 11.1045H260.925V46.5764H263.546V11.1045Z" fill="white"/>
<path opacity="0.5" d="M251.604 25.4318V29.5683V31.496H254.224V29.5683V25.4318V23.9358H251.604V25.4318Z" fill="white"/>
<path opacity="0.5" d="M268.202 5.31128H265.581V50.1406H268.202V5.31128Z" fill="white"/>
<path opacity="0.5" d="M272.858 9.75903H270.237V45.2309H272.858V9.75903Z" fill="white"/>
<path opacity="0.5" d="M277.523 0H274.902V55H277.523V0Z" fill="white"/>
<path opacity="0.5" d="M282.179 11.9377H279.559V43.0622H282.179V11.9377Z" fill="white"/>
<path opacity="0.5" d="M357.311 11.9377H354.69V43.0622H357.311V11.9377Z" fill="white"/>
<path opacity="0.5" d="M366.633 20.6929H364.012V34.7491H366.633V20.6929Z" fill="white"/>
<path opacity="0.5" d="M361.968 15.4519H359.347V39.5483H361.968V15.4519Z" fill="white"/>
<path opacity="0.5" d="M368.668 23.9359V31.4961V48.5844H371.289V31.4961V23.9359V6.41577H368.668V23.9359Z" fill="white"/>
<path opacity="0.5" d="M352.655 0H350.034V55H352.655V0Z" fill="white"/>
<path opacity="0.5" d="M338.677 11.1045H336.056V46.5764H338.677V11.1045Z" fill="white"/>
<path opacity="0.5" d="M334.012 15.8835H331.391V42.5703H334.012V15.8835Z" fill="white"/>
<path opacity="0.5" d="M329.355 23.9358H326.734V31.496H329.355V23.9358Z" fill="white"/>
<path opacity="0.5" d="M343.334 5.31128H340.713V50.1406H343.334V5.31128Z" fill="white"/>
<path opacity="0.5" d="M347.99 9.75903H345.369V45.2309H347.99V9.75903Z" fill="white"/>
<path opacity="0.5" d="M408.567 20.6929H405.946V34.7491H408.567V20.6929Z" fill="white"/>
<path d="M417.88 17.6707H415.259V37.3293H417.88V17.6707Z" fill="white"/>
<path d="M413.223 6.41577H410.603V48.5844H413.223V6.41577Z" fill="white"/>
<path d="M422.545 21.9177H419.924V33.0723H422.545V21.9177Z" fill="white"/>
<path d="M427.201 25.4316H424.58V29.5682H427.201V25.4316Z" fill="white"/>
<path d="M431.857 25.4316H429.236V29.5682H431.857V25.4316Z" fill="white"/>
<path d="M436.522 25.4316H433.901V29.5682H436.522V25.4316Z" fill="white"/>
<path d="M382.646 25.4318V29.5683V50.1306H385.267V29.5683V25.4318V5.31128H382.646V25.4318Z" fill="white"/>
<path d="M373.325 17.6707V37.3293V42.5703H375.946V37.3293V17.6707V15.8835H373.325V17.6707Z" fill="white"/>
<path d="M377.99 21.9177V33.0724V46.5764H380.611V33.0724V21.9177V11.1045H377.99V21.9177Z" fill="white"/>
<path d="M403.901 15.4519H401.28V39.5483H403.901V15.4519Z" fill="white"/>
<path d="M391.968 25.4317V29.5683V55H394.589V29.5683V25.4317V0H391.968V25.4317Z" fill="white"/>
<path d="M387.303 25.4317V29.5683V45.2309H389.924V29.5683V25.4317V9.75903H387.303V25.4317Z" fill="white"/>
<path d="M396.624 25.4317V29.5683V43.0622H399.245V29.5683V25.4317V11.9377H396.624V25.4317Z" fill="white"/>
<path d="M478.457 20.6929H475.836V34.7491H478.457V20.6929Z" fill="white"/>
<path d="M483.113 6.41577H480.492V48.5844H483.113V6.41577Z" fill="white"/>
<path d="M492.434 21.9177H489.813V33.0723H492.434V21.9177Z" fill="white"/>
<path d="M506.412 25.4316H503.791V29.5682H506.412V25.4316Z" fill="white"/>
<path d="M497.091 25.4316H494.47V29.5682H497.091V25.4316Z" fill="white"/>
<path d="M473.791 15.4519H471.17V39.5483H473.791V15.4519Z" fill="white"/>
<path d="M487.769 17.6707H485.148V37.3293H487.769V17.6707Z" fill="white"/>
<path d="M445.836 15.8835H443.215V42.5703H445.836V15.8835Z" fill="white"/>
<path d="M438.559 25.4318V29.5683V31.496H441.179V29.5683V25.4318V23.9358H438.559V25.4318Z" fill="white"/>
<path d="M511.069 25.4316H508.448V29.5682H511.069V25.4316Z" fill="white"/>
<path d="M450.501 11.1045H447.88V46.5764H450.501V11.1045Z" fill="white"/>
<path d="M455.157 5.31128H452.536V50.1406H455.157V5.31128Z" fill="white"/>
<path d="M469.135 11.9377H466.514V43.0622H469.135V11.9377Z" fill="white"/>
<path d="M464.478 0H461.857V55H464.478V0Z" fill="white"/>
<path d="M459.813 9.75903H457.192V45.2309H459.813V9.75903Z" fill="white"/>
<path d="M501.747 25.4316H499.126V29.5682H501.747V25.4316Z" fill="white"/>
<path d="M576.879 25.4316H574.258V29.5682H576.879V25.4316Z" fill="white"/>
<path d="M567.566 21.9177H564.945V33.0723H567.566V21.9177Z" fill="white"/>
<path d="M572.222 25.4316H569.602V29.5682H572.222V25.4316Z" fill="white"/>
<path d="M562.901 17.6707H560.28V37.3293H562.901V17.6707Z" fill="white"/>
<path d="M516.31 23.9358H513.689V31.496H516.31V23.9358Z" fill="white"/>
<path d="M581.544 25.4316H578.923V29.5682H581.544V25.4316Z" fill="white"/>
<path d="M558.244 6.41577H555.623V48.5844H558.244V6.41577Z" fill="white"/>
<path d="M586.2 25.4316H583.579V29.5682H586.2V25.4316Z" fill="white"/>
<path d="M520.967 15.8835H518.346V42.5703H520.967V15.8835Z" fill="white"/>
<path d="M530.289 5.31128H527.668V50.1406H530.289V5.31128Z" fill="white"/>
<path d="M525.632 11.1045H523.011V46.5764H525.632V11.1045Z" fill="white"/>
<path d="M553.588 20.6929H550.967V34.7491H553.588V20.6929Z" fill="white"/>
<path d="M534.945 9.75903H532.324V45.2309H534.945V9.75903Z" fill="white"/>
<path d="M548.923 15.4519H546.302V39.5483H548.923V15.4519Z" fill="white"/>
<path d="M544.266 11.9377H541.646V43.0622H544.266V11.9377Z" fill="white"/>
<path d="M539.61 0H536.989V55H539.61V0Z" fill="white"/>
<path d="M624.054 15.4519H621.434V39.5483H624.054V15.4519Z" fill="white"/>
<path d="M619.398 11.9377H616.777V43.0622H619.398V11.9377Z" fill="white"/>
<path d="M614.741 0H612.12V55H614.741V0Z" fill="white"/>
<path d="M628.719 20.6929H626.099V34.7491H628.719V20.6929Z" fill="white"/>
<path d="M630.755 23.9359V31.4961V48.5844H633.376V31.4961V23.9359V6.41577H630.755V23.9359Z" fill="white"/>
<path d="M610.076 9.75903H607.455V45.2309H610.076V9.75903Z" fill="white"/>
<path d="M591.442 23.9358H588.821V31.496H591.442V23.9358Z" fill="white"/>
<path d="M605.42 5.31128H602.799V50.1406H605.42V5.31128Z" fill="white"/>
<path d="M600.763 11.1045H598.143V46.5764H600.763V11.1045Z" fill="white"/>
<path d="M596.098 15.8835H593.478V42.5703H596.098V15.8835Z" fill="white"/>
<path d="M689.288 25.4316H686.667V29.5682H689.288V25.4316Z" fill="white"/>
<path d="M684.632 21.9177H682.011V33.0723H684.632V21.9177Z" fill="white"/>
<path d="M679.966 17.6707H677.345V37.3293H679.966V17.6707Z" fill="white"/>
<path d="M703.265 25.4316H700.645V29.5682H703.265V25.4316Z" fill="white"/>
<path d="M675.309 6.41577H672.688V48.5844H675.309V6.41577Z" fill="white"/>
<path d="M698.609 25.4316H695.988V29.5682H698.609V25.4316Z" fill="white"/>
<path d="M693.944 25.4316H691.323V29.5682H693.944V25.4316Z" fill="white"/>
<path d="M658.711 25.4317V29.5683V43.0622H661.332V29.5683V25.4317V11.9377H658.711V25.4317Z" fill="white"/>
<path d="M644.732 25.4318V29.5683V50.1306H647.353V29.5683V25.4318V5.31128H644.732V25.4318Z" fill="white"/>
<path d="M640.076 21.9177V33.0724V46.5764H642.697V33.0724V21.9177V11.1045H640.076V21.9177Z" fill="white"/>
<path d="M649.39 25.4317V29.5683V45.2309H652.01V29.5683V25.4317V9.75903H649.39V25.4317Z" fill="white"/>
<path d="M670.653 20.6929H668.032V34.7491H670.653V20.6929Z" fill="white"/>
<path d="M635.411 17.6707V37.3293V42.5703H638.032V37.3293V17.6707V15.8835H635.411V17.6707Z" fill="white"/>
<path d="M665.988 15.4519H663.367V39.5483H665.988V15.4519Z" fill="white"/>
<path d="M654.055 25.4317V29.5683V55H656.676V29.5683V25.4317V0H654.055V25.4317Z" fill="white"/>
<path d="M755.097 17.6707H752.477V37.3293H755.097V17.6707Z" fill="white"/>
<path d="M759.762 21.9177H757.142V33.0723H759.762V21.9177Z" fill="white"/>
<path d="M764.419 25.4316H761.798V29.5682H764.419V25.4316Z" fill="white"/>
<path d="M750.441 6.41577H747.82V48.5844H750.441V6.41577Z" fill="white"/>
<path d="M745.785 20.6929H743.164V34.7491H745.785V20.6929Z" fill="white"/>
<path d="M769.075 25.4316H766.454V29.5682H769.075V25.4316Z" fill="white"/>
<path d="M773.74 25.4316H771.119V29.5682H773.74V25.4316Z" fill="white"/>
<path d="M717.829 11.1045H715.208V46.5764H717.829V11.1045Z" fill="white"/>
<path d="M713.164 15.8835H710.543V42.5703H713.164V15.8835Z" fill="white"/>
<path d="M741.12 15.4519H738.499V39.5483H741.12V15.4519Z" fill="white"/>
<path d="M708.508 23.9358H705.887V31.496H708.508V23.9358Z" fill="white"/>
<path d="M722.485 5.31128H719.864V50.1406H722.485V5.31128Z" fill="white"/>
<path d="M731.806 0H729.186V55H731.806V0Z" fill="white"/>
<path d="M736.463 11.9377H733.842V43.0622H736.463V11.9377Z" fill="white"/>
<path d="M727.141 9.75903H724.521V45.2309H727.141V9.75903Z" fill="white"/>
<path d="M820.331 6.41577H817.71V48.5844H820.331V6.41577Z" fill="white"/>
<path d="M815.675 20.6929H813.054V34.7491H815.675V20.6929Z" fill="white"/>
<path d="M811.01 15.4519H808.389V39.5483H811.01V15.4519Z" fill="white"/>
<path d="M824.987 17.6707H822.366V37.3293H824.987V17.6707Z" fill="white"/>
<path d="M834.308 25.4316H831.688V29.5682H834.308V25.4316Z" fill="white"/>
<path d="M843.631 25.4316H841.01V29.5682H843.631V25.4316Z" fill="white"/>
<path d="M838.965 25.4316H836.344V29.5682H838.965V25.4316Z" fill="white"/>
<path d="M829.652 21.9177H827.031V33.0723H829.652V21.9177Z" fill="white"/>
<path d="M783.053 15.8835H780.433V42.5703H783.053V15.8835Z" fill="white"/>
<path d="M787.719 11.1045H785.098V46.5764H787.719V11.1045Z" fill="white"/>
<path d="M806.353 11.9377H803.732V43.0622H806.353V11.9377Z" fill="white"/>
<path d="M792.375 5.31128H789.754V50.1406H792.375V5.31128Z" fill="white"/>
<path d="M797.031 9.75903H794.41V45.2309H797.031V9.75903Z" fill="white"/>
<path d="M801.696 0H799.075V55H801.696V0Z" fill="white"/>
<path d="M775.776 25.4318V29.5683V31.496H778.397V29.5683V25.4318V23.9358H775.776V25.4318Z" fill="white"/>
<path d="M871.586 0H868.965V55H871.586V0Z" fill="white"/>
<path d="M876.243 11.9377H873.622V43.0622H876.243V11.9377Z" fill="white"/>
<path d="M887.6 23.9359V31.4961V48.5844H890.22V31.4961V23.9359V6.41577H887.6V23.9359Z" fill="white"/>
<path d="M880.899 15.4519H878.278V39.5483H880.899V15.4519Z" fill="white"/>
<path d="M885.564 20.6929H882.943V34.7491H885.564V20.6929Z" fill="white"/>
<path d="M866.921 9.75903H864.3V45.2309H866.921V9.75903Z" fill="white"/>
<path d="M852.943 15.8835H850.322V42.5703H852.943V15.8835Z" fill="white"/>
<path d="M862.264 5.31128H859.644V50.1406H862.264V5.31128Z" fill="white"/>
<path d="M845.666 25.4318V29.5683V31.496H848.287V29.5683V25.4318V23.9358H845.666V25.4318Z" fill="white"/>
<path d="M857.608 11.1045H854.987V46.5764H857.608V11.1045Z" fill="white"/>
<path d="M932.154 6.41577H929.533V48.5844H932.154V6.41577Z" fill="white"/>
<path d="M936.81 17.6707H934.189V37.3293H936.81V17.6707Z" fill="white"/>
<path d="M946.133 25.4316H943.512V29.5682H946.133V25.4316Z" fill="white"/>
<path d="M927.498 20.6929H924.877V34.7491H927.498V20.6929Z" fill="white"/>
<path d="M950.789 25.4316H948.168V29.5682H950.789V25.4316Z" fill="white"/>
<path d="M955.454 25.4316H952.833V29.5682H955.454V25.4316Z" fill="white"/>
<path d="M941.476 21.9177H938.855V33.0723H941.476V21.9177Z" fill="white"/>
<path d="M896.921 21.9177V33.0724V46.5764H899.542V33.0724V21.9177V11.1045H896.921V21.9177Z" fill="white"/>
<path d="M901.577 25.4318V29.5683V50.1306H904.198V29.5683V25.4318V5.31128H901.577V25.4318Z" fill="white"/>
<path d="M892.256 17.6707V37.3293V42.5703H894.877V37.3293V17.6707V15.8835H892.256V17.6707Z" fill="white"/>
<path d="M915.556 25.4317V29.5683V43.0622H918.177V29.5683V25.4317V11.9377H915.556V25.4317Z" fill="white"/>
<path d="M922.833 15.4519H920.212V39.5483H922.833V15.4519Z" fill="white"/>
<path d="M910.899 25.4317V29.5683V55H913.52V29.5683V25.4317V0H910.899V25.4317Z" fill="white"/>
<path d="M906.234 25.4317V29.5683V45.2309H908.855V29.5683V25.4317V9.75903H906.234V25.4317Z" fill="white"/>
<path d="M1011.37 21.9177H1008.75V33.0723H1011.37V21.9177Z" fill="white"/>
<path d="M1002.04 6.41577H999.423V48.5844H1002.04V6.41577Z" fill="white"/>
<path d="M1006.7 17.6707H1004.08V37.3293H1006.7V17.6707Z" fill="white"/>
<path d="M1030 25.4316H1027.38V29.5682H1030V25.4316Z" fill="white"/>
<path d="M997.388 20.6929H994.767V34.7491H997.388V20.6929Z" fill="white"/>
<path d="M1020.68 25.4316H1018.06V29.5682H1020.68V25.4316Z" fill="white"/>
<path d="M1025.34 25.4316H1022.72V29.5682H1025.34V25.4316Z" fill="white"/>
<path d="M1016.02 25.4316H1013.4V29.5682H1016.02V25.4316Z" fill="white"/>
<path d="M974.089 5.31128H971.468V50.1406H974.089V5.31128Z" fill="white"/>
<path d="M969.431 11.1045H966.811V46.5764H969.431V11.1045Z" fill="white"/>
<path d="M964.766 15.8835H962.146V42.5703H964.766V15.8835Z" fill="white"/>
<path d="M957.489 25.4318V29.5683V31.496H960.11V29.5683V25.4318V23.9358H957.489V25.4318Z" fill="white"/>
<path d="M978.745 9.75903H976.124V45.2309H978.745V9.75903Z" fill="white"/>
<path d="M992.722 15.4519H990.102V39.5483H992.722V15.4519Z" fill="white"/>
<path d="M988.066 11.9377H985.445V43.0622H988.066V11.9377Z" fill="white"/>
<path d="M983.41 0H980.789V55H983.41V0Z" fill="white"/>
</svg>
