<svg width="24" height="24" viewBox="0 0 24 24" fill="none" xmlns="http://www.w3.org/2000/svg">
<rect width="24" height="24" fill="white"/>
<path d="M19.5502 11.55C19.5502 15.7197 16.1699 19.1 12.0002 19.1C7.83045 19.1 4.4502 15.7197 4.4502 11.55C4.4502 7.38025 7.83045 4 12.0002 4C16.1699 4 19.5502 7.38025 19.5502 11.55Z" stroke="#65CB63" strokeWidth="0.5"/>
<path d="M20.7499 12.75C20.7499 16.9197 17.3696 20.3 13.1999 20.3C9.03015 20.3 5.6499 16.9197 5.6499 12.75C5.6499 8.5802 9.03015 5.19995 13.1999 5.19995C17.3696 5.19995 20.7499 8.5802 20.7499 12.75Z" stroke="#65CB63" strokeWidth="0.5"/>
<path d="M18.35 12.75C18.35 16.9197 14.9697 20.3 10.8 20.3C6.63025 20.3 3.25 16.9197 3.25 12.75C3.25 8.5802 6.63025 5.19995 10.8 5.19995C14.9697 5.19995 18.35 8.5802 18.35 12.75Z" stroke="#65CB63" strokeWidth="0.5"/>
</svg>
