<svg width="24" height="24" viewBox="0 0 24 24" fill="none" xmlns="http://www.w3.org/2000/svg">
<rect width="24" height="24" fill="white"/>
<path d="M5 8.5C5 7.67157 5.67157 7 6.5 7H17C17.8284 7 18.5 7.67157 18.5 8.5V14.5C18.5 15.3284 17.8284 16 17 16H6.5C5.67157 16 5 15.3284 5 14.5V8.5Z" fill="url(#paint0_linear)"/>
<path d="M11 11.5C11 10.2574 12.0074 9.25 13.25 9.25H18.5V13.75H13.25C12.0074 13.75 11 12.7426 11 11.5Z" fill="url(#paint1_linear)"/>
<path d="M13.25 11.5V11.5075M6.5 16H17C17.8284 16 18.5 15.3284 18.5 14.5V8.5C18.5 7.67157 17.8284 7 17 7H6.5C5.67157 7 5 7.67157 5 8.5V14.5C5 15.3284 5.67157 16 6.5 16ZM18.5 9.25H13.25C12.0074 9.25 11 10.2574 11 11.5C11 12.7426 12.0074 13.75 13.25 13.75H18.5V9.25Z" stroke="#FFD43E" strokeLinecap="round" strokeLinejoin="round"/>
<defs>
<linearGradient id="paint0_linear" x1="11.75" y1="7" x2="11.75" y2="16" gradientUnits="userSpaceOnUse">
<stop stop-color="#FFE99D"/>
<stop offset="1" stop-color="#FFD43E" stop-opacity="0"/>
</linearGradient>
<linearGradient id="paint1_linear" x1="11.75" y1="7" x2="11.75" y2="16" gradientUnits="userSpaceOnUse">
<stop stop-color="#FFE99D"/>
<stop offset="1" stop-color="#FFD43E" stop-opacity="0"/>
</linearGradient>
</defs>
</svg>
