<svg width="24" height="24" viewBox="0 0 24 24" fill="none" xmlns="http://www.w3.org/2000/svg">
<rect width="24" height="24" fill="white"/>
<circle cx="12" cy="12" r="9" fill="#FFD43E"/>
<path d="M9.74 15.55C11.58 15.55 12.92 14.44 13.19 12.7L12.39 12.5C12.18 13.91 11.15 14.81 9.74 14.81C7.97 14.81 6.84 13.63 6.83 11.78C6.83 9.92 7.87 8.74 9.52 8.74C10.68 8.74 11.56 9.48 11.77 10.66L12.56 10.47C12.24 8.96 11.05 8 9.52 8C7.36 8 6 9.47 6 11.78C6 14.08 7.45 15.55 9.74 15.55Z" fill="white"/>
<path d="M15.8841 10.04C15.2441 10.04 14.7041 10.43 14.4241 11.04H14.4141L14.3441 10.25H13.6941V15.3H14.4541V12.52C14.4541 11.42 14.9641 10.75 15.7741 10.75C16.3241 10.75 16.6941 11.13 16.7741 11.84L17.4341 11.62C17.3341 10.61 16.7441 10.04 15.8841 10.04Z" fill="white"/>
</svg>
