<svg width="24" height="24" viewBox="0 0 24 24" fill="none" xmlns="http://www.w3.org/2000/svg">
<rect width="24" height="24" fill="white"/>
<path d="M12.25 7.25C12.25 6.97386 12.0261 6.75 11.75 6.75C11.4739 6.75 11.25 6.97386 11.25 7.25H12.25ZM11.25 8.75C11.25 9.02614 11.4739 9.25 11.75 9.25C12.0261 9.25 12.25 9.02614 12.25 8.75H11.25ZM12.25 14.75C12.25 14.4739 12.0261 14.25 11.75 14.25C11.4739 14.25 11.25 14.4739 11.25 14.75H12.25ZM11.25 16.25C11.25 16.5261 11.4739 16.75 11.75 16.75C12.0261 16.75 12.25 16.5261 12.25 16.25H11.25ZM14 9.25C14.2761 9.25 14.5 9.02614 14.5 8.75C14.5 8.47386 14.2761 8.25 14 8.25V9.25ZM11 8.75L11 8.25H11L11 8.75ZM12.5 14.75L12.5 14.25H12.5V14.75ZM9.5 14.25C9.22386 14.25 9 14.4739 9 14.75C9 15.0261 9.22386 15.25 9.5 15.25V14.25ZM12.5 11.75L12.5 11.25H12.5V11.75ZM11 11.75L11 11.25H11L11 11.75ZM10.426 8.86418L10.2346 8.40224L10.2346 8.40224L10.426 8.86418ZM9.61418 9.67597L9.15224 9.48463L9.15224 9.48463L9.61418 9.67597ZM9.61418 10.824L9.15224 11.0154L9.15224 11.0154L9.61418 10.824ZM9.93934 11.3107L10.2929 10.9571L10.2929 10.9571L9.93934 11.3107ZM10.426 11.6358L10.2346 12.0978L10.2346 12.0978L10.426 11.6358ZM13.074 14.6358L13.2654 15.0978L13.2654 15.0978L13.074 14.6358ZM13.8858 13.824L14.3478 14.0154L14.3478 14.0154L13.8858 13.824ZM13.8858 12.676L14.3478 12.4846L14.3478 12.4846L13.8858 12.676ZM13.5607 12.1893L13.2071 12.5429L13.2071 12.5429L13.5607 12.1893ZM13.074 11.8642L13.2654 11.4022L13.2654 11.4022L13.074 11.8642ZM18 11.75C18 15.2018 15.2018 18 11.75 18V19C15.7541 19 19 15.7541 19 11.75H18ZM11.75 18C8.29822 18 5.5 15.2018 5.5 11.75H4.5C4.5 15.7541 7.74594 19 11.75 19V18ZM5.5 11.75C5.5 8.29822 8.29822 5.5 11.75 5.5V4.5C7.74594 4.5 4.5 7.74594 4.5 11.75H5.5ZM11.75 5.5C15.2018 5.5 18 8.29822 18 11.75H19C19 7.74594 15.7541 4.5 11.75 4.5V5.5ZM11.25 7.25V8.75H12.25V7.25H11.25ZM11.25 14.75V16.25H12.25V14.75H11.25ZM14 8.25H11V9.25H14V8.25ZM12.5 14.25H9.5V15.25H12.5V14.25ZM12.5 11.25H11V12.25H12.5V11.25ZM11 8.25C10.7374 8.25 10.4773 8.30173 10.2346 8.40224L10.6173 9.32612C10.7386 9.27587 10.8687 9.25 11 9.25L11 8.25ZM10.2346 8.40224C9.99198 8.50275 9.7715 8.65007 9.58579 8.83579L10.2929 9.54289C10.3858 9.45003 10.496 9.37637 10.6173 9.32612L10.2346 8.40224ZM9.58579 8.83579C9.40007 9.0215 9.25275 9.24198 9.15224 9.48463L10.0761 9.86732C10.1264 9.74599 10.2 9.63575 10.2929 9.54289L9.58579 8.83579ZM9.15224 9.48463C9.05173 9.72728 9 9.98736 9 10.25L10 10.25C10 10.1187 10.0259 9.98864 10.0761 9.86732L9.15224 9.48463ZM9 10.25C9 10.5126 9.05173 10.7727 9.15224 11.0154L10.0761 10.6327C10.0259 10.5114 10 10.3813 10 10.25L9 10.25ZM9.15224 11.0154C9.25275 11.258 9.40007 11.4785 9.58579 11.6642L10.2929 10.9571C10.2 10.8642 10.1264 10.754 10.0761 10.6327L9.15224 11.0154ZM9.58579 11.6642C9.7715 11.8499 9.99198 11.9972 10.2346 12.0978L10.6173 11.1739C10.496 11.1236 10.3858 11.05 10.2929 10.9571L9.58579 11.6642ZM10.2346 12.0978C10.4773 12.1983 10.7374 12.25 11 12.25L11 11.25C10.8687 11.25 10.7386 11.2241 10.6173 11.1739L10.2346 12.0978ZM12.5 15.25C12.7626 15.25 13.0227 15.1983 13.2654 15.0978L12.8827 14.1739C12.7614 14.2241 12.6313 14.25 12.5 14.25L12.5 15.25ZM13.2654 15.0978C13.508 14.9972 13.7285 14.8499 13.9142 14.6642L13.2071 13.9571C13.1142 14.05 13.004 14.1236 12.8827 14.1739L13.2654 15.0978ZM13.9142 14.6642C14.0999 14.4785 14.2472 14.258 14.3478 14.0154L13.4239 13.6327C13.3736 13.754 13.3 13.8642 13.2071 13.9571L13.9142 14.6642ZM14.3478 14.0154C14.4483 13.7727 14.5 13.5126 14.5 13.25L13.5 13.25C13.5 13.3813 13.4741 13.5114 13.4239 13.6327L14.3478 14.0154ZM14.5 13.25C14.5 12.9874 14.4483 12.7273 14.3478 12.4846L13.4239 12.8673C13.4741 12.9886 13.5 13.1187 13.5 13.25L14.5 13.25ZM14.3478 12.4846C14.2472 12.242 14.0999 12.0215 13.9142 11.8358L13.2071 12.5429C13.3 12.6358 13.3736 12.746 13.4239 12.8673L14.3478 12.4846ZM13.9142 11.8358C13.7285 11.6501 13.508 11.5028 13.2654 11.4022L12.8827 12.3261C13.004 12.3764 13.1142 12.45 13.2071 12.5429L13.9142 11.8358ZM13.2654 11.4022C13.0227 11.3017 12.7626 11.25 12.5 11.25L12.5 12.25C12.6313 12.25 12.7614 12.2759 12.8827 12.3261L13.2654 11.4022Z" fill="#FFD43E"/>
</svg>
