<svg width="24" height="24" viewBox="0 0 24 24" fill="none" xmlns="http://www.w3.org/2000/svg">
<rect width="24" height="24" fill="white"/>
<path d="M18.5 11.75C18.5 15.4779 15.4779 18.5 11.75 18.5C8.02208 18.5 5 15.4779 5 11.75C5 8.02208 8.02208 5 11.75 5C15.4779 5 18.5 8.02208 18.5 11.75Z" fill="url(#paint0_linear)" fill-opacity="0.3"/>
<path d="M5 11.75C5 15.4779 8.02208 18.5 11.75 18.5C15.4779 18.5 18.5 15.4779 18.5 11.75C18.5 8.02208 15.4779 5 11.75 5M5 11.75C5 8.02208 8.02208 5 11.75 5M5 11.75H11.75M11.75 5V11.75M11.75 11.75L16.5166 16.5166" stroke="url(#paint1_linear)" strokeLinecap="round" strokeLinejoin="round"/>
<defs>
<linearGradient id="paint0_linear" x1="6.55769" y1="9.95" x2="17.2872" y2="11.3428" gradientUnits="userSpaceOnUse">
<stop stop-color="#23D0C6"/>
<stop offset="1" stop-color="#00CC8F"/>
</linearGradient>
<linearGradient id="paint1_linear" x1="6.55769" y1="9.95" x2="17.2872" y2="11.3428" gradientUnits="userSpaceOnUse">
<stop stop-color="#23D0C6"/>
<stop offset="1" stop-color="#00CC8F"/>
</linearGradient>
</defs>
</svg>
