<svg width="24" height="24" viewBox="0 0 24 24" fill="none" xmlns="http://www.w3.org/2000/svg">
<rect width="24" height="24" fill="white"/>
<path d="M9.5 9.5H14M9.5 9.5V14M9.5 9.5V7.25C9.5 6.00736 8.49264 5 7.25 5C6.00736 5 5 6.00736 5 7.25C5 8.49264 6.00736 9.5 7.25 9.5H9.5ZM14 9.5V14M14 9.5H16.25C17.4926 9.5 18.5 8.49264 18.5 7.25C18.5 6.00736 17.4926 5 16.25 5C15.0074 5 14 6.00736 14 7.25V9.5ZM14 14H9.5M14 14V16.25C14 17.4926 15.0074 18.5 16.25 18.5C17.4926 18.5 18.5 17.4926 18.5 16.25C18.5 15.0074 17.4926 14 16.25 14H14ZM9.5 14L7.25 14C6.00736 14 5 15.0074 5 16.25C5 17.4926 6.00736 18.5 7.25 18.5C8.49264 18.5 9.5 17.4926 9.5 16.25L9.5 14Z" stroke="#F3722A"/>
</svg>
