<svg width="24" height="24" viewBox="0 0 24 24" fill="none" xmlns="http://www.w3.org/2000/svg">
<rect width="24" height="24" fill="white"/>
<circle cx="12" cy="12" r="9" fill="#F3722A"/>
<path d="M12.66 16.06C14.568 16.06 15.804 14.932 15.804 13.384C15.804 12.232 14.988 11.464 13.356 11.104L11.988 10.792C10.92 10.552 10.464 10.144 10.464 9.424C10.464 8.548 11.196 7.888 12.348 7.888C13.428 7.888 14.232 8.596 14.352 9.628L15.3 9.388C15.06 7.972 13.884 7 12.336 7C10.608 7 9.468 8.068 9.468 9.592C9.468 10.72 10.176 11.404 11.676 11.752L13.044 12.064C14.28 12.352 14.808 12.796 14.808 13.54C14.808 14.464 13.992 15.172 12.66 15.172C11.184 15.172 10.068 14.236 9.984 12.916L9 13.096C9.192 14.836 10.704 16.06 12.66 16.06Z" fill="white"/>
</svg>
