<svg width="24" height="24" viewBox="0 0 24 24" fill="none" xmlns="http://www.w3.org/2000/svg">
<rect width="24" height="24" fill="white"/>
<path d="M18.5 11.75C18.5 15.4779 15.4779 18.5 11.75 18.5C8.02208 18.5 5 15.4779 5 11.75C5 8.02208 8.02208 5 11.75 5C15.4779 5 18.5 8.02208 18.5 11.75Z" fill="url(#paint0_linear)"/>
<path d="M18.5 11.75C18.5 15.4779 15.4779 18.5 11.75 18.5M18.5 11.75C18.5 8.02208 15.4779 5 11.75 5M18.5 11.75H5M11.75 18.5C8.02208 18.5 5 15.4779 5 11.75M11.75 18.5V5M5 11.75C5 8.02208 8.02208 5 11.75 5M17.1745 7.75723C16.7671 7.969 16.3938 8.24226 16.068 8.56802C15.6501 8.98589 15.3187 9.48196 15.0925 10.0279C14.8664 10.5739 14.75 11.1591 14.75 11.75C14.75 12.341 14.8664 12.9261 15.0925 13.4721C15.3187 14.018 15.6501 14.5141 16.068 14.932C16.3947 15.2587 16.7692 15.5326 17.178 15.7446M6.32551 7.75722C6.73292 7.969 7.10622 8.24226 7.43198 8.56802C7.84984 8.98588 8.18131 9.48196 8.40746 10.0279C8.6336 10.5739 8.75 11.1591 8.75 11.75C8.75 12.3409 8.6336 12.9261 8.40746 13.4721C8.18131 14.018 7.84984 14.5141 7.43198 14.932C7.10528 15.2587 6.73078 15.5326 6.322 15.7446" stroke="#F3722A" strokeLinecap="round" strokeLinejoin="round"/>
<defs>
<linearGradient id="paint0_linear" x1="11.75" y1="5" x2="11.75" y2="18.5" gradientUnits="userSpaceOnUse">
<stop stop-color="#F3722A"/>
<stop offset="1" stop-color="#F3722A" stop-opacity="0.2"/>
</linearGradient>
</defs>
</svg>
