<svg width="24" height="24" viewBox="0 0 24 24" fill="none" xmlns="http://www.w3.org/2000/svg">
<rect width="24" height="24" fill="white"/>
<path d="M17.0002 17.8334V17.0001C17.0002 15.1591 15.5078 13.6667 13.6668 13.6667H10.3335C8.49255 13.6667 7.00016 15.1591 7.00016 17.0001V17.8334M21.1668 17.8334V17.0001C21.1668 15.1591 19.6744 13.6667 17.8335 13.6667H17.4168M2.8335 17.8334V17.0001C2.8335 15.1591 4.32588 13.6667 6.16683 13.6667H6.5835M16.1668 11.1667C17.5475 11.1667 18.6668 10.0475 18.6668 8.66675C18.6668 7.28604 17.5475 6.16675 16.1668 6.16675M7.8335 11.1667C6.45278 11.1667 5.3335 10.0475 5.3335 8.66675C5.3335 7.28604 6.45278 6.16675 7.8335 6.16675M14.5002 8.66675C14.5002 10.0475 13.3809 11.1667 12.0002 11.1667C10.6195 11.1667 9.50016 10.0475 9.50016 8.66675C9.50016 7.28604 10.6195 6.16675 12.0002 6.16675C13.3809 6.16675 14.5002 7.28604 14.5002 8.66675Z" stroke="#F3722A" strokeLinecap="round" strokeLinejoin="round"/>
</svg>
