<svg width="38" height="38" viewBox="0 0 38 38" fill="none" xmlns="http://www.w3.org/2000/svg">
<rect x="0.571289" y="0.423828" width="37.4287" height="37.4446" rx="18.7144" fill="#DE7AF5"/>
<rect x="0.571289" y="0.423828" width="37.4287" height="37.4446" rx="18.7144" fill="#3D23AE"/>
<rect x="11.5522" y="13.9746" width="3.56464" height="12.1249" rx="1.78232" fill="#01EED0"/>
<rect width="3.56464" height="12.1249" rx="1.78232" transform="matrix(-1 0 0 1 27.2363 13.9746)" fill="#01EED0"/>
<path fill-rule="evenodd" clip-rule="evenodd" d="M26.1667 10.7635C26.1667 9.77878 25.3684 8.98047 24.3836 8.98047H14.4042C13.4194 8.98047 12.6211 9.77878 12.6211 10.7635C12.6211 11.7483 13.4194 12.5466 14.4042 12.5466L17.612 12.5466V28.5951C17.612 29.5795 18.4099 30.3775 19.3943 30.3775C20.3786 30.3775 21.1766 29.5795 21.1766 28.5951V12.5466L24.3836 12.5466C25.3684 12.5466 26.1667 11.7483 26.1667 10.7635Z" fill="#71FF4D"/>
<path fill-rule="evenodd" clip-rule="evenodd" d="M26.1667 10.7635C26.1667 9.77878 25.3684 8.98047 24.3836 8.98047H14.4042C13.4194 8.98047 12.6211 9.77878 12.6211 10.7635C12.6211 11.7483 13.4194 12.5466 14.4042 12.5466L17.612 12.5466V28.5951C17.612 29.5795 18.4099 30.3775 19.3943 30.3775C20.3786 30.3775 21.1766 29.5795 21.1766 28.5951V12.5466L24.3836 12.5466C25.3684 12.5466 26.1667 11.7483 26.1667 10.7635Z" fill="url(#paint0_linear)"/>
<rect x="5.49219" y="17.541" width="3.56464" height="5.34923" rx="1.78232" fill="#D9FAFF"/>
<rect width="3.56464" height="5.34923" rx="1.78232" transform="matrix(-1 0 0 1 33.2964 17.541)" fill="#D9FAFF"/>
<defs>
<linearGradient id="paint0_linear" x1="19.2985" y1="14.7064" x2="28.818" y2="24.9233" gradientUnits="userSpaceOnUse">
<stop offset="0.0263039" stop-color="#BDFF00"/>
<stop offset="0.50564" stop-color="#00FDC0"/>
<stop offset="0.957096" stop-color="#00C0FD"/>
</linearGradient>
</defs>
</svg>
