<svg width="38" height="39" viewBox="0 0 38 39" fill="none" xmlns="http://www.w3.org/2000/svg">
<rect x="0.0273438" y="0.828125" width="37.182" height="37.1978" rx="18.591" fill="#DE7AF5"/>
<rect x="0.0273438" y="0.828125" width="37.182" height="37.1978" rx="18.591" fill="#3D23AE"/>
<path d="M9.27434 30.5034V32.4068H11.1777H17.3874H19.2908V30.5034V26.0936H21.7086C24.5565 26.0936 27.1266 25.2191 29.0141 23.5801C30.9204 21.9249 32.0302 19.57 32.0302 16.8705C32.0302 14.171 30.9204 11.816 29.0141 10.1608C27.1266 8.52185 24.5565 7.64739 21.7086 7.64739H11.1777H9.27434V9.55078V30.5034Z" fill="white"/>
<path d="M9.27434 30.5034V32.4068H11.1777H17.3874H19.2908V30.5034V26.0936H21.7086C24.5565 26.0936 27.1266 25.2191 29.0141 23.5801C30.9204 21.9249 32.0302 19.57 32.0302 16.8705C32.0302 14.171 30.9204 11.816 29.0141 10.1608C27.1266 8.52185 24.5565 7.64739 21.7086 7.64739H11.1777H9.27434V9.55078V30.5034Z" fill="url(#paint0_linear)"/>
<path d="M9.27434 30.5034V32.4068H11.1777H17.3874H19.2908V30.5034V26.0936H21.7086C24.5565 26.0936 27.1266 25.2191 29.0141 23.5801C30.9204 21.9249 32.0302 19.57 32.0302 16.8705C32.0302 14.171 30.9204 11.816 29.0141 10.1608C27.1266 8.52185 24.5565 7.64739 21.7086 7.64739H11.1777H9.27434V9.55078V30.5034Z" fill="url(#paint1_linear)"/>
<path d="M9.27434 30.5034V32.4068H11.1777H17.3874H19.2908V30.5034V26.0936H21.7086C24.5565 26.0936 27.1266 25.2191 29.0141 23.5801C30.9204 21.9249 32.0302 19.57 32.0302 16.8705C32.0302 14.171 30.9204 11.816 29.0141 10.1608C27.1266 8.52185 24.5565 7.64739 21.7086 7.64739H11.1777H9.27434V9.55078V30.5034Z" stroke="#3D23AE" strokeWidth="3.80679"/>
<path d="M26.5841 26.7718C26.5841 25.7549 26.061 25.1724 24.8077 24.8071L23.5544 24.4517C22.9229 24.274 22.6465 24.0371 22.6465 23.6915C22.6465 23.2275 23.1597 22.8721 23.811 22.8918C24.4919 22.9116 25.015 23.3361 25.1531 23.9679L26.5347 23.7211C26.2584 22.6351 25.5627 21.9391 24.5413 21.717V20.7988H23.1992V21.6874C22.0298 21.8799 21.3143 22.645 21.3143 23.7606C21.3143 24.6788 21.8373 25.3106 22.834 25.6167L24.5906 26.1597C25.0446 26.3078 25.2518 26.525 25.2518 26.8705C25.2518 27.3839 24.6992 27.7788 23.959 27.7788C23.1696 27.7788 22.5577 27.2851 22.3801 26.5052L21.0479 26.7125C21.2205 27.9121 22.0298 28.7414 23.1992 28.9684V29.8718H24.5413V28.9783C25.7798 28.7611 26.5841 27.9219 26.5841 26.7718Z" fill="white"/>
<path fill-rule="evenodd" clip-rule="evenodd" d="M25.1527 23.9663C25.1395 23.9059 25.1228 23.8474 25.1027 23.791C25.1019 23.7886 25.101 23.7862 25.1002 23.7838C24.9088 23.2539 24.4237 22.9079 23.8106 22.8902C23.1593 22.8704 22.6461 23.2258 22.6461 23.6898C22.6461 24.0354 22.9224 24.2723 23.554 24.45L24.8073 24.8055C25.0005 24.8618 25.1763 24.9232 25.3355 24.9906C25.348 24.9959 25.3604 25.0012 25.3727 25.0066C26.22 25.3764 26.5836 25.9222 26.5836 26.7701C26.5836 27.9203 25.7793 28.7594 24.5409 28.9766V29.8701H23.1988V28.9668C22.4 28.8117 21.7692 28.3756 21.3946 27.7324C21.2318 27.4528 21.1173 27.134 21.0585 26.7822C21.0546 26.7586 21.0509 26.7348 21.0474 26.7109L22.3797 26.5035C22.3865 26.5336 22.394 26.5632 22.4021 26.5924C22.6047 27.3208 23.1996 27.7771 23.9586 27.7771C24.6988 27.7771 25.2514 27.3822 25.2514 26.8688C25.2514 26.5233 25.0442 26.3061 24.5902 26.158L22.8336 25.615C22.6637 25.5628 22.5075 25.5012 22.3653 25.4302C21.6737 25.0851 21.3139 24.5205 21.3139 23.759C21.3139 22.6434 22.0293 21.8782 23.1988 21.6857V20.7972H24.5409V21.7153C25.2019 21.8591 25.7265 22.2013 26.0893 22.7194C26.2871 23.0017 26.4368 23.3363 26.5343 23.7195L25.1527 23.9663ZM26.8673 24.7396C26.8968 24.7693 26.9256 24.7999 26.9539 24.8311C27.4577 25.3892 27.646 26.0651 27.646 26.7701C27.646 28.2024 26.8032 29.2653 25.6032 29.7679V30.9329H22.1364V29.7425C20.9855 29.2343 20.189 28.2036 19.9959 26.8624L19.8462 25.8222L20.9317 25.6533C20.9139 25.6329 20.8964 25.6122 20.8791 25.5911C20.4483 25.0664 20.2515 24.4317 20.2515 23.759C20.2515 22.9629 20.5122 22.2283 21.0346 21.6581C21.3431 21.3214 21.719 21.0676 22.1364 20.8908V19.7344H25.6032V20.9602C26.5931 21.4321 27.2723 22.3117 27.5638 23.4573L27.8456 24.5648L26.8673 24.7396Z" fill="white"/>
<path fill-rule="evenodd" clip-rule="evenodd" d="M25.1527 23.9663C25.1395 23.9059 25.1228 23.8474 25.1027 23.791C25.1019 23.7886 25.101 23.7862 25.1002 23.7838C24.9088 23.2539 24.4237 22.9079 23.8106 22.8902C23.1593 22.8704 22.6461 23.2258 22.6461 23.6898C22.6461 24.0354 22.9224 24.2723 23.554 24.45L24.8073 24.8055C25.0005 24.8618 25.1763 24.9232 25.3355 24.9906C25.348 24.9959 25.3604 25.0012 25.3727 25.0066C26.22 25.3764 26.5836 25.9222 26.5836 26.7701C26.5836 27.9203 25.7793 28.7594 24.5409 28.9766V29.8701H23.1988V28.9668C22.4 28.8117 21.7692 28.3756 21.3946 27.7324C21.2318 27.4528 21.1173 27.134 21.0585 26.7822C21.0546 26.7586 21.0509 26.7348 21.0474 26.7109L22.3797 26.5035C22.3865 26.5336 22.394 26.5632 22.4021 26.5924C22.6047 27.3208 23.1996 27.7771 23.9586 27.7771C24.6988 27.7771 25.2514 27.3822 25.2514 26.8688C25.2514 26.5233 25.0442 26.3061 24.5902 26.158L22.8336 25.615C22.6637 25.5628 22.5075 25.5012 22.3653 25.4302C21.6737 25.0851 21.3139 24.5205 21.3139 23.759C21.3139 22.6434 22.0293 21.8782 23.1988 21.6857V20.7972H24.5409V21.7153C25.2019 21.8591 25.7265 22.2013 26.0893 22.7194C26.2871 23.0017 26.4368 23.3363 26.5343 23.7195L25.1527 23.9663ZM26.8673 24.7396C26.8968 24.7693 26.9256 24.7999 26.9539 24.8311C27.4577 25.3892 27.646 26.0651 27.646 26.7701C27.646 28.2024 26.8032 29.2653 25.6032 29.7679V30.9329H22.1364V29.7425C20.9855 29.2343 20.189 28.2036 19.9959 26.8624L19.8462 25.8222L20.9317 25.6533C20.9139 25.6329 20.8964 25.6122 20.8791 25.5911C20.4483 25.0664 20.2515 24.4317 20.2515 23.759C20.2515 22.9629 20.5122 22.2283 21.0346 21.6581C21.3431 21.3214 21.719 21.0676 22.1364 20.8908V19.7344H25.6032V20.9602C26.5931 21.4321 27.2723 22.3117 27.5638 23.4573L27.8456 24.5648L26.8673 24.7396Z" fill="#3D23AE"/>
<defs>
<linearGradient id="paint0_linear" x1="23.4273" y1="23.13" x2="12.2742" y2="31.3732" gradientUnits="userSpaceOnUse">
<stop stop-color="#73DCFD"/>
<stop offset="1" stop-color="#4282FF"/>
</linearGradient>
<linearGradient id="paint1_linear" x1="50.3382" y1="1.93363" x2="13.588" y2="30.5804" gradientUnits="userSpaceOnUse">
<stop stop-color="#418DFF"/>
<stop offset="0.333302" stop-color="#4541FF"/>
<stop offset="0.57063" stop-color="#E129FF"/>
<stop offset="0.722869" stop-color="#E127FF"/>
<stop offset="0.844185" stop-color="#FF0BCC"/>
<stop offset="0.998516" stop-color="#FFC700"/>
</linearGradient>
</defs>
</svg>
