<svg width="463" height="56" viewBox="0 0 463 56" fill="none" xmlns="http://www.w3.org/2000/svg">
<path d="M0.226552 54H55.3303V42.331H18.4504V32.7508H51.7287V22.7385H18.4504V14.0948H54.61V2.42578H0.226552V54ZM56.8401 54H76.1445L92.5675 35.7761L108.991 54H128.655L103.156 26.8443L128.367 2.42578H108.775L92.3514 18.6328L76.3605 2.42578H57.1283L81.7629 27.0604L56.8401 54ZM132.33 54H151.13V38.2252H173.748C188.443 38.2252 196.582 31.9585 196.654 20.5776C196.654 8.90857 188.515 2.42578 173.892 2.42578H132.33V54ZM151.13 27.6366V13.0143H167.626C174.18 13.0143 177.782 15.6075 177.782 20.2895C177.782 25.0435 174.18 27.6366 167.626 27.6366H151.13ZM201.548 54H251.681V40.2421H220.348V2.42578H201.548V54ZM290.684 55.8008C313.374 55.8008 328.5 44.78 328.5 28.2129C328.5 11.6458 313.374 0.624998 290.684 0.624998C268.066 0.624998 252.94 11.6458 252.94 28.2129C252.94 44.78 268.066 55.8008 290.684 55.8008ZM290.684 42.5471C279.375 42.5471 271.74 36.7846 271.74 28.2129C271.74 19.6412 279.375 13.8787 290.684 13.8787C301.993 13.8787 309.7 19.6412 309.7 28.2129C309.7 36.7846 301.993 42.5471 290.684 42.5471ZM390.826 55.4406C395.58 55.4406 401.198 53.7119 404.007 51.2628L400.838 43.6996C399.973 44.708 398.245 45.3563 397.02 45.3563C395.003 45.3563 393.779 44.4919 392.842 43.1953L389.169 37.649C387.944 35.7761 386.36 34.4076 384.631 33.7593V33.6872C394.067 31.8865 399.541 26.4841 399.541 18.7768C399.541 8.40435 391.618 2.42578 377.788 2.42578H334.425V54H353.225V36.8566H364.246C367.632 36.8566 370.801 38.2972 372.962 41.3225L376.203 46.7249C379.156 50.9747 383.046 55.4406 390.826 55.4406ZM353.225 26.268V13.5186H372.169C377.572 13.5186 380.741 15.8956 380.741 19.9293C380.741 23.891 377.572 26.268 372.169 26.268H353.225ZM407.582 54H462.686V42.331H425.806V32.7508H459.084V22.7385H425.806V14.0948H461.965V2.42578H407.582V54Z" fill="url(#paint0_radial)"/>
<defs>
<radialGradient id="paint0_radial" cx="0" cy="0" r="1" gradientUnits="userSpaceOnUse" gradientTransform="translate(180.672 -80.0001) rotate(67.5888) scale(401.31 2165.56)">
<stop/>
<stop offset="1" stop-color="#DBDDF0"/>
</radialGradient>
</defs>
</svg>
