<svg width="217" height="62" viewBox="0 0 217 62" fill="none" xmlns="http://www.w3.org/2000/svg">
<path opacity="0.45" d="M62.3373 7.55532H62.7858V7.10681H62.3373V7.55532ZM4.53974 7.55532V7.10681H4.09122V7.55532H4.53974ZM4.53974 21.7869H4.09122V22.2354H4.53974V21.7869ZM33.2933 21.7869L33.5799 22.1319L34.5349 21.3384H33.2933V21.7869ZM3.23276 46.7647L2.94612 46.4198L2.78424 46.5543V46.7647H3.23276ZM3.23276 58.3823H2.78424V58.8308H3.23276V58.3823ZM63.4991 58.3823V58.8308H63.9476V58.3823H63.4991ZM63.4991 44.1508H63.9476V43.7022H63.4991V44.1508ZM32.2768 44.1508L31.9901 43.8058L31.0352 44.5993H32.2768V44.1508ZM62.3373 19.1729L62.6239 19.5179L62.7858 19.3834V19.1729H62.3373ZM62.3373 7.10681H61.0237V8.00384H62.3373V7.10681ZM58.3966 7.10681H55.7694V8.00384H58.3966V7.10681ZM53.1422 7.10681H50.5151V8.00384H53.1422V7.10681ZM47.8879 7.10681H45.2607V8.00384H47.8879V7.10681ZM42.6336 7.10681H40.0064V8.00384H42.6336V7.10681ZM37.3793 7.10681H34.7521V8.00384H37.3793V7.10681ZM32.1249 7.10681H29.4978V8.00384H32.1249V7.10681ZM26.8706 7.10681H24.2434V8.00384H26.8706V7.10681ZM21.6163 7.10681H18.9891V8.00384H21.6163V7.10681ZM16.362 7.10681H13.7348V8.00384H16.362V7.10681ZM11.1076 7.10681H8.48047V8.00384H11.1076V7.10681ZM5.8533 7.10681H4.53974V8.00384H5.8533V7.10681ZM4.09122 7.55532V8.74128H4.98825V7.55532H4.09122ZM4.09122 11.1132V13.4851H4.98825V11.1132H4.09122ZM4.09122 15.8571V18.229H4.98825V15.8571H4.09122ZM4.09122 20.6009V21.7869H4.98825V20.6009H4.09122ZM4.53974 22.2354H5.97741V21.3384H4.53974V22.2354ZM8.85277 22.2354H11.7281V21.3384H8.85277V22.2354ZM14.6035 22.2354H17.4788V21.3384H14.6035V22.2354ZM20.3542 22.2354H23.2296V21.3384H20.3542V22.2354ZM26.1049 22.2354H28.9803V21.3384H26.1049V22.2354ZM31.8556 22.2354H33.2933V21.3384H31.8556V22.2354ZM33.0067 21.4419L31.9331 22.334L32.5063 23.0239L33.5799 22.1319L33.0067 21.4419ZM29.7859 24.1181L27.6387 25.9022L28.212 26.5922L30.3592 24.808L29.7859 24.1181ZM25.4915 27.6864L23.3443 29.4705L23.9176 30.1604L26.0648 28.3763L25.4915 27.6864ZM21.1972 31.2546L19.05 33.0388L19.6233 33.7287L21.7704 31.9446L21.1972 31.2546ZM16.9028 34.8229L14.7556 36.607L15.3289 37.297L17.4761 35.5128L16.9028 34.8229ZM12.6084 38.3912L10.4612 40.1753L11.0345 40.8652L13.1817 39.0811L12.6084 38.3912ZM8.31407 41.9594L6.16689 43.7436L6.74017 44.4335L8.88735 42.6494L8.31407 41.9594ZM4.0197 45.5277L2.94612 46.4198L3.5194 47.1097L4.59298 46.2176L4.0197 45.5277ZM2.78424 46.7647V48.2169H3.68127V46.7647H2.78424ZM2.78424 51.1213V54.0257H3.68127V51.1213H2.78424ZM2.78424 56.9301V58.3823H3.68127V56.9301H2.78424ZM3.23276 58.8308H4.60245V57.9338H3.23276V58.8308ZM7.34182 58.8308H10.0812V57.9338H7.34182V58.8308ZM12.8206 58.8308H15.56V57.9338H12.8206V58.8308ZM18.2993 58.8308H21.0387V57.9338H18.2993V58.8308ZM23.7781 58.8308H26.5175V57.9338H23.7781V58.8308ZM29.2568 58.8308H31.9962V57.9338H29.2568V58.8308ZM34.7356 58.8308H37.475V57.9338H34.7356V58.8308ZM40.2144 58.8308H42.9537V57.9338H40.2144V58.8308ZM45.6931 58.8308H48.4325V57.9338H45.6931V58.8308ZM51.1719 58.8308H53.9112V57.9338H51.1719V58.8308ZM56.6506 58.8308H59.39V57.9338H56.6506V58.8308ZM62.1294 58.8308H63.4991V57.9338H62.1294V58.8308ZM63.9476 58.3823V57.1964H63.0505V58.3823H63.9476ZM63.9476 54.8244V52.4525H63.0505V54.8244H63.9476ZM63.9476 50.0806V47.7087H63.0505V50.0806H63.9476ZM63.9476 45.3367V44.1508H63.0505V45.3367H63.9476ZM63.4991 43.7022H62.1981V44.5993H63.4991V43.7022ZM59.5963 43.7022H56.9944V44.5993H59.5963V43.7022ZM54.3926 43.7022H51.7907V44.5993H54.3926V43.7022ZM49.1888 43.7022H46.587V44.5993H49.1888V43.7022ZM43.9851 43.7022H41.3833V44.5993H43.9851V43.7022ZM38.7814 43.7022H36.1796V44.5993H38.7814V43.7022ZM33.5777 43.7022H32.2768V44.5993H33.5777V43.7022ZM32.5634 44.4957L33.637 43.6037L33.0637 42.9137L31.9901 43.8058L32.5634 44.4957ZM35.7842 41.8195L37.9314 40.0354L37.3581 39.3455L35.2109 41.1296L35.7842 41.8195ZM40.0785 38.2513L42.2257 36.4671L41.6524 35.7772L39.5053 37.5613L40.0785 38.2513ZM44.3729 34.683L46.5201 32.8989L45.9468 32.2089L43.7996 33.9931L44.3729 34.683ZM48.6673 31.1147L50.8144 29.3306L50.2412 28.6407L48.094 30.4248L48.6673 31.1147ZM52.9616 27.5465L55.1088 25.7623L54.5355 25.0724L52.3883 26.8565L52.9616 27.5465ZM57.256 23.9782L59.4032 22.1941L58.8299 21.5042L56.6827 23.2883L57.256 23.9782ZM61.5504 20.41L62.6239 19.5179L62.0507 18.828L60.9771 19.72L61.5504 20.41ZM62.7858 19.1729V17.7207H61.8888V19.1729H62.7858ZM62.7858 14.8163V11.9119H61.8888V14.8163H62.7858ZM62.7858 9.00752V7.55532H61.8888V9.00752H62.7858ZM62.3373 7.55532H63.2343V6.65829H62.3373V7.55532ZM4.53974 7.55532V6.65829H3.64271V7.55532H4.53974ZM4.53974 21.7869H3.64271V22.6839H4.53974V21.7869ZM33.2933 21.7869L33.8666 22.4768L35.7765 20.8899H33.2933V21.7869ZM3.23276 46.7647L2.65948 46.0748L2.33573 46.3438V46.7647H3.23276ZM3.23276 58.3823H2.33573V59.2794H3.23276V58.3823ZM63.4991 58.3823V59.2794H64.3961V58.3823H63.4991ZM63.4991 44.1508H64.3961V43.2537H63.4991V44.1508ZM32.2768 44.1508L31.7035 43.4608L29.7936 45.0478H32.2768V44.1508ZM62.3373 19.1729L62.9106 19.8629L63.2343 19.5938V19.1729H62.3373ZM62.3373 6.65829H61.0237V8.45235H62.3373V6.65829ZM58.3966 6.65829H55.7694V8.45235H58.3966V6.65829ZM53.1422 6.65829H50.5151V8.45235H53.1422V6.65829ZM47.8879 6.65829H45.2607V8.45235H47.8879V6.65829ZM42.6336 6.65829H40.0064V8.45235H42.6336V6.65829ZM37.3793 6.65829H34.7521V8.45235H37.3793V6.65829ZM32.1249 6.65829H29.4978V8.45235H32.1249V6.65829ZM26.8706 6.65829H24.2434V8.45235H26.8706V6.65829ZM21.6163 6.65829H18.9891V8.45235H21.6163V6.65829ZM16.362 6.65829H13.7348V8.45235H16.362V6.65829ZM11.1076 6.65829H8.48047V8.45235H11.1076V6.65829ZM5.8533 6.65829H4.53974V8.45235H5.8533V6.65829ZM3.64271 7.55532V8.74128H5.43677V7.55532H3.64271ZM3.64271 11.1132V13.4851H5.43677V11.1132H3.64271ZM3.64271 15.8571V18.229H5.43677V15.8571H3.64271ZM3.64271 20.6009V21.7869H5.43677V20.6009H3.64271ZM4.53974 22.6839H5.97741V20.8899H4.53974V22.6839ZM8.85277 22.6839H11.7281V20.8899H8.85277V22.6839ZM14.6035 22.6839H17.4788V20.8899H14.6035V22.6839ZM20.3542 22.6839H23.2296V20.8899H20.3542V22.6839ZM26.1049 22.6839H28.9803V20.8899H26.1049V22.6839ZM31.8556 22.6839H33.2933V20.8899H31.8556V22.6839ZM32.72 21.0969L31.6464 21.989L32.793 23.3689L33.8666 22.4768L32.72 21.0969ZM29.4992 23.7731L27.3521 25.5573L28.4986 26.9371L30.6458 25.153L29.4992 23.7731ZM25.2049 27.3414L23.0577 29.1255L24.2043 30.5054L26.3514 28.7213L25.2049 27.3414ZM20.9105 30.9097L18.7633 32.6938L19.9099 34.0737L22.0571 32.2895L20.9105 30.9097ZM16.6162 34.4779L14.469 36.2621L15.6155 37.6419L17.7627 35.8578L16.6162 34.4779ZM12.3218 38.0462L10.1746 39.8303L11.3212 41.2102L13.4684 39.4261L12.3218 38.0462ZM8.02743 41.6145L5.88025 43.3986L7.02681 44.7785L9.17399 42.9943L8.02743 41.6145ZM3.73306 45.1827L2.65948 46.0748L3.80604 47.4547L4.87962 46.5626L3.73306 45.1827ZM2.33573 46.7647V48.2169H4.12979V46.7647H2.33573ZM2.33573 51.1213V54.0257H4.12979V51.1213H2.33573ZM2.33573 56.9301V58.3823H4.12979V56.9301H2.33573ZM3.23276 59.2794H4.60245V57.4853H3.23276V59.2794ZM7.34182 59.2794H10.0812V57.4853H7.34182V59.2794ZM12.8206 59.2794H15.56V57.4853H12.8206V59.2794ZM18.2993 59.2794H21.0387V57.4853H18.2993V59.2794ZM23.7781 59.2794H26.5175V57.4853H23.7781V59.2794ZM29.2568 59.2794H31.9962V57.4853H29.2568V59.2794ZM34.7356 59.2794H37.475V57.4853H34.7356V59.2794ZM40.2144 59.2794H42.9537V57.4853H40.2144V59.2794ZM45.6931 59.2794H48.4325V57.4853H45.6931V59.2794ZM51.1719 59.2794H53.9112V57.4853H51.1719V59.2794ZM56.6506 59.2794H59.39V57.4853H56.6506V59.2794ZM62.1294 59.2794H63.4991V57.4853H62.1294V59.2794ZM64.3961 58.3823V57.1964H62.602V58.3823H64.3961ZM64.3961 54.8244V52.4525H62.602V54.8244H64.3961ZM64.3961 50.0806V47.7087H62.602V50.0806H64.3961ZM64.3961 45.3367V44.1508H62.602V45.3367H64.3961ZM63.4991 43.2537H62.1981V45.0478H63.4991V43.2537ZM59.5963 43.2537H56.9944V45.0478H59.5963V43.2537ZM54.3926 43.2537H51.7907V45.0478H54.3926V43.2537ZM49.1888 43.2537H46.587V45.0478H49.1888V43.2537ZM43.9851 43.2537H41.3833V45.0478H43.9851V43.2537ZM38.7814 43.2537H36.1796V45.0478H38.7814V43.2537ZM33.5777 43.2537H32.2768V45.0478H33.5777V43.2537ZM32.85 44.8407L33.9236 43.9486L32.7771 42.5688L31.7035 43.4608L32.85 44.8407ZM36.0708 42.1645L38.218 40.3804L37.0714 39.0005L34.9243 40.7846L36.0708 42.1645ZM40.3652 38.5962L42.5124 36.8121L41.3658 35.4322L39.2186 37.2164L40.3652 38.5962ZM44.6595 35.028L46.8067 33.2438L45.6602 31.864L43.513 33.6481L44.6595 35.028ZM48.9539 31.4597L51.1011 29.6756L49.9545 28.2957L47.8073 30.0798L48.9539 31.4597ZM53.2483 27.8914L55.3954 26.1073L54.2489 24.7274L52.1017 26.5116L53.2483 27.8914ZM57.5426 24.3232L59.6898 22.5391L58.5432 21.1592L56.3961 22.9433L57.5426 24.3232ZM61.837 20.7549L62.9106 19.8629L61.764 18.483L60.6904 19.375L61.837 20.7549ZM63.2343 19.1729V17.7207H61.4403V19.1729H63.2343ZM63.2343 14.8163V11.9119H61.4403V14.8163H63.2343ZM63.2343 9.00752V7.55532H61.4403V9.00752H63.2343ZM105.076 59.6765C104.615 59.6765 104.158 59.6716 103.704 59.6619L103.685 60.5587C104.145 60.5686 104.609 60.5735 105.076 60.5735V59.6765ZM100.974 59.5427C100.05 59.4812 99.1426 59.3984 98.2521 59.2948L98.1484 60.1858C99.0539 60.2912 99.9762 60.3753 100.914 60.4378L100.974 59.5427ZM95.5503 58.9071C94.6391 58.7508 93.7482 58.5709 92.8785 58.3677L92.6744 59.2412C93.562 59.4486 94.4704 59.632 95.3986 59.7913L95.5503 58.9071ZM90.2448 57.6618C89.3616 57.3931 88.5039 57.098 87.6727 56.7769L87.3495 57.6137C88.2018 57.9429 89.0803 58.2451 89.9836 58.52L90.2448 57.6618ZM85.1809 55.6985C84.3526 55.2986 83.5559 54.8695 82.7921 54.4116L82.3309 55.181C83.1187 55.6532 83.9392 56.095 84.7908 56.5063L85.1809 55.6985ZM80.539 52.9068C79.8068 52.3624 79.1125 51.7866 78.4575 51.1797L77.8479 51.8377C78.5272 52.4671 79.2464 53.0636 80.0038 53.6266L80.539 52.9068ZM76.5841 49.2341C75.9975 48.5494 75.4534 47.8325 74.9534 47.0837L74.2074 47.5819C74.7275 48.3607 75.2933 49.1061 75.9029 49.8177L76.5841 49.2341ZM73.593 44.7536C73.1908 43.9585 72.8324 43.1328 72.5193 42.2769L71.6769 42.5851C72.0019 43.4737 72.3743 44.3316 72.7925 45.1584L73.593 44.7536ZM71.7354 39.691C71.5256 38.8312 71.3572 37.9447 71.2319 37.0317L70.3432 37.1538C70.4726 38.0964 70.6466 39.0132 70.8639 39.9037L71.7354 39.691ZM70.9909 34.3291C70.9715 33.8814 70.9618 33.4279 70.9618 32.9688H70.0648C70.0648 33.4406 70.0748 33.9069 70.0947 34.3678L70.9909 34.3291ZM70.9618 32.9688C70.9618 32.5097 70.9715 32.0563 70.9909 31.6085L70.0947 31.5698C70.0748 32.0307 70.0648 32.497 70.0648 32.9688H70.9618ZM71.2319 28.9059C71.3572 27.9929 71.5256 27.1064 71.7354 26.2466L70.8639 26.034C70.6466 26.9244 70.4726 27.8412 70.3432 28.7839L71.2319 28.9059ZM72.5193 23.6607C72.8324 22.8049 73.1908 21.9792 73.593 21.1841L72.7925 20.7792C72.3743 21.606 72.0019 22.464 71.6769 23.3526L72.5193 23.6607ZM74.9534 18.8539C75.4534 18.1052 75.9975 17.3883 76.5841 16.7036L75.9029 16.12C75.2933 16.8315 74.7275 17.5769 74.2074 18.3557L74.9534 18.8539ZM78.4575 14.7579C79.1125 14.1511 79.8068 13.5752 80.539 13.0309L80.0038 12.311C79.2464 12.8741 78.5272 13.4705 77.8479 14.0999L78.4575 14.7579ZM82.7921 11.526C83.5559 11.0682 84.3526 10.6391 85.1809 10.2392L84.7908 9.43139C83.9392 9.84261 83.1187 10.2844 82.3309 10.7566L82.7921 11.526ZM87.6727 9.1607C88.5039 8.83967 89.3616 8.54458 90.2448 8.27581L89.9836 7.41764C89.0803 7.69256 88.2018 7.99472 87.3495 8.32391L87.6727 9.1607ZM92.8785 7.56991C93.7482 7.36676 94.6391 7.18687 95.5503 7.0305L95.3986 6.14639C94.4704 6.30567 93.562 6.48907 92.6744 6.6964L92.8785 7.56991ZM98.2521 6.64289C99.1426 6.53922 100.05 6.45649 100.974 6.39491L100.914 5.49987C99.9762 5.5624 99.0539 5.64645 98.1484 5.75188L98.2521 6.64289ZM103.704 6.27573C104.158 6.26605 104.615 6.2612 105.076 6.2612V5.36417C104.609 5.36417 104.145 5.36908 103.685 5.3789L103.704 6.27573ZM105.076 6.2612C105.536 6.2612 105.993 6.26605 106.447 6.27573L106.466 5.3789C106.006 5.36908 105.543 5.36417 105.076 5.36417V6.2612ZM109.177 6.39491C110.101 6.45649 111.009 6.53922 111.899 6.64289L112.003 5.75187C111.097 5.64645 110.175 5.5624 109.237 5.49987L109.177 6.39491ZM114.601 7.0305C115.512 7.18686 116.403 7.36676 117.273 7.56991L117.477 6.6964C116.589 6.48907 115.681 6.30567 114.753 6.14639L114.601 7.0305ZM119.907 8.27581C120.79 8.54459 121.647 8.83967 122.479 9.1607L122.802 8.32391C121.949 7.99472 121.071 7.69256 120.168 7.41764L119.907 8.27581ZM124.97 10.2392C125.799 10.6391 126.595 11.0682 127.359 11.526L127.82 10.7566C127.033 10.2844 126.212 9.8426 125.36 9.43139L124.97 10.2392ZM129.612 13.0309C130.344 13.5752 131.039 14.1511 131.694 14.7579L132.303 14.0999C131.624 13.4705 130.905 12.8741 130.148 12.311L129.612 13.0309ZM133.567 16.7036C134.154 17.3883 134.698 18.1052 135.198 18.8539L135.944 18.3557C135.424 17.5769 134.858 16.8315 134.248 16.12L133.567 16.7036ZM136.558 21.1841C136.96 21.9792 137.319 22.8049 137.632 23.6607L138.474 23.3526C138.149 22.464 137.777 21.606 137.359 20.7792L136.558 21.1841ZM138.416 26.2466C138.626 27.1064 138.794 27.9929 138.919 28.9059L139.808 28.7839C139.679 27.8412 139.505 26.9244 139.287 26.034L138.416 26.2466ZM139.16 31.6085C139.18 32.0563 139.19 32.5097 139.19 32.9688H140.087C140.087 32.497 140.077 32.0307 140.057 31.5698L139.16 31.6085ZM139.19 32.9688C139.19 33.4279 139.18 33.8814 139.16 34.3292L140.057 34.3678C140.077 33.9069 140.087 33.4406 140.087 32.9688H139.19ZM138.919 37.0317C138.794 37.9447 138.626 38.8312 138.416 39.691L139.287 39.9037C139.505 39.0132 139.679 38.0964 139.808 37.1538L138.919 37.0317ZM137.632 42.2769C137.319 43.1328 136.96 43.9584 136.558 44.7536L137.359 45.1584C137.777 44.3316 138.149 43.4737 138.474 42.5851L137.632 42.2769ZM135.198 47.0837C134.698 47.8325 134.154 48.5494 133.567 49.2341L134.248 49.8177C134.858 49.1061 135.424 48.3607 135.944 47.5819L135.198 47.0837ZM131.694 51.1797C131.039 51.7866 130.344 52.3624 129.612 52.9068L130.148 53.6266C130.905 53.0636 131.624 52.4671 132.303 51.8377L131.694 51.1797ZM127.359 54.4116C126.595 54.8695 125.799 55.2985 124.97 55.6985L125.36 56.5063C126.212 56.095 127.033 55.6532 127.82 55.181L127.359 54.4116ZM122.479 56.7769C121.647 57.098 120.79 57.3931 119.907 57.6618L120.168 58.52C121.071 58.2451 121.949 57.9429 122.802 57.6137L122.479 56.7769ZM117.273 58.3677C116.403 58.5709 115.512 58.7508 114.601 58.9071L114.753 59.7913C115.681 59.632 116.589 59.4486 117.477 59.2412L117.273 58.3677ZM111.899 59.2948C111.009 59.3984 110.101 59.4812 109.177 59.5427L109.237 60.4378C110.175 60.3753 111.097 60.2912 112.003 60.1858L111.899 59.2948ZM106.447 59.6619C105.993 59.6716 105.536 59.6765 105.076 59.6765V60.5735C105.543 60.5735 106.006 60.5686 106.466 60.5587L106.447 59.6619ZM105.076 44.1379C104.646 44.1379 104.225 44.1271 103.814 44.1058L103.768 45.0016C104.195 45.0238 104.631 45.0349 105.076 45.0349V44.1379ZM101.322 43.8295C100.462 43.6787 99.6546 43.474 98.9016 43.2182L98.6131 44.0676C99.4129 44.3392 100.265 44.5549 101.167 44.7131L101.322 43.8295ZM96.6424 42.2077C95.9071 41.7855 95.2479 41.2984 94.6677 40.7505L94.0518 41.4027C94.6859 42.0015 95.4025 42.5302 96.1957 42.9856L96.6424 42.2077ZM93.123 38.8588C92.7014 38.1771 92.3624 37.4334 92.1109 36.6302L91.2548 36.8982C91.528 37.7707 91.8978 38.5831 92.3601 39.3306L93.123 38.8588ZM91.6379 34.2103C91.6015 33.8077 91.5831 33.3938 91.5831 32.9688H90.686C90.686 33.4198 90.7056 33.8607 90.7445 34.2911L91.6379 34.2103ZM91.5831 32.9688C91.5831 32.5438 91.6015 32.1299 91.6379 31.7273L90.7445 31.6465C90.7056 32.077 90.686 32.5179 90.686 32.9688H91.5831ZM92.1109 29.3075C92.3624 28.5043 92.7014 27.7606 93.123 27.0789L92.3601 26.607C91.8978 27.3545 91.528 28.167 91.2548 29.0394L92.1109 29.3075ZM94.6677 25.1872C95.2479 24.6393 95.9071 24.1522 96.6424 23.7299L96.1957 22.952C95.4025 23.4075 94.6859 23.9362 94.0518 24.535L94.6677 25.1872ZM98.9016 22.7194C99.6546 22.4637 100.462 22.2589 101.322 22.1081L101.167 21.2246C100.265 21.3827 99.4129 21.5984 98.6131 21.87L98.9016 22.7194ZM103.814 21.8318C104.225 21.8105 104.646 21.7997 105.076 21.7997V20.9027C104.631 20.9027 104.195 20.9139 103.768 20.936L103.814 21.8318ZM105.076 21.7997C105.505 21.7997 105.926 21.8105 106.337 21.8318L106.384 20.936C105.956 20.9139 105.52 20.9027 105.076 20.9027V21.7997ZM108.83 22.1081C109.689 22.2589 110.497 22.4637 111.25 22.7194L111.538 21.87C110.738 21.5984 109.886 21.3827 108.985 21.2246L108.83 22.1081ZM113.509 23.7299C114.244 24.1522 114.903 24.6393 115.484 25.1872L116.1 24.535C115.465 23.9362 114.749 23.4075 113.956 22.952L113.509 23.7299ZM117.028 27.0789C117.45 27.7606 117.789 28.5043 118.04 29.3075L118.897 29.0394C118.623 28.167 118.254 27.3545 117.791 26.607L117.028 27.0789ZM118.513 31.7273C118.55 32.1299 118.568 32.5438 118.568 32.9688H119.465C119.465 32.5179 119.446 32.077 119.407 31.6465L118.513 31.7273ZM118.568 32.9688C118.568 33.3938 118.55 33.8077 118.513 34.2103L119.407 34.2911C119.446 33.8607 119.465 33.4198 119.465 32.9688H118.568ZM118.04 36.6302C117.789 37.4334 117.45 38.1771 117.028 38.8588L117.791 39.3306C118.254 38.5831 118.623 37.7706 118.897 36.8982L118.04 36.6302ZM115.484 40.7505C114.903 41.2984 114.244 41.7855 113.509 42.2077L113.956 42.9856C114.749 42.5302 115.465 42.0015 116.1 41.4027L115.484 40.7505ZM111.25 43.2182C110.497 43.474 109.689 43.6787 108.83 43.8295L108.985 44.7131C109.886 44.5549 110.738 44.3392 111.538 44.0676L111.25 43.2182ZM106.337 44.1058C105.926 44.1271 105.505 44.1379 105.076 44.1379V45.0349C105.52 45.0349 105.956 45.0238 106.384 45.0016L106.337 44.1058ZM105.076 59.2279C104.618 59.2279 104.164 59.2231 103.714 59.2135L103.675 61.0072C104.139 61.017 104.606 61.022 105.076 61.022V59.2279ZM101.004 59.0952C100.087 59.0341 99.1869 58.952 98.304 58.8493L98.0965 60.6313C99.0096 60.7376 99.9392 60.8223 100.884 60.8853L101.004 59.0952ZM95.6262 58.4651C94.7234 58.3102 93.8412 58.132 92.9805 57.931L92.5724 59.678C93.469 59.8874 94.3861 60.0726 95.3227 60.2333L95.6262 58.4651ZM90.3754 57.2328C89.5023 56.967 88.6549 56.6755 87.8343 56.3586L87.1879 58.0321C88.0508 58.3654 88.9396 58.6711 89.8531 58.9491L90.3754 57.2328ZM85.3759 55.2946C84.5593 54.9003 83.7746 54.4776 83.0227 54.0269L82.1003 55.5657C82.9001 56.0451 83.7324 56.4933 84.5958 56.9102L85.3759 55.2946ZM80.8066 52.5468C80.087 52.0118 79.4052 51.4463 78.7623 50.8507L77.543 52.1668C78.2345 52.8074 78.9662 53.4141 79.7362 53.9866L80.8066 52.5468ZM76.9247 48.9423C76.3496 48.271 75.8163 47.5683 75.3264 46.8347L73.8344 47.831C74.3645 48.6248 74.9411 49.3845 75.5623 50.1095L76.9247 48.9423ZM73.9932 44.5512C73.5991 43.7719 73.2476 42.9624 72.9405 42.1228L71.2557 42.7392C71.5867 43.6441 71.9661 44.5182 72.3923 45.3609L73.9932 44.5512ZM72.1711 39.5847C71.965 38.7402 71.7996 37.8688 71.6762 36.9707L69.8988 37.2148C70.0303 38.1723 70.2072 39.1042 70.4282 40.01L72.1711 39.5847ZM71.4389 34.3098C71.4199 33.8686 71.4103 33.4216 71.4103 32.9688H69.6163C69.6163 33.4469 69.6264 33.9197 69.6466 34.3871L71.4389 34.3098ZM71.4103 32.9688C71.4103 32.5161 71.4199 32.069 71.4389 31.6278L69.6466 31.5505C69.6264 32.0179 69.6163 32.4907 69.6163 32.9688H71.4103ZM71.6762 28.9669C71.7996 28.0688 71.965 27.1974 72.1711 26.353L70.4282 25.9277C70.2072 26.8334 70.0303 27.7653 69.8988 28.7229L71.6762 28.9669ZM72.9405 23.8148C73.2476 22.9753 73.5991 22.1658 73.9932 21.3865L72.3923 20.5768C71.9661 21.4194 71.5867 22.2935 71.2557 23.1985L72.9405 23.8148ZM75.3264 19.103C75.8163 18.3693 76.3496 17.6667 76.9247 16.9954L75.5623 15.8281C74.9411 16.5531 74.3645 17.3128 73.8344 18.1067L75.3264 19.103ZM78.7623 15.0869C79.4052 14.4913 80.087 13.9258 80.8066 13.3908L79.7362 11.9511C78.9662 12.5235 78.2345 13.1302 77.543 13.7709L78.7623 15.0869ZM83.0227 11.9107C83.7746 11.4601 84.5593 11.0373 85.3759 10.6431L84.5958 9.02749C83.7324 9.44436 82.9001 9.89256 82.1003 10.3719L83.0227 11.9107ZM87.8343 9.57909C88.6549 9.26214 89.5023 8.9706 90.3754 8.70489L89.8531 6.98855C88.9396 7.26654 88.0508 7.57225 87.1879 7.90552L87.8343 9.57909ZM92.9805 8.00667C93.8412 7.80561 94.7234 7.62746 95.6262 7.47255L95.3227 5.70434C94.3861 5.86507 93.469 6.05022 92.5724 6.25964L92.9805 8.00667ZM98.304 7.08839C99.1869 6.9856 100.087 6.90353 101.004 6.84243L100.884 5.05235C99.9392 5.11535 99.0096 5.20007 98.0965 5.30637L98.304 7.08839ZM103.714 6.72414C104.164 6.71453 104.618 6.70971 105.076 6.70971V4.91565C104.606 4.91565 104.139 4.9206 103.675 4.93049L103.714 6.72414ZM105.076 6.70971C105.533 6.70971 105.987 6.71453 106.438 6.72414L106.476 4.93049C106.012 4.9206 105.546 4.91565 105.076 4.91565V6.70971ZM109.148 6.84243C110.064 6.90353 110.964 6.9856 111.847 7.08839L112.055 5.30637C111.142 5.20007 110.212 5.11535 109.267 5.05235L109.148 6.84243ZM114.525 7.47255C115.428 7.62746 116.31 7.80561 117.171 8.00667L117.579 6.25964C116.682 6.05022 115.765 5.86507 114.829 5.70434L114.525 7.47255ZM119.776 8.70489C120.649 8.9706 121.496 9.26214 122.317 9.57909L122.963 7.90552C122.101 7.57225 121.212 7.26654 120.298 6.98855L119.776 8.70489ZM124.775 10.6431C125.592 11.0373 126.377 11.4601 127.129 11.9107L128.051 10.3719C127.251 9.89256 126.419 9.44436 125.555 9.02749L124.775 10.6431ZM129.345 13.3908C130.064 13.9258 130.746 14.4913 131.389 15.0869L132.608 13.7709C131.917 13.1302 131.185 12.5235 130.415 11.9511L129.345 13.3908ZM133.227 16.9954C133.802 17.6667 134.335 18.3693 134.825 19.103L136.317 18.1067C135.787 17.3128 135.21 16.5531 134.589 15.8281L133.227 16.9954ZM136.158 21.3865C136.552 22.1658 136.904 22.9753 137.211 23.8148L138.896 23.1985C138.565 22.2935 138.185 21.4194 137.759 20.5768L136.158 21.3865ZM137.98 26.3529C138.186 27.1974 138.352 28.0688 138.475 28.9669L140.252 28.7228C140.121 27.7653 139.944 26.8334 139.723 25.9277L137.98 26.3529ZM138.712 31.6278C138.731 32.069 138.741 32.516 138.741 32.9688H140.535C140.535 32.4907 140.525 32.0179 140.505 31.5505L138.712 31.6278ZM138.741 32.9688C138.741 33.4216 138.731 33.8686 138.712 34.3098L140.505 34.3871C140.525 33.9197 140.535 33.4469 140.535 32.9688H138.741ZM138.475 36.9707C138.352 37.8688 138.186 38.7402 137.98 39.5847L139.723 40.01C139.944 39.1042 140.121 38.1723 140.252 37.2148L138.475 36.9707ZM137.211 42.1228C136.904 42.9624 136.552 43.7719 136.158 44.5512L137.759 45.3609C138.185 44.5182 138.565 43.6441 138.896 42.7392L137.211 42.1228ZM134.825 46.8347C134.335 47.5683 133.802 48.271 133.227 48.9422L134.589 50.1095C135.21 49.3845 135.787 48.6248 136.317 47.831L134.825 46.8347ZM131.389 50.8507C130.746 51.4463 130.064 52.0118 129.345 52.5468L130.415 53.9866C131.185 53.4141 131.917 52.8074 132.608 52.1668L131.389 50.8507ZM127.129 54.0269C126.377 54.4776 125.592 54.9003 124.775 55.2946L125.555 56.9102C126.419 56.4933 127.251 56.0451 128.051 55.5657L127.129 54.0269ZM122.317 56.3586C121.496 56.6755 120.649 56.967 119.776 57.2328L120.298 58.9491C121.212 58.6711 122.101 58.3654 122.963 58.0321L122.317 56.3586ZM117.171 57.931C116.31 58.132 115.428 58.3102 114.525 58.4651L114.829 60.2333C115.765 60.0726 116.682 59.8874 117.579 59.678L117.171 57.931ZM111.847 58.8493C110.964 58.952 110.064 59.0341 109.148 59.0952L109.267 60.8853C110.212 60.8223 111.142 60.7376 112.055 60.6313L111.847 58.8493ZM106.438 59.2135C105.987 59.2231 105.533 59.2279 105.076 59.2279V61.022C105.546 61.022 106.012 61.017 106.476 61.0072L106.438 59.2135ZM105.076 43.6894C104.654 43.6894 104.241 43.6788 103.837 43.6579L103.744 45.4495C104.18 45.4721 104.624 45.4835 105.076 45.4835V43.6894ZM101.399 43.3877C100.56 43.2406 99.7754 43.0414 99.0458 42.7936L98.4689 44.4923C99.292 44.7719 100.167 44.993 101.089 45.1548L101.399 43.3877ZM96.8658 41.8188C96.1593 41.4132 95.5288 40.9468 94.9756 40.4244L93.7439 41.7288C94.405 42.353 95.1502 42.9025 95.9724 43.3746L96.8658 41.8188ZM93.5044 38.6228C93.1032 37.9741 92.7795 37.2648 92.5389 36.4962L90.8268 37.0322C91.1108 37.9393 91.496 38.7861 91.9786 39.5665L93.5044 38.6228ZM92.0846 34.17C92.0495 33.7813 92.0316 33.3808 92.0316 32.9688H90.2375C90.2375 33.4328 90.2577 33.8871 90.2978 34.3315L92.0846 34.17ZM92.0316 32.9688C92.0316 32.5568 92.0495 32.1564 92.0846 31.7677L90.2978 31.6061C90.2577 32.0505 90.2375 32.5049 90.2375 32.9688H92.0316ZM92.5389 29.4415C92.7795 28.6729 93.1032 27.9636 93.5044 27.3148L91.9786 26.3711C91.496 27.1515 91.1108 27.9984 90.8268 28.9054L92.5389 29.4415ZM94.9756 25.5133C95.5288 24.9908 96.1593 24.5245 96.8658 24.1189L95.9724 22.563C95.1502 23.0351 94.405 23.5846 93.7439 24.2089L94.9756 25.5133ZM99.0458 23.1441C99.7754 22.8963 100.56 22.697 101.399 22.5499L101.089 20.7828C100.167 20.9446 99.292 21.1658 98.4689 21.4453L99.0458 23.1441ZM103.837 22.2798C104.241 22.2588 104.654 22.2482 105.076 22.2482V20.4542C104.624 20.4542 104.18 20.4655 103.744 20.4881L103.837 22.2798ZM105.076 22.2482C105.498 22.2482 105.911 22.2588 106.314 22.2798L106.407 20.4881C105.972 20.4655 105.528 20.4542 105.076 20.4542V22.2482ZM108.752 22.5499C109.591 22.697 110.376 22.8963 111.105 23.1441L111.682 21.4453C110.859 21.1658 109.985 20.9446 109.062 20.7828L108.752 22.5499ZM113.286 24.1189C113.992 24.5245 114.622 24.9908 115.176 25.5133L116.407 24.2089C115.746 23.5846 115.001 23.0351 114.179 22.563L113.286 24.1189ZM116.647 27.3148C117.048 27.9636 117.372 28.6729 117.612 29.4415L119.325 28.9054C119.041 27.9984 118.655 27.1515 118.173 26.3711L116.647 27.3148ZM118.067 31.7677C118.102 32.1564 118.12 32.5568 118.12 32.9688H119.914C119.914 32.5049 119.894 32.0505 119.853 31.6061L118.067 31.7677ZM118.12 32.9688C118.12 33.3808 118.102 33.7813 118.067 34.17L119.853 34.3315C119.894 33.8871 119.914 33.4328 119.914 32.9688H118.12ZM117.612 36.4962C117.372 37.2648 117.048 37.9741 116.647 38.6228L118.173 39.5665C118.655 38.7861 119.041 37.9393 119.325 37.0322L117.612 36.4962ZM115.176 40.4244C114.622 40.9468 113.992 41.4132 113.286 41.8188L114.179 43.3746C115.001 42.9025 115.746 42.353 116.407 41.7288L115.176 40.4244ZM111.105 42.7936C110.376 43.0414 109.591 43.2406 108.752 43.3877L109.062 45.1548C109.985 44.993 110.859 44.7719 111.682 44.4923L111.105 42.7936ZM106.314 43.6579C105.911 43.6788 105.498 43.6894 105.076 43.6894V45.4835C105.528 45.4835 105.972 45.4721 106.407 45.4495L106.314 43.6579ZM181.441 59.6765C180.98 59.6765 180.523 59.6716 180.069 59.6619L180.05 60.5587C180.51 60.5686 180.974 60.5735 181.441 60.5735V59.6765ZM177.339 59.5427C176.415 59.4812 175.508 59.3984 174.617 59.2948L174.514 60.1858C175.419 60.2912 176.341 60.3753 177.28 60.4378L177.339 59.5427ZM171.916 58.9071C171.004 58.7508 170.113 58.5709 169.244 58.3677L169.04 59.2412C169.927 59.4486 170.836 59.632 171.764 59.7913L171.916 58.9071ZM166.61 57.6618C165.727 57.3931 164.869 57.098 164.038 56.7769L163.715 57.6137C164.567 57.9429 165.446 58.2451 166.349 58.52L166.61 57.6618ZM161.546 55.6985C160.718 55.2986 159.921 54.8695 159.157 54.4116L158.696 55.181C159.484 55.6532 160.304 56.095 161.156 56.5063L161.546 55.6985ZM156.904 52.9068C156.172 52.3624 155.478 51.7866 154.823 51.1797L154.213 51.8377C154.892 52.4671 155.612 53.0636 156.369 53.6266L156.904 52.9068ZM152.949 49.2341C152.363 48.5494 151.819 47.8325 151.319 47.0837L150.573 47.5819C151.093 48.3607 151.659 49.1061 152.268 49.8177L152.949 49.2341ZM149.958 44.7536C149.556 43.9585 149.198 43.1328 148.885 42.2769L148.042 42.5851C148.367 43.4737 148.74 44.3316 149.158 45.1584L149.958 44.7536ZM148.101 39.691C147.891 38.8312 147.723 37.9447 147.597 37.0317L146.708 37.1538C146.838 38.0964 147.012 39.0132 147.229 39.9037L148.101 39.691ZM147.356 34.3291C147.337 33.8814 147.327 33.4279 147.327 32.9688H146.43C146.43 33.4406 146.44 33.9069 146.46 34.3678L147.356 34.3291ZM147.327 32.9688C147.327 32.5097 147.337 32.0563 147.356 31.6085L146.46 31.5698C146.44 32.0307 146.43 32.497 146.43 32.9688H147.327ZM147.597 28.9059C147.723 27.9929 147.891 27.1064 148.101 26.2466L147.229 26.034C147.012 26.9244 146.838 27.8412 146.708 28.7839L147.597 28.9059ZM148.885 23.6607C149.198 22.8049 149.556 21.9792 149.958 21.1841L149.158 20.7792C148.74 21.606 148.367 22.464 148.042 23.3526L148.885 23.6607ZM151.319 18.8539C151.819 18.1052 152.363 17.3883 152.949 16.7036L152.268 16.12C151.659 16.8315 151.093 17.5769 150.573 18.3557L151.319 18.8539ZM154.823 14.7579C155.478 14.1511 156.172 13.5752 156.904 13.0309L156.369 12.311C155.612 12.8741 154.892 13.4705 154.213 14.0999L154.823 14.7579ZM159.157 11.526C159.921 11.0682 160.718 10.6391 161.546 10.2392L161.156 9.43139C160.304 9.84261 159.484 10.2844 158.696 10.7566L159.157 11.526ZM164.038 9.1607C164.869 8.83967 165.727 8.54458 166.61 8.27581L166.349 7.41764C165.446 7.69256 164.567 7.99472 163.715 8.32391L164.038 9.1607ZM169.244 7.56991C170.113 7.36676 171.004 7.18687 171.916 7.0305L171.764 6.14639C170.836 6.30567 169.927 6.48907 169.04 6.6964L169.244 7.56991ZM174.617 6.64289C175.508 6.53922 176.415 6.45649 177.339 6.39491L177.28 5.49987C176.341 5.5624 175.419 5.64645 174.514 5.75188L174.617 6.64289ZM180.069 6.27573C180.523 6.26605 180.98 6.2612 181.441 6.2612V5.36417C180.974 5.36417 180.51 5.36908 180.05 5.3789L180.069 6.27573ZM181.441 6.2612C181.902 6.2612 182.359 6.26605 182.812 6.27573L182.832 5.3789C182.371 5.36908 181.908 5.36417 181.441 5.36417V6.2612ZM185.543 6.39491C186.467 6.45649 187.374 6.53922 188.265 6.64289L188.368 5.75187C187.463 5.64645 186.54 5.5624 185.602 5.49987L185.543 6.39491ZM190.966 7.0305C191.878 7.18686 192.768 7.36676 193.638 7.56991L193.842 6.6964C192.955 6.48907 192.046 6.30567 191.118 6.14639L190.966 7.0305ZM196.272 8.27581C197.155 8.54459 198.013 8.83967 198.844 9.1607L199.167 8.32391C198.315 7.99472 197.436 7.69256 196.533 7.41764L196.272 8.27581ZM201.336 10.2392C202.164 10.6391 202.961 11.0682 203.725 11.526L204.186 10.7566C203.398 10.2844 202.577 9.8426 201.726 9.43139L201.336 10.2392ZM205.978 13.0309C206.71 13.5752 207.404 14.1511 208.059 14.7579L208.669 14.0999C207.989 13.4705 207.27 12.8741 206.513 12.311L205.978 13.0309ZM209.933 16.7036C210.519 17.3883 211.063 18.1052 211.563 18.8539L212.309 18.3557C211.789 17.5769 211.223 16.8315 210.614 16.12L209.933 16.7036ZM212.924 21.1841C213.326 21.9792 213.684 22.8049 213.997 23.6607L214.84 23.3526C214.515 22.464 214.142 21.606 213.724 20.7792L212.924 21.1841ZM214.781 26.2466C214.991 27.1064 215.159 27.9929 215.285 28.9059L216.173 28.7839C216.044 27.8412 215.87 26.9244 215.653 26.034L214.781 26.2466ZM215.526 31.6085C215.545 32.0563 215.555 32.5097 215.555 32.9688H216.452C216.452 32.497 216.442 32.0307 216.422 31.5698L215.526 31.6085ZM215.555 32.9688C215.555 33.4279 215.545 33.8814 215.526 34.3292L216.422 34.3678C216.442 33.9069 216.452 33.4406 216.452 32.9688H215.555ZM215.285 37.0317C215.159 37.9447 214.991 38.8312 214.781 39.691L215.653 39.9037C215.87 39.0132 216.044 38.0964 216.173 37.1538L215.285 37.0317ZM213.997 42.2769C213.684 43.1328 213.326 43.9584 212.924 44.7536L213.724 45.1584C214.142 44.3316 214.515 43.4737 214.84 42.5851L213.997 42.2769ZM211.563 47.0837C211.063 47.8325 210.519 48.5494 209.933 49.2341L210.614 49.8177C211.223 49.1061 211.789 48.3607 212.309 47.5819L211.563 47.0837ZM208.059 51.1797C207.404 51.7866 206.71 52.3624 205.978 52.9068L206.513 53.6266C207.27 53.0636 207.989 52.4671 208.669 51.8377L208.059 51.1797ZM203.725 54.4116C202.961 54.8695 202.164 55.2985 201.336 55.6985L201.726 56.5063C202.577 56.095 203.398 55.6532 204.186 55.181L203.725 54.4116ZM198.844 56.7769C198.013 57.098 197.155 57.3931 196.272 57.6618L196.533 58.52C197.436 58.2451 198.315 57.9429 199.167 57.6137L198.844 56.7769ZM193.638 58.3677C192.768 58.5709 191.878 58.7508 190.966 58.9071L191.118 59.7913C192.046 59.632 192.955 59.4486 193.842 59.2412L193.638 58.3677ZM188.265 59.2948C187.374 59.3984 186.467 59.4812 185.543 59.5427L185.602 60.4378C186.54 60.3753 187.463 60.2912 188.368 60.1858L188.265 59.2948ZM182.812 59.6619C182.359 59.6716 181.902 59.6765 181.441 59.6765V60.5735C181.908 60.5735 182.371 60.5686 182.832 60.5587L182.812 59.6619ZM181.441 44.1379C181.011 44.1379 180.591 44.1271 180.179 44.1058L180.133 45.0016C180.56 45.0238 180.996 45.0349 181.441 45.0349V44.1379ZM177.687 43.8295C176.827 43.6787 176.02 43.474 175.267 43.2182L174.978 44.0676C175.778 44.3392 176.63 44.5549 177.532 44.7131L177.687 43.8295ZM173.008 42.2077C172.272 41.7855 171.613 41.2984 171.033 40.7505L170.417 41.4027C171.051 42.0015 171.768 42.5302 172.561 42.9856L173.008 42.2077ZM169.488 38.8588C169.067 38.1771 168.728 37.4334 168.476 36.6302L167.62 36.8982C167.893 37.7707 168.263 38.5831 168.725 39.3306L169.488 38.8588ZM168.003 34.2103C167.967 33.8077 167.948 33.3938 167.948 32.9688H167.051C167.051 33.4198 167.071 33.8607 167.11 34.2911L168.003 34.2103ZM167.948 32.9688C167.948 32.5438 167.967 32.1299 168.003 31.7273L167.11 31.6465C167.071 32.077 167.051 32.5179 167.051 32.9688H167.948ZM168.476 29.3075C168.728 28.5043 169.067 27.7606 169.488 27.0789L168.725 26.607C168.263 27.3545 167.893 28.167 167.62 29.0394L168.476 29.3075ZM171.033 25.1872C171.613 24.6393 172.272 24.1522 173.008 23.7299L172.561 22.952C171.768 23.4075 171.051 23.9362 170.417 24.535L171.033 25.1872ZM175.267 22.7194C176.02 22.4637 176.827 22.2589 177.687 22.1081L177.532 21.2246C176.63 21.3827 175.778 21.5984 174.978 21.87L175.267 22.7194ZM180.179 21.8318C180.591 21.8105 181.011 21.7997 181.441 21.7997V20.9027C180.996 20.9027 180.56 20.9139 180.133 20.936L180.179 21.8318ZM181.441 21.7997C181.871 21.7997 182.291 21.8105 182.703 21.8318L182.749 20.936C182.322 20.9139 181.886 20.9027 181.441 20.9027V21.7997ZM185.195 22.1081C186.055 22.2589 186.862 22.4637 187.615 22.7194L187.904 21.87C187.104 21.5984 186.251 21.3827 185.35 21.2246L185.195 22.1081ZM189.874 23.7299C190.61 24.1522 191.269 24.6393 191.849 25.1872L192.465 24.535C191.831 23.9362 191.114 23.4075 190.321 22.952L189.874 23.7299ZM193.394 27.0789C193.815 27.7606 194.154 28.5043 194.406 29.3075L195.262 29.0394C194.989 28.167 194.619 27.3545 194.157 26.607L193.394 27.0789ZM194.879 31.7273C194.915 32.1299 194.934 32.5438 194.934 32.9688H195.831C195.831 32.5179 195.811 32.077 195.772 31.6465L194.879 31.7273ZM194.934 32.9688C194.934 33.3938 194.915 33.8077 194.879 34.2103L195.772 34.2911C195.811 33.8607 195.831 33.4198 195.831 32.9688H194.934ZM194.406 36.6302C194.154 37.4334 193.815 38.1771 193.394 38.8588L194.157 39.3306C194.619 38.5831 194.989 37.7706 195.262 36.8982L194.406 36.6302ZM191.849 40.7505C191.269 41.2984 190.61 41.7855 189.874 42.2077L190.321 42.9856C191.114 42.5302 191.831 42.0015 192.465 41.4027L191.849 40.7505ZM187.615 43.2182C186.862 43.474 186.055 43.6787 185.195 43.8295L185.35 44.7131C186.251 44.5549 187.104 44.3392 187.904 44.0676L187.615 43.2182ZM182.703 44.1058C182.291 44.1271 181.871 44.1379 181.441 44.1379V45.0349C181.886 45.0349 182.322 45.0238 182.749 45.0016L182.703 44.1058ZM181.441 59.2279C180.984 59.2279 180.53 59.2231 180.079 59.2135L180.041 61.0072C180.504 61.017 180.971 61.022 181.441 61.022V59.2279ZM177.369 59.0952C176.452 59.0341 175.552 58.952 174.669 58.8493L174.462 60.6313C175.375 60.7376 176.304 60.8223 177.25 60.8853L177.369 59.0952ZM171.991 58.4651C171.089 58.3102 170.207 58.132 169.346 57.931L168.938 59.678C169.834 59.8874 170.751 60.0726 171.688 60.2333L171.991 58.4651ZM166.741 57.2328C165.868 56.967 165.02 56.6755 164.2 56.3586L163.553 58.0321C164.416 58.3654 165.305 58.6711 166.218 58.9491L166.741 57.2328ZM161.741 55.2946C160.925 54.9003 160.14 54.4776 159.388 54.0269L158.466 55.5657C159.265 56.0451 160.098 56.4933 160.961 56.9102L161.741 55.2946ZM157.172 52.5468C156.452 52.0118 155.77 51.4463 155.128 50.8507L153.908 52.1668C154.6 52.8074 155.332 53.4141 156.102 53.9866L157.172 52.5468ZM153.29 48.9423C152.715 48.271 152.182 47.5683 151.692 46.8347L150.2 47.831C150.73 48.6248 151.306 49.3845 151.928 50.1095L153.29 48.9423ZM150.359 44.5512C149.964 43.7719 149.613 42.9624 149.306 42.1228L147.621 42.7392C147.952 43.6441 148.331 44.5182 148.758 45.3609L150.359 44.5512ZM148.536 39.5847C148.33 38.7402 148.165 37.8688 148.042 36.9707L146.264 37.2148C146.396 38.1723 146.572 39.1042 146.793 40.01L148.536 39.5847ZM147.804 34.3098C147.785 33.8686 147.776 33.4216 147.776 32.9688H145.982C145.982 33.4469 145.992 33.9197 146.012 34.3871L147.804 34.3098ZM147.776 32.9688C147.776 32.5161 147.785 32.069 147.804 31.6278L146.012 31.5505C145.992 32.0179 145.982 32.4907 145.982 32.9688H147.776ZM148.042 28.9669C148.165 28.0688 148.33 27.1974 148.536 26.353L146.793 25.9277C146.572 26.8334 146.396 27.7653 146.264 28.7229L148.042 28.9669ZM149.306 23.8148C149.613 22.9753 149.964 22.1658 150.359 21.3865L148.758 20.5768C148.331 21.4194 147.952 22.2935 147.621 23.1985L149.306 23.8148ZM151.692 19.103C152.182 18.3693 152.715 17.6667 153.29 16.9954L151.928 15.8281C151.306 16.5531 150.73 17.3128 150.2 18.1067L151.692 19.103ZM155.128 15.0869C155.77 14.4913 156.452 13.9258 157.172 13.3908L156.102 11.9511C155.332 12.5235 154.6 13.1302 153.908 13.7709L155.128 15.0869ZM159.388 11.9107C160.14 11.4601 160.925 11.0373 161.741 10.6431L160.961 9.02749C160.098 9.44436 159.265 9.89256 158.466 10.3719L159.388 11.9107ZM164.2 9.57909C165.02 9.26214 165.868 8.9706 166.741 8.70489L166.218 6.98855C165.305 7.26654 164.416 7.57225 163.553 7.90552L164.2 9.57909ZM169.346 8.00667C170.207 7.80561 171.089 7.62746 171.991 7.47255L171.688 5.70434C170.751 5.86507 169.834 6.05022 168.938 6.25964L169.346 8.00667ZM174.669 7.08839C175.552 6.9856 176.452 6.90353 177.369 6.84243L177.25 5.05235C176.304 5.11535 175.375 5.20007 174.462 5.30637L174.669 7.08839ZM180.079 6.72414C180.53 6.71453 180.984 6.70971 181.441 6.70971V4.91565C180.971 4.91565 180.504 4.9206 180.041 4.93049L180.079 6.72414ZM181.441 6.70971C181.898 6.70971 182.352 6.71453 182.803 6.72414L182.841 4.93049C182.378 4.9206 181.911 4.91565 181.441 4.91565V6.70971ZM185.513 6.84243C186.43 6.90353 187.33 6.9856 188.213 7.08839L188.42 5.30637C187.507 5.20007 186.577 5.11535 185.632 5.05235L185.513 6.84243ZM190.89 7.47255C191.793 7.62746 192.675 7.80561 193.536 8.00667L193.944 6.25964C193.048 6.05022 192.131 5.86507 191.194 5.70434L190.89 7.47255ZM196.141 8.70489C197.014 8.9706 197.862 9.26214 198.682 9.57909L199.329 7.90552C198.466 7.57225 197.577 7.26654 196.664 6.98855L196.141 8.70489ZM201.141 10.6431C201.957 11.0373 202.742 11.4601 203.494 11.9107L204.416 10.3719C203.617 9.89256 202.784 9.44436 201.921 9.02749L201.141 10.6431ZM205.71 13.3908C206.43 13.9258 207.111 14.4913 207.754 15.0869L208.974 13.7709C208.282 13.1302 207.55 12.5235 206.78 11.9511L205.71 13.3908ZM209.592 16.9954C210.167 17.6667 210.7 18.3693 211.19 19.103L212.682 18.1067C212.152 17.3128 211.575 16.5531 210.954 15.8281L209.592 16.9954ZM212.523 21.3865C212.918 22.1658 213.269 22.9753 213.576 23.8148L215.261 23.1985C214.93 22.2935 214.551 21.4194 214.124 20.5768L212.523 21.3865ZM214.346 26.3529C214.552 27.1974 214.717 28.0688 214.84 28.9669L216.618 28.7228C216.486 27.7653 216.309 26.8334 216.088 25.9277L214.346 26.3529ZM215.078 31.6278C215.097 32.069 215.106 32.516 215.106 32.9688H216.9C216.9 32.4907 216.89 32.0179 216.87 31.5505L215.078 31.6278ZM215.106 32.9688C215.106 33.4216 215.097 33.8686 215.078 34.3098L216.87 34.3871C216.89 33.9197 216.9 33.4469 216.9 32.9688H215.106ZM214.84 36.9707C214.717 37.8688 214.552 38.7402 214.346 39.5847L216.088 40.01C216.309 39.1042 216.486 38.1723 216.618 37.2148L214.84 36.9707ZM213.576 42.1228C213.269 42.9624 212.918 43.7719 212.523 44.5512L214.124 45.3609C214.551 44.5182 214.93 43.6441 215.261 42.7392L213.576 42.1228ZM211.19 46.8347C210.7 47.5683 210.167 48.271 209.592 48.9422L210.954 50.1095C211.575 49.3845 212.152 48.6248 212.682 47.831L211.19 46.8347ZM207.754 50.8507C207.111 51.4463 206.43 52.0118 205.71 52.5468L206.78 53.9866C207.55 53.4141 208.282 52.8074 208.974 52.1668L207.754 50.8507ZM203.494 54.0269C202.742 54.4776 201.957 54.9003 201.141 55.2946L201.921 56.9102C202.784 56.4933 203.617 56.0451 204.416 55.5657L203.494 54.0269ZM198.682 56.3586C197.862 56.6755 197.014 56.967 196.141 57.2328L196.664 58.9491C197.577 58.6711 198.466 58.3654 199.329 58.0321L198.682 56.3586ZM193.536 57.931C192.675 58.132 191.793 58.3102 190.89 58.4651L191.194 60.2333C192.131 60.0726 193.048 59.8874 193.944 59.678L193.536 57.931ZM188.213 58.8493C187.33 58.952 186.43 59.0341 185.513 59.0952L185.632 60.8853C186.577 60.8223 187.507 60.7376 188.42 60.6313L188.213 58.8493ZM182.803 59.2135C182.352 59.2231 181.898 59.2279 181.441 59.2279V61.022C181.911 61.022 182.378 61.017 182.841 61.0072L182.803 59.2135ZM181.441 43.6894C181.019 43.6894 180.606 43.6788 180.203 43.6579L180.11 45.4495C180.545 45.4721 180.989 45.4835 181.441 45.4835V43.6894ZM177.764 43.3877C176.926 43.2406 176.141 43.0414 175.411 42.7936L174.834 44.4923C175.657 44.7719 176.532 44.993 177.454 45.1548L177.764 43.3877ZM173.231 41.8188C172.525 41.4132 171.894 40.9468 171.341 40.4244L170.109 41.7288C170.77 42.353 171.516 42.9025 172.338 43.3746L173.231 41.8188ZM169.87 38.6228C169.468 37.9741 169.145 37.2648 168.904 36.4962L167.192 37.0322C167.476 37.9393 167.861 38.7861 168.344 39.5665L169.87 38.6228ZM168.45 34.17C168.415 33.7813 168.397 33.3808 168.397 32.9688H166.603C166.603 33.4328 166.623 33.8871 166.663 34.3315L168.45 34.17ZM168.397 32.9688C168.397 32.5568 168.415 32.1564 168.45 31.7677L166.663 31.6061C166.623 32.0505 166.603 32.5049 166.603 32.9688H168.397ZM168.904 29.4415C169.145 28.6729 169.468 27.9636 169.87 27.3148L168.344 26.3711C167.861 27.1515 167.476 27.9984 167.192 28.9054L168.904 29.4415ZM171.341 25.5133C171.894 24.9908 172.525 24.5245 173.231 24.1189L172.338 22.563C171.516 23.0351 170.77 23.5846 170.109 24.2089L171.341 25.5133ZM175.411 23.1441C176.141 22.8963 176.926 22.697 177.764 22.5499L177.454 20.7828C176.532 20.9446 175.657 21.1658 174.834 21.4453L175.411 23.1441ZM180.203 22.2798C180.606 22.2588 181.019 22.2482 181.441 22.2482V20.4542C180.989 20.4542 180.545 20.4655 180.11 20.4881L180.203 22.2798ZM181.441 22.2482C181.863 22.2482 182.276 22.2588 182.679 22.2798L182.772 20.4881C182.337 20.4655 181.893 20.4542 181.441 20.4542V22.2482ZM185.117 22.5499C185.956 22.697 186.741 22.8963 187.471 23.1441L188.048 21.4453C187.225 21.1658 186.35 20.9446 185.427 20.7828L185.117 22.5499ZM189.651 24.1189C190.357 24.5245 190.988 24.9908 191.541 25.5133L192.773 24.2089C192.112 23.5846 191.366 23.0351 190.544 22.563L189.651 24.1189ZM193.012 27.3148C193.413 27.9636 193.737 28.6729 193.978 29.4415L195.69 28.9054C195.406 27.9984 195.021 27.1515 194.538 26.3711L193.012 27.3148ZM194.432 31.7677C194.467 32.1564 194.485 32.5568 194.485 32.9688H196.279C196.279 32.5049 196.259 32.0505 196.219 31.6061L194.432 31.7677ZM194.485 32.9688C194.485 33.3808 194.467 33.7813 194.432 34.17L196.219 34.3315C196.259 33.8871 196.279 33.4328 196.279 32.9688H194.485ZM193.978 36.4962C193.737 37.2648 193.413 37.9741 193.012 38.6228L194.538 39.5665C195.021 38.7861 195.406 37.9393 195.69 37.0322L193.978 36.4962ZM191.541 40.4244C190.988 40.9468 190.357 41.4132 189.651 41.8188L190.544 43.3746C191.366 42.9025 192.112 42.353 192.773 41.7288L191.541 40.4244ZM187.471 42.7936C186.741 43.0414 185.956 43.2406 185.117 43.3877L185.427 45.1548C186.35 44.993 187.225 44.7719 188.048 44.4923L187.471 42.7936ZM182.679 43.6579C182.276 43.6788 181.863 43.6894 181.441 43.6894V45.4835C181.893 45.4835 182.337 45.4721 182.772 45.4495L182.679 43.6579Z" fill="url(#paint0_linear)"/>
<path d="M59.6459 2.173H1.84833V16.4046H30.6019L0.54135 41.3824V53H60.8077V38.7684H29.5854L59.6459 13.7906V2.173ZM102.384 54.7426C123.005 54.7426 136.947 45.0855 136.947 27.5865C136.947 10.0875 123.005 0.430357 102.384 0.430357C81.763 0.430357 67.8219 10.0875 67.8219 27.5865C67.8219 45.0855 81.763 54.7426 102.384 54.7426ZM102.384 39.2041C93.6711 39.2041 88.4431 34.8475 88.4431 27.5865C88.4431 20.3255 93.6711 15.9689 102.384 15.9689C111.097 15.9689 116.325 20.3255 116.325 27.5865C116.325 34.8475 111.097 39.2041 102.384 39.2041ZM178.75 54.7426C199.371 54.7426 213.312 45.0855 213.312 27.5865C213.312 10.0875 199.371 0.430357 178.75 0.430357C158.128 0.430357 144.187 10.0875 144.187 27.5865C144.187 45.0855 158.128 54.7426 178.75 54.7426ZM178.75 39.2041C170.036 39.2041 164.808 34.8475 164.808 27.5865C164.808 20.3255 170.036 15.9689 178.75 15.9689C187.463 15.9689 192.691 20.3255 192.691 27.5865C192.691 34.8475 187.463 39.2041 178.75 39.2041Z" fill="url(#paint1_linear)"/>
<path d="M59.6459 2.173H1.84833V16.4046H30.6019L0.54135 41.3824V53H60.8077V38.7684H29.5854L59.6459 13.7906V2.173ZM102.384 54.7426C123.005 54.7426 136.947 45.0855 136.947 27.5865C136.947 10.0875 123.005 0.430357 102.384 0.430357C81.763 0.430357 67.8219 10.0875 67.8219 27.5865C67.8219 45.0855 81.763 54.7426 102.384 54.7426ZM102.384 39.2041C93.6711 39.2041 88.4431 34.8475 88.4431 27.5865C88.4431 20.3255 93.6711 15.9689 102.384 15.9689C111.097 15.9689 116.325 20.3255 116.325 27.5865C116.325 34.8475 111.097 39.2041 102.384 39.2041ZM178.75 54.7426C199.371 54.7426 213.312 45.0855 213.312 27.5865C213.312 10.0875 199.371 0.430357 178.75 0.430357C158.128 0.430357 144.187 10.0875 144.187 27.5865C144.187 45.0855 158.128 54.7426 178.75 54.7426ZM178.75 39.2041C170.036 39.2041 164.808 34.8475 164.808 27.5865C164.808 20.3255 170.036 15.9689 178.75 15.9689C187.463 15.9689 192.691 20.3255 192.691 27.5865C192.691 34.8475 187.463 39.2041 178.75 39.2041Z" fill="url(#paint2_radial)"/>
<defs>
<linearGradient id="paint0_linear" x1="81.0751" y1="31.8823" x2="118.941" y2="42.5492" gradientUnits="userSpaceOnUse">
<stop/>
<stop offset="1" stop-color="#0E07FF"/>
</linearGradient>
<linearGradient id="paint1_linear" x1="28.4039" y1="-28.2238" x2="135.147" y2="-10.348" gradientUnits="userSpaceOnUse">
<stop stop-color="#9067FF"/>
<stop offset="0.550636" stop-color="#0500FF"/>
</linearGradient>
<radialGradient id="paint2_radial" cx="0" cy="0" r="1" gradientUnits="userSpaceOnUse" gradientTransform="translate(-2 5.50001) rotate(11.0786) scale(218.573 172.145)">
<stop stop-color="#C930FF"/>
<stop offset="1" stop-color="#C521FF" stop-opacity="0"/>
</radialGradient>
</defs>
</svg>
