<svg width="1159" height="235" viewBox="0 0 1159 235" fill="none" xmlns="http://www.w3.org/2000/svg">
<g opacity="0.5">
<path d="M63.1666 65.5172C67.3073 59.7591 75.7469 56.88 88.4853 56.88C106.218 56.88 119.561 59.5133 128.514 64.78L128.014 65.1596C127.133 64.647 126.21 64.1596 125.244 63.6974C116.403 59.4639 104.033 57.3471 88.1349 57.3471C75.746 57.3471 67.4232 60.0705 63.1666 65.5172Z" fill="url(#paint0_linear)"/>
<path d="M148.169 199.93C145.961 202.978 143.463 205.839 140.674 208.512C134.441 214.569 126.453 219.353 116.709 222.864C107.052 226.288 96.2111 228 84.1846 228C68.8224 228 54.3819 225.805 40.8631 221.416C27.4321 216.939 16.2396 210.662 7.28558 202.586L0.129807 207.891C0.0864911 207.851 0.0432215 207.811 0 207.77L7.63713 202.108C16.591 210.184 27.7833 216.46 41.2142 220.937C54.7327 225.326 69.1731 227.52 84.5351 227.52C96.5614 227.52 107.403 225.808 117.059 222.385C126.803 218.874 134.791 214.09 141.024 208.033C143.666 205.501 146.048 202.8 148.169 199.93Z" fill="url(#paint1_linear)"/>
<path d="M156.484 204.977C160.781 199.044 164.026 192.585 166.219 185.6C168.589 178.051 169.774 170.062 169.774 161.635C169.774 151.276 168.15 141.576 164.902 132.534C161.654 123.405 156.958 115.373 150.813 108.438C144.668 101.415 136.811 95.8844 127.243 91.8464C117.762 87.8083 107.096 85.7892 95.2455 85.7892H78.9176C75.1429 85.7892 72.5532 84.9553 71.1487 83.2874C69.7441 81.6195 69.0418 79.2932 69.0418 76.3085C69.0418 74.3113 69.6118 72.6088 70.7518 71.2012C69.8456 72.5131 69.3925 74.0594 69.3925 75.84C69.3925 78.8244 70.0948 81.1506 71.4993 82.8183C72.9038 84.4861 75.4934 85.32 79.2681 85.32H95.5958C107.446 85.32 118.112 87.3389 127.593 91.3767C137.161 95.4144 145.018 100.944 151.162 107.967C157.307 114.901 162.004 122.933 165.252 132.062C168.5 141.103 170.124 150.802 170.124 161.16C170.124 169.587 168.939 177.574 166.568 185.123C164.316 192.296 160.955 198.913 156.484 204.977Z" fill="url(#paint2_linear)"/>
<path d="M94.279 104.28H79.2681C68.9975 104.28 61.5798 101.691 57.0151 96.5117C52.5382 91.3328 50.2997 84.4422 50.2997 75.84C50.2997 69.5924 51.9303 64.2427 55.1915 59.791C51.6963 64.3344 49.9488 69.8403 49.9488 76.3085C49.9488 84.9114 52.1873 91.8025 56.6643 96.9818C61.229 102.161 68.6468 104.751 78.9176 104.751H93.9287C111.749 104.751 125.663 110.193 135.67 121.079C145.765 131.964 150.813 145.483 150.813 161.635C150.813 174.028 147.486 184.82 140.832 194.011C147.719 184.717 151.162 173.767 151.162 161.16C151.162 145.009 146.115 131.491 136.02 120.607C126.013 109.722 112.099 104.28 94.279 104.28Z" fill="url(#paint3_linear)"/>
<path d="M14.8643 196.021L21.77 190.472C28.9683 196.354 38.0101 200.918 48.8954 204.166C59.8684 207.414 71.6315 209.038 84.1846 209.038C102.707 209.038 116.84 204.605 126.584 195.739C129.087 193.483 131.27 191.064 133.136 188.484C131.349 190.886 129.282 193.145 126.934 195.262C117.19 204.127 103.057 208.56 84.5351 208.56C71.9821 208.56 60.2192 206.936 49.2463 203.688C38.3612 200.441 29.3195 195.876 22.1213 189.995L14.7476 195.92C14.7864 195.954 14.8253 195.988 14.8643 196.021Z" fill="url(#paint4_linear)"/>
<path d="M47.5462 54.0321C49.0139 52.0444 50.7218 50.1848 52.6698 48.4533C60.6581 41.4311 72.5966 37.92 88.4853 37.92C99.6338 37.92 109.992 39.2367 119.561 41.87C129.129 44.4156 137.029 48.1022 143.262 52.93L142.785 53.2983C142.009 52.7017 141.208 52.1225 140.381 51.5609C134.584 47.6237 127.528 44.5488 119.211 42.336C109.642 39.7025 99.2835 38.3857 88.1349 38.3857C72.246 38.3857 60.3073 41.8971 52.3189 48.9198C50.5242 50.5152 48.9332 52.2193 47.5462 54.0321Z" fill="url(#paint5_linear)"/>
<path d="M93.7523 123.24H79.2681C63.8183 123.24 51.9676 118.807 43.716 109.942C35.4644 100.988 31.3386 89.6211 31.3386 75.84C31.3386 65.232 34.1889 56.0875 39.8894 48.4066C33.9547 56.1835 30.9874 65.4841 30.9874 76.3085C30.9874 90.0907 35.1132 101.459 43.3649 110.413C51.6167 119.279 63.4675 123.712 78.9176 123.712H93.402C106.219 123.712 115.831 127.267 122.239 134.378C128.647 141.488 131.852 150.574 131.852 161.635C131.852 169.89 129.696 177.007 125.384 182.988C129.929 176.911 132.201 169.635 132.201 161.16C132.201 150.1 128.997 141.015 122.589 133.905C116.181 126.795 106.569 123.24 93.7523 123.24Z" fill="url(#paint6_linear)"/>
<path d="M29.7599 184.173L36.7811 178.753C47.7542 186.302 63.5553 190.077 84.1846 190.077C97.4401 190.077 107.096 187.487 113.153 182.308C114.87 180.837 116.347 179.239 117.584 177.514C116.421 179.057 115.061 180.497 113.504 181.832C107.446 187.011 97.7904 189.6 84.5351 189.6C63.9061 189.6 48.1051 185.826 37.1322 178.277L29.6268 184.07C29.6711 184.104 29.7154 184.139 29.7599 184.173Z" fill="url(#paint7_linear)"/>
<path d="M32.182 43.0764C34.2635 40.2821 36.6597 37.6416 39.3707 35.155C51.0459 24.3583 67.4174 18.96 88.4853 18.96C102.531 18.96 115.61 20.8911 127.724 24.7533C139.926 28.6156 150.065 34.0578 158.141 41.08L157.681 41.4498C156.95 40.8168 156.202 40.1967 155.437 39.5895C147.773 33.5046 138.419 28.7141 127.375 25.2181C115.26 21.3556 102.18 19.4243 88.1349 19.4243C67.0667 19.4243 50.6949 24.823 39.0196 35.6205C36.4598 37.9686 34.1805 40.4539 32.182 43.0764Z" fill="url(#paint8_linear)"/>
<path d="M93.7523 142.2H79.2681C65.2228 142.2 53.0649 139.216 42.7943 133.247C32.5236 127.19 24.8865 119.202 19.8829 109.283C14.8792 99.3644 12.3774 88.2167 12.3774 75.84C12.3774 66.6233 14.0453 58.0211 17.3811 50.0333C19.4312 45.25 21.985 40.8129 25.0424 36.7221C21.8287 40.9416 19.1578 45.5342 17.0296 50.5C13.6938 58.4883 12.0259 67.0912 12.0259 76.3085C12.0259 88.6861 14.5278 99.8347 19.5315 109.754C24.5352 119.674 32.1724 127.662 42.4432 133.719C52.714 139.689 64.8721 142.673 78.9176 142.673H93.402C100.161 142.673 105.033 144.429 108.018 147.941C111.003 151.452 112.495 156.017 112.495 161.635C112.495 165.69 111.524 169.095 109.581 171.849C111.757 169.015 112.845 165.452 112.845 161.16C112.845 155.542 111.353 150.978 108.368 147.467C105.384 143.956 100.512 142.2 93.7523 142.2Z" fill="url(#paint9_linear)"/>
<path d="M44.5302 172.311L51.6606 166.902C57.8055 169.711 68.6468 171.116 84.1846 171.116C91.7341 171.116 96.7817 170.282 99.3274 168.614C100.449 167.903 101.332 167.073 101.976 166.123C101.375 166.877 100.608 167.549 99.6777 168.138C97.132 169.806 92.0844 170.64 84.5351 170.64C68.9975 170.64 58.1563 169.236 52.0115 166.427L44.3743 172.22C44.4262 172.25 44.4781 172.281 44.5302 172.311Z" fill="url(#paint10_linear)"/>
<path d="M16.9238 31.3331C16.9882 31.2464 17.0528 31.1598 17.1177 31.0733C21.9458 24.7533 27.6956 19.3111 34.3671 14.7467C41.1264 10.0944 49.1146 6.49556 58.3319 3.95C67.6369 1.31667 77.688 0 88.4853 0C105.427 0 121.272 2.58945 136.02 7.76833C150.767 12.8594 163.057 20.0133 172.889 29.23L172.417 29.58C171.714 28.9237 170.998 28.2779 170.271 27.6427C160.838 19.4092 149.304 12.9389 135.67 8.2318C120.922 3.05253 105.077 0.462891 88.1349 0.462891C77.3375 0.462891 67.2862 1.77966 57.981 4.41319C48.7637 6.95893 40.7753 10.5581 34.0159 15.2107C27.4167 19.7259 21.7193 25.1001 16.9238 31.3331Z" fill="url(#paint11_linear)"/>
<path d="M210.101 47.3279C213.331 43.0296 216.832 38.9954 220.601 35.2255C231.223 24.6036 243.82 16.1763 258.393 9.9436C273.053 3.62312 288.415 0.462891 304.479 0.462891C320.544 0.462891 335.862 3.62312 350.435 9.9436C365.094 16.1763 377.692 24.6036 388.226 35.2255C398.848 45.7596 407.275 58.3566 413.508 73.0166C419.828 87.5888 422.988 102.907 422.988 118.972C422.988 135.036 419.828 150.399 413.508 165.058C409.821 173.678 405.367 181.606 400.144 188.843C405.516 181.478 410.086 173.392 413.853 164.583C420.174 149.924 423.334 134.563 423.334 118.5C423.334 102.437 420.174 87.1194 413.853 72.5483C407.621 57.8894 399.194 45.2933 388.572 34.76C378.038 24.1389 365.441 15.7122 350.781 9.48C336.209 3.16 320.891 0 304.827 0C288.762 0 273.4 3.16 258.741 9.48C244.169 15.7122 231.572 24.1389 220.95 34.76C217.044 38.6657 213.428 42.855 210.101 47.3279Z" fill="url(#paint12_linear)"/>
<path d="M513.942 88.3766C507.381 97.2176 504.101 107.416 504.101 118.972C504.101 133.368 509.192 145.658 519.375 155.841C529.558 166.024 541.848 171.116 556.245 171.116C565.111 171.116 573.319 169.053 580.868 164.927C587.6 161.29 593.206 156.529 597.687 150.642C597.999 150.231 598.306 149.816 598.608 149.394C594.034 155.638 588.235 160.657 581.212 164.452C573.662 168.577 565.455 170.64 556.589 170.64C542.192 170.64 529.903 165.549 519.72 155.367C509.537 145.184 504.445 132.896 504.445 118.5C504.445 107.149 507.611 97.1079 513.942 88.3766Z" fill="url(#paint13_linear)"/>
<path d="M599.448 148.213L607.071 153.735C606.789 154.149 606.503 154.559 606.212 154.965C606.621 154.405 607.022 153.837 607.415 153.26L599.778 147.73C599.669 147.892 599.559 148.053 599.448 148.213Z" fill="url(#paint14_linear)"/>
<path d="M506.977 81.9757C508.807 79.4584 510.817 77.1059 513.004 74.9183C518.535 69.3883 525.074 64.9994 532.624 61.7517C540.261 58.5039 548.249 56.88 556.589 56.88C567.035 56.88 576.735 59.3378 585.689 64.2533C594.643 69.0811 601.929 75.6644 607.547 84.0033L607.09 84.3049C606.564 83.5291 606.023 82.7687 605.468 82.0234C600.112 74.8338 593.404 69.0664 585.345 64.721C576.391 59.8051 566.691 57.3471 556.245 57.3471C547.905 57.3471 539.917 58.9711 532.28 62.2192C524.73 65.4672 518.19 69.8564 512.66 75.3868C510.609 77.4381 508.714 79.6345 506.977 81.9757Z" fill="url(#paint15_linear)"/>
<path d="M622.758 73.5047L623.216 73.2067C615.842 62.3222 606.274 53.72 594.511 47.4C582.836 41.08 570.195 37.92 556.589 37.92C542.017 37.92 528.542 41.5189 516.165 48.7167C506.338 54.431 498.144 61.7774 491.582 70.7558C498.085 61.9892 506.165 54.7983 515.82 49.1832C528.198 41.9849 541.673 38.3857 556.245 38.3857C569.851 38.3857 582.492 41.546 594.168 47.8664C605.032 53.7041 614.025 61.4887 621.145 71.2204C621.693 71.9703 622.231 72.7317 622.758 73.5047Z" fill="url(#paint16_linear)"/>
<path d="M621.639 166.041C622.175 165.303 622.701 164.554 623.216 163.793L615.447 158.395C615.337 158.557 615.227 158.718 615.116 158.878L622.873 164.268C622.502 164.817 622.125 165.359 621.742 165.896C621.708 165.944 621.673 165.993 621.639 166.041Z" fill="url(#paint17_linear)"/>
<path d="M614.05 160.382C607.758 169.02 599.796 175.95 590.166 181.173C579.807 186.791 568.615 189.6 556.589 189.6C543.685 189.6 531.79 186.44 520.905 180.12C510.02 173.712 501.373 165.066 494.965 154.182C488.645 143.297 485.484 131.403 485.484 118.5C485.484 105.597 488.645 93.7028 494.965 82.8183C496.221 80.6854 497.562 78.64 498.99 76.6823C497.433 78.7818 495.977 80.9834 494.62 83.2874C488.3 94.1727 485.14 106.067 485.14 118.972C485.14 131.876 488.3 143.771 494.62 154.656C501.029 165.541 509.675 174.188 520.561 180.596C531.446 186.917 543.341 190.077 556.245 190.077C568.271 190.077 579.464 187.268 589.822 181.65C599.629 176.331 607.705 169.242 614.05 160.382Z" fill="url(#paint18_linear)"/>
<path d="M638.559 62.9712L639.017 62.6733C629.887 49.2433 618.081 38.6222 603.596 30.81C589.112 22.91 573.443 18.96 556.589 18.96C538.593 18.96 521.958 23.4367 506.684 32.39C494.53 39.4442 484.378 48.5269 476.226 59.638C484.319 48.7385 494.357 39.8109 506.339 32.8553C521.614 23.9013 538.249 19.4243 556.245 19.4243C573.099 19.4243 588.769 23.3746 603.253 31.2752C616.843 38.6052 628.075 48.4078 636.951 60.683C637.496 61.4364 638.032 62.1991 638.559 62.9712Z" fill="url(#paint19_linear)"/>
<path d="M637.175 176.965C637.71 176.226 638.236 175.478 638.754 174.722L631.116 169.06C631.006 169.222 630.896 169.383 630.785 169.544L638.411 175.198C638.004 175.792 637.592 176.381 637.175 176.965Z" fill="url(#paint20_linear)"/>
<path d="M629.521 171.329C621.505 182.38 611.372 191.235 599.12 197.895C586.04 205.005 571.863 208.56 556.589 208.56C544.387 208.56 532.712 206.19 521.563 201.45C510.415 196.71 500.802 190.346 492.726 182.358C484.738 174.283 478.374 164.671 473.634 153.523C468.893 142.376 466.523 130.701 466.523 118.5C466.523 106.299 468.893 94.6244 473.634 83.4767C476.55 76.6188 480.081 70.3588 484.226 64.6968C479.931 70.4817 476.285 76.898 473.289 83.9458C468.548 95.0944 466.178 106.77 466.178 118.972C466.178 131.174 468.548 142.849 473.289 153.998C478.029 165.146 484.393 174.759 492.382 182.835C500.458 190.823 510.07 197.188 521.219 201.928C532.368 206.668 544.043 209.038 556.245 209.038C571.519 209.038 585.697 205.483 598.776 198.373C610.961 191.749 621.05 182.954 629.045 171.988C629.205 171.77 629.363 171.55 629.521 171.329Z" fill="url(#paint21_linear)"/>
<path d="M654.097 52.1743L654.555 51.8767C643.669 35.9011 629.624 23.2611 612.419 13.9567C595.213 4.65222 576.603 0 556.589 0C540.524 0 525.162 3.16 510.503 9.48C495.931 15.7122 483.334 24.1389 472.712 34.76C468.672 38.7996 464.942 43.1427 461.522 47.7891C464.847 43.3178 468.462 39.1299 472.367 35.2255C482.989 24.6036 495.586 16.1763 510.158 9.9436C524.818 3.62312 540.18 0.462891 556.245 0.462891C576.26 0.462891 594.87 5.11546 612.076 14.4206C628.389 23.2429 641.861 35.0638 652.492 49.8834C653.034 50.6392 653.569 51.4028 654.097 52.1743Z" fill="url(#paint22_linear)"/>
<path d="M652.866 187.726C653.392 186.997 653.911 186.261 654.423 185.518L646.786 179.725C646.675 179.887 646.565 180.048 646.453 180.209L654.081 185.995C653.68 186.576 653.275 187.154 652.866 187.726Z" fill="url(#paint23_linear)"/>
<path d="M645.036 182.216C635.285 195.707 622.92 206.507 607.942 214.617C592.053 223.219 574.935 227.52 556.589 227.52C541.841 227.52 527.708 224.667 514.189 218.962C500.759 213.168 489.171 205.4 479.427 195.657C469.683 185.913 461.915 174.327 456.121 160.897C450.415 147.379 447.562 133.247 447.562 118.5C447.562 103.753 450.415 89.665 456.121 76.235C459.688 67.9116 464.005 60.3037 469.07 53.4113C463.855 60.4271 459.424 68.1912 455.776 76.7036C450.07 90.1346 447.217 104.224 447.217 118.972C447.217 133.719 450.07 147.853 455.776 161.372C461.569 174.803 469.338 186.39 479.082 196.134C488.826 205.878 500.414 213.647 513.845 219.441C527.364 225.147 541.497 228 556.245 228C574.592 228 591.71 223.698 607.599 215.096C622.59 206.979 634.963 196.166 644.718 182.658C644.824 182.511 644.93 182.363 645.036 182.216Z" fill="url(#paint24_linear)"/>
<path d="M739.221 9.48H729.741V9.9436H738.88V227.52H739.221V9.48Z" fill="url(#paint25_linear)"/>
<path d="M720.26 9.48H710.78V9.9436H719.919V227.52H720.26V9.48Z" fill="url(#paint26_linear)"/>
<path d="M701.299 9.48H691.818V9.9436H700.957V227.52H701.299V9.48Z" fill="url(#paint27_linear)"/>
<path d="M682.338 9.48H672.857V9.9436H681.996V227.52H682.338V9.48Z" fill="url(#paint28_linear)"/>
<path d="M862.014 154.524L862.205 154.05H894.597L898.416 163.53H897.886L894.258 154.524H862.014Z" fill="url(#paint29_linear)"/>
<path d="M854.515 173.486L854.7 173.01H901.971L906.053 182.49H905.509L901.632 173.486H854.515Z" fill="url(#paint30_linear)"/>
<path d="M847.141 192.447L847.326 191.97H909.477L913.427 201.45H912.889L909.138 192.447H847.141Z" fill="url(#paint31_linear)"/>
<path d="M766.458 227.52H766.61L847.46 22.9137L847.382 22.7162L766.458 227.52Z" fill="url(#paint32_linear)"/>
<path d="M938.444 227.52H938.972L852.857 9.48H842.586L842.403 9.9436H852.517L938.444 227.52Z" fill="url(#paint33_linear)"/>
<path d="M848.906 44.7667L854.305 56.88L786.888 227.52H786.737L853.965 57.3471L848.649 45.418L848.906 44.7667Z" fill="url(#paint34_linear)"/>
<path d="M859.44 69.7833L864.444 82.8183L807.429 227.52H807.278L864.104 83.2874L859.177 70.45L859.44 69.7833Z" fill="url(#paint35_linear)"/>
<path d="M869.448 95.8533L874.451 109.152L827.707 227.52H827.556L874.112 109.623L869.184 96.5235L869.448 95.8533Z" fill="url(#paint36_linear)"/>
<path d="M903.998 9.9436H913.615L999.673 227.52H1000.2L913.954 9.48H903.815L903.998 9.9436Z" fill="url(#paint37_linear)"/>
<path d="M893.544 9.48L979.791 227.52H979.263L893.205 9.9436H883.588L883.405 9.48H893.544Z" fill="url(#paint38_linear)"/>
<path d="M873.134 9.48L959.381 227.52H958.853L872.795 9.9436H863.179L862.995 9.48H873.134Z" fill="url(#paint39_linear)"/>
<path d="M1026.27 9.48H1016.79V9.9436H1025.93V227.52H1026.27V9.48Z" fill="url(#paint40_linear)"/>
<path d="M1083.16 9.48H1073.67V9.9436H1082.82V180.596H1158.66V189.6H1159V180.12H1083.16V9.48Z" fill="url(#paint41_linear)"/>
<path d="M1083.16 190.077H1082.82V199.558H1158.66V208.56H1159V199.08H1083.16V190.077Z" fill="url(#paint42_linear)"/>
<path d="M1083.16 209.038H1082.82V218.519H1158.66V227.52H1159V218.04H1083.16V209.038Z" fill="url(#paint43_linear)"/>
<path d="M1064.19 9.48H1054.71V9.9436H1063.86V227.52H1064.19V9.48Z" fill="url(#paint44_linear)"/>
<path d="M1045.23 9.48H1035.75V9.9436H1044.9V227.52H1045.23V9.48Z" fill="url(#paint45_linear)"/>
<path d="M153.022 204.605C148.484 210.654 142.975 215.916 136.474 220.391C130.126 224.734 122.457 228.163 113.415 230.637L113.399 230.641L113.383 230.646C104.465 233.194 94.738 234.481 84.1846 234.481C67.5526 234.481 52.0003 231.939 37.5066 226.879L37.4968 226.876C24.4154 222.36 13.3978 216.213 4.38623 208.47L7.13065 206.436C16.1082 214.048 27.0575 219.976 39.9144 224.262L39.9255 224.266L39.9367 224.269C53.7779 228.763 68.5332 231 84.1846 231C96.4946 231 107.683 229.248 117.711 225.692L117.719 225.689L117.726 225.687C127.792 222.059 136.167 217.073 142.758 210.67C149.365 204.336 154.426 196.977 157.921 188.613C161.511 180.232 163.294 171.229 163.294 161.635C163.294 149.022 160.75 137.54 155.606 127.249C150.422 116.788 142.51 108.345 131.967 101.927C121.415 95.4494 109.003 92.27 94.8504 92.27H78.9176C72.6082 92.27 68.7607 90.6736 66.5752 88.1773C64.1614 85.3299 62.8245 81.4694 62.8245 76.3085C62.8245 70.856 64.7893 67.1133 68.5716 64.5801C72.5668 61.9042 78.9385 60.3471 88.1349 60.3471C102.98 60.3471 114.366 62.2262 122.529 65.7571L120.085 67.6115C113.165 64.9998 102.382 63.8278 88.1349 63.8278C84.2649 63.8278 80.9303 64.0405 78.1693 64.4928C75.4526 64.9377 73.0649 65.6491 71.2553 66.7952L71.2358 66.8076L71.2164 66.8203C67.8447 69.0294 66.0419 72.2885 66.0419 76.3085C66.0419 79.74 66.8504 82.8406 68.8539 85.2198C71.1329 87.926 74.8759 88.7892 78.9176 88.7892H95.2455C106.752 88.7892 117.01 90.7487 126.067 94.6065L126.076 94.6103C135.274 98.4918 142.742 103.769 148.555 110.413L148.561 110.42L148.568 110.427C154.446 117.061 158.951 124.756 162.076 133.54L162.079 133.549C165.201 142.24 166.774 151.595 166.774 161.635C166.774 169.777 165.63 177.461 163.357 184.701C161.092 191.916 157.655 198.539 153.038 204.584L153.03 204.594L153.022 204.605Z" fill="url(#paint46_linear)"/>
<path d="M133.462 123.109L133.471 123.119C143.004 133.398 147.813 146.167 147.813 161.635C147.813 177.242 142.304 190.039 131.268 200.247C120.308 210.299 104.752 215.519 84.1846 215.519C70.4166 215.519 57.6009 213.626 45.7187 209.865C35.2215 206.542 26.3852 202.049 19.1514 196.425L21.792 194.303C29.0111 199.751 37.7819 203.981 48.0376 207.041L48.0439 207.043C59.3187 210.38 71.3709 212.038 84.1846 212.038C103.15 212.038 118.116 207.499 128.602 197.959C139.092 188.495 144.332 176.305 144.332 161.635C144.332 147.292 139.99 135.213 131.167 125.636C122.293 115.907 109.677 111.231 93.797 111.231H78.9176C66.6378 111.231 57.9582 107.88 52.2965 101.675C46.4821 95.3032 43.4681 86.9411 43.4681 76.3085C43.4681 65.8711 47.094 57.5811 54.3056 51.1678C61.5311 44.8191 72.6295 41.3857 88.1349 41.3857C99.0472 41.3857 109.135 42.6745 118.415 45.2285L118.427 45.2319L118.439 45.2352C126.103 47.2742 132.563 50.0421 137.874 53.4964L135.264 55.5108C123.723 48.3018 107.903 44.8664 88.1349 44.8664C74.591 44.8664 64.0271 47.538 57.0848 53.4869C50.3109 59.2791 46.9488 66.9847 46.9488 76.3085C46.9488 85.441 49.3352 93.0905 54.3947 98.9436L54.4041 98.9545L54.4136 98.9653C59.7788 105.053 68.2104 107.751 78.9176 107.751H93.9287C111.096 107.751 124.137 112.967 133.462 123.109Z" fill="url(#paint47_linear)"/>
<path d="M117.888 186.77L117.882 186.776L117.876 186.781C110.744 193.121 99.6977 196.558 84.1846 196.558C73.2712 196.558 63.1339 195.313 53.759 192.843C46.0916 190.731 39.6269 187.92 34.3114 184.449L36.9238 182.433C48.4711 189.643 64.3358 193.077 84.1846 193.077C97.716 193.077 108.243 190.454 115.103 184.588L115.106 184.586C121.954 178.716 125.371 170.974 125.371 161.635C125.371 152.572 122.93 144.965 117.782 139.119C112.42 132.939 103.986 130.193 93.2703 130.193H78.9176C61.5569 130.193 48.3283 125.052 38.8323 115.07C29.3214 104.893 24.5066 92.0499 24.5066 76.3085C24.5066 60.6991 30.0166 47.9499 41.0476 37.8313L41.0565 37.823C52.0172 27.6864 67.5708 22.4243 88.1349 22.4243C101.903 22.4243 114.673 24.317 126.463 28.0763L126.469 28.0782C136.966 31.4011 145.803 35.8945 153.037 41.5186L150.396 43.6405C143.177 38.1924 134.406 33.9625 124.15 30.9023C112.959 27.563 100.948 25.905 88.1349 25.905C69.1664 25.905 54.1635 30.4453 43.5943 39.9764L43.5844 39.9854C33.1792 49.4532 27.9874 61.6442 27.9874 76.3085C27.9874 90.7371 32.3285 102.864 41.1589 112.446L41.1639 112.451L41.1689 112.457C50.1352 122.091 62.8782 126.712 78.9176 126.712H93.402C105.671 126.712 114.346 130.101 120.011 136.386C125.846 142.861 128.852 151.193 128.852 161.635C128.852 172.064 125.188 180.353 117.888 186.77Z" fill="url(#paint48_linear)"/>
<path d="M134.691 11.0676C147.773 15.5837 158.79 21.7306 167.802 29.4731L165.057 31.508C156.077 23.8985 145.124 18.0133 132.264 13.8099C118.505 9.22473 103.789 6.9436 88.1349 6.9436C75.8198 6.9436 64.5861 8.7412 54.47 12.3855C44.4837 15.927 36.112 20.8701 29.4383 27.2657L29.4308 27.273L29.4233 27.2803C22.9065 33.6135 17.8518 40.9658 14.2722 49.3182L14.2667 49.331L14.2613 49.3439C10.7629 57.7218 9.02594 66.7204 9.02594 76.3085C9.02594 89.1012 11.6148 100.721 16.853 111.105C22.1346 121.576 30.1913 129.977 40.9193 136.304L40.9275 136.308L40.9357 136.313C51.7416 142.594 64.4397 145.673 78.9176 145.673H93.402C99.7017 145.673 103.543 147.308 105.732 149.883C108.161 152.741 109.495 156.566 109.495 161.635C109.495 167.087 107.53 170.83 103.748 173.363C99.7528 176.039 93.3811 177.596 84.1846 177.596C69.2615 177.596 57.8332 175.716 49.6597 172.185L52.1032 170.332C59.0302 172.944 69.859 174.116 84.1846 174.116C88.0539 174.116 91.3796 173.903 94.1215 173.45C96.8041 173.007 99.1718 172.296 100.952 171.136C104.395 168.948 106.278 165.694 106.278 161.635C106.278 158.252 105.405 155.203 103.328 152.847C101.045 150.053 97.2477 149.154 93.1386 149.154H78.9176C67.134 149.154 56.5493 147.234 47.1214 143.447C37.7483 139.646 30.1082 134.449 24.1264 127.888C18.1637 121.252 13.5756 113.557 10.3667 104.774C7.16118 96.0014 5.54523 86.5209 5.54523 76.3085C5.54523 68.1662 6.68963 60.4823 8.96275 53.242C11.2299 46.0207 14.6264 39.3941 19.1585 33.3489C23.788 27.2908 29.3011 22.0716 35.71 17.6866L35.7169 17.6818C42.1597 13.2471 49.8323 9.77611 58.7797 7.30492L58.7889 7.30239L58.798 7.2998C67.8085 4.74967 77.582 3.46289 88.1349 3.46289C104.767 3.46289 120.274 6.00427 134.676 11.0623L134.684 11.065L134.691 11.0676Z" fill="url(#paint49_linear)"/>
<path d="M224.759 59.2374C232.8 48.5195 242.738 39.7255 254.574 32.8553C269.849 23.9013 286.484 19.4243 304.479 19.4243C322.475 19.4243 339.11 23.9013 354.385 32.8553C369.659 41.7215 381.73 53.7919 390.596 69.0663C399.55 84.3408 404.027 100.976 404.027 118.972C404.027 136.968 399.55 153.603 390.596 168.877C388.841 171.9 386.961 174.8 384.955 177.575C387.091 174.656 389.087 171.598 390.942 168.402C399.896 153.128 404.373 136.494 404.373 118.5C404.373 100.506 399.896 83.8717 390.942 68.5983C382.076 53.325 370.006 41.2556 354.731 32.39C339.457 23.4367 322.822 18.96 304.827 18.96C286.831 18.96 270.196 23.4367 254.922 32.39C242.915 39.3592 232.861 48.3084 224.759 59.2374Z" fill="url(#paint50_linear)"/>
<path d="M195.8 118.5C195.8 103.753 198.653 89.665 204.359 76.235C207.999 67.7414 212.419 59.9928 217.619 52.9893C212.268 60.1154 207.732 68.0201 204.01 76.7036C198.304 90.1346 195.451 104.224 195.451 118.972C195.451 133.719 198.304 147.853 204.01 161.372C209.804 174.803 217.573 186.39 227.317 196.134C237.061 205.878 248.649 213.647 262.08 219.441C275.598 225.147 289.732 228 304.479 228C319.227 228 333.317 225.147 346.748 219.441C360.266 213.647 371.898 205.878 381.642 196.134C385.581 192.195 389.191 187.954 392.47 183.412C389.283 187.774 385.789 191.856 381.988 195.657C372.244 205.4 360.613 213.168 347.094 218.962C333.664 224.667 319.574 227.52 304.827 227.52C290.079 227.52 275.946 224.667 262.428 218.962C248.997 213.168 237.409 205.4 227.665 195.657C217.922 185.913 210.153 174.327 204.359 160.897C198.653 147.379 195.8 133.247 195.8 118.5Z" fill="url(#paint51_linear)"/>
<path d="M240.054 70.4367C246.517 61.8145 254.517 54.73 264.055 49.1832C276.432 41.9849 289.907 38.3857 304.479 38.3857C319.052 38.3857 332.526 41.9849 344.904 49.1832C357.282 56.3815 367.07 66.1694 374.268 78.547C381.466 90.9246 385.065 104.4 385.065 118.972C385.065 133.544 381.466 147.019 374.268 159.396C372.852 161.83 371.337 164.164 369.721 166.398C371.467 164.021 373.098 161.529 374.614 158.922C381.813 146.545 385.412 133.071 385.412 118.5C385.412 103.929 381.813 90.455 374.614 78.0783C367.416 65.7017 357.628 55.9144 345.251 48.7167C332.873 41.5189 319.399 37.92 304.827 37.92C290.255 37.92 276.78 41.5189 264.403 48.7167C254.693 54.3631 246.577 61.6032 240.054 70.4367Z" fill="url(#paint52_linear)"/>
<path d="M214.761 118.5C214.761 106.299 217.131 94.6244 221.872 83.4767C224.847 76.4797 228.462 70.1052 232.717 64.3532C228.311 70.2273 224.579 76.7581 221.523 83.9458C216.783 95.0944 214.413 106.77 214.413 118.972C214.413 131.174 216.783 142.849 221.523 153.998C226.264 165.146 232.628 174.759 240.616 182.835C248.692 190.823 258.305 197.188 269.453 201.928C280.602 206.668 292.277 209.038 304.479 209.038C316.681 209.038 328.357 206.668 339.505 201.928C350.654 197.188 360.222 190.823 368.211 182.835C371.464 179.581 374.447 176.078 377.16 172.326C374.54 175.899 371.673 179.243 368.557 182.358C360.569 190.346 351.001 196.71 339.852 201.45C328.704 206.19 317.029 208.56 304.827 208.56C292.625 208.56 280.95 206.19 269.801 201.45C258.653 196.71 249.041 190.346 240.965 182.358C232.976 174.283 226.612 164.671 221.872 153.523C217.131 142.376 214.761 130.701 214.761 118.5Z" fill="url(#paint53_linear)"/>
<path d="M255.39 81.7356C257.079 79.4842 258.913 77.3679 260.895 75.3868C266.425 69.8564 272.965 65.4672 280.514 62.2192C288.152 58.9711 296.14 57.3471 304.479 57.3471C312.819 57.3471 320.763 58.9711 328.313 62.2192C335.95 65.4672 342.534 69.8564 348.064 75.3868C353.595 80.9172 357.984 87.501 361.232 95.1383C364.48 102.688 366.104 110.632 366.104 118.972C366.104 127.311 364.48 135.3 361.232 142.937C359.312 147.399 356.994 151.508 354.277 155.265C357.144 151.381 359.578 147.113 361.579 142.463C364.826 134.827 366.45 126.839 366.45 118.5C366.45 110.161 364.826 102.217 361.579 94.6683C358.331 87.0317 353.941 80.4483 348.411 74.9183C342.881 69.3883 336.297 64.9994 328.66 61.7517C321.111 58.5039 313.166 56.88 304.827 56.88C296.487 56.88 288.499 58.5039 280.862 61.7517C273.313 64.9994 266.773 69.3883 261.242 74.9183C259.124 77.0363 257.174 79.3087 255.39 81.7356Z" fill="url(#paint54_linear)"/>
<path d="M233.722 118.5C233.722 105.597 236.883 93.7028 243.203 82.8183C244.52 80.581 245.932 78.4402 247.438 76.3957C245.801 78.5812 244.273 80.8784 242.855 83.2874C236.534 94.1727 233.374 106.067 233.374 118.972C233.374 131.876 236.534 143.771 242.855 154.656C249.263 165.541 257.91 174.188 268.795 180.596C279.68 186.917 291.575 190.077 304.479 190.077C317.384 190.077 329.278 186.917 340.164 180.596C348.88 175.465 356.133 168.898 361.923 160.896C356.191 168.683 349.054 175.091 340.511 180.12C329.625 186.44 317.731 189.6 304.827 189.6C291.923 189.6 280.028 186.44 269.143 180.12C258.258 173.712 249.611 165.066 243.203 154.182C236.883 143.297 233.722 131.403 233.722 118.5Z" fill="url(#paint55_linear)"/>
<path d="M262.333 88.1675C255.9 96.9475 252.684 107.058 252.684 118.5C252.684 132.896 257.775 145.184 267.958 155.367C278.141 165.549 290.43 170.64 304.827 170.64C319.223 170.64 331.513 165.549 341.696 155.367C343.721 153.341 345.545 151.232 347.168 149.04C345.46 151.403 343.52 153.67 341.349 155.841C331.166 166.024 318.876 171.116 304.479 171.116C290.083 171.116 277.793 166.024 267.61 155.841C257.427 145.658 252.336 133.368 252.336 118.972C252.336 107.325 255.668 97.0567 262.333 88.1675Z" fill="url(#paint56_linear)"/>
<path fill-rule="evenodd" clip-rule="evenodd" d="M263.016 77.5081C268.263 72.2612 274.479 68.0822 281.695 64.9769C288.957 61.8896 296.544 60.3471 304.479 60.3471C312.417 60.3471 319.958 61.8905 327.127 64.975L327.139 64.9799C334.444 68.0867 340.701 72.2659 345.943 77.5081C351.185 82.7504 355.364 89.007 358.471 96.3124L358.476 96.3239C361.561 103.493 363.104 111.034 363.104 118.972C363.104 126.909 361.561 134.497 358.472 141.76C355.367 148.974 351.189 155.189 345.943 160.435C340.701 165.678 334.444 169.857 327.139 172.964L327.127 172.969C319.958 176.053 312.417 177.596 304.479 177.596C296.545 177.596 288.959 176.054 281.698 172.968C274.481 169.862 268.263 165.683 263.016 160.435C257.768 155.188 253.589 148.971 250.484 141.754C247.397 134.493 245.855 126.907 245.855 118.972C245.855 111.034 247.398 103.493 250.483 96.3239L250.488 96.3124C253.594 89.007 257.774 82.7504 263.016 77.5081ZM265.489 79.981C254.743 90.7264 249.336 103.779 249.336 118.972C249.336 134.164 254.743 147.217 265.489 157.962C276.234 168.708 289.287 174.116 304.479 174.116C319.672 174.116 332.725 168.708 343.47 157.962C354.216 147.217 359.623 134.164 359.623 118.972C359.623 103.779 354.216 90.7264 343.47 79.981C332.725 69.2356 319.672 63.8278 304.479 63.8278C289.287 63.8278 276.234 69.2356 265.489 79.981Z" fill="url(#paint57_linear)"/>
<path fill-rule="evenodd" clip-rule="evenodd" d="M237.284 157.888C230.357 145.977 226.893 133.024 226.893 118.972C226.893 104.919 230.357 91.9664 237.284 80.0552C244.221 68.1273 253.635 58.7133 265.563 51.7765C277.474 44.8495 290.427 41.3857 304.479 41.3857C318.532 41.3857 331.485 44.8495 343.396 51.7765C355.324 58.7133 364.738 68.1273 371.675 80.0552C378.602 91.9664 382.065 104.919 382.065 118.972C382.065 133.024 378.602 145.977 371.675 157.888C364.738 169.816 355.324 179.23 343.396 186.167C331.485 193.094 318.532 196.558 304.479 196.558C290.427 196.558 277.474 193.094 265.563 186.167C253.635 179.23 244.221 169.816 237.284 157.888ZM240.27 81.7654L240.265 81.7732L240.26 81.781C233.667 93.1357 230.374 105.552 230.374 118.972C230.374 132.391 233.667 144.808 240.26 156.162L240.265 156.17L240.27 156.178C246.936 167.502 255.949 176.515 267.273 183.182L267.281 183.186L267.289 183.191C278.643 189.784 291.06 193.077 304.479 193.077C317.899 193.077 330.315 189.784 341.67 183.191L341.678 183.186L341.686 183.182C353.011 176.514 361.982 167.5 368.562 156.171C375.245 144.816 378.585 132.396 378.585 118.972C378.585 105.547 375.245 93.1273 368.562 81.7724C361.981 70.4429 353.008 61.4696 341.679 54.8893C330.324 48.2062 317.904 44.8664 304.479 44.8664C291.055 44.8664 278.635 48.2063 267.28 54.8894C255.951 61.4692 246.937 70.4404 240.27 81.7654Z" fill="url(#paint58_linear)"/>
<path fill-rule="evenodd" clip-rule="evenodd" d="M388.001 167.371C379.396 182.195 367.699 193.937 352.871 202.629C338.065 211.222 321.954 215.519 304.479 215.519C287.005 215.519 270.893 211.222 256.087 202.629C241.26 193.936 229.517 182.194 220.823 167.366C212.23 152.56 207.932 136.447 207.932 118.972C207.932 101.496 212.23 85.3838 220.823 70.5771C229.516 55.7509 241.256 44.0544 256.08 35.4499L256.091 35.4434C270.898 26.7637 287.008 22.4243 304.479 22.4243C321.951 22.4243 338.061 26.7637 352.868 35.4434L352.879 35.4499C367.702 44.0541 379.397 55.7493 388.001 70.5724L388.008 70.5835C396.687 85.39 401.027 101.5 401.027 118.972C401.027 136.443 396.687 152.553 388.008 167.36L388.001 167.371ZM238.483 184.945L238.495 184.956L238.507 184.968C246.87 193.24 256.806 199.81 268.28 204.689C279.802 209.588 291.877 212.038 304.479 212.038C317.082 212.038 329.157 209.588 340.679 204.689C352.156 199.809 362.053 193.236 370.332 184.956C378.696 176.592 385.315 166.652 390.196 155.172C395.096 143.649 397.546 131.574 397.546 118.972C397.546 106.369 395.096 94.2945 390.196 82.7719C385.316 71.2938 378.698 61.3972 370.332 53.119C362.054 44.7529 352.157 38.1352 340.679 33.2547C329.157 28.3554 317.082 25.905 304.479 25.905C291.877 25.905 279.802 28.3554 268.28 33.2547C256.799 38.1363 246.859 44.7547 238.495 53.119C230.216 61.3985 223.642 71.2953 218.762 82.7719C213.863 94.2945 211.413 106.369 211.413 118.972C211.413 131.574 213.863 143.649 218.762 155.172C223.641 166.646 230.211 176.581 238.483 184.945Z" fill="url(#paint59_linear)"/>
<path fill-rule="evenodd" clip-rule="evenodd" d="M259.572 225.242C245.331 219.15 233.059 210.976 222.723 200.728C212.474 190.391 204.255 178.117 198.076 163.874C192.005 149.591 188.971 134.632 188.971 118.972C188.971 103.309 192.006 88.3951 198.075 74.2029C204.256 59.8668 212.476 47.5935 222.723 37.3468C233.06 27.01 245.332 18.7926 259.572 12.7019L259.58 12.6985C273.863 6.54075 288.821 3.46289 304.479 3.46289C320.138 3.46289 335.05 6.54071 349.241 12.6959L349.251 12.7002L349.261 12.7044C363.586 18.795 375.853 27.0097 386.096 37.338L386.104 37.3468L386.113 37.3556C396.441 47.5985 404.656 59.8647 410.747 74.1904L410.751 74.2004L410.755 74.2104C416.91 88.4014 419.988 103.313 419.988 118.972C419.988 134.63 416.91 149.588 410.753 163.871L410.749 163.879C404.659 178.119 396.441 190.392 386.104 200.728C375.861 210.972 363.592 219.146 349.261 225.239L349.251 225.243L349.241 225.248C335.05 231.403 320.138 234.481 304.479 234.481C288.821 234.481 273.863 231.403 259.58 225.245L259.572 225.242ZM201.253 75.5218L201.249 75.5305C195.384 89.3366 192.451 103.825 192.451 118.972C192.451 134.118 195.384 148.648 201.246 162.538L201.251 162.549L201.256 162.56C207.19 176.317 215.167 188.227 225.196 198.255C235.224 208.284 247.134 216.261 260.891 222.195L260.902 222.2L260.913 222.205C274.803 228.067 289.333 231 304.479 231C319.626 231 334.115 228.067 347.921 222.202L347.929 222.198C361.775 216.264 373.731 208.287 383.763 198.255C393.794 188.224 401.729 176.31 407.577 162.547C413.529 148.656 416.508 134.123 416.508 118.972C416.508 103.822 413.53 89.3318 407.576 75.5255C401.73 61.6782 393.796 49.7205 383.763 39.688C373.731 29.6554 361.773 21.7213 347.925 15.8751C334.119 9.92107 319.629 6.9436 304.479 6.9436C289.328 6.9436 274.794 9.92197 260.902 15.8751C247.14 21.7224 235.227 29.6571 225.196 39.688C215.164 49.7197 207.187 61.6761 201.253 75.5218Z" fill="url(#paint60_linear)"/>
<path d="M514.781 77.5081C520.028 72.2613 526.244 68.0823 533.461 64.977C540.723 61.8897 548.309 60.3471 556.245 60.3471C566.198 60.3471 575.4 62.6834 583.902 67.3508L583.912 67.3562L583.922 67.3616C591.548 71.4739 597.886 76.9082 602.961 83.6805L600.192 85.5108C595.428 79.2139 589.45 74.1641 582.289 70.3745C574.29 66.0063 565.591 63.8278 556.245 63.8278C541.052 63.8278 528 69.2356 517.254 79.981C506.509 90.7264 501.101 103.779 501.101 118.972C501.101 134.164 506.509 147.217 517.254 157.962C528 168.708 541.052 174.116 556.245 174.116C565.595 174.116 574.297 171.935 582.299 167.564C589.417 163.718 595.366 158.66 600.117 152.402L602.895 154.414C597.81 161.153 591.451 166.582 583.79 170.714C575.282 175.301 566.116 177.596 556.245 177.596C548.31 177.596 540.725 176.054 533.464 172.968C526.246 169.862 520.029 165.683 514.781 160.435C509.535 155.189 505.357 148.974 502.252 141.76C499.163 134.497 497.62 126.909 497.62 118.972C497.62 111.034 499.164 103.493 502.248 96.3239L502.253 96.3124C505.36 89.007 509.539 82.7504 514.781 77.5081Z" fill="url(#paint61_linear)"/>
<path d="M592.748 187.434C603.202 181.817 611.836 174.347 618.682 165.009L615.833 163.03C609.322 171.846 601.118 178.936 591.253 184.287C580.446 190.148 568.76 193.077 556.245 193.077C542.825 193.077 530.409 189.784 519.054 183.191L519.046 183.186L519.039 183.182C507.714 176.515 498.702 167.502 492.035 156.178L492.03 156.17L492.026 156.162C485.433 144.808 482.14 132.391 482.14 118.972C482.14 105.552 485.433 93.1357 492.026 81.781L492.03 81.7732L492.035 81.7654C498.702 70.4404 507.717 61.4694 519.045 54.8895C530.4 48.2063 542.82 44.8664 556.245 44.8664C568.754 44.8664 580.394 47.7922 591.114 53.6529C601.003 58.9342 609.223 65.9642 615.745 74.7304L618.625 72.8579C611.789 63.5553 603.173 56.1108 592.748 50.5091L592.74 50.5047C581.514 44.4277 569.366 41.3857 556.245 41.3857C542.193 41.3857 529.24 44.8495 517.328 51.7765C505.4 58.7133 495.986 68.1273 489.05 80.0552C482.123 91.9664 478.659 104.919 478.659 118.972C478.659 133.024 482.123 145.977 489.05 157.888C495.986 169.816 505.4 179.23 517.328 186.167C529.24 193.094 542.193 196.558 556.245 196.558C569.366 196.558 581.514 193.516 592.74 187.439L592.748 187.434Z" fill="url(#paint62_linear)"/>
<path d="M601.829 33.9156C614.981 41.0095 625.839 50.472 634.432 62.32L631.562 64.1855C623.279 52.7961 612.769 43.7055 600.066 36.929C586.541 29.5785 571.917 25.905 556.245 25.905C543.642 25.905 531.568 28.3554 520.045 33.2547C508.564 38.1363 498.625 44.7547 490.26 53.119C481.981 61.3985 475.408 71.2953 470.528 82.7719C465.628 94.2945 463.178 106.369 463.178 118.972C463.178 131.574 465.628 143.649 470.528 155.172C475.407 166.646 481.977 176.581 490.249 184.945L490.26 184.956L490.272 184.968C498.635 193.24 508.571 199.81 520.045 204.689C531.568 209.588 543.642 212.038 556.245 212.038C572.006 212.038 586.678 208.364 600.209 201.008C612.772 194.179 623.197 185.096 631.455 173.775L634.271 175.863C625.662 187.697 614.771 197.168 601.566 204.291C587.619 211.774 572.528 215.519 556.245 215.519C538.77 215.519 522.659 211.222 507.853 202.63C493.024 193.936 481.281 182.192 472.587 167.364C463.994 152.558 459.697 136.446 459.697 118.972C459.697 101.497 463.994 85.3856 472.587 70.5797C481.28 55.7523 493.021 44.0549 507.845 35.4499L507.857 35.4434C522.663 26.7637 538.773 22.4243 556.245 22.4243C572.609 22.4243 587.783 26.254 601.817 33.9089L601.829 33.9156Z" fill="url(#paint63_linear)"/>
<path d="M609.027 217.734C624.387 209.417 637.091 198.325 647.109 184.472L649.957 186.633C639.593 200.937 626.46 212.391 610.527 221.01C593.767 229.989 575.688 234.481 556.245 234.481C540.586 234.481 525.628 231.403 511.346 225.245L511.338 225.242C497.096 219.15 484.823 210.975 474.486 200.727C464.238 190.39 456.02 178.116 449.841 163.874C443.771 149.591 440.736 134.632 440.736 118.972C440.736 103.309 443.771 88.3951 449.841 74.203C456.022 59.8669 464.242 47.5935 474.488 37.3468C484.825 27.01 497.098 18.7926 511.338 12.7019L511.346 12.6985C525.628 6.54075 540.586 3.46289 556.245 3.46289C575.773 3.46289 593.892 7.99699 610.649 17.0594C626.525 25.6455 639.623 37.1265 649.974 51.5201L647.105 53.3853C637.066 39.4521 624.316 28.3426 608.887 20.0734C592.639 11.3184 575.076 6.9436 556.245 6.9436C541.093 6.9436 526.559 9.92201 512.667 15.8752C498.905 21.7225 486.992 29.6571 476.961 39.688C466.929 49.7197 458.952 61.6761 453.018 75.5218L453.015 75.5305C447.149 89.3366 444.217 103.825 444.217 118.972C444.217 134.118 447.149 148.648 453.012 162.538L453.016 162.549L453.021 162.56C458.956 176.317 466.933 188.227 476.961 198.255C486.99 208.284 498.899 216.261 512.657 222.195L512.668 222.2L512.678 222.205C526.568 228.067 541.098 231 556.245 231C575.083 231 592.692 226.578 609.027 217.734Z" fill="url(#paint64_linear)"/>
<path d="M732.399 12.9436H735.88V225H732.399V12.9436Z" fill="url(#paint65_linear)"/>
<path d="M713.438 12.9436H716.919V225H713.438V12.9436Z" fill="url(#paint66_linear)"/>
<path d="M694.477 12.9436H697.957V225H694.477V12.9436Z" fill="url(#paint67_linear)"/>
<path d="M675.515 12.9436H678.996V225H675.515V12.9436Z" fill="url(#paint68_linear)"/>
<path d="M847.382 14.5525L930.535 225H934.223L850.476 12.9436H844.286L760.411 225H764.229L847.382 14.5525Z" fill="url(#paint69_linear)"/>
<path d="M893.634 161.005H862.49L863.892 157.524H892.233L893.634 161.005Z" fill="url(#paint70_linear)"/>
<path d="M901.156 179.966H855.059L856.413 176.486H899.658L901.156 179.966Z" fill="url(#paint71_linear)"/>
<path d="M908.588 198.928H847.685L849.039 195.447H907.138L908.588 198.928Z" fill="url(#paint72_linear)"/>
<path d="M780.818 225L848.734 52.9783L850.712 57.417L784.507 225H780.818Z" fill="url(#paint73_linear)"/>
<path d="M801.228 225L859.061 78.5205L860.886 83.2732L805.046 225H801.228Z" fill="url(#paint74_linear)"/>
<path d="M821.634 225L869.044 104.671L870.897 109.597L825.326 225H821.634Z" fill="url(#paint75_linear)"/>
<path d="M911.575 12.9436L995.45 225H991.633L907.886 12.9436H911.575Z" fill="url(#paint76_linear)"/>
<path d="M891.165 12.9436L975.04 225H971.354L887.479 12.9436H891.165Z" fill="url(#paint77_linear)"/>
<path d="M954.63 225L870.756 12.9436H867.066L950.813 225H954.63Z" fill="url(#paint78_linear)"/>
<path d="M1079.82 221.519H1155.66V225H1076.34V12.9436H1079.82V183.596H1155.66V187.077H1079.82V202.558H1155.66V206.038H1079.82V221.519Z" fill="url(#paint79_linear)"/>
<path d="M1019.45 12.9436H1022.93V225H1019.45V12.9436Z" fill="url(#paint80_linear)"/>
<path d="M1057.38 12.9436H1060.86V225H1057.38V12.9436Z" fill="url(#paint81_linear)"/>
<path d="M1038.42 12.9436H1041.9V225H1038.42V12.9436Z" fill="url(#paint82_linear)"/>
</g>
<defs>
<linearGradient id="paint0_linear" x1="1027.75" y1="-2.77306" x2="1032.54" y2="196.143" gradientUnits="userSpaceOnUse">
<stop stop-color="#00FF15"/>
<stop offset="0.610709" stop-color="#B1FF00"/>
<stop offset="0.976403" stop-color="#FFFEFD"/>
</linearGradient>
<linearGradient id="paint1_linear" x1="1027.75" y1="-2.77306" x2="1032.54" y2="196.143" gradientUnits="userSpaceOnUse">
<stop stop-color="#00FF15"/>
<stop offset="0.610709" stop-color="#B1FF00"/>
<stop offset="0.976403" stop-color="#FFFEFD"/>
</linearGradient>
<linearGradient id="paint2_linear" x1="1027.75" y1="-2.77306" x2="1032.54" y2="196.143" gradientUnits="userSpaceOnUse">
<stop stop-color="#00FF15"/>
<stop offset="0.610709" stop-color="#B1FF00"/>
<stop offset="0.976403" stop-color="#FFFEFD"/>
</linearGradient>
<linearGradient id="paint3_linear" x1="1027.75" y1="-2.77306" x2="1032.54" y2="196.143" gradientUnits="userSpaceOnUse">
<stop stop-color="#00FF15"/>
<stop offset="0.610709" stop-color="#B1FF00"/>
<stop offset="0.976403" stop-color="#FFFEFD"/>
</linearGradient>
<linearGradient id="paint4_linear" x1="1027.75" y1="-2.77306" x2="1032.54" y2="196.143" gradientUnits="userSpaceOnUse">
<stop stop-color="#00FF15"/>
<stop offset="0.610709" stop-color="#B1FF00"/>
<stop offset="0.976403" stop-color="#FFFEFD"/>
</linearGradient>
<linearGradient id="paint5_linear" x1="1027.75" y1="-2.77306" x2="1032.54" y2="196.143" gradientUnits="userSpaceOnUse">
<stop stop-color="#00FF15"/>
<stop offset="0.610709" stop-color="#B1FF00"/>
<stop offset="0.976403" stop-color="#FFFEFD"/>
</linearGradient>
<linearGradient id="paint6_linear" x1="1027.75" y1="-2.77306" x2="1032.54" y2="196.143" gradientUnits="userSpaceOnUse">
<stop stop-color="#00FF15"/>
<stop offset="0.610709" stop-color="#B1FF00"/>
<stop offset="0.976403" stop-color="#FFFEFD"/>
</linearGradient>
<linearGradient id="paint7_linear" x1="1027.75" y1="-2.77306" x2="1032.54" y2="196.143" gradientUnits="userSpaceOnUse">
<stop stop-color="#00FF15"/>
<stop offset="0.610709" stop-color="#B1FF00"/>
<stop offset="0.976403" stop-color="#FFFEFD"/>
</linearGradient>
<linearGradient id="paint8_linear" x1="1027.75" y1="-2.77306" x2="1032.54" y2="196.143" gradientUnits="userSpaceOnUse">
<stop stop-color="#00FF15"/>
<stop offset="0.610709" stop-color="#B1FF00"/>
<stop offset="0.976403" stop-color="#FFFEFD"/>
</linearGradient>
<linearGradient id="paint9_linear" x1="1027.75" y1="-2.77306" x2="1032.54" y2="196.143" gradientUnits="userSpaceOnUse">
<stop stop-color="#00FF15"/>
<stop offset="0.610709" stop-color="#B1FF00"/>
<stop offset="0.976403" stop-color="#FFFEFD"/>
</linearGradient>
<linearGradient id="paint10_linear" x1="1027.75" y1="-2.77306" x2="1032.54" y2="196.143" gradientUnits="userSpaceOnUse">
<stop stop-color="#00FF15"/>
<stop offset="0.610709" stop-color="#B1FF00"/>
<stop offset="0.976403" stop-color="#FFFEFD"/>
</linearGradient>
<linearGradient id="paint11_linear" x1="1027.75" y1="-2.77306" x2="1032.54" y2="196.143" gradientUnits="userSpaceOnUse">
<stop stop-color="#00FF15"/>
<stop offset="0.610709" stop-color="#B1FF00"/>
<stop offset="0.976403" stop-color="#FFFEFD"/>
</linearGradient>
<linearGradient id="paint12_linear" x1="1027.75" y1="-2.77306" x2="1032.54" y2="196.143" gradientUnits="userSpaceOnUse">
<stop stop-color="#00FF15"/>
<stop offset="0.610709" stop-color="#B1FF00"/>
<stop offset="0.976403" stop-color="#FFFEFD"/>
</linearGradient>
<linearGradient id="paint13_linear" x1="1027.75" y1="-2.77306" x2="1032.54" y2="196.143" gradientUnits="userSpaceOnUse">
<stop stop-color="#00FF15"/>
<stop offset="0.610709" stop-color="#B1FF00"/>
<stop offset="0.976403" stop-color="#FFFEFD"/>
</linearGradient>
<linearGradient id="paint14_linear" x1="1027.75" y1="-2.77306" x2="1032.54" y2="196.143" gradientUnits="userSpaceOnUse">
<stop stop-color="#00FF15"/>
<stop offset="0.610709" stop-color="#B1FF00"/>
<stop offset="0.976403" stop-color="#FFFEFD"/>
</linearGradient>
<linearGradient id="paint15_linear" x1="1027.75" y1="-2.77306" x2="1032.54" y2="196.143" gradientUnits="userSpaceOnUse">
<stop stop-color="#00FF15"/>
<stop offset="0.610709" stop-color="#B1FF00"/>
<stop offset="0.976403" stop-color="#FFFEFD"/>
</linearGradient>
<linearGradient id="paint16_linear" x1="1027.75" y1="-2.77306" x2="1032.54" y2="196.143" gradientUnits="userSpaceOnUse">
<stop stop-color="#00FF15"/>
<stop offset="0.610709" stop-color="#B1FF00"/>
<stop offset="0.976403" stop-color="#FFFEFD"/>
</linearGradient>
<linearGradient id="paint17_linear" x1="1027.75" y1="-2.77306" x2="1032.54" y2="196.143" gradientUnits="userSpaceOnUse">
<stop stop-color="#00FF15"/>
<stop offset="0.610709" stop-color="#B1FF00"/>
<stop offset="0.976403" stop-color="#FFFEFD"/>
</linearGradient>
<linearGradient id="paint18_linear" x1="1027.75" y1="-2.77306" x2="1032.54" y2="196.143" gradientUnits="userSpaceOnUse">
<stop stop-color="#00FF15"/>
<stop offset="0.610709" stop-color="#B1FF00"/>
<stop offset="0.976403" stop-color="#FFFEFD"/>
</linearGradient>
<linearGradient id="paint19_linear" x1="1027.75" y1="-2.77306" x2="1032.54" y2="196.143" gradientUnits="userSpaceOnUse">
<stop stop-color="#00FF15"/>
<stop offset="0.610709" stop-color="#B1FF00"/>
<stop offset="0.976403" stop-color="#FFFEFD"/>
</linearGradient>
<linearGradient id="paint20_linear" x1="1027.75" y1="-2.77306" x2="1032.54" y2="196.143" gradientUnits="userSpaceOnUse">
<stop stop-color="#00FF15"/>
<stop offset="0.610709" stop-color="#B1FF00"/>
<stop offset="0.976403" stop-color="#FFFEFD"/>
</linearGradient>
<linearGradient id="paint21_linear" x1="1027.75" y1="-2.77306" x2="1032.54" y2="196.143" gradientUnits="userSpaceOnUse">
<stop stop-color="#00FF15"/>
<stop offset="0.610709" stop-color="#B1FF00"/>
<stop offset="0.976403" stop-color="#FFFEFD"/>
</linearGradient>
<linearGradient id="paint22_linear" x1="1027.75" y1="-2.77306" x2="1032.54" y2="196.143" gradientUnits="userSpaceOnUse">
<stop stop-color="#00FF15"/>
<stop offset="0.610709" stop-color="#B1FF00"/>
<stop offset="0.976403" stop-color="#FFFEFD"/>
</linearGradient>
<linearGradient id="paint23_linear" x1="1027.75" y1="-2.77306" x2="1032.54" y2="196.143" gradientUnits="userSpaceOnUse">
<stop stop-color="#00FF15"/>
<stop offset="0.610709" stop-color="#B1FF00"/>
<stop offset="0.976403" stop-color="#FFFEFD"/>
</linearGradient>
<linearGradient id="paint24_linear" x1="1027.75" y1="-2.77306" x2="1032.54" y2="196.143" gradientUnits="userSpaceOnUse">
<stop stop-color="#00FF15"/>
<stop offset="0.610709" stop-color="#B1FF00"/>
<stop offset="0.976403" stop-color="#FFFEFD"/>
</linearGradient>
<linearGradient id="paint25_linear" x1="1027.75" y1="-2.77306" x2="1032.54" y2="196.143" gradientUnits="userSpaceOnUse">
<stop stop-color="#00FF15"/>
<stop offset="0.610709" stop-color="#B1FF00"/>
<stop offset="0.976403" stop-color="#FFFEFD"/>
</linearGradient>
<linearGradient id="paint26_linear" x1="1027.75" y1="-2.77306" x2="1032.54" y2="196.143" gradientUnits="userSpaceOnUse">
<stop stop-color="#00FF15"/>
<stop offset="0.610709" stop-color="#B1FF00"/>
<stop offset="0.976403" stop-color="#FFFEFD"/>
</linearGradient>
<linearGradient id="paint27_linear" x1="1027.75" y1="-2.77306" x2="1032.54" y2="196.143" gradientUnits="userSpaceOnUse">
<stop stop-color="#00FF15"/>
<stop offset="0.610709" stop-color="#B1FF00"/>
<stop offset="0.976403" stop-color="#FFFEFD"/>
</linearGradient>
<linearGradient id="paint28_linear" x1="1027.75" y1="-2.77306" x2="1032.54" y2="196.143" gradientUnits="userSpaceOnUse">
<stop stop-color="#00FF15"/>
<stop offset="0.610709" stop-color="#B1FF00"/>
<stop offset="0.976403" stop-color="#FFFEFD"/>
</linearGradient>
<linearGradient id="paint29_linear" x1="1027.75" y1="-2.77306" x2="1032.54" y2="196.143" gradientUnits="userSpaceOnUse">
<stop stop-color="#00FF15"/>
<stop offset="0.610709" stop-color="#B1FF00"/>
<stop offset="0.976403" stop-color="#FFFEFD"/>
</linearGradient>
<linearGradient id="paint30_linear" x1="1027.75" y1="-2.77306" x2="1032.54" y2="196.143" gradientUnits="userSpaceOnUse">
<stop stop-color="#00FF15"/>
<stop offset="0.610709" stop-color="#B1FF00"/>
<stop offset="0.976403" stop-color="#FFFEFD"/>
</linearGradient>
<linearGradient id="paint31_linear" x1="1027.75" y1="-2.77306" x2="1032.54" y2="196.143" gradientUnits="userSpaceOnUse">
<stop stop-color="#00FF15"/>
<stop offset="0.610709" stop-color="#B1FF00"/>
<stop offset="0.976403" stop-color="#FFFEFD"/>
</linearGradient>
<linearGradient id="paint32_linear" x1="1027.75" y1="-2.77306" x2="1032.54" y2="196.143" gradientUnits="userSpaceOnUse">
<stop stop-color="#00FF15"/>
<stop offset="0.610709" stop-color="#B1FF00"/>
<stop offset="0.976403" stop-color="#FFFEFD"/>
</linearGradient>
<linearGradient id="paint33_linear" x1="1027.75" y1="-2.77306" x2="1032.54" y2="196.143" gradientUnits="userSpaceOnUse">
<stop stop-color="#00FF15"/>
<stop offset="0.610709" stop-color="#B1FF00"/>
<stop offset="0.976403" stop-color="#FFFEFD"/>
</linearGradient>
<linearGradient id="paint34_linear" x1="1027.75" y1="-2.77306" x2="1032.54" y2="196.143" gradientUnits="userSpaceOnUse">
<stop stop-color="#00FF15"/>
<stop offset="0.610709" stop-color="#B1FF00"/>
<stop offset="0.976403" stop-color="#FFFEFD"/>
</linearGradient>
<linearGradient id="paint35_linear" x1="1027.75" y1="-2.77306" x2="1032.54" y2="196.143" gradientUnits="userSpaceOnUse">
<stop stop-color="#00FF15"/>
<stop offset="0.610709" stop-color="#B1FF00"/>
<stop offset="0.976403" stop-color="#FFFEFD"/>
</linearGradient>
<linearGradient id="paint36_linear" x1="1027.75" y1="-2.77306" x2="1032.54" y2="196.143" gradientUnits="userSpaceOnUse">
<stop stop-color="#00FF15"/>
<stop offset="0.610709" stop-color="#B1FF00"/>
<stop offset="0.976403" stop-color="#FFFEFD"/>
</linearGradient>
<linearGradient id="paint37_linear" x1="1027.75" y1="-2.77306" x2="1032.54" y2="196.143" gradientUnits="userSpaceOnUse">
<stop stop-color="#00FF15"/>
<stop offset="0.610709" stop-color="#B1FF00"/>
<stop offset="0.976403" stop-color="#FFFEFD"/>
</linearGradient>
<linearGradient id="paint38_linear" x1="1027.75" y1="-2.77306" x2="1032.54" y2="196.143" gradientUnits="userSpaceOnUse">
<stop stop-color="#00FF15"/>
<stop offset="0.610709" stop-color="#B1FF00"/>
<stop offset="0.976403" stop-color="#FFFEFD"/>
</linearGradient>
<linearGradient id="paint39_linear" x1="1027.75" y1="-2.77306" x2="1032.54" y2="196.143" gradientUnits="userSpaceOnUse">
<stop stop-color="#00FF15"/>
<stop offset="0.610709" stop-color="#B1FF00"/>
<stop offset="0.976403" stop-color="#FFFEFD"/>
</linearGradient>
<linearGradient id="paint40_linear" x1="1027.75" y1="-2.77306" x2="1032.54" y2="196.143" gradientUnits="userSpaceOnUse">
<stop stop-color="#00FF15"/>
<stop offset="0.610709" stop-color="#B1FF00"/>
<stop offset="0.976403" stop-color="#FFFEFD"/>
</linearGradient>
<linearGradient id="paint41_linear" x1="1027.75" y1="-2.77306" x2="1032.54" y2="196.143" gradientUnits="userSpaceOnUse">
<stop stop-color="#00FF15"/>
<stop offset="0.610709" stop-color="#B1FF00"/>
<stop offset="0.976403" stop-color="#FFFEFD"/>
</linearGradient>
<linearGradient id="paint42_linear" x1="1027.75" y1="-2.77306" x2="1032.54" y2="196.143" gradientUnits="userSpaceOnUse">
<stop stop-color="#00FF15"/>
<stop offset="0.610709" stop-color="#B1FF00"/>
<stop offset="0.976403" stop-color="#FFFEFD"/>
</linearGradient>
<linearGradient id="paint43_linear" x1="1027.75" y1="-2.77306" x2="1032.54" y2="196.143" gradientUnits="userSpaceOnUse">
<stop stop-color="#00FF15"/>
<stop offset="0.610709" stop-color="#B1FF00"/>
<stop offset="0.976403" stop-color="#FFFEFD"/>
</linearGradient>
<linearGradient id="paint44_linear" x1="1027.75" y1="-2.77306" x2="1032.54" y2="196.143" gradientUnits="userSpaceOnUse">
<stop stop-color="#00FF15"/>
<stop offset="0.610709" stop-color="#B1FF00"/>
<stop offset="0.976403" stop-color="#FFFEFD"/>
</linearGradient>
<linearGradient id="paint45_linear" x1="1027.75" y1="-2.77306" x2="1032.54" y2="196.143" gradientUnits="userSpaceOnUse">
<stop stop-color="#00FF15"/>
<stop offset="0.610709" stop-color="#B1FF00"/>
<stop offset="0.976403" stop-color="#FFFEFD"/>
</linearGradient>
<linearGradient id="paint46_linear" x1="1027.75" y1="-2.77306" x2="1032.54" y2="196.143" gradientUnits="userSpaceOnUse">
<stop stop-color="#00FF15"/>
<stop offset="0.610709" stop-color="#B1FF00"/>
<stop offset="0.976403" stop-color="#FFFEFD"/>
</linearGradient>
<linearGradient id="paint47_linear" x1="1027.75" y1="-2.77306" x2="1032.54" y2="196.143" gradientUnits="userSpaceOnUse">
<stop stop-color="#00FF15"/>
<stop offset="0.610709" stop-color="#B1FF00"/>
<stop offset="0.976403" stop-color="#FFFEFD"/>
</linearGradient>
<linearGradient id="paint48_linear" x1="1027.75" y1="-2.77306" x2="1032.54" y2="196.143" gradientUnits="userSpaceOnUse">
<stop stop-color="#00FF15"/>
<stop offset="0.610709" stop-color="#B1FF00"/>
<stop offset="0.976403" stop-color="#FFFEFD"/>
</linearGradient>
<linearGradient id="paint49_linear" x1="1027.75" y1="-2.77306" x2="1032.54" y2="196.143" gradientUnits="userSpaceOnUse">
<stop stop-color="#00FF15"/>
<stop offset="0.610709" stop-color="#B1FF00"/>
<stop offset="0.976403" stop-color="#FFFEFD"/>
</linearGradient>
<linearGradient id="paint50_linear" x1="1027.75" y1="-2.77306" x2="1032.54" y2="196.143" gradientUnits="userSpaceOnUse">
<stop stop-color="#00FF15"/>
<stop offset="0.610709" stop-color="#B1FF00"/>
<stop offset="0.976403" stop-color="#FFFEFD"/>
</linearGradient>
<linearGradient id="paint51_linear" x1="1027.75" y1="-2.77306" x2="1032.54" y2="196.143" gradientUnits="userSpaceOnUse">
<stop stop-color="#00FF15"/>
<stop offset="0.610709" stop-color="#B1FF00"/>
<stop offset="0.976403" stop-color="#FFFEFD"/>
</linearGradient>
<linearGradient id="paint52_linear" x1="1027.75" y1="-2.77306" x2="1032.54" y2="196.143" gradientUnits="userSpaceOnUse">
<stop stop-color="#00FF15"/>
<stop offset="0.610709" stop-color="#B1FF00"/>
<stop offset="0.976403" stop-color="#FFFEFD"/>
</linearGradient>
<linearGradient id="paint53_linear" x1="1027.75" y1="-2.77306" x2="1032.54" y2="196.143" gradientUnits="userSpaceOnUse">
<stop stop-color="#00FF15"/>
<stop offset="0.610709" stop-color="#B1FF00"/>
<stop offset="0.976403" stop-color="#FFFEFD"/>
</linearGradient>
<linearGradient id="paint54_linear" x1="1027.75" y1="-2.77306" x2="1032.54" y2="196.143" gradientUnits="userSpaceOnUse">
<stop stop-color="#00FF15"/>
<stop offset="0.610709" stop-color="#B1FF00"/>
<stop offset="0.976403" stop-color="#FFFEFD"/>
</linearGradient>
<linearGradient id="paint55_linear" x1="1027.75" y1="-2.77306" x2="1032.54" y2="196.143" gradientUnits="userSpaceOnUse">
<stop stop-color="#00FF15"/>
<stop offset="0.610709" stop-color="#B1FF00"/>
<stop offset="0.976403" stop-color="#FFFEFD"/>
</linearGradient>
<linearGradient id="paint56_linear" x1="1027.75" y1="-2.77306" x2="1032.54" y2="196.143" gradientUnits="userSpaceOnUse">
<stop stop-color="#00FF15"/>
<stop offset="0.610709" stop-color="#B1FF00"/>
<stop offset="0.976403" stop-color="#FFFEFD"/>
</linearGradient>
<linearGradient id="paint57_linear" x1="1027.75" y1="-2.77306" x2="1032.54" y2="196.143" gradientUnits="userSpaceOnUse">
<stop stop-color="#00FF15"/>
<stop offset="0.610709" stop-color="#B1FF00"/>
<stop offset="0.976403" stop-color="#FFFEFD"/>
</linearGradient>
<linearGradient id="paint58_linear" x1="1027.75" y1="-2.77306" x2="1032.54" y2="196.143" gradientUnits="userSpaceOnUse">
<stop stop-color="#00FF15"/>
<stop offset="0.610709" stop-color="#B1FF00"/>
<stop offset="0.976403" stop-color="#FFFEFD"/>
</linearGradient>
<linearGradient id="paint59_linear" x1="1027.75" y1="-2.77306" x2="1032.54" y2="196.143" gradientUnits="userSpaceOnUse">
<stop stop-color="#00FF15"/>
<stop offset="0.610709" stop-color="#B1FF00"/>
<stop offset="0.976403" stop-color="#FFFEFD"/>
</linearGradient>
<linearGradient id="paint60_linear" x1="1027.75" y1="-2.77306" x2="1032.54" y2="196.143" gradientUnits="userSpaceOnUse">
<stop stop-color="#00FF15"/>
<stop offset="0.610709" stop-color="#B1FF00"/>
<stop offset="0.976403" stop-color="#FFFEFD"/>
</linearGradient>
<linearGradient id="paint61_linear" x1="1027.75" y1="-2.77306" x2="1032.54" y2="196.143" gradientUnits="userSpaceOnUse">
<stop stop-color="#00FF15"/>
<stop offset="0.610709" stop-color="#B1FF00"/>
<stop offset="0.976403" stop-color="#FFFEFD"/>
</linearGradient>
<linearGradient id="paint62_linear" x1="1027.75" y1="-2.77306" x2="1032.54" y2="196.143" gradientUnits="userSpaceOnUse">
<stop stop-color="#00FF15"/>
<stop offset="0.610709" stop-color="#B1FF00"/>
<stop offset="0.976403" stop-color="#FFFEFD"/>
</linearGradient>
<linearGradient id="paint63_linear" x1="1027.75" y1="-2.77306" x2="1032.54" y2="196.143" gradientUnits="userSpaceOnUse">
<stop stop-color="#00FF15"/>
<stop offset="0.610709" stop-color="#B1FF00"/>
<stop offset="0.976403" stop-color="#FFFEFD"/>
</linearGradient>
<linearGradient id="paint64_linear" x1="1027.75" y1="-2.77306" x2="1032.54" y2="196.143" gradientUnits="userSpaceOnUse">
<stop stop-color="#00FF15"/>
<stop offset="0.610709" stop-color="#B1FF00"/>
<stop offset="0.976403" stop-color="#FFFEFD"/>
</linearGradient>
<linearGradient id="paint65_linear" x1="1027.75" y1="-2.77306" x2="1032.54" y2="196.143" gradientUnits="userSpaceOnUse">
<stop stop-color="#00FF15"/>
<stop offset="0.610709" stop-color="#B1FF00"/>
<stop offset="0.976403" stop-color="#FFFEFD"/>
</linearGradient>
<linearGradient id="paint66_linear" x1="1027.75" y1="-2.77306" x2="1032.54" y2="196.143" gradientUnits="userSpaceOnUse">
<stop stop-color="#00FF15"/>
<stop offset="0.610709" stop-color="#B1FF00"/>
<stop offset="0.976403" stop-color="#FFFEFD"/>
</linearGradient>
<linearGradient id="paint67_linear" x1="1027.75" y1="-2.77306" x2="1032.54" y2="196.143" gradientUnits="userSpaceOnUse">
<stop stop-color="#00FF15"/>
<stop offset="0.610709" stop-color="#B1FF00"/>
<stop offset="0.976403" stop-color="#FFFEFD"/>
</linearGradient>
<linearGradient id="paint68_linear" x1="1027.75" y1="-2.77306" x2="1032.54" y2="196.143" gradientUnits="userSpaceOnUse">
<stop stop-color="#00FF15"/>
<stop offset="0.610709" stop-color="#B1FF00"/>
<stop offset="0.976403" stop-color="#FFFEFD"/>
</linearGradient>
<linearGradient id="paint69_linear" x1="1027.75" y1="-2.77306" x2="1032.54" y2="196.143" gradientUnits="userSpaceOnUse">
<stop stop-color="#00FF15"/>
<stop offset="0.610709" stop-color="#B1FF00"/>
<stop offset="0.976403" stop-color="#FFFEFD"/>
</linearGradient>
<linearGradient id="paint70_linear" x1="1027.75" y1="-2.77306" x2="1032.54" y2="196.143" gradientUnits="userSpaceOnUse">
<stop stop-color="#00FF15"/>
<stop offset="0.610709" stop-color="#B1FF00"/>
<stop offset="0.976403" stop-color="#FFFEFD"/>
</linearGradient>
<linearGradient id="paint71_linear" x1="1027.75" y1="-2.77306" x2="1032.54" y2="196.143" gradientUnits="userSpaceOnUse">
<stop stop-color="#00FF15"/>
<stop offset="0.610709" stop-color="#B1FF00"/>
<stop offset="0.976403" stop-color="#FFFEFD"/>
</linearGradient>
<linearGradient id="paint72_linear" x1="1027.75" y1="-2.77306" x2="1032.54" y2="196.143" gradientUnits="userSpaceOnUse">
<stop stop-color="#00FF15"/>
<stop offset="0.610709" stop-color="#B1FF00"/>
<stop offset="0.976403" stop-color="#FFFEFD"/>
</linearGradient>
<linearGradient id="paint73_linear" x1="1027.75" y1="-2.77306" x2="1032.54" y2="196.143" gradientUnits="userSpaceOnUse">
<stop stop-color="#00FF15"/>
<stop offset="0.610709" stop-color="#B1FF00"/>
<stop offset="0.976403" stop-color="#FFFEFD"/>
</linearGradient>
<linearGradient id="paint74_linear" x1="1027.75" y1="-2.77306" x2="1032.54" y2="196.143" gradientUnits="userSpaceOnUse">
<stop stop-color="#00FF15"/>
<stop offset="0.610709" stop-color="#B1FF00"/>
<stop offset="0.976403" stop-color="#FFFEFD"/>
</linearGradient>
<linearGradient id="paint75_linear" x1="1027.75" y1="-2.77306" x2="1032.54" y2="196.143" gradientUnits="userSpaceOnUse">
<stop stop-color="#00FF15"/>
<stop offset="0.610709" stop-color="#B1FF00"/>
<stop offset="0.976403" stop-color="#FFFEFD"/>
</linearGradient>
<linearGradient id="paint76_linear" x1="1027.75" y1="-2.77306" x2="1032.54" y2="196.143" gradientUnits="userSpaceOnUse">
<stop stop-color="#00FF15"/>
<stop offset="0.610709" stop-color="#B1FF00"/>
<stop offset="0.976403" stop-color="#FFFEFD"/>
</linearGradient>
<linearGradient id="paint77_linear" x1="1027.75" y1="-2.77306" x2="1032.54" y2="196.143" gradientUnits="userSpaceOnUse">
<stop stop-color="#00FF15"/>
<stop offset="0.610709" stop-color="#B1FF00"/>
<stop offset="0.976403" stop-color="#FFFEFD"/>
</linearGradient>
<linearGradient id="paint78_linear" x1="1027.75" y1="-2.77306" x2="1032.54" y2="196.143" gradientUnits="userSpaceOnUse">
<stop stop-color="#00FF15"/>
<stop offset="0.610709" stop-color="#B1FF00"/>
<stop offset="0.976403" stop-color="#FFFEFD"/>
</linearGradient>
<linearGradient id="paint79_linear" x1="1027.75" y1="-2.77306" x2="1032.54" y2="196.143" gradientUnits="userSpaceOnUse">
<stop stop-color="#00FF15"/>
<stop offset="0.610709" stop-color="#B1FF00"/>
<stop offset="0.976403" stop-color="#FFFEFD"/>
</linearGradient>
<linearGradient id="paint80_linear" x1="1027.75" y1="-2.77306" x2="1032.54" y2="196.143" gradientUnits="userSpaceOnUse">
<stop stop-color="#00FF15"/>
<stop offset="0.610709" stop-color="#B1FF00"/>
<stop offset="0.976403" stop-color="#FFFEFD"/>
</linearGradient>
<linearGradient id="paint81_linear" x1="1027.75" y1="-2.77306" x2="1032.54" y2="196.143" gradientUnits="userSpaceOnUse">
<stop stop-color="#00FF15"/>
<stop offset="0.610709" stop-color="#B1FF00"/>
<stop offset="0.976403" stop-color="#FFFEFD"/>
</linearGradient>
<linearGradient id="paint82_linear" x1="1027.75" y1="-2.77306" x2="1032.54" y2="196.143" gradientUnits="userSpaceOnUse">
<stop stop-color="#00FF15"/>
<stop offset="0.610709" stop-color="#B1FF00"/>
<stop offset="0.976403" stop-color="#FFFEFD"/>
</linearGradient>
</defs>
</svg>
