<svg width="23" height="23" viewBox="0 0 23 23" fill="none" xmlns="http://www.w3.org/2000/svg">
<path d="M14.8186 15.8068L8.74861 12.7718M8.73999 10.3068L14.8157 7.2689M20.0293 17.0371C20.0293 18.5559 18.7981 19.7871 17.2793 19.7871C15.7605 19.7871 14.5293 18.5559 14.5293 17.0371C14.5293 15.5183 15.7605 14.2871 17.2793 14.2871C18.7981 14.2871 20.0293 15.5183 20.0293 17.0371ZM20.0293 6.03711C20.0293 7.55589 18.7981 8.78711 17.2793 8.78711C15.7605 8.78711 14.5293 7.55589 14.5293 6.03711C14.5293 4.51833 15.7605 3.28711 17.2793 3.28711C18.7981 3.28711 20.0293 4.51833 20.0293 6.03711ZM9.0293 11.5371C9.0293 13.0559 7.79808 14.2871 6.2793 14.2871C4.76051 14.2871 3.5293 13.0559 3.5293 11.5371C3.5293 10.0183 4.76051 8.78711 6.2793 8.78711C7.79808 8.78711 9.0293 10.0183 9.0293 11.5371Z" fill="white" stroke="white" strokeWidth="1.5"/>
</svg>
